<svg xmlns="http://www.w3.org/2000/svg" width="405.824" height="94.719" viewBox="0 0 405.824 94.719">
  <g id="otsumami-read" transform="translate(-895.453 -1335.179)">
    <g id="グループ_97" data-name="グループ 97">
      <path id="パス_365" data-name="パス 365" d="M1215.111,1377.657a2.291,2.291,0,0,1-2.124-.891c-.526-.884-.087-2.182,1.27-3.755a22.208,22.208,0,0,1,5.333-4.266c4.071-2.424,9.03-3.946,10.2-1.982h0c1.167,1.962-2.531,5.6-6.6,8.02a22.223,22.223,0,0,1-6.292,2.655A8.491,8.491,0,0,1,1215.111,1377.657Zm12.553-11.029c-1.679,0-4.529.89-7.685,2.769a21.412,21.412,0,0,0-5.148,4.11c-1.074,1.246-1.52,2.319-1.191,2.87s1.483.671,3.09.32a21.416,21.416,0,0,0,6.066-2.566c4.566-2.717,7.006-5.86,6.34-6.98h0C1228.93,1366.806,1228.414,1366.628,1227.664,1366.628Z" fill="#f7eddc"/>
      <path id="パス_366" data-name="パス 366" d="M1236.953,1417.031a1.418,1.418,0,0,1-1.324-.55c-.951-1.595,3.4-4.961,6.34-6.848l-9.231-15.5c-4.528.556-9.361-2.24-14-8.125a53.127,53.127,0,0,1-5.769-9.274l.687-.318c.086.185,8.721,18.542,19.221,16.932l.253-.038,9.868,16.575-.314.2c-4.842,3.035-6.716,5.493-6.4,6.016.113.19.865.38,2.888-.27a37,37,0,0,0,11.947-7.113c1.538-1.469,1.729-2.219,1.614-2.41-.336-.569-3.364.019-7.959,2.552l-.322.177-9.786-16.438.186-.208c2.056-2.3,5.618-9.365-5.7-25.205l.618-.442c11.312,15.839,8.019,23.3,5.827,25.941l9.129,15.335c3.533-1.906,7.8-3.539,8.656-2.1.424.712-.162,1.838-1.742,3.348a37.724,37.724,0,0,1-12.24,7.286A8.442,8.442,0,0,1,1236.953,1417.031Z" fill="#f7eddc"/>
      <path id="パス_367" data-name="パス 367" d="M1218.418,1384.891l-.518-.555c.19-.177,4.672-4.331,8.233-4.879,3.309-.51,7.507-5.144,7.549-5.191l.564.507c-.179.2-4.42,4.882-8,5.434C1222.92,1380.719,1218.463,1384.849,1218.418,1384.891Z" fill="#f7eddc"/>
      <path id="パス_368" data-name="パス 368" d="M1224.167,1385.642l-.509.22-.108.544-.366-.416-.55.066.283-.477-.233-.5.541.121.407-.377.052.552Z" fill="#f7eddc"/>
      <path id="パス_369" data-name="パス 369" d="M1224.349,1388.935l-.056-.641-.56-.317.593-.251.129-.63.422.486.64-.072-.332.552.266.586-.627-.145Z" fill="#f7eddc"/>
      <path id="パス_370" data-name="パス 370" d="M1229.98,1382.578l.116.547.517.214-.484.28-.044.558-.416-.374-.544.13.227-.511-.292-.477.556.058Z" fill="#f7eddc"/>
      <path id="パス_371" data-name="パス 371" d="M1231.821,1386.915l-.221-.144-.244.1.068-.255-.171-.2.264-.014.138-.225.095.246.257.062-.2.166Z" fill="#f7eddc"/>
      <circle id="楕円形_418" data-name="楕円形 418" cx="0.174" cy="0.174" r="0.174" transform="translate(1228.008 1389.919)" fill="#f7eddc"/>
      <circle id="楕円形_419" data-name="楕円形 419" cx="0.157" cy="0.157" r="0.157" transform="translate(1227.039 1387.632)" fill="#f7eddc"/>
      <circle id="楕円形_420" data-name="楕円形 420" cx="0.331" cy="0.331" r="0.331" transform="translate(1224.052 1383.073)" fill="#f7eddc"/>
      <circle id="楕円形_421" data-name="楕円形 421" cx="0.274" cy="0.274" r="0.274" transform="translate(1228.957 1384.73)" fill="#f7eddc"/>
      <circle id="楕円形_422" data-name="楕円形 422" cx="0.248" cy="0.248" r="0.248" transform="translate(1231.643 1391.075)" fill="#f7eddc"/>
    </g>
    <g id="グループ_98" data-name="グループ 98">
      <rect id="長方形_93" data-name="長方形 93" width="6.285" height="3.1" transform="translate(1293.317 1352.754) rotate(21.683)" fill="#f7eddc"/>
      <rect id="長方形_94" data-name="長方形 94" width="19.637" height="24.655" transform="translate(1274.518 1381.488) rotate(21.683)" fill="#f7eddc"/>
      <path id="パス_372" data-name="パス 372" d="M1276.908,1429.9l-19.122-7.6,20.167-50.723a9.5,9.5,0,0,1,9.625-5.662l7.022-17.657.222.086c.767-.437,2.247-.184,3.505.315s2.512,1.336,2.766,2.181l.184.077-.135.444-6.83,17.175a8.982,8.982,0,0,1,2.964,10.141Zm-17.9-8.129,17.372,6.907,20.02-50.351c1.262-3.173.078-6.9-2.945-9.275l-.276-.218,7.021-17.656,0-.034c.012-.2-.631-.981-2.22-1.612s-2.588-.508-2.72-.352l-.028.033L1288.2,1366.9l-.348-.029c-4.061-.343-7.683,1.686-9.021,5.048Z" fill="#f7eddc"/>
    </g>
    <path id="パス_373" data-name="パス 373" d="M925.424,1418.668a21.1,21.1,0,0,1-18.171-31.821,21.1,21.1,0,1,0,27.469,29.666A21.02,21.02,0,0,1,925.424,1418.668Z" fill="#f7eddc"/>
    <path id="パス_374" data-name="パス 374" d="M932.658,1378.232a.5.5,0,0,1-.5-.5v-6.524a.5.5,0,0,1,1,0v6.524A.5.5,0,0,1,932.658,1378.232Z" fill="#f7eddc"/>
    <path id="パス_375" data-name="パス 375" d="M932.658,1388.425a.5.5,0,0,1-.5-.5V1381.4a.5.5,0,0,1,1,0v6.525A.5.5,0,0,1,932.658,1388.425Z" fill="#f7eddc"/>
    <path id="パス_376" data-name="パス 376" d="M938.7,1380.011h-4.411a.5.5,0,0,1,0-1H938.7a.5.5,0,0,1,0,1Z" fill="#f7eddc"/>
    <path id="パス_377" data-name="パス 377" d="M930.781,1380.011H926.37a.5.5,0,0,1,0-1h4.411a.5.5,0,0,1,0,1Z" fill="#f7eddc"/>
    <path id="パス_378" data-name="パス 378" d="M944.283,1395.626a.5.5,0,0,1-.5-.5v-5.139a.5.5,0,0,1,1,0v5.139A.5.5,0,0,1,944.283,1395.626Z" fill="#f7eddc"/>
    <path id="パス_379" data-name="パス 379" d="M944.283,1403.654a.5.5,0,0,1-.5-.5v-5.138a.5.5,0,0,1,1,0v5.138A.5.5,0,0,1,944.283,1403.654Z" fill="#f7eddc"/>
    <path id="パス_380" data-name="パス 380" d="M949.044,1397.027H945.57a.5.5,0,0,1,0-1h3.474a.5.5,0,0,1,0,1Z" fill="#f7eddc"/>
    <path id="パス_381" data-name="パス 381" d="M942.8,1397.027H939.33a.5.5,0,0,1,0-1H942.8a.5.5,0,0,1,0,1Z" fill="#f7eddc"/>
    <path id="パス_382" data-name="パス 382" d="M924.2,1400.911l-2.23-.586-1.247,1.94-.132-2.3-2.23-.586,2.149-.837-.132-2.3,1.46,1.785,2.149-.837-1.247,1.94Z" fill="#f7eddc"/>
    <path id="パス_383" data-name="パス 383" d="M974.048,1375.8l-2.035-1.24-1.808,1.552.55-2.318-2.035-1.24,2.375-.193.55-2.318.917,2.2,2.375-.193-1.808,1.552Z" fill="#f7eddc"/>
    <path id="パス_384" data-name="パス 384" d="M1201.226,1364.252l-1.775-1.7-2.163,1.164,1.066-2.213-1.775-1.7,2.434.329,1.066-2.213.439,2.417,2.434.329-2.163,1.164Z" fill="#f7eddc"/>
    <path id="パス_385" data-name="パス 385" d="M1253.137,1387.632l-.652-2.006h-2.109l1.706-1.24-.652-2.006,1.706,1.24,1.706-1.24-.652,2.006,1.706,1.24h-2.109Z" fill="#f7eddc"/>
    <g id="グループ_99" data-name="グループ 99">
      <path id="パス_386" data-name="パス 386" d="M1038.256,1367.009a4.143,4.143,0,0,0-.1-1h2.72a5.929,5.929,0,0,0-.079,1v2.1l4-.059a6.208,6.208,0,0,0,1-.08v1h-.061l-.259-.06c-.521-.08-.561-.08-.641-.06h-.04l-4,.06v2.24c2.9.02,4.681.34,5.98,1.1a4.465,4.465,0,0,1,2.181,4.161,4.706,4.706,0,0,1-2.921,4.5,11.678,11.678,0,0,1-3.8,1.021.4.4,0,0,0-.139.019l-.2-.76h.1a2.745,2.745,0,0,0,1.32-.219,4.508,4.508,0,0,0,2.9-4.541,4.276,4.276,0,0,0-1.4-3.621,6.22,6.22,0,0,0-3.8-1.061h-.22v7.542c0,1.561-1.061,2.28-3.341,2.28-2.941,0-4.861-1.74-4.861-4.4,0-2.961,2.1-5.1,5.661-5.762v-2.46l-4.241.079a6.391,6.391,0,0,0-1,.1v-1a5.984,5.984,0,0,0,1,.1l4.241-.08Zm0,6.162c-2.36.9-3.36,2.4-3.36,5.02,0,2.2.919,3.6,2.36,3.6.72,0,1-.4,1-1.4Zm10.262-1.8c-1.121-2.02-2.661-3.861-3.7-4.361l.741-.88a2.308,2.308,0,0,0,.6.4,19.574,19.574,0,0,1,3.961,3.061Z" fill="#f7eddc"/>
      <path id="パス_387" data-name="パス 387" d="M1058.326,1366.989a4.456,4.456,0,0,0-.1-1h2.741a5.555,5.555,0,0,0-.1,1v5.261a54.206,54.206,0,0,1,5.541-1.561,3.229,3.229,0,0,0,.761-.279l.279,1.06-.219.02a34.276,34.276,0,0,0-8.642,2.46c-2.2.981-3.2,2.1-3.2,3.562,0,1.82,1.72,2.54,6.1,2.54a41.585,41.585,0,0,0,5.8-.361v2.622c-.3,0-.381,0-.681.019h-.259l-.88.04c-1.561.061-3.062.1-4.262.1-4.881,0-7.4-1.421-7.4-4.221,0-2.181,1.381-3.741,4.521-5.081Z" fill="#f7eddc"/>
      <path id="パス_388" data-name="パス 388" d="M1071.529,1369.17a8.787,8.787,0,0,0,1.2.08h3.1c.66-1.94,1.02-3.081,1.16-3.721l2.7.86a2.452,2.452,0,0,0-.4.86l-.061.141c-.28.8-.5,1.4-.66,1.86h4.721a8.578,8.578,0,0,0,1.2-.08v.96a8.274,8.274,0,0,0-1.2-.08h-5.02a73.808,73.808,0,0,1-4.062,9.2,10.022,10.022,0,0,0-.4.92l-2.441-1.34a49.084,49.084,0,0,0,4.16-8.782h-2.8a8.66,8.66,0,0,0-1.2.08Zm15.963,2.4a8.424,8.424,0,0,0,1.2-.08v.96a8.588,8.588,0,0,0-1.2-.08h-2.3v5.081a18.291,18.291,0,0,1,2.961,1.58,5.477,5.477,0,0,0,.84.461l-1.46,2.2c-.2-.24-.219-.259-.559-.66l-.1-.1a9.111,9.111,0,0,0-1.681-1.52c-.059,2.36-1.4,3.441-4.24,3.441-2.581,0-4.161-1.221-4.161-3.241,0-1.881,1.58-3.121,4.021-3.121a12.093,12.093,0,0,1,1.86.16v-5.081Zm-4.821,6.221a5.559,5.559,0,0,0-2.28-.52,2.539,2.539,0,0,0-2.761,2.361,2.512,2.512,0,0,0,2.721,2.341,2.129,2.129,0,0,0,2.32-2.421Z" fill="#f7eddc"/>
      <path id="パス_389" data-name="パス 389" d="M1099.5,1381.832a5.535,5.535,0,0,0,2.581-.68c2.26-1.14,3.44-3.381,3.44-6.6a8.539,8.539,0,0,0-1-4.3,4.57,4.57,0,0,0-3.621-2.36c-.139,8.241-2.28,13.222-5.661,13.222-2.24,0-4-2.32-4-5.281,0-5.161,3.621-8.642,9-8.642,4.961,0,8.122,2.9,8.122,7.461s-2.64,7.122-8.061,7.823a4.494,4.494,0,0,0-.74.16l-.181-.8Zm-1.22-13.723a5.957,5.957,0,0,0-3.8,3.241,10.574,10.574,0,0,0-.84,4.5c0,2.52.72,4.461,1.66,4.461,1.541,0,2.821-4.961,2.961-11.623Z" fill="#f7eddc"/>
      <path id="パス_390" data-name="パス 390" d="M1116.6,1367.39h2.44a7.853,7.853,0,0,0,1.16-.08v.859l-.179-.02a8.726,8.726,0,0,0-.981-.04h-2.44v.72h1.7a8.283,8.283,0,0,0,1.2-.08v.881a8.283,8.283,0,0,0-1.2-.08h-2.261a4.9,4.9,0,0,1-.2.639h1.82a8.739,8.739,0,0,0,1.541-.059v.5c-.18,1.7-.42,2.08-1.24,2.08a9.7,9.7,0,0,1-2.321-.38l-.52-.059-.04-.621a7.038,7.038,0,0,0,1.1.1c.439,0,.54-.12.62-.84h-1.341a4.727,4.727,0,0,1-3.8,2.061l-.679.16-.221-.641.64-.139a3.2,3.2,0,0,0,2.221-2.8h-1.261a8.663,8.663,0,0,0-1.2.08v-.881a8.489,8.489,0,0,0,1.2.08h1.761v-.72H1111.9c-.259,0-.52,0-.7.02l-.28.02-.22.02v-.859a8.8,8.8,0,0,0,1.2.08h2.221v-.721h-1.341a8.816,8.816,0,0,0-1.2.08v-.88a8.644,8.644,0,0,0,1.2.08h1.341c-.02-.12-.02-.22-.04-.3a1.068,1.068,0,0,0-.02-.219l-.04-.281h2.68c-.059.381-.08.661-.1.8h2.08a7.377,7.377,0,0,0,1.16-.08v.88a7.532,7.532,0,0,0-1.16-.08h-2.08Zm2.36,14.222-.84.26a25.3,25.3,0,0,1-6.4,1.521l-.421.1-.319-.72.5-.1a13.5,13.5,0,0,0,4.3-2.381l.08-.1h-1.74a11.292,11.292,0,0,0-1.5.06,9.042,9.042,0,0,0,.1-1.62v-4.062a8.831,8.831,0,0,0-.1-1.58,13.6,13.6,0,0,0,1.5.061h10.8a10.645,10.645,0,0,0,1.5-.061,8.977,8.977,0,0,0-.1,1.58v4.062a9.319,9.319,0,0,0,.1,1.62,11.409,11.409,0,0,0-1.181-.06h-8.6Zm4.581-7.761H1115.5v1.3h8.042Zm0,2.06H1115.5v1.3h8.042Zm-8.042,2.061v1.42h8.042v-1.42Zm4.441-6.041a8.862,8.862,0,0,0,2.981-1.461,4.657,4.657,0,0,1-1.061-1.861c-.3.281-.519.481-.98.861l-.38.4-.62-.44.36-.361a10.952,10.952,0,0,0,1.321-3.461l.04-.54,2.74.5-.46.561c-.26.4-.38.58-.521.76h3.661a8.6,8.6,0,0,0,1.2-.079v.919a8.438,8.438,0,0,0-1.2-.08h-.12a4.642,4.642,0,0,1-1.56,2.761,10.658,10.658,0,0,0,2.4.46l.72-.02-1.12,2.18-.521-.259a9.976,9.976,0,0,1-2.82-1.381,10.737,10.737,0,0,1-3.821,1.161l-.52.119-.24-.68Zm1.781,8.4c1.84.2,3.7.481,5.341.8l.8.06-1.84,2.42-.64-.439a30.275,30.275,0,0,0-4.12-2.081l-.381-.12.32-.72Zm1.04-12.683a3.2,3.2,0,0,1-.281.321,3.8,3.8,0,0,0,1.3,1.66,4.663,4.663,0,0,0,.82-1.981Z" fill="#f7eddc"/>
      <path id="パス_391" data-name="パス 391" d="M1131,1370.63a20.282,20.282,0,0,1,3.021,1.08l.7.24-1.761,2.5-.359-.541c-.741-.96-1.441-1.76-2.081-2.44l-.44-.32.52-.72Zm4.781,4.321-.2.46a41.982,41.982,0,0,1-2.381,6.841l-.22.7-2.7-1.78.58-.5a34.447,34.447,0,0,0,4-5.581l.181-.5Zm-3.881-9.082a23.159,23.159,0,0,1,3.021,1.24l.66.241-1.82,2.379-.3-.5a24.291,24.291,0,0,0-2.081-2.58l-.38-.28.521-.7Zm13.923.52a10.787,10.787,0,0,0,1.5-.06,7.781,7.781,0,0,0-.1,1.5v4.3a7.792,7.792,0,0,0,.1,1.5,11.348,11.348,0,0,0-1.179-.061H1142.5a10.774,10.774,0,0,0,5.462,6.562l.78.3-2.081,2.76-.58-.639c-2.5-2.181-3.86-4.982-4.381-8.983h-1.98a11.965,11.965,0,0,1-4.081,9.363l-.36.46-.66-.5.4-.481c1.46-2.5,2.02-5.241,2.02-9.742v-4.841a7.941,7.941,0,0,0-.1-1.5,13.636,13.636,0,0,0,1.5.06Zm-6.081.8v5.582h4.8v-5.582Z" fill="#f7eddc"/>
      <path id="パス_392" data-name="パス 392" d="M968.575,1403.393a6.2,6.2,0,0,0-.15-1.5h4.08a8.87,8.87,0,0,0-.12,1.5v3.15l6-.09a9.143,9.143,0,0,0,1.5-.12v1.5h-.09l-.391-.09c-.779-.12-.84-.12-.96-.09h-.059l-6,.09v3.36c4.349.03,7.019.509,8.969,1.65a6.693,6.693,0,0,1,3.271,6.239,7.061,7.061,0,0,1-4.38,6.75,17.534,17.534,0,0,1-5.7,1.53.585.585,0,0,0-.21.03l-.3-1.14h.15a4.114,4.114,0,0,0,1.98-.33c2.76-.99,4.35-3.51,4.35-6.81,0-2.58-.63-4.169-2.1-5.429a9.339,9.339,0,0,0-5.7-1.59h-.33v11.31c0,2.339-1.59,3.419-5.01,3.419-4.409,0-7.289-2.61-7.289-6.6,0-4.441,3.149-7.651,8.489-8.64v-3.69l-6.359.12a9.384,9.384,0,0,0-1.5.15v-1.5a8.964,8.964,0,0,0,1.5.15l6.359-.12Zm0,9.24c-3.54,1.349-5.04,3.6-5.04,7.529,0,3.3,1.38,5.4,3.54,5.4,1.08,0,1.5-.6,1.5-2.1Zm15.39-2.7c-1.681-3.03-3.99-5.79-5.55-6.54l1.109-1.32a3.528,3.528,0,0,0,.9.6,29.37,29.37,0,0,1,5.939,4.59Z" fill="#f7eddc"/>
      <path id="パス_393" data-name="パス 393" d="M989.416,1408.013a8.027,8.027,0,0,0,1.771-.241,90.951,90.951,0,0,1,13.409-1.739c5.939,0,9.3,2.909,9.3,8.07a9.012,9.012,0,0,1-4.561,7.979c-2.85,1.86-6.959,3.03-11.879,3.33a4.817,4.817,0,0,0-1.41.21l-.24-1.32a3.167,3.167,0,0,0,.72.06,18.746,18.746,0,0,0,3.81-.63c5.939-1.5,9.09-4.8,9.09-9.54,0-4.409-2.46-6.689-7.17-6.689a64.648,64.648,0,0,0-10.05,1.41,16.388,16.388,0,0,0-2.43.66Z" fill="#f7eddc"/>
      <path id="パス_394" data-name="パス 394" d="M1030.525,1403.543a6.691,6.691,0,0,0-.15-1.5h4.26a8.48,8.48,0,0,0-.151,1.5v2.79h6.87a8.562,8.562,0,0,0,1.5-.15v1.5a6.68,6.68,0,0,0-1.5-.15h-6.87v4.079h7.111a8.5,8.5,0,0,0,1.5-.149v1.5a6.7,6.7,0,0,0-1.5-.15h-7.111v5.309a34.922,34.922,0,0,1,7.68,3.15,3.885,3.885,0,0,0,1.051.451l-2.25,3.6a32.882,32.882,0,0,0-6.481-4.679v.629c0,3.69-2.309,5.46-7.109,5.46-4.29,0-6.81-1.77-6.81-4.77,0-2.909,2.7-4.739,6.99-4.739.78,0,1.89.059,2.97.149v-4.559h-8.4a7.23,7.23,0,0,0-1.5.15v-1.5a9.087,9.087,0,0,0,1.5.149h8.4v-4.079H1022.4a5.544,5.544,0,0,0-1.5.18v-1.53a8.027,8.027,0,0,0,1.5.15h8.129Zm0,15.51a13.984,13.984,0,0,0-3.9-.6c-2.939,0-4.8,1.351-4.8,3.51,0,2.13,1.861,3.51,4.77,3.51a3.893,3.893,0,0,0,3.18-1.32,4.611,4.611,0,0,0,.75-3Z" fill="#f7eddc"/>
      <path id="パス_395" data-name="パス 395" d="M1064.956,1404.653c-1.141,3.119-2.25,5.82-3.45,8.61a35.148,35.148,0,0,1,5.729,1.979v-.149l.031-.24v-3.69a6.177,6.177,0,0,0-.09-.99l-.061-.42v-.09l3.96.3a8.477,8.477,0,0,0-.149,1.5v2.34a23.02,23.02,0,0,1-.24,3.179c1.379.781,2.07,1.2,2.729,1.651a4.59,4.59,0,0,0,1.11.6l-1.95,3.63a12.747,12.747,0,0,0-2.16-2.07l-.329-.27-.33-.3c-1.5,3.21-3.99,5.13-8.01,6.209a5.468,5.468,0,0,0-1.17.421l-.54-1.111c3.36-.48,6.18-3.57,6.93-7.649a23.008,23.008,0,0,0-6.12-3.3,62.97,62.97,0,0,1-3.69,7.26c-1.29,1.979-2.88,2.969-4.679,2.969a4.37,4.37,0,0,1-4.59-4.679,7.047,7.047,0,0,1,3.63-6.12,10.286,10.286,0,0,1,5.249-1.38h.93l.57-1.441c1.44-3.509,2.04-5.13,2.549-6.749h-6.869a13.254,13.254,0,0,0-1.8.12v-1.44a12.953,12.953,0,0,0,1.8.12h11.07Zm-8.91,9.36c-3.84,0-6.96,2.849-6.96,6.3,0,1.709.9,2.939,2.13,2.939,1.44,0,2.52-1.62,5.55-8.369l.39-.84Z" fill="#f7eddc"/>
      <path id="パス_396" data-name="パス 396" d="M1094.946,1424.212a11.608,11.608,0,0,1-5.88,1.41c-5.1,0-8.249-2.37-8.249-6.21,0-2.909,1.53-4.739,5.61-6.72l-.93-1.229c-1.38-1.8-1.86-2.97-1.86-4.38,0-2.7,2.52-4.62,6.03-4.62,3.81,0,6.09,1.59,6.09,4.26,0,2.31-1.351,3.719-5.07,5.309l6.389,8.25a9.663,9.663,0,0,0,1.92-5.639h1.29a11.9,11.9,0,0,1-2.25,6.87l2.941,3.779h-5.25Zm-7.71-10.409a5.787,5.787,0,0,0-1.859,4.769,4.776,4.776,0,0,0,4.859,5.1,9.117,9.117,0,0,0,3.691-.81Zm2.641-2.79a4.85,4.85,0,0,0,1.979-4.32c0-1.83-.87-3.03-2.16-3.03-1.229,0-2.1,1.17-2.1,2.79,0,1.23.389,2.13,1.65,3.75Z" fill="#f7eddc"/>
      <path id="パス_397" data-name="パス 397" d="M1111.21,1406.153a6.043,6.043,0,0,0-.989.09l-.42.06h-.091v-1.5a8.479,8.479,0,0,0,1.5.15h16.409a28.316,28.316,0,0,1-4.349,11.039c4.679,2.97,7.919,5.43,9.36,7.08l-3.24,3.54c-.93-2.16-4.531-6.84-7.11-9.269-3.12,4.05-7.259,6.659-13.41,8.459a4.876,4.876,0,0,0-1.41.6l-.569-1.14c2.489-.39,6.989-3.27,9.389-5.97a24.774,24.774,0,0,0,6.3-13.139Z" fill="#f7eddc"/>
      <path id="パス_398" data-name="パス 398" d="M1136.681,1415.872c2.729-.059,8.7-2.819,12.388-5.76,2.971-2.249,6.33-5.759,7.29-7.559l3.451,3.06a6.3,6.3,0,0,0-1.2,1.11,34.138,34.138,0,0,1-6.179,4.95v13.89a8.406,8.406,0,0,0,.15,1.5h-4.2a8.783,8.783,0,0,0,.149-1.5v-11.88a37.076,37.076,0,0,1-10.049,3.03,4.481,4.481,0,0,0-1.379.39Z" fill="#f7eddc"/>
      <path id="パス_399" data-name="パス 399" d="M1190.173,1415.272a7.209,7.209,0,0,0-1.38-.15h-20.909a4.963,4.963,0,0,0-1.351.15v-2.219a5.253,5.253,0,0,0,1.351.149h20.909a7.741,7.741,0,0,0,1.38-.149Z" fill="#f7eddc"/>
      <path id="パス_400" data-name="パス 400" d="M1199.194,1416.293c-.63-3.78-2.34-8.4-3.809-10.26l1.679-1.05a4.9,4.9,0,0,0,.93,1.23,29.71,29.71,0,0,1,4.17,6.779l.391.87c.119.3.149.391.239.571Zm1.38,9.689c1.05.09,3.42-.72,5.79-2.009,4.89-2.821,7.77-7.17,9.18-13.861a28.161,28.161,0,0,0,.779-5.519l4.321.96a3.927,3.927,0,0,0-.3,1.26c-1.74,12.12-6.96,17.849-18.329,20.159a3.172,3.172,0,0,0-1.021.3Zm6-11.1c-.09-.481-.09-.54-.24-1.53-.359-2.7-2.1-7.56-3.06-8.55l1.68-1.05a2.8,2.8,0,0,0,.51.75,28.4,28.4,0,0,1,4.77,8.7Z" fill="#f7eddc"/>
    </g>
    <path id="パス_401" data-name="パス 401" d="M1091.844,1341.443a5.455,5.455,0,0,1-1.47-1.774,5.294,5.294,0,0,0-.712-1.554,7.782,7.782,0,0,0-3.059-2.413,9.353,9.353,0,0,0-6.053.273c-5.651,1.726-3.465,10.845,1.938,11.162a9.841,9.841,0,0,0,5.093-1.388,12,12,0,0,0,3-2.938c.448-.557,1-1.021,1.436-1.584.493-.635.8-1.38,1.333-2a16.2,16.2,0,0,1,3.361-2.459c.231-.163,1.424-1.252,1.654-1.09l-.611.169c.208-.035.416-.063.626-.084a8.69,8.69,0,0,1,.966-.043c2.741.037,4.762,1.607,4.63,4.491a7.976,7.976,0,0,1-1.506,4.242,5.908,5.908,0,0,1-1.507,1.469c-.115.076-.88.6-1,.532l.609-.192a6.083,6.083,0,0,1-.765.036c-1.835-.031-3.234-1.063-4.689-2.051a11,11,0,0,1-2.07-1.594,23.547,23.547,0,0,0-1.538-1.9c-.294-.264-1.754.789-2.028.543,1.065.955,1.677,2.166,2.887,3.009a13.143,13.143,0,0,0,4.3,2.4,9.492,9.492,0,0,0,6.016-1.143,7.329,7.329,0,0,0,3.321-6.615c-.205-2.864-2.7-3.923-5.271-3.762a11.175,11.175,0,0,0-5.4,1.628,28.942,28.942,0,0,0-3.5,2.413c-.995.958-1.527,2.224-2.476,3.214a35.56,35.56,0,0,1-2.987,3.269,16.966,16.966,0,0,0-1.777,1.069c.165-.636,1.329-.14.549-.195a11.179,11.179,0,0,1-1.236-.073c-2.79-.5-4.21-3.052-4.612-5.679a5.032,5.032,0,0,1,1.313-4.271,3.938,3.938,0,0,1,.784-.637,4.163,4.163,0,0,1,.588-.3q-1.287.3-.4.181a15.069,15.069,0,0,1,2.039.162,6.8,6.8,0,0,1,3.5,2.192,3.755,3.755,0,0,1,1.133,1.722,5.343,5.343,0,0,0,1.579,2.095c.27.26,1.776-.784,2.027-.543Z" fill="#f7eddc"/>
    <path id="パス_402" data-name="パス 402" d="M1090.346,1341.316c-.965,1.792-1.829,3.716-3.54,4.927a31.166,31.166,0,0,1-6.422,3.216,109.732,109.732,0,0,1-13.925,4.053,28.76,28.76,0,0,1-7.25,1.216c-2.544-.007-5.036.2-7.567.435-5.1.474-9.973-.339-15.025-.946-2.468-.3-4.947-.373-7.424-.558-2.574-.192-5.109-.66-7.668-.978a53.658,53.658,0,0,0-13.949.154,32.271,32.271,0,0,0-6.711,1.643,15.258,15.258,0,0,0-5.15,2.766,6.939,6.939,0,0,0-2.271,4.423c-.072,1.254-.287,3.028.349,4.178.957,1.731,3.467,2.791,5.344,2.964,2.38.219,4.76-.724,7.165-.7a21.914,21.914,0,0,1,7.063,1.525c1.472.541,3.946,1.765,3.978,3.634l.007-2.67c-.217,2.056-3.348,2.522-4.953,2.791-3.7.622-6.838-.948-10.4-1.569-2.887-.5-6.947-.762-8.863,1.962-.851,1.209-.684,2.669-.675,4.071a6.112,6.112,0,0,0,1.232,3.9c1.063,1.409,2.875,1.951,4.513,2.4,1.183.321,3.117.646,3.27,2.146l0-2.814c-.081,1.276-1.824,1.849-2.823,2.189a17.972,17.972,0,0,0-3.735,1.424,3.939,3.939,0,0,0-2.182,3.243c-.059,1.653-.19,3.278.724,4.72-.149-.235.014-1.143.014-1.432,0-.329.168-1.146-.014-1.433a4.247,4.247,0,0,1-.714-1.879l.013,1.052v-.283l-.014,1.813c.267-2.554,3.125-3.508,5.221-4.142a7.824,7.824,0,0,0,2.882-1.305c.843-.73.647-1.755.646-2.776,0-1.16.061-2.04-1.094-2.652a26.032,26.032,0,0,0-3.66-1.192,6,6,0,0,1-3.772-3.122c-.159-.33-.248-.672-.375-1.012-.112-.3-.086-1.1-.052.439.031,1.358,0,.737.172.293a4.445,4.445,0,0,1,1.514-1.874c2.479-1.827,6.384-1.264,9.164-.574a52.245,52.245,0,0,0,5.5,1.385,12.441,12.441,0,0,0,4.036-.2c1.592-.3,4.279-.825,4.438-2.823a10.354,10.354,0,0,0-.092-3.37c-.4-1.4-1.877-2.314-3.113-2.878a27.593,27.593,0,0,0-5.433-1.6,15.888,15.888,0,0,0-6.331.13,8.741,8.741,0,0,1-5.8-.4c-1.46-.7-3.006-1.725-3.141-3.475l.007,2.67c.039-2.8,2.665-4.905,4.935-6a31.056,31.056,0,0,1,9.4-2.735,61.158,61.158,0,0,1,9.933-.418c3.7.1,7.31.929,10.989,1.235s7.33.5,10.994,1.006a50.352,50.352,0,0,0,10.978.618c1.757-.14,3.507-.365,5.267-.468,1.675-.1,3.354.024,5.027-.088a28.436,28.436,0,0,0,5.019-1.062c1.839-.465,3.68-.919,5.515-1.4a65.587,65.587,0,0,0,11.375-3.854,16.821,16.821,0,0,0,4.8-2.873,17.2,17.2,0,0,0,2.655-4.184c.4-.749-.394-2.135,0-2.866Z" fill="#f7eddc"/>
    <path id="パス_403" data-name="パス 403" d="M1090.467,1344.182a22.083,22.083,0,0,0,2.155,3.628,12.13,12.13,0,0,0,4.079,2.829,53.617,53.617,0,0,0,9.848,3.706c3.5.993,7.044,1.84,10.57,2.739a18.986,18.986,0,0,0,4.933.506,55.406,55.406,0,0,1,5.684.3,48.623,48.623,0,0,0,10.986-.073c3.665-.462,7.283-.957,10.974-1.169,3.553-.2,7.021-.842,10.554-1.211a56.4,56.4,0,0,1,10.174-.039,33.608,33.608,0,0,1,10.924,2.513c2.631,1.154,5.964,3.2,6.01,6.5l.007-2.67c-.246,3.181-4.828,4.51-7.45,4.159a38.027,38.027,0,0,0-5.4-.658,24.343,24.343,0,0,0-5.736,1.125c-2.459.616-5.3,1.937-5.325,4.8-.008.957-.265,2.327.325,3.175a4.6,4.6,0,0,0,2.489,1.434,14.409,14.409,0,0,0,8.322.007c3.184-.884,6.578-1.931,9.9-1.139a5.066,5.066,0,0,1,3.553,2.63c-.026-.058.231.641.218.639-.168-.019.262-2.006,0-1.38-.136.324-.188.684-.334,1.011a5.733,5.733,0,0,1-1.563,2.145,10.879,10.879,0,0,1-4.013,1.669c-1.025.276-2.626.6-2.965,1.783a6.492,6.492,0,0,0-.061,1.729,6.924,6.924,0,0,0,.047,1.709c.294,1.093,1.728,1.59,2.675,1.922,2.274.8,5.72,1.467,6.027,4.4l-.014-1.813v.283l.013-1.052a4.238,4.238,0,0,1-.714,1.879c-.165.261-.014,1.123-.014,1.433s.182,1.168.014,1.432c.9-1.424.769-2.977.725-4.608a3.945,3.945,0,0,0-2.183-3.355,16.886,16.886,0,0,0-3.618-1.385c-1.024-.341-2.857-.915-2.94-2.228l0,2.814c.135-1.321,1.663-1.706,2.741-2.005a13.336,13.336,0,0,0,3.992-1.53,5.476,5.476,0,0,0,2.27-4.086,12.4,12.4,0,0,0-.127-3.794c-.967-3.429-5.419-3.572-8.272-3.23-3.642.437-7.1,2.372-10.831,1.846-1.733-.244-5.414-.651-5.652-2.9l.007,2.67c.028-1.648,2.053-2.813,3.349-3.382a13.673,13.673,0,0,1,2.311-.735c1.2-.293,2.381-.731,3.61-.922a19.288,19.288,0,0,1,6.541.429,8.036,8.036,0,0,0,5.862-1.071,3.9,3.9,0,0,0,2.233-3.4,9.674,9.674,0,0,0-.525-4.479c-1.791-3.8-6.4-5.309-10.2-6.226a51.751,51.751,0,0,0-13.557-1.092,66.89,66.89,0,0,0-7.638.842c-2.474.354-4.949.495-7.441.648-5.012.307-9.963,1.506-14.994,1.5-2.57,0-5.115-.39-7.674-.568-2.421-.168-4.914.147-7.3-.36-2.7-.573-5.381-1.351-8.052-2.043-2.645-.685-5.3-1.4-7.872-2.312a41.986,41.986,0,0,1-7.389-3.4c-2.135-1.271-3.12-3.256-4.261-5.375.394.732-.4,2.117,0,2.866Z" fill="#f7eddc"/>
  </g>
</svg>
