<svg xmlns="http://www.w3.org/2000/svg" width="33.75" height="30" viewBox="0 0 33.75 30">
  <path id="cart-plus-solid" d="M29.573,18.75H12.4l.383,1.875H28.508a1.406,1.406,0,0,1,1.371,1.718l-.323,1.422a3.282,3.282,0,1,1-3.726.61H13.545a3.281,3.281,0,1,1-3.928-.5L5.5,3.75H1.406A1.406,1.406,0,0,1,0,2.344V1.406A1.406,1.406,0,0,1,1.406,0H7.414A1.406,1.406,0,0,1,8.792,1.124L9.329,3.75H32.343a1.406,1.406,0,0,1,1.371,1.718l-2.77,12.187A1.406,1.406,0,0,1,29.573,18.75ZM23.906,9.844H21.094V7.5a.937.937,0,0,0-.937-.937h-.937a.937.937,0,0,0-.937.938V9.844H15.469a.937.937,0,0,0-.937.938v.938a.937.937,0,0,0,.937.938h2.813V15a.937.937,0,0,0,.938.938h.938A.937.937,0,0,0,21.094,15V12.656h2.812a.937.937,0,0,0,.938-.937v-.937A.937.937,0,0,0,23.906,9.844Z" fill="#3b2a1c"/>
</svg>
