<svg xmlns="http://www.w3.org/2000/svg" width="1280" height="146.263" viewBox="0 0 1280 146.263">
  <g id="footer-line" transform="translate(-223.667 278.315)">
    <path id="パス_421" data-name="パス 421" d="M1421.212-174.4v-20.025h11.59l-29.7-37.5-29.7,37.5H1384.9V-174.4h-26.255v-6.737h3.4a2.8,2.8,0,0,0,2.721-3.485l-4.779-19.11a2.805,2.805,0,0,0-5.443,0l-4.779,19.11a2.8,2.8,0,0,0,2.721,3.485h3.4v6.737h-21.432v-8.911h5.9a4.114,4.114,0,0,0,3.991-5.113l-8.113-32.441a4.114,4.114,0,0,0-7.983,0l-8.114,32.441a4.115,4.115,0,0,0,3.992,5.113h5.9v8.911h-48.523v-23.223h28.464l-19.06-19.74h11.492L1283.67-236.98h13.877l-23.625-29.782,4.69,2.225-.948-4.985,4.014-3.53-5.547-.727-2.48-4.536-2.481,4.536-5.546.727,4.013,3.53-.947,4.985,4.952-2.35-23.723,29.907H1263.8l-18.734,19.615h12.86l-19.059,19.74h26.328V-174.4h-47.957v-36.83h11.59l-8.692-10.975v-15.712h-5.795v8.394l-15.211-19.207-29.7,37.5h11.495v36.83h-58.329v-15.2h5.9a4.115,4.115,0,0,0,3.992-5.112l-8.114-32.442a4.114,4.114,0,0,0-7.983,0l-8.113,32.442a4.114,4.114,0,0,0,3.991,5.112h5.905v15.2h-21.432v-13.02h3.4a2.805,2.805,0,0,0,2.721-3.486l-4.779-19.11a2.806,2.806,0,0,0-5.443,0l-4.779,19.11a2.805,2.805,0,0,0,2.721,3.486h3.4v13.02h-55.349a12.723,12.723,0,0,0,3.014-8.235,12.774,12.774,0,0,0-8.573-12.056,8.693,8.693,0,0,0,4.124-7.393,8.667,8.667,0,0,0-2.029-5.583l3.915-7.724-5.926-3-3.874,7.644c-.262-.024-.526-.04-.794-.04a8.707,8.707,0,0,0-8.707,8.707,8.7,8.7,0,0,0,4.407,7.566,12.773,12.773,0,0,0-8.1,11.883,12.723,12.723,0,0,0,3.014,8.235H920.112v-13.617h3.4a2.8,2.8,0,0,0,2.721-3.485l-4.779-19.11a2.805,2.805,0,0,0-5.443,0l-4.779,19.11a2.8,2.8,0,0,0,2.721,3.485h3.4V-174.4H895.916v-15.791h5.9a4.114,4.114,0,0,0,3.991-5.113L897.7-227.747a4.114,4.114,0,0,0-7.983,0L881.6-195.306a4.115,4.115,0,0,0,3.992,5.113h5.9V-174.4H839.455v-38.775h11.59l-29.7-37.5-15.306,19.326V-245.79h-5.8v21.756l-8.6,10.857h11.495V-174.4H747.285a9.556,9.556,0,0,0,4.056-7.816,9.572,9.572,0,0,0-6.423-9.034,6.513,6.513,0,0,0,3.089-5.539,6.5,6.5,0,0,0-1.52-4.184l2.934-5.787-4.44-2.25-2.9,5.727c-.2-.018-.394-.031-.6-.031a6.525,6.525,0,0,0-6.524,6.525,6.518,6.518,0,0,0,3.3,5.669,9.57,9.57,0,0,0-6.07,8.9,9.556,9.556,0,0,0,4.056,7.816H716.478a12.746,12.746,0,0,0,4.863-10.02,12.774,12.774,0,0,0-8.1-11.884,8.7,8.7,0,0,0,4.407-7.566,8.707,8.707,0,0,0-8.707-8.707c-.268,0-.532.016-.794.04l-3.874-7.643-5.926,3,3.915,7.724a8.671,8.671,0,0,0-2.029,5.583,8.694,8.694,0,0,0,4.124,7.394,12.774,12.774,0,0,0-8.573,12.056,12.749,12.749,0,0,0,4.863,10.02H631.294v-15.791h5.9a4.114,4.114,0,0,0,3.991-5.113l-8.113-32.441a4.114,4.114,0,0,0-7.983,0l-8.114,32.441a4.115,4.115,0,0,0,3.992,5.113h5.9V-174.4H605.444v-13.617h3.4a2.8,2.8,0,0,0,2.721-3.485l-4.779-19.11a2.8,2.8,0,0,0-5.442,0l-4.779,19.11a2.8,2.8,0,0,0,2.721,3.485h3.4V-174.4H510.828v-25.017h11.589L511.622-213.05v-20.869h-5.794v13.552l-13.109-16.552-29.7,37.5h11.495V-174.4H429.28a12.748,12.748,0,0,0,5-10.12,12.774,12.774,0,0,0-8.573-12.056,8.693,8.693,0,0,0,4.124-7.393,8.667,8.667,0,0,0-2.029-5.583l3.915-7.724-5.925-3-3.875,7.644c-.262-.024-.526-.04-.794-.04a8.707,8.707,0,0,0-8.707,8.707,8.7,8.7,0,0,0,4.408,7.566,12.772,12.772,0,0,0-8.1,11.883,12.748,12.748,0,0,0,5,10.12h-51.44v-11.584h3.4a2.806,2.806,0,0,0,2.722-3.486l-4.78-19.11a2.8,2.8,0,0,0-5.442,0l-4.779,19.11a2.8,2.8,0,0,0,2.721,3.486h3.4V-174.4H338.078V-188.16h5.9a4.115,4.115,0,0,0,3.992-5.113l-8.113-32.442a4.115,4.115,0,0,0-7.984,0l-8.113,32.442a4.115,4.115,0,0,0,3.992,5.113h5.9V-174.4H281.282v-25.017h11.589l-29.7-37.5-29.7,37.5H244.97V-174.4h-21.3v42.35h1280V-174.4Z" fill="#920116"/>
    <circle id="楕円形_430" data-name="楕円形 430" cx="2.453" cy="2.453" r="2.453" transform="translate(1267.496 -254.717)" fill="#f7eddc"/>
    <circle id="楕円形_431" data-name="楕円形 431" cx="1.455" cy="1.455" r="1.455" transform="translate(1280.846 -244.903)" fill="#f7eddc"/>
    <circle id="楕円形_432" data-name="楕円形 432" cx="2.092" cy="2.092" r="2.092" transform="translate(1265.042 -230.654)" fill="#f7eddc"/>
    <circle id="楕円形_433" data-name="楕円形 433" cx="1.402" cy="1.402" r="1.402" transform="translate(1278.042 -221.349)" fill="#f7eddc"/>
    <circle id="楕円形_434" data-name="楕円形 434" cx="2.05" cy="2.05" r="2.05" transform="translate(1258.52 -207.644)" fill="#f7eddc"/>
    <circle id="楕円形_435" data-name="楕円形 435" cx="1.936" cy="1.936" r="1.936" transform="translate(1286.997 -210.15)" fill="#f7eddc"/>
    <rect id="長方形_107" data-name="長方形 107" width="8.236" height="15.837" transform="translate(1388.576 -194.634)" fill="#f7eddc"/>
    <rect id="長方形_108" data-name="長方形 108" width="8.236" height="15.837" transform="translate(1399.367 -194.634)" fill="#f7eddc"/>
    <rect id="長方形_109" data-name="長方形 109" width="16.968" height="12.36" transform="translate(260.886 -200.291)" fill="#f7eddc"/>
    <g id="グループ_109" data-name="グループ 109">
      <rect id="長方形_110" data-name="長方形 110" width="8.873" height="8.873" transform="translate(1193.532 -211.027)" fill="#f7eddc"/>
      <rect id="長方形_111" data-name="長方形 111" width="8.873" height="8.873" transform="translate(1205.049 -211.027)" fill="#f7eddc"/>
      <rect id="長方形_112" data-name="長方形 112" width="8.873" height="8.873" transform="translate(1205.049 -199.657)" fill="#f7eddc"/>
      <rect id="長方形_113" data-name="長方形 113" width="8.873" height="8.873" transform="translate(1193.532 -199.657)" fill="#f7eddc"/>
    </g>
    <g id="グループ_110" data-name="グループ 110">
      <rect id="長方形_114" data-name="長方形 114" width="8.236" height="8.236" transform="translate(806.66 -212.579)" fill="#f7eddc"/>
      <rect id="長方形_115" data-name="長方形 115" width="8.236" height="8.236" transform="translate(817.352 -212.579)" fill="#f7eddc"/>
      <rect id="長方形_116" data-name="長方形 116" width="8.236" height="8.236" transform="translate(817.352 -202.024)" fill="#f7eddc"/>
      <rect id="長方形_117" data-name="長方形 117" width="8.236" height="8.236" transform="translate(806.66 -202.024)" fill="#f7eddc"/>
    </g>
    <g id="グループ_111" data-name="グループ 111">
      <rect id="長方形_118" data-name="長方形 118" width="6.431" height="6.431" transform="translate(478.918 -199.389)" fill="#f7eddc"/>
      <rect id="長方形_119" data-name="長方形 119" width="6.431" height="6.431" transform="translate(487.267 -199.389)" fill="#f7eddc"/>
      <rect id="長方形_120" data-name="長方形 120" width="6.431" height="6.431" transform="translate(487.267 -191.147)" fill="#f7eddc"/>
      <rect id="長方形_121" data-name="長方形 121" width="6.431" height="6.431" transform="translate(478.918 -191.147)" fill="#f7eddc"/>
    </g>
  </g>
</svg>
