<svg xmlns="http://www.w3.org/2000/svg" width="19.596" height="15.239" viewBox="0 0 19.596 15.239">
  <path id="home-solid" d="M9.523,36,3.251,41.169v5.575a.544.544,0,0,0,.544.544l3.812-.01a.544.544,0,0,0,.542-.544V43.479a.544.544,0,0,1,.544-.544h2.177a.544.544,0,0,1,.544.544v3.254a.544.544,0,0,0,.544.546l3.811.011a.544.544,0,0,0,.544-.544V41.165L10.044,36A.415.415,0,0,0,9.523,36Zm9.907,3.511L16.586,37.17V32.458a.408.408,0,0,0-.408-.408H14.273a.408.408,0,0,0-.408.408v2.47l-3.046-2.506a1.633,1.633,0,0,0-2.075,0L.133,39.514a.408.408,0,0,0-.054.575l.867,1.055a.408.408,0,0,0,.575.055l8-6.591a.415.415,0,0,1,.52,0l8,6.591a.408.408,0,0,0,.575-.054l.867-1.055a.408.408,0,0,0-.058-.576Z" transform="translate(0.015 -32.05)" fill="#3b2a1c"/>
</svg>
