<svg xmlns="http://www.w3.org/2000/svg" width="30" height="30" viewBox="0 0 30 30">
  <path id="insta" d="M-4794,30a14.9,14.9,0,0,1-10.607-4.393A14.9,14.9,0,0,1-4809,15a14.9,14.9,0,0,1,4.394-10.607A14.9,14.9,0,0,1-4794,0a14.9,14.9,0,0,1,10.606,4.393A14.9,14.9,0,0,1-4779,15a14.9,14.9,0,0,1-4.393,10.606A14.9,14.9,0,0,1-4794,30Zm.377-23.591c-1.58,0-2.982.024-3.66.062A5.229,5.229,0,0,0-4801,7.9a5.234,5.234,0,0,0-1.434,3.717c-.083,1.47-.083,5.848,0,7.32A5.219,5.219,0,0,0-4801,22.655a5.26,5.26,0,0,0,3.717,1.433c.682.039,2.05.063,3.661.063s2.978-.023,3.659-.063a5.206,5.206,0,0,0,3.717-1.433,5.251,5.251,0,0,0,1.434-3.717c.083-1.47.083-5.846,0-7.316a5.216,5.216,0,0,0-1.434-3.717,5.249,5.249,0,0,0-3.717-1.433C-4790.641,6.433-4792.043,6.409-4793.623,6.409Zm1.562,16.154c-.331,0-.649,0-.93-.006-.234,0-.447,0-.629,0s-.388,0-.616,0c-.276,0-.588.006-.912.006a12.731,12.731,0,0,1-3.7-.367,2.99,2.99,0,0,1-1.686-1.686,15.97,15.97,0,0,1-.362-4.6v-.006c0-.233,0-.445,0-.628,0-.163,0-.351,0-.556v-.061a16.1,16.1,0,0,1,.361-4.613,3,3,0,0,1,1.686-1.687A12.535,12.535,0,0,1-4795.184,8c.331,0,.65,0,.932.006.236,0,.449,0,.632,0s.389,0,.618,0c.275,0,.587-.006.913-.006a12.752,12.752,0,0,1,3.7.366,3,3,0,0,1,1.687,1.687,16,16,0,0,1,.36,4.6c0,.234,0,.447,0,.631s0,.4,0,.631a15.983,15.983,0,0,1-.36,4.6,3,3,0,0,1-1.687,1.686A12.526,12.526,0,0,1-4792.061,22.563Zm-1.56-11.832a4.554,4.554,0,0,0-4.549,4.549,4.554,4.554,0,0,0,4.549,4.549,4.554,4.554,0,0,0,4.549-4.549A4.554,4.554,0,0,0-4793.621,10.731Zm4.734-1.247a1.062,1.062,0,0,0-1.061,1.061,1.062,1.062,0,0,0,1.061,1.061,1.062,1.062,0,0,0,1.061-1.061A1.062,1.062,0,0,0-4788.886,9.484Zm-4.734,8.752a2.96,2.96,0,0,1-2.957-2.957,2.96,2.96,0,0,1,2.957-2.957,2.96,2.96,0,0,1,2.957,2.957A2.96,2.96,0,0,1-4793.621,18.236Z" transform="translate(4809)" fill="#f7eddc"/>
</svg>
