<svg viewBox="0 0 1280 309.62" xmlns="http://www.w3.org/2000/svg"><path d="m0 309.42h1280v.21h-1280z" fill="none"/><path d="m451.6 51.4c90 32.34 172.22 52.31 251.37 61.06 76.63 8.47 180.62-9.13 256.56-22l5.84-1c113.45-19.17 213.12-14.94 314.63 14.22v-103.68h-1280v35.38c59.4-14.29 138-29.44 205.08-29.81 79.97-.45 158.28 14.12 246.52 45.83z" fill="none"/><path d="m1280 280.48a630.94 630.94 0 0 0 -123.8-24.48c-58.31-5.48-119.06-2.66-185.74 8.61l-5.83 1c-82 13.88-184.14 31.16-265 22.22-64.1-7.14-120.72-18.83-184.63-38.83h-2.27v-.71c-17.73-5.56-36-11.75-55.23-18.65-68.35-24.56-180.29-36.52-265.22-38.06a40.43 40.43 0 0 0 2.72 6.82 7.37 7.37 0 0 0 3 3.45 2.68 2.68 0 0 1 .91.58c.52.66-.11 1.72-.93 1.88a3 3 0 0 1 -2.31-.78c-2.46-1.84-4-4.65-5.33-7.41a3.51 3.51 0 0 0 -1.25-1.62c-.61-.33-1.56-.11-1.7.57a1.49 1.49 0 0 0 .08.75 18.88 18.88 0 0 0 6.26 9.52 2.26 2.26 0 0 1 .76.84c.39 1-.88 1.92-1.88 1.68a4.36 4.36 0 0 1 -2.29-2l-5.51-7.86a1.84 1.84 0 0 0 -.83-.78 1.79 1.79 0 0 0 -1.16.09 37.75 37.75 0 0 0 -7.94 3.5 27 27 0 0 1 2.48 10.41c.64-.3 1.39.5 1.22 1.19a1.72 1.72 0 0 1 -1.64 1.12 2.74 2.74 0 0 1 -2.52-1.53c-.51-1.09-.24-2.36-.38-3.56a5.21 5.21 0 0 0 -1.85-3.38c-.36 2.11-.73 4.21-1.09 6.31a3.89 3.89 0 0 1 1.62.68 1.34 1.34 0 0 1 .42 1.59 1.69 1.69 0 0 1 -1.74.6 3.83 3.83 0 0 1 -2.83-1.6c-.94-1.48-.36-3.4-.17-5.14a10.91 10.91 0 0 0 -1.27-6.41c-1.28-2.31-3.47-4.42-3.29-7.06-2-.62-4.17.38-6.28.3a7.89 7.89 0 0 1 -4.69-2.63c-49.54 1.3-98.82 7.84-152.87 20.3v97.38h1280z" fill="#af0e2c"/><path d="m33.42 44.14v-.26a.93.93 0 0 0 0 .13v-.13.26a38 38 0 0 0 4.36 7.86q5.22-1.05 10.45-2.14a10.36 10.36 0 0 1 -2-6c0-8.41 11.15-15.23 24.89-15.23 12.22 0 22.37 5.38 24.49 12.49 36.29-5.9 73.75-10 108.24-10.33a50.44 50.44 0 0 0 3.15-6.63v-.36l.07.18.07-.18v.36a49.92 49.92 0 0 0 3.18 6.64c78.18.2 154.98 14.82 241.28 45.83 90 32.37 172.22 52.31 251.4 61.06a407.46 407.46 0 0 0 44.19 2.22c.51-.65.78-1 .78-1h-8.47c10.64-6.24 15.94-19.15 16.82-21.44v-.35l.06.18.07-.18v.35c.87 2.29 6.18 15.2 16.82 21.44h-8.48l.56.75c16-.5 32.4-1.62 48.94-3.17a37.32 37.32 0 0 0 4.53-8.23v-.26l.05.13v-.13.25a37.84 37.84 0 0 0 3.93 7.4c34.56-3.52 69.32-8.76 101.18-14l14-12.11 9.47 8.2 2.74-.46v-7.74h5.46v6.82l3.88-.66 5.84-1c65.85-11.14 127.06-14.37 186.69-9.43.78-1.53 1.26-2.72 1.45-3.21v-.25a.93.93 0 0 0 0 .13v-.13.25a34.44 34.44 0 0 0 1.59 3.49q6.09.53 12.15 1.18c3.29-7.75 8.19-12.67 13.66-12.67 6.31 0 11.85 6.52 15 16.37q22.54 3.45 45 8.51a9.56 9.56 0 0 1 3.84-.84 11.24 11.24 0 0 1 7.79 3.56q13.65 3.33 27.33 7.25v-25.2c-101.51-29.16-201.18-33.39-314.63-14.22l-5.84 1c-75.94 12.85-179.93 30.45-256.56 22-79.02-8.78-161.24-28.75-251.24-61.09-88.24-31.71-166.55-46.28-246.52-45.83-67.08.37-145.68 15.52-205.08 29.81v25.23c8.75-2.11 17.92-4.23 27.4-6.32a37.56 37.56 0 0 0 6.02-10.15z" fill="#920116"/><path d="m1164.38 116.52a51.58 51.58 0 0 1 3-9.76q-6.06-.65-12.15-1.18c1.65 3.25 4.67 7.9 9.15 10.94z" fill="#920116"/><path d="m955.65 124.85 8.9 7.72h-9.38v8.2l4.35-.74 5.85-1c22.83-3.86 45.09-6.75 66.92-8.7a16.47 16.47 0 0 1 13.21-6.63c.55 0 1.1 0 1.64.08l8.76-9.75 7.43 4.29-3.6 10.06a683.47 683.47 0 0 1 82.42.49c.41-.68.63-1.12.63-1.12h-7.12c6.27-2.56 12-10.54 12-10.54h-6c5.23-3.06 8.62-8.41 10.42-11.92-59.63-4.94-120.84-1.71-186.69 9.43l-5.84 1-3.88.66z" fill="#920116"/><path d="m1159.49 117.22a44.69 44.69 0 0 0 4 4.73c.18-1.62.42-3.2.71-4.73z" fill="#920116"/><path d="m1198.94 130v5.21q14.68 2.31 29.33 5.31c2.2-10.83 7-19 12.78-21.57q-22.47-5.06-45-8.51a64.33 64.33 0 0 1 2.89 19.56z" fill="#920116"/><path d="m10.69 82c7.22-2.89 11.84-11.84 11.84-11.84h-7.22c6.36-2.6 12.13-10.69 12.13-10.69h-6.06a23.91 23.91 0 0 0 6-5.19c-9.46 2.1-18.63 4.22-27.38 6.33v24.31q6-1.45 12.35-2.92z" fill="#920116"/><path d="m224 45.6h-8.48a63.37 63.37 0 0 0 8.92 9.72c52.69 1.33 105.07 9.26 160.47 24.44 3.09-10.86 8.91-18.19 15.6-18.19 8.54 0 15.68 12 17.49 28q11.63 3.69 23.48 7.82c2.44-6.63 6.36-10.93 10.79-10.93 6.08 0 11.21 8.13 12.84 19.27 41 14.3 80.45 26 118.74 35.2l13-11.28 17 14.72h-6v2c26.71 5.77 52.91 10.3 78.76 13.65a3.52 3.52 0 0 1 1.2-1.26 7.91 7.91 0 0 1 -.16-1.55 7.69 7.69 0 0 1 .52-2.76 4 4 0 0 1 -.44-2.73c.26-1.05 1.7-1.76 2.75-2.14a1.18 1.18 0 0 1 0-.59v-.13a1.42 1.42 0 0 1 1.73-.83 5.32 5.32 0 0 1 5.95-3.4.67.67 0 0 1 -.16-.67.85.85 0 0 1 1.61.51.69.69 0 0 1 -.49.45 5.3 5.3 0 0 1 3.08 6.31 1.43 1.43 0 0 1 .92 1.68v.13a1.15 1.15 0 0 1 -.59.69 16.89 16.89 0 0 1 .31 3.41v.12 2.26a4.33 4.33 0 0 1 -.82 2.36l.9.1c9.78 1.08 20 1.73 30.57 2a47.69 47.69 0 0 0 7.54-10.24h-10.03c7.24-3 14-11 16.17-13.89a407.46 407.46 0 0 1 -44.17-2.16c-79.18-8.75-161.4-28.69-251.4-61.06-86.3-31.01-163.1-45.63-241.24-45.83 2.73 4.83 7.21 11.03 13.64 14.8z" fill="#920116"/><path d="m781.71 153.8h-10.09a47.68 47.68 0 0 0 6.92 9.58q11.63-.58 23.46-1.55a33.22 33.22 0 0 0 6.06-7.94h-7.12c6.27-2.56 12-10.54 12-10.54h-6a24.84 24.84 0 0 0 7.34-6.9c-16.54 1.55-33 2.67-48.94 3.17 1.95 2.58 8.87 11.12 16.37 14.18z" fill="#920116"/><path d="m45.55 59.48h-6.07s5.78 8.09 12.13 10.69h-7.22a33.59 33.59 0 0 0 2.75 4.23q8.89-1.83 18-3.57a4.75 4.75 0 0 1 -.29-1.58 4.51 4.51 0 0 1 .24-1.46c-7.85-.92-13.78-5.14-13.78-10.21a7 7 0 0 1 1.09-3.64 16.92 16.92 0 0 1 -4.21-4.08q-5.19 1.08-10.41 2.14a25.79 25.79 0 0 0 7.77 7.48z" fill="#920116"/><path d="m85.23 56.44a7.21 7.21 0 0 1 .1 1.14 7.77 7.77 0 0 1 -2.67 5.58 9.44 9.44 0 0 1 4.86 3.64c33.88-5.8 69.05-10.14 102.11-11.35a63.18 63.18 0 0 0 9.07-9.85h-8.48c6.43-3.77 10.91-10 13.64-14.79-34.49.28-72 4.43-108.24 10.33a9.78 9.78 0 0 1 .38 2.74c0 5.22-4.25 9.82-10.77 12.56z" fill="#920116"/><path d="m1262.6 148.51c5.8 1.51 11.6 3.08 17.4 4.75v-24.32q-13.68-3.93-27.33-7.25c5.21 5.04 9.02 14.98 9.93 26.82z" fill="#920116"/><path d="m950.19 117.29-2.74.46 2.74 2.38z" fill="#920116"/><path d="m830.76 143.35h-6s5.69 8 12 10.54h-7.12a33.3 33.3 0 0 0 3.32 5c13.34-1.48 26.66-3.19 39.79-5 1.48-13.71 7.57-24 14.86-24 6.5 0 12 8.18 14.23 19.67q9.61-1.48 19-3v-13.99h-9.44l12.6-10.91c-31.86 5.2-66.62 10.44-101.18 14a25.77 25.77 0 0 0 7.94 7.69z" fill="#920116"/><path d="m29.8 82h-17.45q-6.3 1.47-12.35 2.92v17.49q15.12-3.41 29.8-6.16z" fill="#920116"/><path d="m96 80.64v5.87q5.05-.53 10.09-1l10.55-9.15 8.85 7.67c14.21-.9 28.39-1.38 42.63-1.46 10.72-.06 22.06.08 33.84.39v-5.88h-26.67c10.09-4 16.55-16.55 16.55-16.55h-10.09a30.1 30.1 0 0 0 7.88-5.08c-33.06 1.21-68.23 5.55-102.11 11.35a4.8 4.8 0 0 1 .71 2.45c0 3.94-5.22 7.14-11.67 7.14-5.56 0-10.2-2.37-11.38-5.56q-9.14 1.74-18 3.57c2.07 2.73 5.2 6 9.09 7.61h-19.15v12.89c15.66-2.83 31-5.14 46.23-7v-7.26z" fill="#920116"/><path d="m872.38 160.32a59.72 59.72 0 0 1 .35-6.5c-13.13 1.84-26.45 3.55-39.79 5a21.68 21.68 0 0 0 8.36 6.72h-18.85v11.49c16.77-1.7 33.58-3.8 50.1-6.12-.17-3.28-.17-6.86-.17-10.59z" fill="#920116"/><path d="m607.89 163.8q10.62 2.3 21.25 4.32a5.36 5.36 0 0 1 1.51-1.24.75.75 0 0 1 -.6-.44.91.91 0 0 1 1.67-.69.74.74 0 0 1 -.1.7 5.68 5.68 0 0 1 6.87 3 1.52 1.52 0 0 1 1.88.7c13.18 2.34 26.47 4.39 40 6.18l7-12.07a4.06 4.06 0 0 1 -.92-3.8 2.19 2.19 0 0 1 .2-.44c-25.85-3.35-52-7.88-78.76-13.65z" fill="#920116"/><path d="m902.8 160.32v6.14q9.12-1.43 18-2.87v-17.09q-9.33 1.51-19 3a58.87 58.87 0 0 1 1 10.82z" fill="#920116"/><path d="m965.37 156.14c22.29-3.77 44-6.62 65.38-8.57a16.41 16.41 0 0 1 1.54-17.23c-21.83 1.95-44.09 4.84-66.92 8.7l-5.85 1-4.35.74v17.09l4.36-.74z" fill="#920116"/><path d="m1163.15 139.44h-6v7.72c2.18.2 4.36.4 6.53.62-.3-2.6-.45-5.39-.53-8.34z" fill="#920116"/><path d="m703.13 179.12 2.53.25-3.14-4.7z" fill="#920116"/><path d="m1226.94 154.06a68.89 68.89 0 0 1 1.32-13.52q-14.64-3-29.33-5.31c0 6.31-.23 12.09-1.26 16.89q14.67 2.28 29.28 5.25c.05-1.09-.01-2.19-.01-3.31z" fill="#920116"/><path d="m815.23 165.57h-18.84a18.49 18.49 0 0 0 5.61-3.74q-11.82.94-23.46 1.55a27.85 27.85 0 0 0 9.63 7h-26.7v10.78c17.49-.44 35.56-1.64 53.76-3.36z" fill="#920116"/><path d="m685.4 177 1.64.21.28-3.54z" fill="#920116"/><path d="m750 171.72a1.5 1.5 0 0 1 .6 1.92l-.07.13a1.29 1.29 0 0 1 -.43.44c.07 1.23 0 2.51 0 3.64a4.84 4.84 0 0 1 -1.84 3.47h3v-11h-.83a5.79 5.79 0 0 1 -.43 1.4z" fill="#920116"/><path d="m465.55 121.83 2.24.79c42.7 15.35 80.85 27.1 118.09 36.13v-14.39h-6l4-3.44c-38.29-9.2-77.72-20.9-118.74-35.2a53.5 53.5 0 0 1 .53 7.53c-.03 3-.02 5.89-.12 8.58z" fill="#920116"/><path d="m418.34 108.35q10.59 2.48 20.55 5.21v-.31a46.78 46.78 0 0 1 2.59-15.87q-11.85-4.12-23.48-7.82a70.42 70.42 0 0 1 .44 7.94c0 3.78.01 7.42-.1 10.85z" fill="#920116"/><path d="m1058.86 130.56a16.4 16.4 0 0 1 2.28 14.85 681.05 681.05 0 0 1 88.8 1.11v-7.08h-18.84c5.57-2.23 9.56-8.1 11-10.56a683.47 683.47 0 0 0 -82.42-.49l-.79 2.21z" fill="#920116"/><path d="m1262.82 154.06c0 4.05 0 7.94-.14 11.57 5.77 1.5 11.54 3.06 17.32 4.72v-17.09c-5.8-1.67-11.6-3.24-17.4-4.75.14 1.81.22 3.66.22 5.55z" fill="#920116"/><path d="m701 163.07a3.85 3.85 0 0 1 .34 1.53l9.73 14.53-.56.37a1 1 0 0 1 .08.14 1.44 1.44 0 0 1 .54 0 1.47 1.47 0 0 1 .49.22c7.35.62 14.93 1 22.69 1.22l.06-1h.2a2.16 2.16 0 0 1 0-.27 2.52 2.52 0 0 1 .4-.74 7.12 7.12 0 0 1 .49-6.45 4 4 0 0 1 -.34-2.31h-10.59a27.05 27.05 0 0 0 9-6.31c-10.56-.3-20.79-.95-30.57-2l-.9-.1a6.51 6.51 0 0 1 -1.06 1.17z" fill="#920116"/><path d="m282.42 87.71v-13.53h-5.42l15.41-13.35 15.42 13.35h-5.44v15.46c27.22 2.86 54.46 6.61 80.21 11.31 0-1.14 0-2.29 0-3.45a65.74 65.74 0 0 1 2.34-17.74c-55.4-15.18-107.78-23.11-160.47-24.44a30.28 30.28 0 0 0 8 5.21h-10.09s6.46 12.47 16.55 16.55h-26.71v6.23c22.38.8 46.13 2.25 70.2 4.4z" fill="#920116"/><g fill="#af0e2c"><path d="m83.35 105.26v-17.33c-15.21 1.83-30.57 4.14-46.23 7v2h-7.32v-.63q-14.7 2.7-29.8 6.11v25.23c25-5.59 49.06-10 72.66-13.12z"/><path d="m386.74 127c-3.76-5.88-4.13-15.24-4.16-26-25.75-4.7-53-8.45-80.21-11.31v3.41h-19.95v-5.39c-24.07-2.15-47.82-3.6-70.2-4.4v14.55h-10.22v-14.86c-11.78-.31-23.12-.45-33.84-.39-14.24.08-28.42.56-42.63 1.46l27.72 24q7.45-.18 14.91-.23c62.92-.35 146.96 5.66 218.58 19.16z"/><path d="m438.89 113.56q-10-2.73-20.55-5.21c-.36 10.91-1.95 19.56-8.94 23.2 14 3.07 27.33 6.47 39.71 10.18v-1.95c-10.11-1.78-10.22-12.78-10.22-26.22z"/><path d="m643.81 196 1.17.2-1.78-2.66z"/><path d="m624.65 191.19a2.94 2.94 0 0 1 -.87-.78 6.4 6.4 0 0 1 -.83-1.75l-.29-1.89a2.76 2.76 0 0 1 .23-.84 2.58 2.58 0 0 1 .43-.82 5.47 5.47 0 0 1 1.46-1.25 6.88 6.88 0 0 0 2.67-2.14 6.35 6.35 0 0 0 .55-2.72 14.33 14.33 0 0 1 .34-2.44 1.35 1.35 0 0 1 -.93-.77l-.05-.14a1.51 1.51 0 0 1 .83-1.86 5.75 5.75 0 0 1 1-5.64q-10.64-2-21.25-4.32v1.38h-22v-6.43c-37.24-9-75.39-20.78-118.09-36.13l-2.24-.79c-.36 9.47-2.07 16.56-10.13 18v3.89c4.25 1.35 8.39 2.74 12.37 4.18 14.15 5.07 27.81 9.72 41.15 14.07 2.27-2.37 4.85-3.72 7.58-3.72 4.58 0 8.72 3.76 11.69 9.82a940.76 940.76 0 0 0 95.87 24.3z"/><path d="m1231.06 183.43c-3.73-5.9-4.08-15.29-4.11-26.06q-14.62-3-29.28-5.25c-1.53 7.18-4.93 12.17-12.44 13.48v9.94q22.99 3.11 45.83 7.89z"/><path d="m96 94.27 10.09-8.73q-5 .45-10.09 1z"/><path d="m748.24 181.32a9.1 9.1 0 0 1 -.94.72 3.48 3.48 0 0 1 .32 1.55l3.62 5.41v-7.7z"/><path d="m891.18 190.49v3c24.15-3.64 47.33-7.56 68.35-11.11l5.84-1c19.3-3.26 38.18-5.82 56.76-7.72a23.87 23.87 0 0 1 4.13-9.1l-13.19-8.56a1 1 0 1 1 1.13-1.75l13.39 8.67a24 24 0 0 1 12-7.33 16.5 16.5 0 0 1 -8.85-8c-21.34 2-43.09 4.8-65.38 8.57l-5.84 1-4.36.74v7.24h-34.38v-1.51q-8.87 1.44-18 2.87c-.15 12.5-1.43 22.22-11.6 23.99z"/><path d="m1061.14 145.41a16.52 16.52 0 0 1 -9.75 10.19 23.85 23.85 0 0 1 9.4 4.79l12.49-9.31a1 1 0 1 1 1.25 1.67l-12.17 9.07a24 24 0 0 1 5.51 8.5 664.89 664.89 0 0 1 108.9 4.16v-8.89c-8.81-1.57-12-8.35-13.08-17.81-2.17-.22-4.35-.42-6.53-.62v7h-7.22v-7.59a681.05 681.05 0 0 0 -88.8-1.16z"/><path d="m1253.12 188.44q13.43 3.28 26.88 7.15v-25.24c-5.78-1.66-11.55-3.22-17.32-4.72-.41 10.91-2.17 19.46-9.56 22.81z"/><path d="m688 188.77h-1.87l.92-11.53-1.65-.24-2.73 4.73-.13-.08s0 0 0 0c-.75 1.45-2.06 2.25-2.94 1.8a1.83 1.83 0 0 1 -.69-1.94c-.47 0-.87-.16-.95-.49s.3-.81.87-.94a1.43 1.43 0 0 1 .54 0s0 0 0 0l.1-.17-.83-.48 1.76-3c-13.56-1.79-26.85-3.84-40-6.18l.05.14a1.32 1.32 0 0 1 -.09 1.16 7.76 7.76 0 0 1 2.3 2.3 1.64 1.64 0 0 1 .34.94.83.83 0 0 1 -.06.21 6.89 6.89 0 0 1 .67 3 7 7 0 0 1 -.83 3.31 2.87 2.87 0 0 1 .92 1.26 3 3 0 0 1 -.12 2.17l8.52 12.73c12.09 2 24.32 3.72 36.8 5.26z"/><path d="m755.92 196-.6.41a3.4 3.4 0 0 1 .34.4 1.51 1.51 0 0 1 .53-.07c.57 0 1 .39 1 .78s-.38.59-.84.63a1.83 1.83 0 0 1 -.36 2c-.77.58-2.19 0-3.16-1.28a4.39 4.39 0 0 1 -.38-.61l-.53.36-3.48-5.2 1.43 13.08c42.83-.21 89.89-5.52 134.11-12v-4c-8.79-1.57-10.94-9.24-11.45-19.55-16.52 2.32-33.33 4.42-50.1 6.12v3.18h-7.22v-2.47c-18.2 1.72-36.27 2.92-53.76 3.36v10h-8.8z"/><path d="m733.69 191.73-3.93 6.81-.25-.14c0 .11-.09.22-.14.32-.73 1.39-2.06 2.13-3 1.65a1.9 1.9 0 0 1 -.8-1.94 1 1 0 0 1 -1-.52c-.11-.39.27-.78.86-.89a1.75 1.75 0 0 1 .56 0 .05.05 0 0 0 0 0 4.68 4.68 0 0 1 .27-.44l-.53-.31 8.59-14.89v-.19c-7.76-.2-15.34-.6-22.69-1.22a.74.74 0 0 1 .37.72c-.08.33-.48.52-.95.49a1.82 1.82 0 0 1 -.69 1.94c-.83.43-2-.29-2.82-1.6l-.35.24-1.57-2.35-2.53-.25 1.35 9.79h-2.71l2.46 14.81.38-.05a7.78 7.78 0 0 0 .3.89c9 .93 18.27 1.53 27.87 1.82z"/><path d="m695 188.83h-.37l-.7 14.48 5.37.62z"/><path d="m85.4 137.23v-19h-17.06l4.32-3.74c-23.6 3.2-47.66 7.56-72.66 13.15v24.36a834.65 834.65 0 0 1 85.4-14.77z"/><path d="m300.44 135.75h.02-.01z"/><path d="m629 214.81h-5.73l3.5-15.26-2.52 5.73-.35-.16a5.11 5.11 0 0 1 -.22.48c-.94 1.82-2.6 2.84-3.69 2.27a2.3 2.3 0 0 1 -.88-2.44 1.06 1.06 0 0 1 -1.19-.62c-.11-.49.38-1 1.09-1.19a1.75 1.75 0 0 1 .68 0v-.06a2.12 2.12 0 0 1 .12-.2l-.39-.17 4.72-10.78a940.76 940.76 0 0 1 -95.87-24.3c2.92 5.93 4.72 14.07 4.72 23v2.71a929.44 929.44 0 0 0 96.17 23.83z"/><path d="m1021.57 178.79a24.09 24.09 0 0 1 .56-5.14c-18.58 1.9-37.46 4.46-56.76 7.72l-5.84 1c-21 3.55-44.2 7.47-68.35 11.11v20.52h-7.18v-19.47c-44.22 6.49-91.28 11.8-134.11 12l.21 1.94h-2.29l2.35 14.13c1-.2 2.59-.43 3.07.17.68.87 1 1.76.52 1.9s-2.63 1-2.63 1l-2.75 1-1.55.49a19.23 19.23 0 0 0 -.58-2.71l.11-.06-4.54-15.91h-.48l-2.81 15.47.46.16a18.28 18.28 0 0 0 -.26 2.77l-1.59-.31-2.85-.62s-2.27-.57-2.73-.66-.28-1 .3-1.95c.36-.58 1.68-.61 2.65-.56l1-14.36h-2.81l.13-2c-9.6-.29-18.91-.89-27.87-1.82.38 1 .91 2.06.91 2.06l-1.79.54-3.23.89s-2.63.62-3.14.77-.82-.87-.73-2.14c.05-.83 1.53-1.61 2.57-2.06l-.2-.67-5.37-.62-.08 1.79h.28a21.73 21.73 0 0 0 .31 3.18h-1.87l-3.35-.08s-2.7-.16-3.23-.16-.54-1.07-.09-2.26c.3-.79 2-1.11 3.12-1.24l-.12-1.9c-12.48-1.54-24.71-3.29-36.8-5.26l1.61 2.4-.14.09c.08.13.16.25.23.39a.08.08 0 0 1 0 0 1.75 1.75 0 0 1 .68 0c.72.17 1.21.69 1.09 1.18s-.6.66-1.19.62a2.3 2.3 0 0 1 -.87 2.44c-1.09.57-2.72-.43-3.67-2.22l-.51.34-4.37-6.46-1.17-.2 4.62 18.79h-5.86l.91 5.47c19.4 3.36 39.06 6.11 59.49 8.37 75 8.29 176.17-8.38 251.64-21.15.25-12.59 5.43-22.65 11.78-22.65 5.69 0 10.44 8.07 11.55 18.8q26.58-4.12 52.23-6.49a23.86 23.86 0 0 1 -8.62-18.37z"/><path d="m635 214.81-.2 3.91 3 .55-1.27-4.46z"/><path d="m1240.65 189.63a13.49 13.49 0 0 1 -9.59-6.2q-22.86-4.77-45.83-7.89v17.78h-8.46v-18.84a664.89 664.89 0 0 0 -108.9-4.16 23.93 23.93 0 0 1 -4.64 24.53c61.16-2.95 119.33 2 177.42 15z"/><path d="m396.28 133.06a13.5 13.5 0 0 1 -9.54-6.11c-71.62-13.45-155.66-19.46-218.58-19.12q-7.46 0-14.91.23l11.75 10.2h-17v14.28q10.09-.33 20.2-.39c36.86-.2 81 1.79 125.59 6.16l-2.19-2.67a7.19 7.19 0 0 1 -2.71-5.62c0-.12 0-.22 0-.33a4 4 0 0 1 -1.65-3 2.74 2.74 0 0 1 1-1.8c-.74-.63-1.11-1.21-1-1.65.21-.65 1.46-.9 3.3-.77a2.42 2.42 0 0 1 .1-.45l1.13-3.47a2.35 2.35 0 0 1 3-1.51l8.49 2.76a2.35 2.35 0 0 1 1.51 3l-1.13 3.47a2.08 2.08 0 0 1 -.19.43c1.57 1 2.44 1.91 2.23 2.57-.17.51-1 .77-2.24.79 0 .19.09.39.13.57.45 2-.83 3.84-1.79 4.86a1.24 1.24 0 0 1 -1.22.33l.94 3.33c32.39 3.37 64.84 8 94.78 14z"/><path d="m1249.11 189.64v22.16q15.44 3.67 30.89 8.1v-24.31q-13.45-3.87-26.88-7.15a16.53 16.53 0 0 1 -4.01 1.2z"/><path d="m455.42 143.68v16.79h-6.31v-18.74c-12.38-3.71-25.71-7.11-39.71-10.18a16 16 0 0 1 -4.66 1.52v21.79c23.14 4.92 44.58 10.67 63.05 17.31 11.23 4 22.14 7.82 32.81 11.37 1.11-9.38 4.22-17.2 8.38-21.55-13.32-4.34-27-9-41.19-14.13-3.98-1.44-8.12-2.86-12.37-4.18z"/><path d="m970.46 235.81-1.29.22v14.09h-5.56v-13.12c-81.87 13.85-183.46 31-264 22a940.4 940.4 0 0 1 -176.22-36.15 15.58 15.58 0 0 1 -3 .81v25.34h-5.39c63.95 19.92 120.57 31.66 184.65 38.74 80.88 8.94 183-8.34 265-22.22l5.83-1c66.68-11.27 127.43-14.09 185.74-8.61a630.94 630.94 0 0 1 123.78 24.57v-28.75a630.18 630.18 0 0 0 -123.8-24.52c-58.31-5.48-119.06-2.67-185.74 8.6z"/><path d="m152.62 186.81a1.3 1.3 0 0 1 1.81.11 4.77 4.77 0 0 1 .36 1.2c.36 1.07 1.64 1.46 2.75 1.66a39.41 39.41 0 0 0 18.12-1.05 9.38 9.38 0 0 0 3.92-2c-1.39-1-1.79-2.82-2-4.51-.06-.62-.1-1.24-.13-1.86a35.12 35.12 0 0 1 0-4.23 1.45 1.45 0 0 1 .28-.94c.41-.44 1.18-.23 1.61.19s.7 1 1.16 1.38c1.3 1.11 3.29.24 4.69-.73a4.13 4.13 0 0 1 -.81-2.06c0-.74.57-1.55 1.31-1.49a1.83 1.83 0 0 1 1.05.55 31.4 31.4 0 0 1 3.44 4.47c1.15 1.49 2.73 2.86 4.61 3 1.14.06 2.55-.24 3.19.71s-.18 2.17-1.11 2.78c-1.75 1.14-4.24 1.54-5.05 3.46a5.3 5.3 0 0 0 .12 3.51l.21.69c84.93 1.54 196.87 13.5 265.22 38.06 19.2 6.9 37.5 13.09 55.23 18.65v-24.69a12.42 12.42 0 0 1 -9.6-7.15c-14.73-4.76-29.88-9.93-45.63-15.59-40-14.38-94.93-24.44-150.65-30.62l2.7 12.48h.24a23 23 0 0 0 1.34 3.21l-1.95.54-3.52.88s-2.85.6-3.41.75-.86-1-.73-2.33c.11-1.22 3.12-2.29 3.77-2.51l-2.92-13.5-4.32-.45-1 .12-5.44 14.44.39.36a24 24 0 0 0 -1.63 3l-1.68-1.12-3-2.08s-2.32-1.76-2.81-2.08.16-1.28 1.29-2.08c.82-.59 2.86.38 3.88.93l4.05-10.76-2 .25.23-1.78h-.54l-.37 2.75-8.29-1.17.32-2.41c-40.16-3.61-79.59-5.24-113-5.05q-10.2.06-20.37.41v14.34h-62.55v-9.45a824.12 824.12 0 0 0 -85.4 15.29v28.71c54.05-12.5 103.33-19 152.87-20.34-1.41-1.5-2.04-3.42-.25-4.85z"/><path d="m311.66 156.54a3 3 0 0 0 -.11 1.32l5.18-2.79a3 3 0 0 0 -1.16-.63 3.32 3.32 0 0 0 -.83-.11 3.26 3.26 0 0 0 -1.54.39 3.21 3.21 0 0 0 -1.54 1.82z"/><path d="m963.61 231.88c-9-1.61-9-11.47-9-23.4 0-.33 0-.65 0-1-75.47 12.79-176.61 29.46-251.61 21.17-20.43-2.26-40.09-5-59.49-8.37l1.34 8c1-.18 2.36-.32 2.8.24.7.88 1 1.77.54 1.92s-2.67 1-2.67 1l-2.79 1-1.56.5a20.23 20.23 0 0 0 -.59-2.75l.26-.13-3.07-10.77-3-.55-.54 10.83c1 0 2.18 0 2.51.61.57 1 .74 1.89.28 2s-2.78.64-2.78.64l-2.89.58-1.62.29a18.15 18.15 0 0 0 -.22-2.8l.5-.18-.89-13a929.44 929.44 0 0 1 -96.12-23.87c0 14-.44 25.51-9.58 29a940.4 940.4 0 0 0 176.19 36.16c80.54 8.9 182.13-8.2 264-22z"/><path d="m289.37 158.72a4.32 4.32 0 0 0 -.43-2.65 2.52 2.52 0 0 0 -.8-.9 2.33 2.33 0 0 1 -.38 0 2.18 2.18 0 0 1 -1.15-.34 2.59 2.59 0 0 0 -1.19.72 4.36 4.36 0 0 0 -1.12 2.45v.32l5 .68c.03-.07.06-.17.07-.28z"/><path d="m282.6 158.14 1 .13c0-.11 0-.21 0-.32a5.06 5.06 0 0 1 1.3-2.84 3.44 3.44 0 0 1 1.11-.76 2.16 2.16 0 0 1 -.2-2.36l7.3-12.64a3.79 3.79 0 0 1 .73-.9l-.11-.14c-44.62-4.37-88.73-6.36-125.59-6.16q-10.11 0-20.2.39v30.57q10.18-.35 20.37-.41c33.39-.19 72.82 1.44 113 5.05z"/><path d="m500.16 191.13a64.4 64.4 0 0 1 .44-7.59c-10.67-3.55-21.58-7.33-32.81-11.37-18.47-6.64-39.91-12.39-63.05-17.31v5.93h-8.46v-7.68c-29.94-6-62.39-10.64-94.78-14l.32 1.11a3.87 3.87 0 0 1 .4.33l10.32 10.32a2.18 2.18 0 0 1 .95 1.8 1.84 1.84 0 0 1 -.06.47 4.57 4.57 0 0 1 2.54 0 4.33 4.33 0 0 1 2.06 1.28l.75-.4a2.11 2.11 0 0 1 2.87.87l2.75 5.11a2.12 2.12 0 0 1 -.87 2.87l-9.21 4.95a2.12 2.12 0 0 1 -2.88-.86l-2.78-5.18a2.13 2.13 0 0 1 .87-2.87l.75-.4a4.2 4.2 0 0 1 .07-2.43 4.48 4.48 0 0 1 .67-1.26 2.2 2.2 0 0 1 -1.55-.93l-5.26-5.26 3 11.09 1.08 8.22-1.9.25.44 2.06c55.72 6.18 110.65 16.24 150.65 30.62 15.75 5.66 30.9 10.83 45.63 15.59-2.95-5.97-2.95-15.1-2.95-25.33z"/><path d="m292.88 148.5-3.27 5.67a2.1 2.1 0 0 1 -.73.72 3.6 3.6 0 0 1 .67.85 5 5 0 0 1 .51 3.07c0 .11-.05.22-.07.32l1 .14-1.25 9.28h.54z"/><path d="m1249.11 217.36h-8.46v-7.52c-58.09-13-116.26-17.94-177.42-15a23.91 23.91 0 0 1 -33.06 2.31q-25.68 2.37-52.23 6.49a47.29 47.29 0 0 1 .25 4.83c0 11.94.12 21.81-9 23.4v4.13l1.29-.22c66.68-11.27 127.43-14.08 185.74-8.6a630.18 630.18 0 0 1 123.78 24.55v-31.83q-15.46-4.44-30.89-8.1z"/><path d="m85.4 137.23a834.65 834.65 0 0 0 -85.4 14.77v31.33a824.12 824.12 0 0 1 85.4-15.33z"/><path d="m297.91 169.36 4.32.45-.21-1z"/><path d="m190.22 45.6h8.48a63.18 63.18 0 0 1 -9.07 9.85 30.1 30.1 0 0 1 -7.88 5.08h10.09s-6.46 12.47-16.55 16.55h26.71v20.78h10.22v-20.78h26.71c-10.09-4-16.55-16.55-16.55-16.55h10.09a30.28 30.28 0 0 1 -8-5.21 63.37 63.37 0 0 1 -8.92-9.72h8.45c-6.43-3.77-10.91-10-13.64-14.8a49.92 49.92 0 0 1 -3.18-6.64v-.36l-.07.18-.11-.18v.36a50.44 50.44 0 0 1 -3.18 6.65c-2.69 4.83-7.17 11.02-13.6 14.79z"/><path d="m731 153.8h10.09a47.69 47.69 0 0 1 -7.55 10.2 27.05 27.05 0 0 1 -9 6.31h10.69a.8.8 0 0 1 0-.15c.27-1.12 1.92-1.84 3-2.19a1.3 1.3 0 0 1 .07-1.06l.07-.13a1.52 1.52 0 0 1 2-.5 5.59 5.59 0 0 1 7.08-2.16.73.73 0 0 1 0-.7.84.84 0 0 1 1.15-.23.83.83 0 0 1 .4 1.1.7.7 0 0 1 -.63.36 5.56 5.56 0 0 1 2.11 5.66h.83v18.69l1.43 2.13h8.8v-20.78h26.7a27.85 27.85 0 0 1 -9.63-7 47.68 47.68 0 0 1 -6.92-9.58h10.09c-7.5-3.06-14.42-11.6-16.39-14.18l-.56-.75h8.48c-10.64-6.24-16-19.15-16.82-21.44v-.35l-.07.18-.06-.18v.35c-.88 2.29-6.18 15.2-16.82 21.44h8.47s-.27.39-.78 1c-2.29 2.94-9 11-16.23 13.96z"/><path d="m806.92 143.35h6s-5.7 8-12 10.54h7.12a33.22 33.22 0 0 1 -6.06 7.94 18.49 18.49 0 0 1 -5.61 3.74h18.84v14.67h7.22v-14.67h18.87a21.68 21.68 0 0 1 -8.36-6.72 33.3 33.3 0 0 1 -3.32-5h7.12c-6.27-2.56-12-10.54-12-10.54h6a25.77 25.77 0 0 1 -7.94-7.73 37.84 37.84 0 0 1 -3.93-7.4v-.18.13l-.05-.13v.25a37.32 37.32 0 0 1 -4.53 8.23 24.84 24.84 0 0 1 -7.37 6.87z"/><path d="m1141.64 117.22h6s-5.7 8-12 10.54h7.12s-.22.44-.63 1.12c-1.48 2.46-5.47 8.33-11 10.56h18.84v14.67h7.22v-14.67h6c-.08-3-.08-6.16-.08-9.42a70.22 70.22 0 0 1 .46-8.07 44.69 44.69 0 0 1 -4-4.73h4.75c0-.23.09-.47.14-.7-4.48-3-7.5-7.69-9.19-10.94a34.44 34.44 0 0 1 -1.59-3.49v-.25.13a.93.93 0 0 1 0-.13v.25c-.19.49-.67 1.68-1.45 3.21-1.97 3.51-5.36 8.86-10.59 11.92z"/><path d="m37.12 82h19.11c-3.89-1.56-7-4.88-9.09-7.61a33.59 33.59 0 0 1 -2.75-4.23h7.22c-6.35-2.6-12.13-10.69-12.13-10.69h6.07a25.79 25.79 0 0 1 -7.77-7.47 38 38 0 0 1 -4.27-7.9v-.26.13a.93.93 0 0 1 0-.13v.26a37.56 37.56 0 0 1 -6 10.15 23.91 23.91 0 0 1 -6 5.19h6.06s-5.77 8.09-12.13 10.69h7.22s-4.62 9-11.84 11.84h18.98v14.91h7.32z"/><path d="m307.81 74.18-15.42-13.35-15.41 13.35h5.44v13.53 5.34h19.95v-3.41-15.46z"/><path d="m585.88 144.36v14.39 6.43h22.01v-1.38-17.4-2.04h6l-17.01-14.72-13.03 11.28-3.97 3.44z"/><path d="m911.4 132.56h9.38v13.94 17.09 1.51h34.39v-7.24-17.09-8.21h9.38l-8.9-7.71v-8.48-6.82h-5.46v7.74 2.84l-2.74-2.38-9.47-8.2-13.98 12.11z"/></g><path d="m1029 140.2a16.54 16.54 0 0 0 10.6 15.4 23.85 23.85 0 0 1 11.79 0 16.52 16.52 0 0 0 9.75-10.19 16.4 16.4 0 0 0 -2.28-14.85l-11.72-6.77c-.54-.05-1.09-.08-1.64-.08a16.53 16.53 0 0 0 -16.5 16.49zm6.8-3.65a1.07 1.07 0 1 1 -1.07 1.07 1.07 1.07 0 0 1 1.07-1.07zm13.38.95a1.07 1.07 0 1 1 -1.07-1.07 1.07 1.07 0 0 1 1.07 1.07z" fill="#fff"/><path d="m1069.42 178.79a23.93 23.93 0 0 0 -7.06-17l-3 2.23a1 1 0 0 1 -.62.2 1 1 0 0 1 -.63-1.87l2.66-2a23.91 23.91 0 0 0 -33.2 2.54l2.48 1.6a1 1 0 0 1 -.57 1.92 1 1 0 0 1 -.57-.17l-2.67-1.73a23.93 23.93 0 1 0 43.16 14.24zm-25.35-9.6a1.49 1.49 0 1 1 1.43 1.53 1.49 1.49 0 0 1 -1.43-1.53zm0 14.64a1.49 1.49 0 1 1 1.43 1.54 1.49 1.49 0 0 1 -1.43-1.54zm0-7.35a1.49 1.49 0 1 1 1.43 1.54 1.49 1.49 0 0 1 -1.43-1.54z" fill="#fff"/><path d="m1048.11 136.43a1.07 1.07 0 1 0 1.07 1.07 1.07 1.07 0 0 0 -1.07-1.07z" fill="#141414"/><path d="m1035.8 138.69a1.07 1.07 0 1 0 -1.07-1.07 1.07 1.07 0 0 0 1.07 1.07z" fill="#141414"/><path d="m1058.86 130.56.07.04.79-2.21 3.6-10.06-7.43-4.29-8.76 9.75h.01z" fill="#012a22"/><path d="m1074.53 152.75a1 1 0 1 0 -1.25-1.67l-12.49 9.31-2.66 2a1 1 0 0 0 1.25 1.67l3-2.23z" fill="#2c220d"/><path d="m1014.2 154.26a1 1 0 1 0 -1.13 1.75l13.19 8.54 2.67 1.73a1 1 0 0 0 .57.17 1 1 0 0 0 .57-1.92l-2.48-1.6z" fill="#2c220d"/><path d="m1047 169.29a1.49 1.49 0 1 0 -1.54 1.43 1.48 1.48 0 0 0 1.54-1.43z" fill="#af0e2c"/><path d="m1045.5 178a1.49 1.49 0 1 0 -1.43-1.54 1.49 1.49 0 0 0 1.43 1.54z" fill="#af0e2c"/><path d="m1047 183.94a1.49 1.49 0 1 0 -1.54 1.43 1.49 1.49 0 0 0 1.54-1.43z" fill="#af0e2c"/><path d="m148 132.54v-14.28h17l-11.78-10.2-27.72-24-8.85-7.67-10.55 9.15-10.1 8.73v-13.63h-12.65v24.62l-10.69 9.26-4.32 3.74h17.06v59.19h62.6zm-32.35 1.78v10.5h-10.53v-10.5zm0-2.18h-10.53v-10.49h10.49zm-23.17-10.49h10.52v10.49h-10.52zm0 12.67h10.52v10.5h-10.52z" fill="#012a22"/><path d="m92.48 121.65h10.49v10.49h-10.49z" fill="#f4e171"/><path d="m92.48 134.32h10.49v10.49h-10.49z" fill="#f4e171"/><path d="m105.12 134.32h10.49v10.49h-10.49z" fill="#f4e171"/><path d="m105.12 121.65h10.49v10.49h-10.49z" fill="#f4e171"/><path d="m300 135.46-.41-.42a1.16 1.16 0 0 1 -.22-.31l-.71-1.41a1.25 1.25 0 0 1 .22-1.41l.17-.18c.09-.12.35-.34.38-.49a.51.51 0 0 0 0-.21 1.18 1.18 0 0 0 -1.22-.94.75.75 0 0 1 -.45-.06 12 12 0 0 0 -1.71-1.38l-.33-.1-.48-.16a28.16 28.16 0 0 0 -4.86 1.55 1.63 1.63 0 0 1 -1.49-.25v.33a7.19 7.19 0 0 0 2.71 5.62l8.87.11a1.34 1.34 0 0 1 -.47-.29z" fill="#ffeab6"/><path d="m311 154.85a4.67 4.67 0 0 1 2.38-1.7 1.84 1.84 0 0 0 .06-.47 2.18 2.18 0 0 0 -.95-1.8l-3 3a2.2 2.2 0 0 0 1.51.97z" fill="#ffeab6"/><path d="m285.57 153a2.21 2.21 0 0 0 .46 1.34 2.53 2.53 0 0 1 1.38-.2 2.62 2.62 0 0 1 1.47.74 2.1 2.1 0 0 0 .73-.72l-3.78-2.16a2.21 2.21 0 0 0 -.26 1z" fill="#ffeab6"/><path d="m288.14 155.17a1.83 1.83 0 0 0 -.83-.34h-.24a2.42 2.42 0 0 0 -.46.06 2.18 2.18 0 0 0 1.15.34 2.33 2.33 0 0 0 .38-.06z" fill="#ffeab6"/><path d="m288 180.89.6.35 2.92 2.68 5.48-14.44-4.91.65z" fill="#2c220d"/><path d="m303.59 146.48.6 2.21 5.26 5.26 3-3-10.32-10.32a3.87 3.87 0 0 0 -.4-.33z" fill="#012a22"/><path d="m293.13 139.35-7.3 12.65 3.78 2.18 3.27-5.67 1.25-9.72-.27-.33a3.79 3.79 0 0 0 -.73.89z" fill="#012a22"/><path d="m301.78 135.44c1-1 2.24-2.84 1.79-4.86 0-.18-.09-.38-.13-.57a25.51 25.51 0 0 1 -7.4-1.36 12 12 0 0 1 1.71 1.38.75.75 0 0 0 .45.06 1.18 1.18 0 0 1 1.22.94.51.51 0 0 1 0 .21c0 .15-.29.37-.38.49l-.17.18a1.25 1.25 0 0 0 -.22 1.41l.71 1.41a1.16 1.16 0 0 0 .22.31l.41.42a1.34 1.34 0 0 0 .45.29h.11a1.24 1.24 0 0 0 1.23-.31z" fill="#2c220d"/><path d="m290.37 129.94a28.16 28.16 0 0 1 4.86-1.55 23.14 23.14 0 0 1 -7-3.52 2.74 2.74 0 0 0 -1 1.8 4 4 0 0 0 1.65 3 1.63 1.63 0 0 0 1.49.27z" fill="#2c220d"/><path d="m295.23 128.39.48.16.33.1a25.51 25.51 0 0 0 7.4 1.36c1.24 0 2.07-.28 2.24-.79.21-.66-.66-1.59-2.23-2.57a2.08 2.08 0 0 0 .19-.43l1.13-3.47a2.35 2.35 0 0 0 -1.51-3l-8.49-2.75a2.35 2.35 0 0 0 -3 1.51l-1.1 3.49a2.42 2.42 0 0 0 -.1.45c-1.84-.13-3.09.12-3.3.77-.15.44.22 1 1 1.65a23.14 23.14 0 0 0 6.96 3.52z" fill="#012a22"/><path d="m306.37 168.25-4.35.57.21 1 2.92 13.5h.13l4.23-.48-2.7-12.48z" fill="#2c220d"/><path d="m306.37 168.25 1.9-.25-1.08-8.22-3-11.09-.6-2.21-1.77-6.27-.32-1.11-.94-3.33v-.02h-.1-.02l-8.87-.11h-.01l2.19 2.67.11.14.27.33-1.25 9.72-2.56 20.1-.23 1.78 1.96-.25 4.91-.65.95-.12 4.11-.54z" fill="#012a22"/><path d="m288 180.89c-1-.55-3.06-1.52-3.88-.93-1.13.8-1.77 1.76-1.29 2.08s2.81 2.08 2.81 2.08l3 2.08 1.68 1.12a24 24 0 0 1 1.63-3l-.39-.36-2.92-2.68z" fill="#012a22"/><path d="m305.15 183.31c-.65.22-3.66 1.29-3.77 2.51-.13 1.37.18 2.48.73 2.33s3.41-.75 3.41-.75l3.52-.88 1.96-.52a23 23 0 0 1 -1.24-3.22h-.24l-4.23.48z" fill="#012a22"/><path d="m318.57 155.19a4.43 4.43 0 0 1 -1.92 5.95 4.62 4.62 0 0 1 -2.19.55 4.08 4.08 0 0 1 -1.2-.16 4.18 4.18 0 0 1 -2.63-2.08 3.89 3.89 0 0 1 -.35-.91l-.75.4a2.13 2.13 0 0 0 -.87 2.87l2.78 5.18a2.12 2.12 0 0 0 2.88.86l9.21-4.95a2.12 2.12 0 0 0 .87-2.87l-2.78-5.17a2.11 2.11 0 0 0 -2.87-.87l-.75.4a5 5 0 0 1 .57.8z" fill="#2c220d"/><path d="m311.84 158.8a2.88 2.88 0 0 0 1.78 1.4 3.17 3.17 0 0 0 2.37-.28 3 3 0 0 0 1.36-4.08 2.88 2.88 0 0 0 -.62-.77l-5.18 2.79a2.93 2.93 0 0 0 .29.94z" fill="#2c220d"/><path d="m311 154.85a4.48 4.48 0 0 0 -.67 1.26 4.2 4.2 0 0 0 -.07 2.43 3.89 3.89 0 0 0 .35.91 4.18 4.18 0 0 0 2.63 2.08 4.08 4.08 0 0 0 1.2.16 4.62 4.62 0 0 0 2.19-.55 4.43 4.43 0 0 0 1.92-5.95 5 5 0 0 0 -.57-.8 4.33 4.33 0 0 0 -2.06-1.28 4.57 4.57 0 0 0 -2.54 0 4.67 4.67 0 0 0 -2.38 1.7zm4.55-.41a3 3 0 0 1 1.16.63 2.88 2.88 0 0 1 .62.77 3 3 0 0 1 -1.36 4.08 3.17 3.17 0 0 1 -2.37.28 2.88 2.88 0 0 1 -1.78-1.4 2.93 2.93 0 0 1 -.29-.94 3 3 0 0 1 .11-1.32 3.21 3.21 0 0 1 1.54-1.82 3.26 3.26 0 0 1 1.54-.39 3.32 3.32 0 0 1 .85.11z" fill="#2c220d"/><path d="m286.39 160.48a8.19 8.19 0 0 1 -.83.05 2.07 2.07 0 0 1 -.79-.11 1 1 0 0 1 -.25-.21 3 3 0 0 0 .86 1.28 4.11 4.11 0 0 0 1.01-1.01z" fill="#c7ad7d"/><path d="m288.27 160.89h-.15a4.8 4.8 0 0 1 -1.34-.34 4.11 4.11 0 0 0 .67 1.18 3 3 0 0 0 1.2-1.07.91.91 0 0 1 -.38.23z" fill="#c7ad7d"/><path d="m285.6 158.87a4.28 4.28 0 0 1 1 1.36 4.28 4.28 0 0 1 1.29-1 .88.88 0 0 1 1.06.65 1.3 1.3 0 0 1 0 .34 5.76 5.76 0 0 0 .37-1.13l-5-.68a4.83 4.83 0 0 0 .05 1.15 1.29 1.29 0 0 1 .08-.28.88.88 0 0 1 1.15-.41z" fill="#c7ad7d"/><path d="m285.57 161.62a2 2 0 0 0 .79.31 1.88 1.88 0 0 0 .88-.11 4.11 4.11 0 0 1 -.67-1.22 4.61 4.61 0 0 1 -1 1.02z" fill="#c7ad7d"/><path d="m286.36 160.27a4 4 0 0 0 -.86-1.21.68.68 0 0 0 -.31-.08.58.58 0 0 0 -.19 0 .66.66 0 0 0 -.13 1.22 4 4 0 0 0 1.49.07z" fill="#c7ad7d"/><path d="m291 159.27-1-.14a4.54 4.54 0 0 1 -2 3.1 1.09 1.09 0 0 0 .17.13.1.1 0 0 1 0 .14.11.11 0 0 1 -.09.06h-.06a2.14 2.14 0 0 1 -.26-.19 2.57 2.57 0 0 1 -1.18.29h-.33a2.72 2.72 0 0 1 -1.36-.64 2.31 2.31 0 0 1 -.28.1.12.12 0 0 1 -.1-.08.11.11 0 0 1 .08-.13l.16-.06a4.56 4.56 0 0 1 -1.14-3.55l-1-.13-1.29 9.61-.32 2.41 8.42 1.14.37-2.75z" fill="#c7ad7d"/><path d="m288.72 159.88a.67.67 0 0 0 -.8-.5 4.27 4.27 0 0 0 -1.15 1 4 4 0 0 0 1.45.35.67.67 0 0 0 .5-.85z" fill="#c7ad7d"/><path d="m286 154.35a3.44 3.44 0 0 0 -1.11.76 5.06 5.06 0 0 0 -1.3 2.84v.32a4.56 4.56 0 0 0 1.14 3.55 3.22 3.22 0 0 0 .64-.33 3 3 0 0 1 -.86-1.28.89.89 0 0 1 -.19-.7 4.83 4.83 0 0 1 -.05-1.15c0-.1 0-.21 0-.32a4.36 4.36 0 0 1 1.12-2.45 2.59 2.59 0 0 1 1.19-.72 2.42 2.42 0 0 1 .46-.06h.24a1.83 1.83 0 0 1 .83.34 2.52 2.52 0 0 1 .8.9 4.32 4.32 0 0 1 .43 2.65c0 .11 0 .21-.06.32a5.76 5.76 0 0 1 -.37 1.13.91.91 0 0 1 -.13.33.65.65 0 0 1 -.16.17 3 3 0 0 1 -1.2 1.07 2.75 2.75 0 0 0 .53.49 4.54 4.54 0 0 0 2-3.1c0-.1.05-.21.07-.32a5 5 0 0 0 -.51-3.07 3.6 3.6 0 0 0 -.67-.85 2.62 2.62 0 0 0 -1.47-.74 2.53 2.53 0 0 0 -1.37.22z" fill="#c7ad7d"/><path d="m287.24 161.82a1.88 1.88 0 0 1 -.88.11 2 2 0 0 1 -.79-.31 3 3 0 0 1 -.66.36 2.72 2.72 0 0 0 1.36.64h.33a2.57 2.57 0 0 0 1.18-.29 3 3 0 0 1 -.54-.51z" fill="#c7ad7d"/><path d="m285.56 160.53a8.19 8.19 0 0 0 .83-.05.21.21 0 0 0 0-.06l.1-.11.07-.07a4.28 4.28 0 0 0 -1-1.36.88.88 0 0 0 -1.19.36 1.29 1.29 0 0 0 -.08.28.89.89 0 0 0 .19.7 1 1 0 0 0 .25.21 2.07 2.07 0 0 0 .83.1zm-1-1.2a.67.67 0 0 1 .4-.32.58.58 0 0 1 .19 0 .68.68 0 0 1 .31.08 4 4 0 0 1 .86 1.21 4 4 0 0 1 -1.49 0 .67.67 0 0 1 -.23-.97z" fill="#920116"/><path d="m287.87 159.18a4.28 4.28 0 0 0 -1.29 1l-.07.07-.1.11.07-.1a.1.1 0 0 1 .1 0 .12.12 0 0 1 .11.08 2 2 0 0 0 .07.21 4.8 4.8 0 0 0 1.34.34h.15a.91.91 0 0 0 .38-.22.65.65 0 0 0 .16-.17.91.91 0 0 0 .13-.33 1.3 1.3 0 0 0 0-.34.88.88 0 0 0 -1.05-.65zm.35 1.5a4 4 0 0 1 -1.45-.35 4.27 4.27 0 0 1 1.15-1 .67.67 0 0 1 .8.5.67.67 0 0 1 -.5.85z" fill="#920116"/><path d="m286.57 160.6-.07-.2a.11.11 0 0 1 .08-.13.1.1 0 0 0 -.1 0l-.07.1a.21.21 0 0 1 0 .06 4.11 4.11 0 0 1 -1 1 3.22 3.22 0 0 1 -.64.33l-.16.06a.11.11 0 0 0 -.08.13.12.12 0 0 0 .1.08 2.31 2.31 0 0 0 .28-.1 3 3 0 0 0 .66-.36 4.61 4.61 0 0 0 1-.97z" fill="#920116"/><path d="m287.45 161.74a4.11 4.11 0 0 1 -.67-1.18 2 2 0 0 1 -.07-.21.12.12 0 0 0 -.11-.08.11.11 0 0 0 -.08.13l.07.2a4.11 4.11 0 0 0 .67 1.22 3 3 0 0 0 .54.53 2.14 2.14 0 0 0 .26.19h.06a.11.11 0 0 0 .09-.06.1.1 0 0 0 0-.14 1.09 1.09 0 0 1 -.17-.13 2.75 2.75 0 0 1 -.59-.47z" fill="#920116"/><path d="m82.66 63.16c-3 2.9-8.3 4.82-14.32 4.82a28 28 0 0 1 -3.21-.19 4.51 4.51 0 0 0 -.24 1.46 4.75 4.75 0 0 0 .29 1.58c1.18 3.17 5.82 5.56 11.38 5.56 6.45 0 11.67-3.2 11.67-7.14a4.8 4.8 0 0 0 -.71-2.45 9.44 9.44 0 0 0 -4.86-3.64z" fill="#fff"/><path d="m82.66 63.16a7.77 7.77 0 0 0 2.67-5.58 7.21 7.21 0 0 0 -.1-1.14 36.61 36.61 0 0 1 -14.1 2.68c-7.45 0-14.13-2-18.69-5.18a7 7 0 0 0 -1.09 3.64c0 5.07 5.93 9.29 13.78 10.21a28 28 0 0 0 3.21.19c6.02.02 11.3-1.92 14.32-4.82z" fill="#fff"/><path d="m52.44 53.94c4.56 3.18 11.24 5.18 18.69 5.18a36.61 36.61 0 0 0 14.1-2.68c6.52-2.74 10.77-7.34 10.77-12.56a9.78 9.78 0 0 0 -.41-2.74c-2.09-7.14-12.24-12.49-24.46-12.49-13.74 0-24.89 6.82-24.89 15.23a10.36 10.36 0 0 0 2 6 16.92 16.92 0 0 0 4.2 4.06z" fill="#fff"/><path d="m191.91 187.41c.81-1.92 3.3-2.32 5.05-3.46.93-.61 1.73-1.86 1.11-2.78s-2-.65-3.19-.71c-1.88-.1-3.46-1.47-4.61-3a31.4 31.4 0 0 0 -3.44-4.47 1.83 1.83 0 0 0 -1.05-.55c-.74-.06-1.32.75-1.31 1.49a4.13 4.13 0 0 0 .81 2.06c-1.4 1-3.39 1.84-4.69.73-.46-.39-.72-1-1.16-1.38s-1.2-.63-1.61-.19a1.45 1.45 0 0 0 -.28.94 35.12 35.12 0 0 0 0 4.23c0 .62.07 1.24.13 1.86.16 1.69.56 3.55 2 4.51a9.38 9.38 0 0 1 -3.92 2 39.41 39.41 0 0 1 -18.12 1.05c-1.11-.2-2.39-.59-2.75-1.66a4.77 4.77 0 0 0 -.36-1.2 1.3 1.3 0 0 0 -1.81-.11c-1.79 1.43-1.16 3.35.25 4.89a7.89 7.89 0 0 0 4.69 2.63c2.11.08 4.26-.92 6.28-.3-.18 2.64 2 4.75 3.29 7.06a10.91 10.91 0 0 1 1.27 6.41c-.19 1.74-.77 3.66.17 5.14a3.83 3.83 0 0 0 2.83 1.6 1.69 1.69 0 0 0 1.74-.6 1.34 1.34 0 0 0 -.42-1.59 3.89 3.89 0 0 0 -1.62-.68c.36-2.1.73-4.2 1.09-6.31a5.21 5.21 0 0 1 1.85 3.38c.14 1.2-.13 2.47.38 3.56a2.74 2.74 0 0 0 2.52 1.53 1.72 1.72 0 0 0 1.64-1.12c.17-.69-.58-1.49-1.22-1.19a27 27 0 0 0 -2.48-10.41 37.75 37.75 0 0 1 7.94-3.5 1.79 1.79 0 0 1 1.16-.09 1.84 1.84 0 0 1 .83.78l5.47 7.86a4.36 4.36 0 0 0 2.29 2c1 .24 2.27-.71 1.88-1.68a2.26 2.26 0 0 0 -.76-.84 18.88 18.88 0 0 1 -6.26-9.52 1.49 1.49 0 0 1 -.08-.75c.14-.68 1.09-.9 1.7-.57a3.51 3.51 0 0 1 1.25 1.62c1.36 2.76 2.87 5.57 5.33 7.41a3 3 0 0 0 2.31.78c.82-.16 1.45-1.22.93-1.88a2.68 2.68 0 0 0 -.91-.58 7.37 7.37 0 0 1 -3-3.45 40.43 40.43 0 0 1 -2.76-6.79l-.21-.69a5.3 5.3 0 0 1 -.17-3.47z" fill="#2c220d"/><path d="m404.74 133.07a25.38 25.38 0 0 1 -8.46 0v27.73h8.46z" fill="#2c220d"/><path d="m382.57 97.5v3.45c0 10.76.4 20.12 4.16 26a13.5 13.5 0 0 0 9.54 6.11 25.38 25.38 0 0 0 8.46 0 16 16 0 0 0 4.66-1.52c7-3.64 8.58-12.29 8.94-23.2.11-3.43.1-7.07.1-10.85a70.42 70.42 0 0 0 -.44-7.94c-1.81-16-8.95-28-17.49-28-6.69 0-12.51 7.33-15.6 18.19a65.74 65.74 0 0 0 -2.33 17.76z" fill="#012a22"/><path d="m1176.77 193.32h8.46v-27.72a25 25 0 0 1 -4.23.35 24 24 0 0 1 -4.23-.36z" fill="#2c220d"/><path d="m1164.38 116.52c-.05.23-.09.47-.14.7-.29 1.53-.53 3.11-.71 4.73a70.22 70.22 0 0 0 -.46 8.07c0 3.26 0 6.42.08 9.42s.23 5.74.54 8.34c1.12 9.46 4.27 16.24 13.08 17.81a24 24 0 0 0 4.23.36 25 25 0 0 0 4.23-.35c7.51-1.31 10.91-6.3 12.44-13.48 1-4.8 1.22-10.58 1.26-16.89 0-1.7 0-3.44 0-5.21a64.33 64.33 0 0 0 -2.89-19.56c-3.2-9.85-8.74-16.37-15-16.37-5.47 0-10.37 4.92-13.66 12.67a51.58 51.58 0 0 0 -3 9.76z" fill="#012a22"/><path d="m1240.65 189.63v27.73h8.46v-27.72a25 25 0 0 1 -4.23.35 24 24 0 0 1 -4.23-.36z" fill="#2c220d"/><path d="m1228.26 140.54a68.89 68.89 0 0 0 -1.32 13.52v3.31c0 10.77.38 20.16 4.11 26.06a13.49 13.49 0 0 0 9.59 6.2 24 24 0 0 0 4.23.36 25 25 0 0 0 4.23-.35 16.53 16.53 0 0 0 4-1.2c7.39-3.35 9.15-11.9 9.56-22.81.14-3.63.14-7.52.14-11.57 0-1.89-.08-3.74-.22-5.55-.91-11.84-4.72-21.78-9.93-26.82a11.24 11.24 0 0 0 -7.79-3.56 9.56 9.56 0 0 0 -3.84.84c-5.8 2.54-10.56 10.74-12.76 21.57z" fill="#012a22"/><path d="m887.59 190.79a20.92 20.92 0 0 1 -3.59-.3v23.51h7.18v-23.51a20.83 20.83 0 0 1 -3.59.3z" fill="#2c220d"/><path d="m872.55 170.94c.51 10.31 2.66 18 11.45 19.55a21.63 21.63 0 0 0 7.18 0c10.17-1.77 11.45-11.49 11.6-24 0-2 0-4 0-6.14a58.87 58.87 0 0 0 -1-10.81c-2.18-11.49-7.73-19.67-14.23-19.67-7.29 0-13.38 10.27-14.86 24a59.72 59.72 0 0 0 -.35 6.5c.04 3.68.04 7.26.21 10.57z" fill="#012a22"/><path d="m520.43 223.68a23 23 0 0 1 -3.87.32 22 22 0 0 1 -3.87-.33v25.33h7.74z" fill="#2c220d"/><path d="m520.43 223.68a15.58 15.58 0 0 0 3-.81c9.14-3.52 9.56-15 9.58-29v-2.71c0-9-1.8-17.11-4.72-23s-7.11-9.82-11.69-9.82c-2.73 0-5.31 1.35-7.58 3.72-4.16 4.35-7.27 12.17-8.38 21.55a64.4 64.4 0 0 0 -.44 7.59c0 10.23 0 19.36 2.93 25.39a12.42 12.42 0 0 0 9.6 7.15 22 22 0 0 0 3.87.33 23 23 0 0 0 3.83-.39z" fill="#012a22"/><path d="m963.61 231.88v18.24h5.56v-18.24a15.78 15.78 0 0 1 -2.78.23 16 16 0 0 1 -2.78-.23z" fill="#2c220d"/><path d="m966.39 184.85c-6.35 0-11.53 10.06-11.78 22.65v1c0 11.93 0 21.79 9 23.4a16 16 0 0 0 2.78.23 15.78 15.78 0 0 0 2.78-.23c9.14-1.59 9-11.46 9-23.4a47.29 47.29 0 0 0 -.25-4.83c-1.09-10.75-5.84-18.82-11.53-18.82z" fill="#012a22"/><path d="m449.11 139.78v20.69h6.31v-20.68a18.91 18.91 0 0 1 -6.31 0z" fill="#2c220d"/><path d="m438.89 113.25v.31c0 13.39.08 24.41 10.22 26.22a18.91 18.91 0 0 0 6.31 0c8.06-1.4 9.77-8.49 10.13-18 .1-2.69.09-5.58.09-8.58a53.5 53.5 0 0 0 -.53-7.53c-1.63-11.14-6.76-19.27-12.84-19.27-4.43 0-8.35 4.3-10.79 10.93a46.78 46.78 0 0 0 -2.59 15.92z" fill="#012a22"/><path d="m653.53 204.62a2.3 2.3 0 0 0 .87-2.44c.59 0 1.1-.2 1.19-.62s-.37-1-1.09-1.18a1.75 1.75 0 0 0 -.68 0 .08.08 0 0 0 0 0c-.07-.14-.15-.26-.23-.39l-3.71 2.49c.93 1.71 2.56 2.71 3.65 2.14z" fill="#707070"/><path d="m619.67 203.54v.06a1.75 1.75 0 0 0 -.68 0c-.71.17-1.2.7-1.09 1.19a1.06 1.06 0 0 0 1.19.62 2.3 2.3 0 0 0 .88 2.44c1.09.57 2.75-.45 3.69-2.27a5.11 5.11 0 0 0 .22-.48l-4.06-1.78a2.12 2.12 0 0 0 -.15.22z" fill="#707070"/><path d="m641.62 187.12 1.58 6.44 1.78 2.66 4.37 6.52.51-.34 3.71-2.49.14-.09-1.61-2.4-8.52-12.73a6.41 6.41 0 0 1 -1.96 2.43z" fill="#c7ad7d"/><path d="m628.83 190.3-1.16.57a3.93 3.93 0 0 1 -2.3.59 2 2 0 0 1 -.72-.27l-.53 1.2-4.72 10.78.39.17 4.06 1.78.35.16 2.52-5.73z" fill="#c7ad7d"/><path d="m629 214.81.19 2.86.89 13 3-1a12.41 12.41 0 0 1 1.25-.1l.54-10.83.2-3.91z" fill="#2c220d"/><path d="m637.74 219.27 3.07 10.73 3-1.5s.42-.12 1-.23l-1.34-8-.91-5.47h-6.1z" fill="#2c220d"/><path d="m641.62 187.12a9.75 9.75 0 0 1 -1.52 1c1.06 3 2.81 9-.62 9h-5.48c2.29-.23 1.58-4.72.82-7.8a6 6 0 0 1 -2.7-.71l-.72.38-2.59 1.27-2.11 9.25-3.5 15.26h25.21l-4.6-18.77-.61-2.46z" fill="#c7ad7d"/><path d="m636.63 184.93a6.84 6.84 0 0 1 -2.35-.42v.34a5.6 5.6 0 0 1 -1 3 4.17 4.17 0 0 1 -1.06.8 6 6 0 0 0 2.7.71c.76 3.08 1.47 7.57-.82 7.8h5.46c3.43 0 1.68-6.06.62-9a9.75 9.75 0 0 0 1.52-1 6.41 6.41 0 0 0 2-2.43 3 3 0 0 0 .12-2.17 2.87 2.87 0 0 0 -.92-1.26 7 7 0 0 1 -6.27 3.63z" fill="#920116"/><path d="m639.94 176.3-5.26.09v1.61c-.46-.2-1.09-.37-1.41 0a.9.9 0 0 0 -.16.62 1.68 1.68 0 0 0 1 1.37 1.61 1.61 0 0 1 .47.24 1.06 1.06 0 0 1 .18 1l-.46 3.32a6.84 6.84 0 0 0 2.35.42 7 7 0 0 0 7-7 6.89 6.89 0 0 0 -.67-3 1.32 1.32 0 0 1 -.33.57 3.74 3.74 0 0 1 -2.71.76z" fill="#ffeab6"/><path d="m627.67 190.87 1.16-.57 2.59-1.27.72-.38a4.17 4.17 0 0 0 1.06-.8 5.6 5.6 0 0 0 1-3v-.34l.46-3.32a1.06 1.06 0 0 0 -.18-1 1.61 1.61 0 0 0 -.47-.24 1.68 1.68 0 0 1 -1-1.37.9.9 0 0 1 .16-.62c.32-.4 1-.23 1.41 0v-1.57l5.26-.09a3.74 3.74 0 0 0 2.67-.76 1.32 1.32 0 0 0 .33-.57.83.83 0 0 0 .06-.21 1.64 1.64 0 0 0 -.34-.94 7.76 7.76 0 0 0 -2.3-2.3 1.78 1.78 0 0 1 -.9.78l-10 4.14a1.85 1.85 0 0 1 -1.15.09 14.33 14.33 0 0 0 -.21 2.47 6.35 6.35 0 0 1 -.5 2.75 6.88 6.88 0 0 1 -2.67 2.14 5.47 5.47 0 0 0 -1.46 1.25 2.58 2.58 0 0 0 -.43.82 2.76 2.76 0 0 0 -.23.84l.29 1.89a6.4 6.4 0 0 0 .83 1.75 2.94 2.94 0 0 0 .87.78 2 2 0 0 0 .72.27 3.93 3.93 0 0 0 2.25-.62z" fill="#2c220d"/><path d="m629.44 176.44 10-4.14a1.78 1.78 0 0 0 .9-.78 1.32 1.32 0 0 0 .09-1.16l-.05-.14a1.52 1.52 0 0 0 -1.88-.7 5.68 5.68 0 0 0 -6.87-3 .74.74 0 0 0 .1-.7.91.91 0 0 0 -1.67.69.75.75 0 0 0 .6.44 5.36 5.36 0 0 0 -1.51 1.24 5.75 5.75 0 0 0 -1 5.64 1.51 1.51 0 0 0 -.83 1.86l.05.14a1.35 1.35 0 0 0 .93.77 1.85 1.85 0 0 0 1.14-.16z" fill="#707070"/><path d="m630 230.66-.5.18a18.15 18.15 0 0 1 .22 2.8l1.62-.29 2.89-.58s2.31-.56 2.78-.64.29-1-.28-2c-.33-.56-1.55-.64-2.51-.61a12.41 12.41 0 0 0 -1.25.1z" fill="#012a22"/><path d="m640.81 230-.26.13a20.23 20.23 0 0 1 .59 2.75l1.56-.5 2.79-1s2.22-.85 2.67-1 .16-1-.54-1.92c-.44-.56-1.83-.42-2.8-.24-.57.11-1 .23-1 .23z" fill="#012a22"/><path d="m726 197a.05.05 0 0 1 0 0 1.75 1.75 0 0 0 -.56 0c-.59.11-1 .5-.86.89a1 1 0 0 0 1 .52 1.9 1.9 0 0 0 .8 1.94c.93.48 2.26-.26 3-1.65 0-.1.09-.21.14-.32l-3.23-1.86a4.68 4.68 0 0 0 -.29.48z" fill="#707070"/><path d="m756 200.19a1.83 1.83 0 0 0 .36-2c.46 0 .82-.3.84-.63s-.42-.74-1-.78a1.51 1.51 0 0 0 -.53.07 3.4 3.4 0 0 0 -.34-.4l-2.85 1.9a4.39 4.39 0 0 0 .38.61c.96 1.24 2.38 1.81 3.14 1.23z" fill="#707070"/><path d="m747.48 184.32 1 9.13 3.48 5.2.53-.36 2.85-1.9.6-.41-3.25-4.86-1.45-2.12-3.62-5.41a3 3 0 0 1 -.14.73z" fill="#c7ad7d"/><path d="m725.75 196.23.53.31 3.23 1.86.25.14 3.93-6.81.65-10.39z" fill="#c7ad7d"/><path d="m734.5 222.69c.61 0 1.07.11 1.07.11l2.95 1.06 2.81-15.47-5.87-.06z" fill="#2c220d"/><path d="m746.35 224.31 3.13-1.55.68-.17-2.35-14.13-6-.06z" fill="#2c220d"/><path d="m748.46 193.46-1-9.13c-.49 1.38-2.06 2.18-4.05 2.27-.76 3-1.46 7.48.8 7.7h-5.38c-3.39 0-1.66-6-.61-8.92-2.54-1.33-4-3.46-3.61-5.26h-.2l-.06 1v.19l-.65 10.39-.91 14.62-.13 2h2.81l5.87.06h.48l6 .06h2.29l-.21-1.94z" fill="#c7ad7d"/><path d="m738.23 185.38c-1.05 2.94-2.78 8.92.61 8.92h5.38c-2.26-.22-1.56-4.66-.8-7.7 2-.09 3.56-.89 4.05-2.27a3 3 0 0 0 .14-.73 3.48 3.48 0 0 0 -.32-1.55l-.1.07a1.2 1.2 0 0 1 -1.25 0 7.15 7.15 0 0 1 -10.88-3 2.52 2.52 0 0 0 -.4.74 2.16 2.16 0 0 0 0 .27c-.47 1.79 1.03 3.92 3.57 5.25z" fill="#02004d"/><path d="m741.7 183.55a7.13 7.13 0 0 0 4.25-1.41 1.16 1.16 0 0 1 -.48-.43l-.29-.5a1.35 1.35 0 0 1 -.14-.35l-.35-1.53a1.24 1.24 0 0 1 .55-1.31l.2-.13c.12-.1.42-.25.49-.38a.65.65 0 0 0 0-.21 1.17 1.17 0 0 0 -1-1.19.89.89 0 0 1 -.43-.17c0-.06-1.26-2-1.93-2.17a26.18 26.18 0 0 0 -5.17.33c-.81.11-1.51-.55-1.93-1.44a7.18 7.18 0 0 0 6.14 10.89z" fill="#ffeab6"/><path d="m735.56 172.66c.42.89 1.12 1.55 1.93 1.44a26.18 26.18 0 0 1 5.17-.33c.67.16 1.9 2.11 1.93 2.17a.89.89 0 0 0 .43.17 1.17 1.17 0 0 1 1 1.19.65.65 0 0 1 0 .21c-.07.13-.37.28-.49.38l-.2.13a1.24 1.24 0 0 0 -.55 1.31l.35 1.53a1.35 1.35 0 0 0 .14.35l.29.5a1.16 1.16 0 0 0 .48.43 1.2 1.2 0 0 0 1.25 0l.1-.07a9.1 9.1 0 0 0 .94-.72 4.84 4.84 0 0 0 1.84-3.47c0-1.13 0-2.41 0-3.64a1.66 1.66 0 0 1 -1.68 0l-9.49-5.24a1.77 1.77 0 0 1 -.82-1c-1 .35-2.69 1.07-3 2.19a.8.8 0 0 0 0 .15 4 4 0 0 0 .38 2.32z" fill="#2c220d"/><path d="m739 169 9.35 5.22a1.66 1.66 0 0 0 1.68 0 1.29 1.29 0 0 0 .43-.44l.07-.13a1.5 1.5 0 0 0 -.6-1.92 5.79 5.79 0 0 0 .45-1.37 5.56 5.56 0 0 0 -2.11-5.66.7.7 0 0 0 .63-.36.83.83 0 0 0 -.4-1.1.84.84 0 0 0 -1.15.23.73.73 0 0 0 0 .7 5.59 5.59 0 0 0 -7.08 2.16 1.52 1.52 0 0 0 -2 .5l-.07.13a1.3 1.3 0 0 0 -.07 1.06 1.77 1.77 0 0 0 .87.98z" fill="#707070"/><path d="m746.35 224.31-.11.06a19.23 19.23 0 0 1 .58 2.71l1.55-.49 2.75-1s2.19-.84 2.63-1 .16-1-.52-1.9c-.48-.6-2.12-.37-3.07-.17l-.68.17z" fill="#012a22"/><path d="m735.57 222.8s-.46-.07-1.07-.11c-1-.05-2.29 0-2.65.56-.58.95-.76 1.86-.3 1.95s2.73.66 2.73.66l2.85.62 1.59.31a18.28 18.28 0 0 1 .28-2.79l-.46-.16z" fill="#012a22"/><path d="m679.37 180.06s0 0 0 0a1.43 1.43 0 0 0 -.54 0c-.57.13-1 .55-.87.94s.48.52.95.49a1.83 1.83 0 0 0 .69 1.94c.88.45 2.19-.35 2.94-1.8l-3.07-1.77z" fill="#707070"/><path d="m707.58 181.48c.77 1.31 2 2 2.82 1.6a1.82 1.82 0 0 0 .69-1.94c.47 0 .87-.16.95-.49a.74.74 0 0 0 -.37-.72 1.47 1.47 0 0 0 -.49-.22 1.44 1.44 0 0 0 -.54 0 1 1 0 0 0 -.08-.14z" fill="#707070"/><path d="m702.52 174.67 3.14 4.7 1.57 2.35.35-.24 2.95-2 .56-.37-9.73-14.53a3.06 3.06 0 0 1 -.12.85z" fill="#c7ad7d"/><path d="m679.47 179.89 3.07 1.77.13.08 2.73-4.74 1.92-3.33.66-8.33h.38a8.14 8.14 0 0 1 -1-1.06l-7 12.07-1.76 3z" fill="#c7ad7d"/><path d="m694.63 188.82h-6.64l.91 13.91.12 1.9c.57-.07 1-.08 1-.08l3.84.59.08-1.79z" fill="#2c220d"/><path d="m704.23 203.69-2.46-14.81h-6.77l4.3 15.09.2.67c.55-.24 1-.39 1-.39z" fill="#2c220d"/><path d="m687.32 173.68-.28 3.54-.92 11.53h1.87 6.64.37 6.77 2.71l-1.35-9.79-.61-4.45-1.28-9.22a1.16 1.16 0 0 1 0 .18c-.56 1.59-2.38 2.53-4.68 2.63-.87 3.5-1.67 8.61.93 8.87h-6.2c-3.9 0-1.91-6.89-.7-10.27a11 11 0 0 1 -2.19-1.51h-.4z" fill="#c7ad7d"/><path d="m687.37 164.29a8.14 8.14 0 0 0 1 1.06 11 11 0 0 0 2.19 1.51c-1.21 3.38-3.2 10.27.7 10.27h6.2c-2.6-.26-1.8-5.37-.93-8.87 2.3-.1 4.12-1 4.68-2.63a1.16 1.16 0 0 0 0-.18 3.06 3.06 0 0 0 .12-.85 3.85 3.85 0 0 0 -.34-1.53 9.6 9.6 0 0 1 -1.07.82 1.2 1.2 0 0 1 -1.13.09 7.6 7.6 0 0 1 -11-5.19 3.52 3.52 0 0 0 -1.2 1.26 2.19 2.19 0 0 0 -.2.44 4.06 4.06 0 0 0 .98 3.8z" fill="#012a22"/><path d="m695.3 164.85a7.58 7.58 0 0 0 3.52-.87 1.13 1.13 0 0 1 -.62-.5l-.3-.51a.93.93 0 0 1 -.14-.36l-.36-1.56a1.24 1.24 0 0 1 .56-1.33l.2-.14c.12-.09.43-.25.5-.39a.44.44 0 0 0 0-.21 1.2 1.2 0 0 0 -1-1.21c-.21-.05-.39-.1-.43-.17s-1.28-2-2-2.22a27.35 27.35 0 0 0 -5.27.34 2 2 0 0 1 -1.85-1.24 7.69 7.69 0 0 0 -.52 2.76 7.91 7.91 0 0 0 .16 1.55 7.61 7.61 0 0 0 7.55 6.06z" fill="#ffeab6"/><path d="m690.06 155.72a27.35 27.35 0 0 1 5.27-.34c.69.17 1.94 2.16 2 2.22s.22.12.43.17a1.2 1.2 0 0 1 1 1.21.44.44 0 0 1 0 .21c-.07.14-.38.3-.5.39l-.2.14a1.24 1.24 0 0 0 -.56 1.33l.36 1.56a.93.93 0 0 0 .14.36l.3.51a1.13 1.13 0 0 0 .62.5 1.2 1.2 0 0 0 1.13-.09 9.6 9.6 0 0 0 1.07-.82 6.51 6.51 0 0 0 1.05-1.16 4.33 4.33 0 0 0 .82-2.36c0-.72 0-1.49 0-2.26v-.12a16.89 16.89 0 0 0 -.31-3.41 1.65 1.65 0 0 1 -1.3.11l-9.68-3.11a1.59 1.59 0 0 1 -1.1-1.15c-1 .38-2.49 1.09-2.75 2.14a4 4 0 0 0 .44 2.73 2 2 0 0 0 1.77 1.24z" fill="#2c220d"/><path d="m691.62 150.76 9.68 3.11a1.65 1.65 0 0 0 1.3-.11 1.15 1.15 0 0 0 .59-.69v-.13a1.43 1.43 0 0 0 -.92-1.68 5.3 5.3 0 0 0 -3.08-6.31.69.69 0 0 0 .49-.45.85.85 0 0 0 -1.61-.51.67.67 0 0 0 .16.67 5.32 5.32 0 0 0 -5.95 3.4 1.42 1.42 0 0 0 -1.73.83v.13a1.18 1.18 0 0 0 0 .59 1.59 1.59 0 0 0 1.07 1.15z" fill="#707070"/><path d="m689 204.58c-1.12.13-2.82.45-3.12 1.24-.45 1.19-.45 2.26.09 2.26s3.23.16 3.23.16l3.35.08h1.87a21.73 21.73 0 0 1 -.31-3.18h-.28l-3.83-.64s-.41.01-1 .08z" fill="#012a22"/><path d="m704.23 203.69-3.75.51s-.43.15-1 .39c-1 .45-2.52 1.23-2.57 2.06-.09 1.27.21 2.3.73 2.14s3.14-.77 3.14-.77l3.23-.89 1.79-.54s-.53-1.08-.91-2.06a7.78 7.78 0 0 1 -.3-.89z" fill="#012a22"/></svg>