<svg xmlns="http://www.w3.org/2000/svg" width="546.435" height="472.715" viewBox="0 0 546.435 472.715">
  <g id="mv-logo" transform="translate(-1298.565 -55.26)">
    <g id="グループ_7" data-name="グループ 7">
      <g id="グループ_6" data-name="グループ 6">
        <path id="パス_18" data-name="パス 18" d="M1475.315,235a2.237,2.237,0,0,1-.571-4.4c19.268-5.1,38.064-25.312,45.144-33.623h-25.933a2.237,2.237,0,0,1-.542-4.407c25.563-6.391,43.619-30,49.609-38.834H1514.83a2.236,2.236,0,0,1-1.1-4.183c38.382-21.726,54.038-60.37,54.192-60.758a2.236,2.236,0,1,1,4.158,1.648c-.612,1.545-14.581,36.008-49.3,58.819h24.34a2.237,2.237,0,0,1,1.934,3.361c-.741,1.275-16.288,27.6-42.311,39.88h17.87a2.237,2.237,0,0,1,1.777,3.6c-1,1.3-24.709,32-50.5,38.825A2.236,2.236,0,0,1,1475.315,235Z" fill="#fff"/>
        <path id="パス_19" data-name="パス 19" d="M1664.685,235a2.23,2.23,0,0,1-.574-.075c-25.792-6.826-49.5-37.522-50.5-38.825a2.237,2.237,0,0,1,1.777-3.6h17.87c-26.023-12.28-41.57-38.6-42.311-39.88a2.237,2.237,0,0,1,1.934-3.361h24.34c-34.718-22.811-48.687-57.274-49.3-58.819a2.237,2.237,0,0,1,4.158-1.649c.154.388,15.866,39.065,54.192,60.759a2.236,2.236,0,0,1-1.1,4.183h-28.192c5.99,8.832,24.046,32.443,49.609,38.834a2.237,2.237,0,0,1-.542,4.407h-25.933c7.08,8.311,25.876,28.523,45.144,33.623a2.237,2.237,0,0,1-.571,4.4Z" fill="#fff"/>
        <path id="パス_20" data-name="パス 20" d="M1580.525,90.41a1.869,1.869,0,0,1-.867-.214l-9.343-4.911-9.342,4.911a1.864,1.864,0,0,1-2.7-1.965l1.784-10.4-7.558-7.369a1.863,1.863,0,0,1,1.033-3.178l10.446-1.518,4.67-9.465a1.863,1.863,0,0,1,3.342,0l4.672,9.465,10.446,1.518a1.863,1.863,0,0,1,1.033,3.178l-7.559,7.369,1.784,10.4a1.863,1.863,0,0,1-1.837,2.179ZM1557.8,70.427l5.555,5.416a1.864,1.864,0,0,1,.537,1.65l-1.312,7.646,6.867-3.61a1.867,1.867,0,0,1,1.735,0l6.867,3.61-1.312-7.646a1.866,1.866,0,0,1,.536-1.65l5.556-5.416-7.677-1.115a1.863,1.863,0,0,1-1.4-1.02l-3.435-6.957-3.432,6.957a1.866,1.866,0,0,1-1.4,1.02Z" fill="#fff"/>
      </g>
      <text id="Premium_Cristmas_2020" data-name="Premium
Cristmas 2020" transform="translate(1568.565 322.033)" fill="#fff" font-size="80" font-family="AmericanTypewriter-Semibold, American Typewriter" font-weight="600" letter-spacing="0.041em"><tspan x="-167.435" y="0">P</tspan><tspan y="0" font-size="70">remium</tspan><tspan x="-269.53" y="88">C</tspan><tspan y="88" font-size="70">ristmas 2020</tspan></text>
      <path id="パス_21" data-name="パス 21" d="M1488.736,126c-4.09,0-12.264-5.3-12.264-12.264,0-8.023,4.241-12.264,12.264-12.264A12.355,12.355,0,0,1,1501,113.89C1501,120.907,1495.843,126,1488.736,126Zm0-20.579c-5.829,0-8.315,2.487-8.315,8.315,0,4.538,6.037,8.315,8.315,8.315,4.974,0,8.315-3.28,8.315-8.161A8.4,8.4,0,0,0,1488.736,105.421Z" fill="#fff"/>
      <path id="パス_22" data-name="パス 22" d="M1674.736,152c-4.09,0-12.264-5.3-12.264-12.264,0-8.023,4.241-12.264,12.264-12.264A12.355,12.355,0,0,1,1687,139.89C1687,146.907,1681.843,152,1674.736,152Zm0-20.579c-5.829,0-8.315,2.487-8.315,8.315,0,4.538,6.037,8.315,8.315,8.315,4.974,0,8.315-3.28,8.315-8.161A8.4,8.4,0,0,0,1674.736,131.421Z" fill="#fff"/>
      <path id="パス_23" data-name="パス 23" d="M1750.236,181c-3.257,0-9.764-4.221-9.764-9.764,0-6.387,3.377-9.763,9.764-9.763a9.836,9.836,0,0,1,9.764,9.885A9.385,9.385,0,0,1,1750.236,181Zm0-16.384c-4.64,0-6.62,1.98-6.62,6.62,0,3.614,4.807,6.62,6.62,6.62,3.959,0,6.619-2.611,6.619-6.5A6.688,6.688,0,0,0,1750.236,164.616Z" fill="#fff"/>
      <path id="パス_24" data-name="パス 24" d="M1775.736,262c-4.09,0-12.264-5.3-12.264-12.264,0-8.023,4.241-12.264,12.264-12.264A12.355,12.355,0,0,1,1788,249.89C1788,256.907,1782.843,262,1775.736,262Zm0-20.579c-5.829,0-8.315,2.487-8.315,8.315,0,4.538,6.037,8.315,8.315,8.315,4.974,0,8.315-3.28,8.315-8.161A8.4,8.4,0,0,0,1775.736,241.421Z" fill="#fff"/>
      <path id="パス_25" data-name="パス 25" d="M1783.736,329c-3.09,0-9.263-4.005-9.263-9.264,0-6.06,3.2-9.264,9.263-9.264a9.333,9.333,0,0,1,9.264,9.38A8.9,8.9,0,0,1,1783.736,329Zm0-15.544c-4.4,0-6.281,1.878-6.281,6.28,0,3.428,4.561,6.281,6.281,6.281a5.893,5.893,0,0,0,6.282-6.165A6.347,6.347,0,0,0,1783.736,313.456Z" fill="#fff"/>
      <path id="パス_26" data-name="パス 26" d="M1433.736,180c-4.09,0-12.264-5.3-12.264-12.264,0-8.023,4.241-12.264,12.264-12.264A12.355,12.355,0,0,1,1446,167.89C1446,174.907,1440.843,180,1433.736,180Zm0-20.579c-5.829,0-8.315,2.487-8.315,8.315,0,4.538,6.037,8.315,8.315,8.315,4.974,0,8.315-3.28,8.315-8.161A8.4,8.4,0,0,0,1433.736,159.421Z" fill="#fff"/>
      <path id="パス_27" data-name="パス 27" d="M1326.85,340.215c-4.09,0-12.264-5.3-12.264-12.264,0-8.023,4.241-12.264,12.264-12.264a12.355,12.355,0,0,1,12.263,12.417C1339.113,335.122,1333.956,340.215,1326.85,340.215Zm0-20.579c-5.829,0-8.315,2.487-8.315,8.315,0,4.538,6.037,8.315,8.315,8.315,4.973,0,8.314-3.28,8.314-8.162A8.4,8.4,0,0,0,1326.85,319.636Z" fill="#fff"/>
      <path id="パス_28" data-name="パス 28" d="M1375.242,261c-3.221,0-9.656-4.175-9.656-9.657,0-6.317,3.339-9.656,9.656-9.656a9.728,9.728,0,0,1,9.656,9.777A9.281,9.281,0,0,1,1375.242,261Zm0-16.2c-4.589,0-6.547,1.958-6.547,6.547,0,3.574,4.754,6.548,6.547,6.548a6.142,6.142,0,0,0,6.547-6.427A6.616,6.616,0,0,0,1375.242,244.8Z" fill="#fff"/>
      <circle id="楕円形_1" data-name="楕円形 1" cx="4.5" cy="4.5" r="4.5" transform="translate(1429 211)" fill="#fff"/>
      <circle id="楕円形_2" data-name="楕円形 2" cx="8" cy="8" r="8" transform="translate(1713 218)" fill="#fff"/>
      <circle id="楕円形_3" data-name="楕円形 3" cx="8" cy="8" r="8" transform="translate(1829 278)" fill="#fff"/>
      <circle id="楕円形_4" data-name="楕円形 4" cx="8" cy="8" r="8" transform="translate(1617 85)" fill="#fff"/>
      <circle id="楕円形_5" data-name="楕円形 5" cx="9" cy="9" r="9" transform="translate(1318 268)" fill="#fff"/>
      <circle id="楕円形_6" data-name="楕円形 6" cx="9" cy="9" r="9" transform="translate(1357 171)" fill="#fff"/>
    </g>
    <text id="presented_by" data-name="presented by" transform="translate(1570.344 461.006)" fill="#fff" font-size="30" font-family="Baskerville" letter-spacing="-0.013em"><tspan x="-73.866" y="0">presented by</tspan></text>
    <text id="Oisix" transform="translate(1567.245 515.975)" fill="#fff" font-size="50" font-family="Baskerville-SemiBoldItalic, Baskerville" font-weight="600" font-style="italic" letter-spacing="-0.013em"><tspan x="-59.393" y="0">Oisix</tspan></text>
    <path id="パス_29" data-name="パス 29" d="M1427.64,248l-10.36,21.409H1438Z" fill="#fff"/>
    <circle id="楕円形_7" data-name="楕円形 7" cx="2" cy="2" r="2" transform="translate(1426 245)" fill="none" stroke="#fff" stroke-miterlimit="10" stroke-width="2"/>
    <ellipse id="楕円形_8" data-name="楕円形 8" cx="4" cy="7.5" rx="4" ry="7.5" transform="translate(1717 378)" fill="#fff"/>
    <ellipse id="楕円形_9" data-name="楕円形 9" cx="4" cy="7.5" rx="4" ry="7.5" transform="translate(1812 378)" fill="#fff"/>
  </g>
</svg>
