<svg xmlns="http://www.w3.org/2000/svg" xmlns:xlink="http://www.w3.org/1999/xlink" width="747.908" height="272.448" viewBox="0 0 747.908 272.448">
  <defs>
    <clipPath id="clip-path">
      <path id="パス_154" data-name="パス 154" d="M991.115,654.77l37.448-26.625-24.269-17.393Z" fill="none"/>
    </clipPath>
  </defs>
  <g id="top-read" transform="translate(-302.249 -507.228)">
    <g id="グループ_31" data-name="グループ 31">
      <path id="パス_96" data-name="パス 96" d="M388.455,632.469a29.9,29.9,0,0,1-4.172-1.681v2.324H371.431v-2.351a24.577,24.577,0,0,1-3.92,2.1l-2.576-2.324c4.48-1.819,8.792-4.76,11.284-8.764l3.388.785c.112.027.532.111.532.391,0,.336-.364.42-.56.477,2.1,2.743,5.936,4.956,10.584,6.1Zm-8.484,14.811-3.388-1.484a25.7,25.7,0,0,0,5.208-7.252H368.435v-2.995H384.9l1.624,1.176A41.279,41.279,0,0,1,379.971,647.28Zm-2.352-21.756a30.738,30.738,0,0,1-5.32,4.649h10.836A19.242,19.242,0,0,1,377.619,625.524Z" fill="#f7eddc"/>
      <path id="パス_97" data-name="パス 97" d="M409.231,641.064v5.516H405.7v-5.516H393.775V638.1h4.032v-6.664h7.9v-3.361h-6.44a24.179,24.179,0,0,1-3.136,4.2l-3.024-1.595a23.649,23.649,0,0,0,5.432-8.513l3.444,1.288a.286.286,0,0,1,.2.252.334.334,0,0,1-.14.252,2.131,2.131,0,0,0-.588.225,9.018,9.018,0,0,0-.616,1.063h15.512v2.828h-7.224v3.361h4.872v2.883h-4.872V638.1h8.568v2.967Zm-3.528-6.748H401.2V638.1H405.7Z" fill="#f7eddc"/>
      <path id="パス_98" data-name="パス 98" d="M436.567,641.771a9.651,9.651,0,0,1-4.661,3.521l-1.481-2.06a6.735,6.735,0,0,0,3.6-2.14,6.256,6.256,0,0,0,1.44-3.982,4.717,4.717,0,0,0-1.44-3.5,5.112,5.112,0,0,0-3.4-1.34,28.423,28.423,0,0,1-2.48,8.9c-.6,1.24-1.52,2.92-2.561,2.92a5.692,5.692,0,0,1-4-5.381,8.628,8.628,0,0,1,8.822-8.482,7.068,7.068,0,0,1,7.442,7.282A7.47,7.47,0,0,1,436.567,641.771Zm-10.763-7.7a6.554,6.554,0,0,0-2,4.441c0,1.62.92,2.461,1.28,2.461,1.041,0,2.761-5.222,3.161-8.342A5.913,5.913,0,0,0,425.8,634.07Z" fill="#f7eddc"/>
      <path id="パス_99" data-name="パス 99" d="M447.146,643.7c.726-.033.99-.1,1.353-.495a36.651,36.651,0,0,0,2.244-3.069l4.257-6.4-6.765-12.178-2.707-.033v-.891h10.958v.891l-2.839.033,4.258,8.086,3.7-5.446a8.211,8.211,0,0,0,1.353-2.31c0-.231-.2-.33-.693-.33l-2.244-.033v-.891h7.491v.891l-1.683.033c-1.155,0-1.221.1-3.333,3.2l-3.994,5.907,7.459,13,2.707.066v.891h-11.09v-.891l2.839-.066-4.819-8.878-3.862,5.842c-1.386,2.079-1.683,2.475-1.683,2.706s.231.363.693.363l2.244.033v.891h-7.855v-.891Z" fill="#f7eddc"/>
      <path id="パス_100" data-name="パス 100" d="M470.15,626.075c2.046-.857,2.937-1.847,3.135-3.465a2.4,2.4,0,0,1-1.155.3,2.228,2.228,0,0,1-2.277-2.376,2.437,2.437,0,0,1,2.475-2.575c1.585,0,2.574,1.255,2.574,3.234,0,2.509-1.683,4.622-4.422,5.579Z" fill="#f7eddc"/>
      <path id="パス_101" data-name="パス 101" d="M478.3,643.733l2.31-.033V630.5l-2.079.033v-.891a18.048,18.048,0,0,0,5.941-.66l.462.331v2.672c.66-.66.891-.923,1.221-1.188a6.278,6.278,0,0,1,3.961-1.683,4.4,4.4,0,0,1,3.663,1.948,13.757,13.757,0,0,1,.759,1.155,9.949,9.949,0,0,1,.924-1.057,7.22,7.22,0,0,1,4.885-2.046,4.669,4.669,0,0,1,4.06,2.31,5.763,5.763,0,0,1,.693,3.235c0,1.551-.1,3-.1,4.819V643.7l2.112.033v.891h-8.482v-.891l2.013-.033v-9.538c0-1.353-.2-2.112-.726-2.575a2.242,2.242,0,0,0-1.617-.659,4.928,4.928,0,0,0-2.74,1.122,2.109,2.109,0,0,0-.825,1.617V643.7l1.981.033v.891h-8.186v-.891l1.981-.033V633.667c0-1.947-.694-2.938-2.047-2.938a3,3,0,0,0-2.079,1.023,5.279,5.279,0,0,0-1.419,2.607V643.7l1.947.033v.891H478.3Z" fill="#f7eddc"/>
      <path id="パス_102" data-name="パス 102" d="M516.882,632.545a2.192,2.192,0,0,0-2.343-2.476c-1.255,0-2.344.529-2.344,1.122,0,.231.066.364.363.726a1.388,1.388,0,0,1,.463,1.057,1.562,1.562,0,0,1-1.585,1.65,1.8,1.8,0,0,1-1.782-1.882c0-2.079,2.607-3.6,6.138-3.6,1.948,0,3.3.494,4.159,1.55a5.266,5.266,0,0,1,.891,3.565v7.921a1.065,1.065,0,0,0,.958,1.188c.462,0,.659-.2,1.452-1.386l.693.363c-1.09,1.914-2.178,2.64-3.9,2.64a3.223,3.223,0,0,1-2.475-.957,3.533,3.533,0,0,1-.561-1.287c-1.518,1.651-2.74,2.311-4.522,2.311-2.409,0-4.093-1.519-4.093-3.6,0-2.145,1.75-3.861,4.72-4.621a30.282,30.282,0,0,1,3.763-.594Zm-.033,4.521a10.357,10.357,0,0,0-2.607.627,3.213,3.213,0,0,0-2.278,3.1,2.255,2.255,0,0,0,2.244,2.541,2.849,2.849,0,0,0,2.641-1.716Z" fill="#f7eddc"/>
      <path id="パス_103" data-name="パス 103" d="M525.757,644.36a12.272,12.272,0,0,0,.264-3.169c0-.593-.033-1.22-.033-1.814h.858a4.553,4.553,0,0,0,1.09,3.036,4.3,4.3,0,0,0,3.531,1.782c1.848,0,3.234-1.023,3.234-2.442,0-1.155-.792-1.782-3.036-2.409a10.693,10.693,0,0,1-4.027-1.717,4.392,4.392,0,0,1-1.419-3.4,5.033,5.033,0,0,1,5.215-5.082c1.188,0,1.815.2,3.73,1.122l.66-.76.428.132c-.1,1.188-.131,1.815-.131,2.508,0,.627.033,1.288.033,1.915l-.759.1a5.133,5.133,0,0,0-.892-2.641,3.9,3.9,0,0,0-3.069-1.485c-1.65,0-2.838.957-2.838,2.244,0,1.354.758,1.948,3.531,2.773a9.515,9.515,0,0,1,3.7,1.65,4.414,4.414,0,0,1,1.419,3.333c0,3-2.377,5.05-5.809,5.05a6.865,6.865,0,0,1-4.39-1.419l-.726.858Z" fill="#f7eddc"/>
      <path id="パス_104" data-name="パス 104" d="M549.094,644.973l-1.841.3a21.522,21.522,0,0,1-.759-6.2,37.932,37.932,0,0,1,1.22-9.362l1.94.76c.06.02.48.2.48.4a.175.175,0,0,1-.08.141,3.075,3.075,0,0,1-.38.159,5.746,5.746,0,0,0-.44,1.36,50.858,50.858,0,0,0-.74,6.2,19.7,19.7,0,0,0,.1,2.1l.82-1.2,1.26.86A17.583,17.583,0,0,0,549.094,644.973Zm11.863-.741a10.779,10.779,0,0,0-2.1-1.581c-.04,1.541-.44,2.581-3.161,2.581-.58,0-3.941,0-3.941-2.88,0-1.8,1.581-2.581,3.521-2.581.4,0,.821.041,1.221.081-.161-2.381-.221-3.221-.261-4.581a22.466,22.466,0,0,1-3.62.16l-.02-2.061a10.412,10.412,0,0,0,1.8.12,15.832,15.832,0,0,0,1.86-.12c.04-1.5.04-1.721.08-3.7l2.241.36c.42.06.48.16.48.281,0,.1-.18.2-.38.319a23.1,23.1,0,0,0-.28,2.48,8.7,8.7,0,0,0,2.48-.819v2.16a18.536,18.536,0,0,1-2.5.56,49.135,49.135,0,0,0,.28,5.361,16,16,0,0,1,3.441,1.881Zm-5.762-2.661c-.94,0-1.58.341-1.58.8s.58.88,1.76.88c1.321,0,1.281-.46,1.241-1.5A6.817,6.817,0,0,0,555.2,641.571Z" fill="#f7eddc"/>
      <path id="パス_105" data-name="パス 105" d="M566.434,640.312a11.773,11.773,0,0,1,4.441,4.34l-2.081,1.661a16.419,16.419,0,0,0-3.861-4.441Z" fill="#f7eddc"/>
      <path id="パス_106" data-name="パス 106" d="M596.143,647.212h-.328l-1.536-3.526-.295.164a30.712,30.712,0,0,1-5.405,2.348l-.584.2-3.027-3.734.765-.187a27.935,27.935,0,0,0,5.935-2.1,20.972,20.972,0,0,0,5.625-3.624c-.041-.1-.082-.2-.123-.287a26.075,26.075,0,0,1-8.923,4.512l-.338.1-2.682-3.645.766-.157a22.965,22.965,0,0,0,4.708-1.411,18.327,18.327,0,0,0,4.346-2.46c-.018-.019-.036-.04-.054-.058A30.429,30.429,0,0,1,588.754,636l-.322.095-3.037-3.8.868-.123a21.1,21.1,0,0,0,6.244-1.765h-2.114v-3.7h16.749v3.7h-3.726a12.447,12.447,0,0,0,.761,2.962c1.391-1.263,2.735-2.562,3.754-3.628l.32-.335,2.878,2.364a1.636,1.636,0,0,1,.633,1.107.91.91,0,0,1-.572.8,4.465,4.465,0,0,1-.71.173,6.825,6.825,0,0,0-.845.2c-.011.015-2.529,2.084-3.584,2.945a17.558,17.558,0,0,0,5.745,5.537l.554.345-3.477,3.244-.333-.24a22.684,22.684,0,0,1-6.518-7.355,17.925,17.925,0,0,1,.23,2.93C602.252,646.3,600.1,647.212,596.143,647.212Zm-.807-3.6,1.133,2.6c3.368-.042,4.783-.784,4.783-4.747a12.785,12.785,0,0,0-3.984-9.9l-.4-.419.422-.383a6.646,6.646,0,0,0,1.343-1.17l.15-.182h1.394l.057.435a22.007,22.007,0,0,0,8.556,14.986l1.926-1.8a18.567,18.567,0,0,1-5.755-5.858l-.251-.379.353-.286c.63-.51,3.988-3.268,3.988-3.268a3.324,3.324,0,0,1,1.237-.366c.168-.032.324-.061.425-.085a1.223,1.223,0,0,0-.225-.247l-2.161-1.776c-1.127,1.158-2.571,2.534-4.026,3.833l-.531.475-.266-.661a14.081,14.081,0,0,1-1.144-4.462l-.048-.544h3.826v-1.7H591.393v1.7h4.9l-1.542.929a20.325,20.325,0,0,1-7.487,2.693l1.529,1.912a31.1,31.1,0,0,0,6.063-2.655l.328-.176.263.263c.217.217.495.526.712.773l.355.405-.429.324a20,20,0,0,1-5,2.913,23.126,23.126,0,0,1-4.129,1.308l1.339,1.819a25.21,25.21,0,0,0,8.738-4.61l.467-.369.282.524a8.071,8.071,0,0,1,.572,1.269l.112.318-.252.223a22.186,22.186,0,0,1-6.118,4.008,28.428,28.428,0,0,1-5.362,1.973l1.6,1.969a29.625,29.625,0,0,0,5.171-2.252l.376-.21-.165-.378.674.085a29.083,29.083,0,0,0,3.784-2.63l.795-.632.016,1.016c.021,1.329.038,2.346-.575,2.968a2.14,2.14,0,0,1-1.6.539A12.378,12.378,0,0,1,595.336,643.607Zm.632-.93c.87.091,1.481.062,1.727-.186a1.936,1.936,0,0,0,.291-1.233C597.427,641.688,596.787,642.153,595.968,642.677Zm2.365-11.435a16.72,16.72,0,0,1,1.521,1.854,25.193,25.193,0,0,1-.546-2.683h-.057A6.889,6.889,0,0,1,598.333,631.242Zm13.219-2.119h-4.39v-2.85h-16.91v2.79H585.8v-6.79h10.59v-2.142l4.022.1h0c1.074,0,1.236.5,1.236.8a1.058,1.058,0,0,1-.274.674l-.082.1a.736.736,0,0,0-.159.192l0,.274h10.413Zm-3.39-1h2.39v-4.85h-10.41v-1.31a1.108,1.108,0,0,1,.32-.73h-.06l-3.009-.077v2.117H586.8v4.79h2.449v-2.79h18.91Z" fill="#f7eddc"/>
      <path id="パス_107" data-name="パス 107" d="M639.359,647.475l-.331-.165a11.162,11.162,0,0,1-5.251-5.016,13.8,13.8,0,0,1-6.049,4.814l-.305.138-2.575-2.428c-.816,1.664-2.135,1.933-4.637,1.974l-.384.006-.6-2.094a15.853,15.853,0,0,1-.854,1.544l-.247.4-4.177-.994.364-.589c2.583-4.176,3.924-7.926,4-16.606h-3V624.7h3.9V620.22l3.721.315c.309.038,1.179.148,1.179.888a.923.923,0,0,1-.459.762l-.171.11V624.7H627.3v.353a36.06,36.06,0,0,0,1.51-4.285l.14-.472,3.475.972a1.019,1.019,0,0,1,.875.932.785.785,0,0,1-.541.762c-.081.043-.2.093-.37.165-.062.148-.156.39-.243.613h9.734v3.85H632.35l1.462.53c.677.227.78.655.78.89a.783.783,0,0,1-.4.657,1.415,1.415,0,0,1-.295.113c-.085.026-.2.055-.282.086l-.011.024h6.782v3.67h-4.234c-.011.754-.049,1.322-.118,2h5.912v3.669H636.58c.658,1.872,2.537,3.541,5.26,4.648l.681.276Zm-5.42-7.334.376.923a9.978,9.978,0,0,0,4.832,5.183l1.649-1.73c-2.952-1.362-4.892-3.407-5.364-5.683l-.124-.6h5.634v-1.669h-6.03l.064-.557a22.255,22.255,0,0,0,.176-2.943v-.5h4.23v-1.67h-7.29l.276-.687a7.9,7.9,0,0,1,.484-1.013.977.977,0,0,1,.343-.23l-2.016-.732a27.576,27.576,0,0,1-3.838,6.183l1.73,1.089a20.119,20.119,0,0,0,1.891-2.7l.145-.244h1.745v.5a30.471,30.471,0,0,1-.152,3.049l-.045.451h-5.322v1.669h5.01l-.2.651c-.771,2.451-3.079,4.48-6.253,5.54l1.734,1.634a12.331,12.331,0,0,0,5.8-5.062Zm-14.015,3.344.654,2.3c1.978-.045,2.921-.209,3.518-1.675l-.179-.17.27-.072a17.294,17.294,0,0,0,.65-3.222,75.5,75.5,0,0,0,.594-9.243h-4.182l.028-.989c.024-.836.046-1.569.046-2.451v-.5H626.3V625.7h-3.809v-3.559a.733.733,0,0,1,.351-.614h0l-2.619-.221v4.4h-3.9v1.76h3l0,.5c-.031,8.8-1.355,12.929-3.8,17.04l2.129.507a16.092,16.092,0,0,0,1.214-2.467l.43-1.064A36.333,36.333,0,0,0,621,633.9l.053-.44h2.6l-.008.508a44.612,44.612,0,0,1-.516,5.7c-.431,2.991-.642,3.937-2.205,3.937A4.664,4.664,0,0,1,619.924,643.485Zm6.412-8.522c-.1,2.007-.266,3.952-.507,5.814a22.079,22.079,0,0,1-.523,2.782,8.874,8.874,0,0,0,5.628-4.327h-4.6v-3.669h.956Zm-6.165,7.553a3.7,3.7,0,0,0,.751.1c.623,0,.771,0,1.215-3.081a45.531,45.531,0,0,0,.493-5.068h-.7A35.76,35.76,0,0,1,620.171,642.516Zm10.127-6.953h1.448c.057-.669.091-1.331.1-2h-.173A19.616,19.616,0,0,1,630.3,635.563Zm-3.869-3.861q-.011,1.165-.053,2.31c.512-.616.983-1.23,1.422-1.854l-.216.286Zm0-1.187.908.585a23.366,23.366,0,0,0,2.4-4.224l.136-.283h11v-1.85h-10.2l.35-.892c.507-1.336.536-1.365.63-1.46l.13-.094c.024-.013.092-.042.177-.076l.054-.023-2.4-.671a31.235,31.235,0,0,1-2.379,5.936h0l-.028.048-.925,1.783v-.259c-.223.331-.444.623-.7.944l.661.424h.174Zm-4.156-.112h2.134l-.308-.2.368-.435a14.131,14.131,0,0,0,1.011-1.307H622.32C622.314,629.131,622.3,629.735,622.277,630.4Zm10.166-8.385-.018.005Z" fill="#f7eddc"/>
      <path id="パス_108" data-name="パス 108" d="M664.6,642.132c-1.061-.82-1.621-1.2-2.081-1.5a11.148,11.148,0,0,1-3.961,4.98l-1.98-1.38a9.684,9.684,0,0,0,3.981-4.7,12.4,12.4,0,0,0-4-1.12c-1.981,4.24-2.841,5.521-4.6,5.521a2.334,2.334,0,0,1-2.261-2.58,4.971,4.971,0,0,1,2.361-3.961,5.389,5.389,0,0,1,3.18-.96c.58-1.381,1.041-2.521,1.621-4.341a14.009,14.009,0,0,1-3.641.62l-.9-2.021c3.081.02,5.441-.379,6.521-1.08l1.321,1.321a8.116,8.116,0,0,0-1.041,1.7c-.02.08-1.44,3.3-1.72,3.921a12.814,12.814,0,0,1,3.861.92,17,17,0,0,0,.52-3.661l2.241.62c.2.06.48.16.48.341,0,.1-.02.12-.3.259-.16.1-.16.14-.219.42a24.356,24.356,0,0,1-.681,2.981c1.1.62,1.721,1,2.581,1.56Zm-12.823-1.24c0,.519.26.54.4.54a.913.913,0,0,0,.84-.481,22.715,22.715,0,0,0,1.32-2.48C652.614,639.011,651.774,640.151,651.774,640.892Z" fill="#f7eddc"/>
      <path id="パス_109" data-name="パス 109" d="M680.616,645.313a2.453,2.453,0,0,1-2.741-2.461c0-.5.4-2.821.4-3.141a.962.962,0,0,0-1.04-1.06,3.93,3.93,0,0,0-2.661,1.5,16.527,16.527,0,0,0-2.52,5l-2.461-.7c4.821-9.322,5.322-10.3,6.221-12.223.681-1.459.961-2.1,1.221-2.74l2.26,1.2c.121.06.48.241.48.44a.215.215,0,0,1-.16.181,3.426,3.426,0,0,0-.44.12c-.3.1-1.7,2.5-2.94,5.361a5.881,5.881,0,0,1,2-.421,2.3,2.3,0,0,1,2.5,2.421c0,.46-.461,2.66-.461,3.16,0,.7.321.941.821.941,1.38,0,2.8-1.96,3.541-3.04l1.3,1.919C685.2,642.912,683.616,645.313,680.616,645.313Z" fill="#f7eddc"/>
      <path id="パス_110" data-name="パス 110" d="M696.155,634.03a48.821,48.821,0,0,1-3.7,8.581l-2.141-.92a34.246,34.246,0,0,0,3.421-7.281c-.92.12-1.48.18-2.421.24l-.3-2.081a26.448,26.448,0,0,0,3.4-.259,19.016,19.016,0,0,0,.72-3.3l2.181.48c.1.02.48.12.48.34,0,.2-.34.32-.46.441-.02.019-.4,1.3-.48,1.559,1.18-.3,1.78-.5,2.3-.68v2.241C698.475,633.57,697.855,633.729,696.155,634.03Zm7.081,10.642a11.008,11.008,0,0,0-1.98-1.32c-.18,1.6-.78,2.441-3.4,2.441a4.757,4.757,0,0,1-3.261-.94,2.269,2.269,0,0,1-.74-1.7c0-1.081.78-2.84,3.541-2.84a9.965,9.965,0,0,1,1.56.12c-.04-.46-.28-2.5-.28-2.921a3.02,3.02,0,0,1,.86-2.04l2.081,1.12a1.83,1.83,0,0,0-.761,1.6,19.9,19.9,0,0,0,.261,2.782,18.3,18.3,0,0,1,3.441,1.82Zm-5.921-2.54c-1.04,0-1.521.559-1.521.96,0,.44.56.9,1.661.9,1.62,0,1.6-.84,1.6-1.56A6.715,6.715,0,0,0,697.315,642.132Zm6.821-6a14.151,14.151,0,0,0-4.381-1.821l.9-1.72a9.892,9.892,0,0,1,4.461,1.84Z" fill="#f7eddc"/>
      <path id="パス_111" data-name="パス 111" d="M719.055,634.87a7.426,7.426,0,0,0-2.44,4.8,3.171,3.171,0,0,0,1.44,2.6,6.3,6.3,0,0,0,3.521,1.021l-.78,2.44a8.96,8.96,0,0,1-4.921-2.22,5.019,5.019,0,0,1-1.48-3.6,7.279,7.279,0,0,1,1.359-3.98,14.923,14.923,0,0,1,2.641-3.041c-2.681.219-5.621.46-7.622.74l-.339-2.24c4.32.04,10.522-.441,14.3-1.6v2.32A8.161,8.161,0,0,0,719.055,634.87Zm4.181,3.421a8.881,8.881,0,0,0-1.64-1.54l.82-.961a8.726,8.726,0,0,1,1.66,1.541Zm1.62-1.82a9.264,9.264,0,0,0-1.66-1.521l.84-.96a9.205,9.205,0,0,1,1.661,1.521Z" fill="#f7eddc"/>
      <path id="パス_112" data-name="パス 112" d="M748.546,631.008a30.545,30.545,0,0,1-4.629,8.814,25.248,25.248,0,0,1-7.046,6.162l-2.834-1.95a22.664,22.664,0,0,0,8.138-6.786,20.714,20.714,0,0,0,3.432-6.838h-6.656a35.969,35.969,0,0,1-4.94,5.8l-2.574-1.769a22.632,22.632,0,0,0,7.176-9.984l2.679,1.015c.155.051.675.286.675.546,0,.208-.285.259-.65.364-.156.39-.467.91-.728,1.4h5.825a2.618,2.618,0,0,0,1.144-.493l2.106,2.47A2.708,2.708,0,0,0,748.546,631.008Z" fill="#f7eddc"/>
      <path id="パス_113" data-name="パス 113" d="M763.209,625.912c-.39.285-.416.312-.416.39v10.972H759.7V625l3.094.26c.208.025.676.051.676.286C763.469,625.678,763.313,625.808,763.209,625.912ZM774,625.729c-.338.338-.338.417-.338,1.145-.026.233.025,1.4.025,1.664,0,5.069-.051,7.124-.883,9.646-1.534,4.6-4.914,6.526-7.618,7.9l-2.263-2.522c5.33-2.106,7.566-4.576,7.566-12.428,0-.624-.052-4.239-.181-6.319l3.328.183c.13,0,.65.025.65.338C774.286,625.418,774.26,625.521,774,625.729Z" fill="#f7eddc"/>
      <path id="パス_114" data-name="パス 114" d="M800.26,644.5a41.053,41.053,0,0,0-6.344-6.5,25.126,25.126,0,0,1-8.893,6.683l-2.288-2.367a23.057,23.057,0,0,0,8.294-5.616,20.767,20.767,0,0,0,4.42-7.1h-9.906v-3.016H796.75a2.465,2.465,0,0,0,1.352-.572l2,2.21a3.59,3.59,0,0,0-1.4,1.56,31.53,31.53,0,0,1-3.016,5.824,52.032,52.032,0,0,1,6.89,6.422Z" fill="#f7eddc"/>
      <path id="パス_115" data-name="パス 115" d="M827.742,631.294c-.65.624-4.343,4.342-7.567,7.774a23.3,23.3,0,0,1,2.184,2.886l-2.626,2.107a26.238,26.238,0,0,0-6.552-7.8l2.028-2.028a33.287,33.287,0,0,1,2.86,2.548c2.029-2.028,3.511-3.562,5.279-5.46H808.709v-2.938h16.849a2.7,2.7,0,0,0,1.222-.572l2.157,2.522C828.418,630.722,828.028,631.034,827.742,631.294Z" fill="#f7eddc"/>
      <path id="パス_116" data-name="パス 116" d="M852.26,644.5a41.053,41.053,0,0,0-6.344-6.5,25.126,25.126,0,0,1-8.893,6.683l-2.288-2.367a23.057,23.057,0,0,0,8.294-5.616,20.767,20.767,0,0,0,4.42-7.1h-9.906v-3.016H848.75a2.465,2.465,0,0,0,1.352-.572l2,2.21a3.59,3.59,0,0,0-1.4,1.56,31.53,31.53,0,0,1-3.016,5.824,52.032,52.032,0,0,1,6.89,6.422Z" fill="#f7eddc"/>
      <path id="パス_117" data-name="パス 117" d="M869.133,629.136c-.078.078-.546.311-.624.416-.1.1-.52,1.872-.624,2.21a34.262,34.262,0,0,1-5.668,11.467l-3.3-1.3a28.526,28.526,0,0,0,6.6-14.118l3.146.7c.078.026.624.156.624.416C869.289,629.031,869.211,629.084,869.133,629.136Zm9.724,13.286a36.971,36.971,0,0,0-6.058-13.313l2.7-1.533a46.78,46.78,0,0,1,6.6,13.364Zm1.691-12.3a2.51,2.51,0,1,1,2.47-2.522A2.492,2.492,0,0,1,880.548,630.124Zm0-3.978a1.448,1.448,0,0,0-1.43,1.456,1.444,1.444,0,1,0,2.886,0A1.453,1.453,0,0,0,880.548,626.146Z" fill="#f7eddc"/>
      <path id="パス_118" data-name="パス 118" d="M887.385,636.91v-3.3h18.487v3.3Z" fill="#f7eddc"/>
      <path id="パス_119" data-name="パス 119" d="M924.644,634.674a13.354,13.354,0,0,1-1.639,6.734,12.123,12.123,0,0,1-5.772,4.836l-2.548-2.132c5.2-1.872,6.812-4.368,6.942-9.438h-8.736V632h19.63v2.678Zm-8.217-6.448v-2.808h12.585v2.808Z" fill="#f7eddc"/>
      <path id="パス_120" data-name="パス 120" d="M953.815,631.45a25.068,25.068,0,0,1-3.536,3.4v11.286H947.6v-9.283a31.1,31.1,0,0,1-5.279,3.042l-1.69-2.08a30.815,30.815,0,0,0,11.909-8.841l2.08,1.743c.1.078.182.156.182.259C954.8,631.346,954.023,631.424,953.815,631.45Z" fill="#f7eddc"/>
      <path id="パス_121" data-name="パス 121" d="M965.385,636.91v-3.3h18.487v3.3Z" fill="#f7eddc"/>
      <path id="パス_122" data-name="パス 122" d="M612.645,695.62a13.855,13.855,0,0,1,2.422-7.168,18.553,18.553,0,0,1,6.045-6.142,15.057,15.057,0,0,1,8.076-2.237q5.566,0,8.672,3.242a11.512,11.512,0,0,1,3.105,8.3q0,6-4.931,11.016a15.622,15.622,0,0,1-11.494,5.019,13.435,13.435,0,0,1-5.245-.957,10.538,10.538,0,0,1-3.877-2.773,10.143,10.143,0,0,1-2.187-3.77A15.791,15.791,0,0,1,612.645,695.62Zm6.8,4.024a6.7,6.7,0,0,0,1.24,4.335,4.264,4.264,0,0,0,3.506,1.524q4.453,0,7.207-6.055a27.418,27.418,0,0,0,2.754-11.289A7.23,7.23,0,0,0,633,683.687a4.106,4.106,0,0,0-3.457-1.485q-4.3,0-7.2,6.016A26.363,26.363,0,0,0,619.442,699.644Z" fill="#f7eddc"/>
      <path id="パス_123" data-name="パス 123" d="M652.157,702.378h1.972q-2.5,5.332-6.992,5.332a4.2,4.2,0,0,1-2.734-.762,2.773,2.773,0,0,1-.918-2.265,11.4,11.4,0,0,1,.762-3.086l2.343-6.739a4.208,4.208,0,0,0,.274-1.015.387.387,0,0,0-.449-.449q-1,0-2.344,2.539H642.2q2.519-5.449,7.109-5.45a3.69,3.69,0,0,1,2.52.791,2.755,2.755,0,0,1,.9,2.178,10.862,10.862,0,0,1-.8,3.223l-2.265,6.172a6.99,6.99,0,0,0-.489,1.64.427.427,0,0,0,.127.332.516.516,0,0,0,.362.118q.507,0,1.3-.879A8.092,8.092,0,0,0,652.157,702.378Zm3.281-19.258a3.051,3.051,0,1,1-.9-2.158A2.937,2.937,0,0,1,655.438,683.12Z" fill="#f7eddc"/>
      <path id="パス_124" data-name="パス 124" d="M655.2,703.628a2.679,2.679,0,0,1,.634-1.748,2.25,2.25,0,0,1,1.846-.772q2.187,0,2.637,2.793.312,2.07,2.851,2.071a3.859,3.859,0,0,0,2.227-.567,1.667,1.667,0,0,0,.82-1.406,1.352,1.352,0,0,0-.449-.986,18.181,18.181,0,0,0-2.285-1.612,15.161,15.161,0,0,1-3.721-2.92,4.494,4.494,0,0,1-.928-2.861,4.293,4.293,0,0,1,2.159-3.711,11.162,11.162,0,0,1,6.162-1.426,9.629,9.629,0,0,1,4.892.948,2.749,2.749,0,0,1,1.534,2.353,2.049,2.049,0,0,1-.743,1.631,2.491,2.491,0,0,1-1.66.635,2.237,2.237,0,0,1-2.363-2.188q-.275-1.68-2.4-1.679a3.248,3.248,0,0,0-1.915.468,1.629,1.629,0,0,0-.644,1.407,1.38,1.38,0,0,0,.439,1.005,12.28,12.28,0,0,0,2.08,1.4,11.347,11.347,0,0,1,3.809,3.066,4.988,4.988,0,0,1,.9,2.715,4.636,4.636,0,0,1-2.247,3.936,11.071,11.071,0,0,1-6.347,1.552,11.536,11.536,0,0,1-5.274-1.035A3.292,3.292,0,0,1,655.2,703.628Z" fill="#f7eddc"/>
      <path id="パス_125" data-name="パス 125" d="M685.086,702.378h1.973q-2.5,5.332-6.992,5.332a4.2,4.2,0,0,1-2.734-.762,2.77,2.77,0,0,1-.918-2.265,11.388,11.388,0,0,1,.761-3.086l2.344-6.739a4.184,4.184,0,0,0,.273-1.015.386.386,0,0,0-.449-.449q-1,0-2.344,2.539h-1.875q2.52-5.449,7.11-5.45a3.689,3.689,0,0,1,2.519.791,2.752,2.752,0,0,1,.9,2.178,10.862,10.862,0,0,1-.8,3.223l-2.266,6.172a7.018,7.018,0,0,0-.488,1.64.427.427,0,0,0,.127.332.515.515,0,0,0,.361.118q.508,0,1.3-.879A8.017,8.017,0,0,0,685.086,702.378Zm3.282-19.258a3.052,3.052,0,1,1-.9-2.158A2.934,2.934,0,0,1,688.368,683.12Z" fill="#f7eddc"/>
      <path id="パス_126" data-name="パス 126" d="M696.883,701.987l-3.34,3.477q-2.168,2.266-3.847,2.265-1.915,0-1.914-2.285a10.916,10.916,0,0,1,.664-3.32h2.344a8.348,8.348,0,0,0-.7,2.324q0,.645.489.645.39,0,1.25-.9l4.355-4.55-1.172-3.79q-.567-1.8-1.172-1.8-1,0-1.777,2.6h-1.934a10.261,10.261,0,0,1,2.52-4.551,5.17,5.17,0,0,1,3.691-1.621,3.382,3.382,0,0,1,2.12.791,8.3,8.3,0,0,1,1.982,3.682,27.664,27.664,0,0,1,3.848-3.7,3.939,3.939,0,0,1,2.168-.772q2.324,0,2.324,2.95a7.912,7.912,0,0,1-.313,2.089h-2.324a6.3,6.3,0,0,0,.527-2.148q0-.9-.527-.9-.371,0-1.728,1.279t-3.272,3.486l1.582,5.059a9.246,9.246,0,0,0,.606,1.611.641.641,0,0,0,.566.361q1.055,0,1.855-2.656h1.934a10.258,10.258,0,0,1-2.549,4.5,5.261,5.261,0,0,1-3.74,1.611,3.146,3.146,0,0,1-1.9-.576,3.57,3.57,0,0,1-1.172-1.4Q697.938,704.937,696.883,701.987Z" fill="#f7eddc"/>
      <path id="パス_127" data-name="パス 127" d="M722.884,695.982a48.761,48.761,0,0,1-3.7,8.581l-2.141-.919a34.326,34.326,0,0,0,3.421-7.282c-.921.12-1.481.18-2.421.241l-.3-2.082a26.477,26.477,0,0,0,3.4-.259,19.073,19.073,0,0,0,.72-3.3l2.18.48c.1.02.48.121.48.34,0,.2-.339.321-.46.441-.02.019-.4,1.3-.48,1.559,1.181-.3,1.781-.5,2.3-.679v2.24C725.205,695.522,724.584,695.682,722.884,695.982Zm7.082,10.642a11.033,11.033,0,0,0-1.981-1.32c-.18,1.6-.78,2.44-3.4,2.44a4.753,4.753,0,0,1-3.26-.939,2.269,2.269,0,0,1-.741-1.7c0-1.081.781-2.84,3.542-2.84a9.973,9.973,0,0,1,1.56.12c-.04-.46-.28-2.5-.28-2.921a3.019,3.019,0,0,1,.86-2.04l2.08,1.12a1.832,1.832,0,0,0-.76,1.6,19.841,19.841,0,0,0,.26,2.781,18.227,18.227,0,0,1,3.441,1.82Zm-5.922-2.54c-1.04,0-1.52.56-1.52.96,0,.44.56.9,1.661.9,1.62,0,1.6-.84,1.6-1.56A6.718,6.718,0,0,0,724.044,704.084Zm6.822-6a14.171,14.171,0,0,0-4.381-1.821l.9-1.72a9.888,9.888,0,0,1,4.461,1.84Z" fill="#f7eddc"/>
      <path id="パス_128" data-name="パス 128" d="M741.464,707.864l-1.06-2.46a20.025,20.025,0,0,0,2.5.22c3.721,0,5.421-1.94,5.421-3.78,0-1.281-1.02-2.1-2.52-2.1-1.381,0-3.4.8-5.461,3.2l-1.741-.92a39.042,39.042,0,0,1,1.561-7.641l2.3.9a25.563,25.563,0,0,0-1.2,4.4,7.7,7.7,0,0,1,4.921-2.021,4.318,4.318,0,0,1,4.441,4.381C750.626,707.685,743.944,707.8,741.464,707.864Zm4.461-12.642a18.932,18.932,0,0,0-4.621-2.181l.86-1.979a23.705,23.705,0,0,1,4.781,2.059Z" fill="#f7eddc"/>
      <path id="パス_129" data-name="パス 129" d="M757.163,702.264a11.767,11.767,0,0,1,4.441,4.34l-2.081,1.661a16.433,16.433,0,0,0-3.86-4.441Z" fill="#f7eddc"/>
      <path id="パス_130" data-name="パス 130" d="M365.928,769.874a74.154,74.154,0,0,1,6.5-3.978l-.027-3.355a25.515,25.515,0,0,1-3.952.131l-.389-2.939a20.731,20.731,0,0,0,2.547.13c.651,0,1.04-.025,1.794-.078-.026-2.937-.026-3.172-.051-4.862l2.886.39c.728.1.728.287.728.416,0,.1-.39.417-.443.495-.1.155-.181,2.7-.208,3.2a16.5,16.5,0,0,0,4.005-1.353v2.964a22.585,22.585,0,0,1-4.056,1.118l-.026,2.575a14.4,14.4,0,0,1,4-.6c4.03,0,6.266,2.678,6.266,5.928,0,3.2-2.08,5.72-4.862,5.72-2.86,0-3.224-1.794-3.588-3.692l2.418-.962c.312,1.066.52,1.742,1.326,1.742.936,0,2-.936,2-2.757a3.413,3.413,0,0,0-3.614-3.458,11.648,11.648,0,0,0-3.952.911c-.026,4.133-.026,4.6-.052,7.774l-2.756,1.092c-1.118-1.2-1.768-1.9-4.135-4.394a10.48,10.48,0,0,0-.779.754Zm6.5-.91a26.669,26.669,0,0,0-2.367,1.586,21.847,21.847,0,0,0,2.367,2.444Zm13.364-4.654a15.123,15.123,0,0,0-5.122-2.964l1.69-2.288a19.152,19.152,0,0,1,5.122,2.937Z" fill="#f7eddc"/>
      <path id="パス_131" data-name="パス 131" d="M414.649,775.872A22.345,22.345,0,0,1,405.56,760.3h-.72a7.177,7.177,0,0,1-1.44,1.26,13.372,13.372,0,0,1,4.169,10.29c0,4.529-1.889,5.249-5.609,5.249l-1.62-3.72a21.379,21.379,0,0,0,2.28.24c1.74,0,1.71-1.11,1.68-3a30.113,30.113,0,0,1-4.74,3.18,31.1,31.1,0,0,1-5.58,2.4l-2.31-2.849a28.527,28.527,0,0,0,6.03-2.13,21.708,21.708,0,0,0,6-3.931,7.474,7.474,0,0,0-.54-1.2,25.765,25.765,0,0,1-9.24,4.8l-2.01-2.731a23.416,23.416,0,0,0,4.8-1.439,19.432,19.432,0,0,0,4.89-2.851c-.21-.239-.48-.54-.69-.75a31.072,31.072,0,0,1-6.48,2.79l-2.28-2.849a20.6,20.6,0,0,0,8.16-2.76h-3.6v-2.7h15.749v2.7H408.68a13.453,13.453,0,0,0,1.11,4.319c1.409-1.26,3.029-2.789,4.319-4.14l2.52,2.071a1.15,1.15,0,0,1,.45.719c0,.21-.18.3-.3.361a13.679,13.679,0,0,0-1.59.389s-3.36,2.76-3.99,3.27a18.207,18.207,0,0,0,6.15,6.061Zm-8.19-22.709h1.66l.066-5.114h4.3v5.114h4.379v5.85h-3.39v-2.85H395.57v2.79h-3.45v-5.79h10.59" fill="#f7eddc"/>
      <path id="パス_132" data-name="パス 132" d="M430.873,765.26a7.426,7.426,0,0,0-2.441,4.8,3.171,3.171,0,0,0,1.441,2.6,6.293,6.293,0,0,0,3.52,1.021l-.78,2.44a8.973,8.973,0,0,1-4.921-2.221,5.015,5.015,0,0,1-1.48-3.6,7.278,7.278,0,0,1,1.36-3.981,14.923,14.923,0,0,1,2.64-3.041c-2.68.22-5.621.46-7.621.741l-.34-2.241c4.321.04,10.522-.44,14.3-1.6v2.32A8.155,8.155,0,0,0,430.873,765.26Zm4.181,3.421a8.886,8.886,0,0,0-1.641-1.54l.82-.961a8.7,8.7,0,0,1,1.661,1.541Zm1.62-1.821a9.26,9.26,0,0,0-1.66-1.52l.84-.96a9.226,9.226,0,0,1,1.66,1.52Z" fill="#f7eddc"/>
      <path id="パス_133" data-name="パス 133" d="M465.122,753.561a11.8,11.8,0,0,1,.627,1.815l-3.96.1a5.665,5.665,0,0,0-.792-1.914h-1.651a28.749,28.749,0,0,1-2.112,2.739h11.65v17.856c0,2.442-2.343,3.07-4.059,3.07h-1.056l-1.519-3.169v1.155h-9.175v1.122h-3.333V766.6H462.25v6.765c1.354.1,1.519.1,1.783.1.693,0,1.221-.33,1.221-.892v-7.227H457.1v-8.911l-.2.23-3.268-2.046c.462-.4.76-.693,1.09-.99h-1.948a9.364,9.364,0,0,1,.33,1.684l-3.8.2a7.892,7.892,0,0,0-.66-1.881h-2.31a30.766,30.766,0,0,1-2.046,2.739h10.726v9.076H446.8v11.882h-3.663V756.366h.462l-3.532-1.254a15.964,15.964,0,0,0,4.687-6.568l3.961.627c.132.033.726.132.726.43,0,.2-.231.362-.495.495a1.256,1.256,0,0,0-.825.758h7.888v1.419a13.84,13.84,0,0,0,2.145-3.762l3.73.66c.2.033.561.132.561.4,0,.2-.231.33-.33.364-.726.362-.826.428-.958.692h9.11v2.938Zm-13.532,4.951H446.8V759.7h4.786Zm0,3.267H446.8v1.254h4.786Zm7.393,7.03h-5.908v1.123h5.908Zm0,2.937h-5.908V773h5.908Zm6.271-13.234H460.5V759.6h4.753Zm0,3.3H460.5V762.9h4.753Z" fill="#f7eddc"/>
      <path id="パス_134" data-name="パス 134" d="M490.927,772.176v5.082h-3.895v-5.082H474.754v-3.4h12.278v-1.683h-9.307V755.442h2.9a20.469,20.469,0,0,0-3.828-3.961l3.036-1.947a31.981,31.981,0,0,1,3.994,4.357l-2.376,1.551h6.271a18.924,18.924,0,0,0-3.334-5.214l3.268-1.882a34.137,34.137,0,0,1,3.7,5.71l-2.442,1.386h3.663a39.344,39.344,0,0,0,3.433-6.4l3.5,1.089c.495.165.726.33.726.561,0,.264-.1.3-.957.561a35.745,35.745,0,0,1-2.673,4.192h3.663v11.651h-9.34v1.683H503.2v3.4Zm-3.895-13.829h-5.677v1.419h5.677Zm0,4.356h-5.677v1.452h5.677Zm9.473-4.356h-5.578v1.419h5.578Zm0,4.356h-5.578v1.452h5.578Z" fill="#f7eddc"/>
      <path id="パス_135" data-name="パス 135" d="M528.644,766.14v.54l-1.3.02c-.26,0-.32.02-.44.16a3.744,3.744,0,0,0-.36,1.161,10.331,10.331,0,0,1-1.481,3.84l1.9,2.861,1.681.02v.5h-4.722l-.84-1.28a5.986,5.986,0,0,1-4.321,1.56c-2.86,0-4.481-1.42-4.481-3.92a4.436,4.436,0,0,1,2.441-4.022c.22-.14.78-.439,1.64-.88l-1.04-1.6a3.961,3.961,0,0,1-.62-1.981c0-1.6,1.58-2.721,3.841-2.721,2.18,0,3.581.941,3.581,2.421,0,1.3-.8,2.16-2.961,3.2l3.481,5.221a9.783,9.783,0,0,0,1.22-3.461,5.5,5.5,0,0,0,.08-.74c0-.28-.1-.34-.56-.34l-1.26-.02v-.54Zm-9.923,1.12c-1.52.78-2.04,1.581-2.04,2.881a4.807,4.807,0,0,0,.98,2.8,3.126,3.126,0,0,0,2.661,1.4,3.519,3.519,0,0,0,2.4-.92Zm2.081-1.781a2.51,2.51,0,0,0,1.54-2.4c0-1.48-.56-2.16-1.8-2.16-.82,0-1.4.46-1.4,1.12a4.432,4.432,0,0,0,.9,2.221Z" fill="#f7eddc"/>
      <path id="パス_136" data-name="パス 136" d="M548.763,752.967l-.648.647a27.73,27.73,0,0,1-5.471,5.58l-.648.756-2.7-4.536.756-.071a37.861,37.861,0,0,0,7.2-2.952l.612-.468Zm11.914-7.2a19.456,19.456,0,0,0,2.7-.108,16.337,16.337,0,0,0-.18,2.879v7.235a16.328,16.328,0,0,0,.18,2.88,20.454,20.454,0,0,0-2.124-.108h-2.879v3.275H569.5a15.168,15.168,0,0,0,2.16-.143v1.727a15.312,15.312,0,0,0-2.16-.143H559.417c2.88,2.375,6.047,3.779,11.123,4.823l1.728.216-3.348,5.075-1.224-.756a22.348,22.348,0,0,1-9.322-8.026v7.379a14.322,14.322,0,0,0,.179,2.159h-5.327l.036-.36a11.274,11.274,0,0,0,.144-1.8v-5.616c-3.132,3.06-6.839,5-12.274,6.479l-.9.324-.72-1.3,1.188-.359a21.951,21.951,0,0,0,9.034-8.243H542.5a16.026,16.026,0,0,0-2.16.143v-1.727a15.5,15.5,0,0,0,2.16.143h10.906v-3.275H551.39a20.29,20.29,0,0,0-2.7.108,15.846,15.846,0,0,0,.181-2.88v-7.235a13.235,13.235,0,0,0-.181-2.879,24.814,24.814,0,0,0,2.7.108H553.3l.072-.5c.252-1.368.36-2.052.432-2.736v-1.152l6.047.937-1.008.755a22,22,0,0,1-3.167,2.7Zm-18.969-1.008c2.159.971,4.031,1.836,5.363,2.555l1.116.432-4.032,4.356-.4-1.008a29.378,29.378,0,0,0-3.095-5.039l-.612-.577,1.08-1.115Zm11.77,2.447v4.1h5.111v-4.1Zm0,5.544v4.355h5.111v-4.355ZM572.808,748l-1.008.36a31.242,31.242,0,0,1-5.8,2.268l-.719.216-.828.36-.828-1.224.72-.432a20.277,20.277,0,0,0,3.6-4.715l.4-.936Zm-7.487,4.572a63.786,63.786,0,0,1,6.551,2.556l1.08.287-3.564,4.464-.432-.756c-.288-.36-.936-1.152-1.3-1.584-1.619-1.979-2.375-2.88-3.2-3.743l-.684-.5.828-1.116Z" fill="#f7eddc"/>
      <path id="パス_137" data-name="パス 137" d="M590.479,779.006c-2.781,1.032-7.3.651-10.732.307l-.583-3.513a31.39,31.39,0,0,0,3.845.694c5.9.7,8.9-1.4,9.188-3.873a3.635,3.635,0,0,0-3.473-3.853c-2.742-.323-5.446,1.594-7.959,3.444l-2.272-2.262a68,68,0,0,0,3.247-7.563c-.633-.015-1.288-.092-1.854-.158-.269-.033-1.61-.19-2.787-.45l-.046-3.208a20.02,20.02,0,0,0,4.116.968c.566.067,1.077.1,1.557.123a47.715,47.715,0,0,0,1.8-6.072l3.306,1.175c.2.085.605.253.581.462-.039.327-.426.281-.809.448-.215.549-1.274,3.385-1.5,3.993a26.107,26.107,0,0,0,7.813-1.437l-.382,3.248a35.05,35.05,0,0,1-8.52,1.022c-.347.9-1.25,3.176-2.078,5.072,3.242-1.612,5.366-1.694,6.588-1.551,3.666.433,6.335,3.165,5.907,6.8A7.437,7.437,0,0,1,590.479,779.006Z" fill="#f7eddc"/>
      <path id="パス_138" data-name="パス 138" d="M620.792,768.991c-4.085.46-4.478-3.029-4.5-3.208-.084-.745.123-4.27.069-4.748a1.442,1.442,0,0,0-1.728-1.4c-1.64.184-2.987,1.634-3.714,2.683-.393.527-1.729,2.881-2.917,7.876l-3.785-.63c5.621-14.7,6.2-16.248,7.221-19.262.769-2.29,1.079-3.292,1.359-4.289l3.571,1.409c.189.069.756.277.789.575a.32.32,0,0,1-.208.3,5.391,5.391,0,0,0-.636.252c-.43.2-2.114,4.013-3.483,8.484a8.8,8.8,0,0,1,2.911-.961,3.443,3.443,0,0,1,4.133,3.188c.078.686-.239,4.043-.155,4.788.117,1.043.634,1.348,1.38,1.264,2.057-.232,3.845-3.392,4.767-5.126l2.26,2.643C627.217,764.645,625.264,768.487,620.792,768.991Z" fill="#f7eddc"/>
      <path id="パス_139" data-name="パス 139" d="M642.447,765.26a7.424,7.424,0,0,0-2.44,4.8,3.173,3.173,0,0,0,1.44,2.6,6.3,6.3,0,0,0,3.521,1.021l-.78,2.44a8.97,8.97,0,0,1-4.921-2.221,5.015,5.015,0,0,1-1.48-3.6,7.284,7.284,0,0,1,1.359-3.981,14.952,14.952,0,0,1,2.641-3.041c-2.681.22-5.621.46-7.621.741l-.34-2.241c4.32.04,10.522-.44,14.3-1.6v2.32A8.156,8.156,0,0,0,642.447,765.26Zm4.181,3.421a8.844,8.844,0,0,0-1.64-1.54l.82-.961a8.725,8.725,0,0,1,1.66,1.541Zm1.621-1.821a9.232,9.232,0,0,0-1.661-1.52l.84-.96a9.2,9.2,0,0,1,1.661,1.52Z" fill="#f7eddc"/>
      <path id="パス_140" data-name="パス 140" d="M679.467,760.888a18.336,18.336,0,0,0,2.475-.1,11.446,11.446,0,0,0-.165,2.178v.628a13.041,13.041,0,0,0,.165,1.979h-4.918l.034-.33a10.314,10.314,0,0,0,.131-1.649v-1.387H657.552v1.387a13.047,13.047,0,0,0,.165,1.979H652.8l.033-.33a10.317,10.317,0,0,0,.132-1.649v-.628a12.335,12.335,0,0,0-.165-2.178,24.512,24.512,0,0,0,2.475.1Zm-14.588-11.024a10.667,10.667,0,0,0-.165-1.98h5.148a13.052,13.052,0,0,0-.165,1.98v1.584h10.232a13.914,13.914,0,0,0,1.98-.132V752.9a14.052,14.052,0,0,0-1.98-.131H654.845a14.709,14.709,0,0,0-1.98.131v-1.584a14.233,14.233,0,0,0,1.98.132h10.034Zm6.039,15.48a1.525,1.525,0,0,1-.231.1c-1.088.462-1.716.727-2.607,1.057a10.1,10.1,0,0,1,2.245,2.706,32,32,0,0,0,3.7-2.739l.858-.957,3.169,3.267-1.617.33a27.043,27.043,0,0,1-5.116,1.023,25.38,25.38,0,0,0,8.845,2.145l1.716.1-2.508,4.456-1.387-.792a27.823,27.823,0,0,1-6.567-3.993,10.119,10.119,0,0,1,.165,1.749c0,2.8-.924,4.191-2.74,4.191a16.088,16.088,0,0,1-4.554-.858l-1.353-.264-.2-1.485a28.88,28.88,0,0,0,3.433.3c.858,0,1.122-.363,1.353-1.981a62.289,62.289,0,0,1-13.037,2.938l-1.122.33-.4-1.287,1.122-.033a53.207,53.207,0,0,0,13.2-5.215c-.033-.132-.033-.164-.066-.264a60.557,60.557,0,0,1-12.113,2.641l-.759.2-.33-1.09.825-.1a37.368,37.368,0,0,0,11.222-4.588v-.034a41.106,41.106,0,0,1-9.868,2.08l-1.321.3-.363-1.255.958-.065a25.618,25.618,0,0,0,7.954-2.9h-2.542a14.561,14.561,0,0,0-1.98.132v-1.584a14.383,14.383,0,0,0,1.98.131h13a14.061,14.061,0,0,0,1.98-.131v1.584a13.914,13.914,0,0,0-1.98-.132Zm-13.465-9.209a8.9,8.9,0,0,0-.1-1.749,12.188,12.188,0,0,0,1.749.1h16.6a9.271,9.271,0,0,0,1.75-.1,12.509,12.509,0,0,0-.1,1.749v1.32a9.007,9.007,0,0,0,.1,1.75c-.462-.066-.661-.066-.925-.1H659.1a8.813,8.813,0,0,0-1.749.1c.066-.43.066-.66.1-.925v-2.145Zm4.818,1.65h10.265V755.8H662.271Z" fill="#f7eddc"/>
      <path id="パス_141" data-name="パス 141" d="M710.223,761.68h3a13.914,13.914,0,0,0,1.98-.132v1.584a13.914,13.914,0,0,0-1.98-.132h-3v3.8h1.32a13.914,13.914,0,0,0,1.98-.132v1.584a13.772,13.772,0,0,0-1.98-.132h-9.011v3.268h10.232a13.77,13.77,0,0,0,1.98-.133v1.585a13.778,13.778,0,0,0-1.98-.133H702.532v3.169a13.064,13.064,0,0,0,.165,1.981h-4.884l.033-.331a10.335,10.335,0,0,0,.132-1.65V772.7h-9.9a14.417,14.417,0,0,0-1.98.133v-1.585a14.083,14.083,0,0,0,1.98.133h9.9v-3.268h-8.747a14.406,14.406,0,0,0-1.98.132v-1.584a14.243,14.243,0,0,0,1.98.132h1.255V763h-2.905a14.561,14.561,0,0,0-1.98.132v-1.584a14.232,14.232,0,0,0,1.98.132h2.905v-3.7H689.4a14.717,14.717,0,0,0-1.979.132v-1.584a14.229,14.229,0,0,0,1.979.132h22.015a13.914,13.914,0,0,0,1.98-.132v1.584a14.068,14.068,0,0,0-1.98-.132h-1.188Zm-2.08-8.119a13.049,13.049,0,0,0,.165,1.98h-4.917l.033-.33a10.458,10.458,0,0,0,.132-1.65v-.826h-6.37v.925a8.44,8.44,0,0,0,.165,1.914h-4.918a10.455,10.455,0,0,0,.165-1.914v-.925h-4.819a14.573,14.573,0,0,0-1.98.133v-1.585a14.083,14.083,0,0,0,1.98.132H692.6v-1.254a14.416,14.416,0,0,0-.165-2.013h4.918a13.107,13.107,0,0,0-.165,2.013v1.254h6.37v-1.254a14.582,14.582,0,0,0-.165-2.013h4.917a13.113,13.113,0,0,0-.165,2.013v1.254h4.852a13.77,13.77,0,0,0,1.98-.132v1.585a13.919,13.919,0,0,0-1.98-.133h-4.852Zm-13.433,4.422v3.7h3.4v-3.7Zm0,5.017v3.8h3.4V763Zm7.69-5.017v3.7H706v-3.7Zm0,5.017v3.8H706V763Z" fill="#f7eddc"/>
      <path id="パス_142" data-name="パス 142" d="M725.347,764.42a48.817,48.817,0,0,1-3.7,8.581l-2.141-.92a34.3,34.3,0,0,0,3.421-7.281c-.92.12-1.48.179-2.421.24l-.3-2.081a26.611,26.611,0,0,0,3.4-.26,18.98,18.98,0,0,0,.72-3.3l2.181.481c.1.019.48.12.48.34,0,.2-.34.32-.46.44-.02.02-.4,1.3-.48,1.56,1.18-.3,1.78-.5,2.3-.68v2.24C727.667,763.96,727.047,764.119,725.347,764.42Zm7.081,10.642a11.064,11.064,0,0,0-1.98-1.321c-.18,1.6-.781,2.441-3.4,2.441a4.756,4.756,0,0,1-3.261-.94,2.264,2.264,0,0,1-.74-1.7c0-1.081.78-2.841,3.541-2.841a10.093,10.093,0,0,1,1.56.12c-.04-.46-.28-2.5-.28-2.921a3.018,3.018,0,0,1,.861-2.04l2.08,1.12a1.831,1.831,0,0,0-.761,1.6,19.715,19.715,0,0,0,.261,2.781,18.353,18.353,0,0,1,3.441,1.821Zm-5.921-2.541c-1.04,0-1.521.56-1.521.96,0,.441.56.9,1.661.9,1.62,0,1.6-.84,1.6-1.561A6.759,6.759,0,0,0,726.507,772.521Zm6.821-6a14.152,14.152,0,0,0-4.381-1.822l.9-1.72a9.892,9.892,0,0,1,4.461,1.84Z" fill="#f7eddc"/>
      <path id="パス_143" data-name="パス 143" d="M744.625,759.163a7.153,7.153,0,0,0,1.649.81c2.46.99,4.59,1.92,6.18,2.729a31.244,31.244,0,0,0,2.34-10.2l4.38,1.019c-.15.481-.21.721-.27.96a3.971,3.971,0,0,0-.09.451l-.12.6a36.372,36.372,0,0,1-2.94,8.94,40.854,40.854,0,0,1,6.39,4.529l-2.73,3.6a26.692,26.692,0,0,0-5.31-5.281c-2.61,3.84-7.14,6.9-12.66,8.55a4.645,4.645,0,0,0-1.259.54l-.63-1.23c3.96-.81,9.389-5.43,11.7-9.959-2.52-1.771-6.75-4.14-7.62-4.29Z" fill="#f7eddc"/>
      <path id="パス_144" data-name="パス 144" d="M793.854,773.8a6.691,6.691,0,0,0-1.5-.15H771.415a8.762,8.762,0,0,0-1.5.15v-4.02a8.475,8.475,0,0,0,1.5.151h20.939a8.484,8.484,0,0,0,1.5-.151Zm-2.52-15.329a6.694,6.694,0,0,0-1.5-.151H773.9a8.774,8.774,0,0,0-1.5.151v-1.92a8.482,8.482,0,0,0,1.5.15h15.93a8.472,8.472,0,0,0,1.5-.15Z" fill="#f7eddc"/>
      <path id="パス_145" data-name="パス 145" d="M805.824,762.763a4.318,4.318,0,0,0-1.11.149V761.5a3.731,3.731,0,0,0,1.11.18h11.49l-1.11,11.67h3.54a4.506,4.506,0,0,0,1.11-.151v1.38a3.539,3.539,0,0,0-1.11-.15H803.3a4.331,4.331,0,0,0-1.111.15V773.2a4.146,4.146,0,0,0,1.111.151h9.479l.93-10.59Z" fill="#f7eddc"/>
      <path id="パス_146" data-name="パス 146" d="M853.7,765.162a7.182,7.182,0,0,0-1.38-.149H831.415a4.931,4.931,0,0,0-1.351.149v-2.22a5.251,5.251,0,0,0,1.351.151h20.909a7.753,7.753,0,0,0,1.38-.151Z" fill="#f7eddc"/>
      <path id="パス_147" data-name="パス 147" d="M869.848,769.16c0,.78.04,3.261.04,3.942h-2.321c.06-1.141.08-2.121.1-3-.76.379-2.84,1.42-2.84,2.821,0,1.3,1.54,1.559,3,1.559a23.131,23.131,0,0,0,5.1-.639V776.1a33.226,33.226,0,0,1-4.761.3c-1.12,0-3.44,0-4.7-1.34a2.734,2.734,0,0,1-.76-1.96c0-2.481,1.84-3.421,4.841-4.961a1.386,1.386,0,0,0-1.52-1.321c-1.961,0-3.161,1.821-4.261,3.62l-1.961-1.219a26.565,26.565,0,0,0,3.941-5.5c-1.14.059-1.76.08-2.6.08l-.24-2.081a28.145,28.145,0,0,0,3.821.08,15.509,15.509,0,0,0,1-2.66l2.5.439c.06.021.4.061.4.2,0,.12-.08.181-.2.221-.04.02-.44.2-.46.2-.02.021-.52,1.141-.62,1.361a16.913,16.913,0,0,0,3.921-1.02l-.14,2.24a42.11,42.11,0,0,1-4.781.76c-.64,1.181-.8,1.461-1.14,1.981a3.853,3.853,0,0,1,1.72-.42,2.68,2.68,0,0,1,2.72,2.02c2.341-1.1,2.6-1.22,3.541-1.641l.68,2.282C872.288,768.261,871.328,768.6,869.848,769.16Z" fill="#f7eddc"/>
      <path id="パス_148" data-name="パス 148" d="M884.956,761.533l-.486.486a20.8,20.8,0,0,1-4.1,4.183l-.486.568-2.025-3.4.567-.054a28.265,28.265,0,0,0,5.4-2.213l.459-.351Zm8.934-5.4a14.6,14.6,0,0,0,2.025-.081,12.264,12.264,0,0,0-.135,2.16v5.425a12.269,12.269,0,0,0,.135,2.16,15.073,15.073,0,0,0-1.593-.081h-2.159v2.456h8.34a11.375,11.375,0,0,0,1.62-.108v1.295a11.369,11.369,0,0,0-1.62-.107h-7.558c2.16,1.781,4.535,2.834,8.341,3.617l1.3.161-2.51,3.807-.918-.567a16.761,16.761,0,0,1-6.991-6.02v5.534a10.528,10.528,0,0,0,.135,1.619H888.3l.027-.269a8.446,8.446,0,0,0,.107-1.35v-4.211a19.706,19.706,0,0,1-9.2,4.859l-.675.243-.539-.972.89-.27a16.464,16.464,0,0,0,6.776-6.181h-5.426a11.9,11.9,0,0,0-1.62.107v-1.295a11.645,11.645,0,0,0,1.62.108h8.178v-2.456h-1.511a15.194,15.194,0,0,0-2.024.081,11.89,11.89,0,0,0,.135-2.16v-5.425a9.986,9.986,0,0,0-.135-2.16,18.385,18.385,0,0,0,2.024.081h1.431l.054-.378c.189-1.026.27-1.538.323-2.051v-.864l4.536.7-.756.566a16.386,16.386,0,0,1-2.376,2.025Zm-14.225-.756c1.62.729,3.023,1.377,4.022,1.917l.837.324-3.024,3.266-.3-.756a21.987,21.987,0,0,0-2.322-3.778l-.459-.433.81-.837Zm8.827,1.836v3.077h3.833v-3.077Zm0,4.157v3.266h3.833v-3.266Zm14.495-3.563-.756.27a23.428,23.428,0,0,1-4.346,1.7l-.54.162-.62.27-.621-.918.54-.323a15.261,15.261,0,0,0,2.7-3.536l.3-.7Zm-5.615,3.427a48.423,48.423,0,0,1,4.913,1.917l.81.216-2.673,3.348-.323-.568c-.216-.269-.7-.863-.972-1.187-1.215-1.484-1.782-2.159-2.4-2.808l-.514-.378.622-.837Z" fill="#f7eddc"/>
      <path id="パス_149" data-name="パス 149" d="M917.087,774.8a7.229,7.229,0,0,1-3.98,1.28,4.452,4.452,0,0,1-2.921-1.02c-.94-.82-1.26-1.84-1.26-6.641,0-1.221.16-7.162.1-8.5l2.661.38c.48.059.66.2.66.32,0,.16-.241.319-.56.58a75.343,75.343,0,0,0-.56,8,10.557,10.557,0,0,0,.379,3.541,1.927,1.927,0,0,0,1.761.841c1.12,0,3.8-.7,5.761-4.541l1.96,1.62A14.929,14.929,0,0,1,917.087,774.8Z" fill="#f7eddc"/>
      <path id="パス_150" data-name="パス 150" d="M939.508,774.062a9.035,9.035,0,0,1-4.161,2.28l-1.38-1.92a7.309,7.309,0,0,0,3.8-1.78,5.179,5.179,0,0,0,1.62-3.721,3.905,3.905,0,0,0-3.721-3.781,24.712,24.712,0,0,1-2.32,5.741,13.2,13.2,0,0,0,.92,1.36l-1.661,1.821a10.946,10.946,0,0,1-.8-1.22c-.58.58-1.981,1.98-3.3,1.98-1.4,0-2.521-1.26-2.521-3.421a8.033,8.033,0,0,1,2.681-5.8c-.561-1.621-.86-2.621-1.121-3.681l2.341-.94a16.542,16.542,0,0,0,.66,3.26,9.784,9.784,0,0,1,3.281-1.08,19.844,19.844,0,0,0,.28-3.461l2.32.221c.18.019.64.06.64.3,0,.1-.079.139-.279.28-.06.04-.161.12-.161.2-.24,1.4-.26,1.54-.46,2.441a6.862,6.862,0,0,1,3.621,1.48,5.91,5.91,0,0,1,2.021,4.521A6.934,6.934,0,0,1,939.508,774.062Zm-10.062-6.322a5.817,5.817,0,0,0-1.341,3.481c0,.58.241,1.121.781,1.121.84,0,1.66-1.021,1.94-1.381C930.406,770.061,930.086,769.36,929.446,767.74Zm1.781-1.42c.279.76.58,1.481.98,2.34a22.056,22.056,0,0,0,1.18-3.341A6.257,6.257,0,0,0,931.227,766.32Z" fill="#f7eddc"/>
      <path id="パス_151" data-name="パス 151" d="M958.908,775.062a15.07,15.07,0,0,0-3.661-1.981c-.08,2.041-.56,2.841-3.121,2.841-2.76,0-4.48-.981-4.48-2.6,0-.58.2-2.9,4.7-2.74l.56.02-.04-1.92c-.36.019-1.461.059-2.041.059-1.84,0-2.761-.66-2.761-1.44,0-.98,1.361-1.92,2.141-2.481l1.14.981c-.36.26-.66.48-.66.74,0,.28.42.28.76.28a13.755,13.755,0,0,0,1.381-.04l-.04-2.5c-2.3.1-3.441.181-5.162.381l-.04-2.161c2.281,0,3.361-.04,5.142-.08l-.06-2.66,2.44.24c.38.04.5.1.5.239,0,.08-.04.1-.26.281a.65.65,0,0,0-.26.36c0,.019-.02.4-.04,1.44,2.561-.12,3.241-.16,5.121-.3l-.08,2.12c-2.22,0-4.081.04-5.081.059v2.362c1.741-.221,2.481-.341,4.321-.681v2.181c-.86.139-1.92.32-4.281.5.04,1,.04,1.2.1,2.38a16.621,16.621,0,0,1,5.061,2.26Zm-6.922-2.621c-1.3,0-1.94.34-1.94.861,0,.679,1.28.679,1.52.679,1.3,0,1.381-.36,1.361-1.48A5.185,5.185,0,0,0,951.986,772.441Z" fill="#f7eddc"/>
      <path id="パス_152" data-name="パス 152" d="M975.968,764.1v2.8a5.172,5.172,0,0,1,.58,2.441,8.959,8.959,0,0,1-1.021,3.86,13.888,13.888,0,0,1-2.72,3.721l-2.241-1.16a6.39,6.39,0,0,0,2.861-3.281,4,4,0,0,1-1.08.2,2.524,2.524,0,0,1-1.641-.62,3.583,3.583,0,0,1-1.04-2.782c0-2.2,1.1-3.72,3.141-3.72a2.639,2.639,0,0,1,.94.16l-.04-1.5c-1.78.1-4.8.28-7.342.6V762.5c1.361,0,3.081,0,7.281-.2-.019-.62-.019-1.68-.139-3.141l2.221.141c.459.019.58.08.58.279,0,.12-.04.181-.181.3s-.159.16-.159.24v2.06c2.78-.159,3.4-.22,5.44-.38v2.161C979.889,763.96,978.568,764,975.968,764.1Zm-2.221,3.64a1.041,1.041,0,0,0-.74-.28c-.8,0-1.361.7-1.361,1.761,0,1.2.64,1.66,1.1,1.66.42,0,1.38-.441,1.38-1.86A1.868,1.868,0,0,0,973.747,767.74Z" fill="#f7eddc"/>
      <path id="パス_153" data-name="パス 153" d="M1000.633,752.256l-2.3,6.485L993.5,768.9l-2.109-.748,2.659-10.929,2.3-6.485Zm-6.751,19.009-1.532,4.313-4.28-1.52,1.532-4.313Z" fill="#f7eddc"/>
    </g>
    <g id="グループ_34" data-name="グループ 34">
      <g id="グループ_33" data-name="グループ 33" clip-path="url(#clip-path)">
        <g id="グループ_32" data-name="グループ 32">
          <rect id="長方形_55" data-name="長方形 55" width="90.243" height="56.64" transform="translate(963.569 603.376)" fill="#f7eddc"/>
          <circle id="楕円形_34" data-name="楕円形 34" cx="1.723" cy="1.723" r="1.723" transform="translate(965.88 605.133)" fill="#920116"/>
          <circle id="楕円形_35" data-name="楕円形 35" cx="1.723" cy="1.723" r="1.723" transform="translate(976.736 605.133)" fill="#920116"/>
          <circle id="楕円形_36" data-name="楕円形 36" cx="1.723" cy="1.723" r="1.723" transform="translate(987.396 605.133)" fill="#920116"/>
          <circle id="楕円形_37" data-name="楕円形 37" cx="1.723" cy="1.723" r="1.723" transform="translate(999.503 605.133)" fill="#920116"/>
          <circle id="楕円形_38" data-name="楕円形 38" cx="1.723" cy="1.723" r="1.723" transform="translate(1011.853 605.133)" fill="#920116"/>
          <circle id="楕円形_39" data-name="楕円形 39" cx="1.723" cy="1.723" r="1.723" transform="translate(1024.781 605.133)" fill="#920116"/>
          <circle id="楕円形_40" data-name="楕円形 40" cx="1.723" cy="1.723" r="1.723" transform="translate(1036.859 605.133)" fill="#920116"/>
          <circle id="楕円形_41" data-name="楕円形 41" cx="1.723" cy="1.723" r="1.723" transform="translate(1047.885 605.133)" fill="#920116"/>
          <circle id="楕円形_42" data-name="楕円形 42" cx="1.723" cy="1.723" r="1.723" transform="translate(960.224 612.438)" fill="#920116"/>
          <circle id="楕円形_43" data-name="楕円形 43" cx="1.723" cy="1.723" r="1.723" transform="translate(971.08 612.438)" fill="#920116"/>
          <circle id="楕円形_44" data-name="楕円形 44" cx="1.723" cy="1.723" r="1.723" transform="translate(981.741 612.438)" fill="#920116"/>
          <circle id="楕円形_45" data-name="楕円形 45" cx="1.723" cy="1.723" r="1.723" transform="translate(993.848 612.438)" fill="#920116"/>
          <circle id="楕円形_46" data-name="楕円形 46" cx="1.723" cy="1.723" r="1.723" transform="translate(1006.197 612.438)" fill="#920116"/>
          <circle id="楕円形_47" data-name="楕円形 47" cx="1.723" cy="1.723" r="1.723" transform="translate(1019.125 612.438)" fill="#920116"/>
          <circle id="楕円形_48" data-name="楕円形 48" cx="1.723" cy="1.723" r="1.723" transform="translate(1031.203 612.438)" fill="#920116"/>
          <circle id="楕円形_49" data-name="楕円形 49" cx="1.723" cy="1.723" r="1.723" transform="translate(1042.229 612.438)" fill="#920116"/>
          <circle id="楕円形_50" data-name="楕円形 50" cx="1.723" cy="1.723" r="1.723" transform="translate(965.965 621.052)" fill="#920116"/>
          <circle id="楕円形_51" data-name="楕円形 51" cx="1.723" cy="1.723" r="1.723" transform="translate(976.821 621.052)" fill="#920116"/>
          <circle id="楕円形_52" data-name="楕円形 52" cx="1.723" cy="1.723" r="1.723" transform="translate(987.482 621.052)" fill="#920116"/>
          <circle id="楕円形_53" data-name="楕円形 53" cx="1.723" cy="1.723" r="1.723" transform="translate(999.589 621.052)" fill="#920116"/>
          <circle id="楕円形_54" data-name="楕円形 54" cx="1.723" cy="1.723" r="1.723" transform="translate(1011.938 621.052)" fill="#920116"/>
          <circle id="楕円形_55" data-name="楕円形 55" cx="1.723" cy="1.723" r="1.723" transform="translate(1024.866 621.052)" fill="#920116"/>
          <circle id="楕円形_56" data-name="楕円形 56" cx="1.723" cy="1.723" r="1.723" transform="translate(1036.944 621.052)" fill="#920116"/>
          <circle id="楕円形_57" data-name="楕円形 57" cx="1.723" cy="1.723" r="1.723" transform="translate(1047.97 621.052)" fill="#920116"/>
          <circle id="楕円形_58" data-name="楕円形 58" cx="1.723" cy="1.723" r="1.723" transform="translate(972.573 630.679)" fill="#920116"/>
          <circle id="楕円形_59" data-name="楕円形 59" cx="1.723" cy="1.723" r="1.723" transform="translate(983.43 630.679)" fill="#920116"/>
          <circle id="楕円形_60" data-name="楕円形 60" cx="1.723" cy="1.723" r="1.723" transform="translate(994.09 630.679)" fill="#920116"/>
          <circle id="楕円形_61" data-name="楕円形 61" cx="1.723" cy="1.723" r="1.723" transform="translate(1006.197 630.679)" fill="#920116"/>
          <circle id="楕円形_62" data-name="楕円形 62" cx="1.723" cy="1.723" r="1.723" transform="translate(1018.547 630.679)" fill="#920116"/>
          <circle id="楕円形_63" data-name="楕円形 63" cx="1.723" cy="1.723" r="1.723" transform="translate(1031.475 630.679)" fill="#920116"/>
          <circle id="楕円形_64" data-name="楕円形 64" cx="1.723" cy="1.723" r="1.723" transform="translate(1043.553 630.679)" fill="#920116"/>
          <circle id="楕円形_65" data-name="楕円形 65" cx="1.723" cy="1.723" r="1.723" transform="translate(1054.579 630.679)" fill="#920116"/>
          <circle id="楕円形_66" data-name="楕円形 66" cx="1.723" cy="1.723" r="1.723" transform="translate(965.965 639.462)" fill="#920116"/>
          <circle id="楕円形_67" data-name="楕円形 67" cx="1.723" cy="1.723" r="1.723" transform="translate(976.821 639.462)" fill="#920116"/>
          <circle id="楕円形_68" data-name="楕円形 68" cx="1.723" cy="1.723" r="1.723" transform="translate(987.482 639.462)" fill="#920116"/>
          <circle id="楕円形_69" data-name="楕円形 69" cx="1.723" cy="1.723" r="1.723" transform="translate(999.589 639.462)" fill="#920116"/>
          <circle id="楕円形_70" data-name="楕円形 70" cx="1.723" cy="1.723" r="1.723" transform="translate(1011.938 639.462)" fill="#920116"/>
          <circle id="楕円形_71" data-name="楕円形 71" cx="1.723" cy="1.723" r="1.723" transform="translate(1024.866 639.462)" fill="#920116"/>
          <circle id="楕円形_72" data-name="楕円形 72" cx="1.723" cy="1.723" r="1.723" transform="translate(1036.944 639.462)" fill="#920116"/>
          <circle id="楕円形_73" data-name="楕円形 73" cx="1.723" cy="1.723" r="1.723" transform="translate(1047.97 639.462)" fill="#920116"/>
          <circle id="楕円形_74" data-name="楕円形 74" cx="1.723" cy="1.723" r="1.723" transform="translate(972.659 648.92)" fill="#920116"/>
          <circle id="楕円形_75" data-name="楕円形 75" cx="1.723" cy="1.723" r="1.723" transform="translate(983.515 648.92)" fill="#920116"/>
          <circle id="楕円形_76" data-name="楕円形 76" cx="1.723" cy="1.723" r="1.723" transform="translate(994.176 648.92)" fill="#920116"/>
          <circle id="楕円形_77" data-name="楕円形 77" cx="1.723" cy="1.723" r="1.723" transform="translate(1006.282 648.92)" fill="#920116"/>
          <circle id="楕円形_78" data-name="楕円形 78" cx="1.723" cy="1.723" r="1.723" transform="translate(1018.632 648.92)" fill="#920116"/>
          <circle id="楕円形_79" data-name="楕円形 79" cx="1.723" cy="1.723" r="1.723" transform="translate(1031.56 648.92)" fill="#920116"/>
          <circle id="楕円形_80" data-name="楕円形 80" cx="1.723" cy="1.723" r="1.723" transform="translate(1043.638 648.92)" fill="#920116"/>
          <circle id="楕円形_81" data-name="楕円形 81" cx="1.723" cy="1.723" r="1.723" transform="translate(1054.664 648.92)" fill="#920116"/>
          <circle id="楕円形_82" data-name="楕円形 82" cx="1.723" cy="1.723" r="1.723" transform="translate(965.965 656.569)" fill="#920116"/>
          <circle id="楕円形_83" data-name="楕円形 83" cx="1.723" cy="1.723" r="1.723" transform="translate(976.821 656.569)" fill="#920116"/>
          <circle id="楕円形_84" data-name="楕円形 84" cx="1.723" cy="1.723" r="1.723" transform="translate(987.482 656.569)" fill="#920116"/>
          <circle id="楕円形_85" data-name="楕円形 85" cx="1.723" cy="1.723" r="1.723" transform="translate(999.589 656.569)" fill="#920116"/>
          <circle id="楕円形_86" data-name="楕円形 86" cx="1.723" cy="1.723" r="1.723" transform="translate(1011.938 656.569)" fill="#920116"/>
          <circle id="楕円形_87" data-name="楕円形 87" cx="1.723" cy="1.723" r="1.723" transform="translate(1024.866 656.569)" fill="#920116"/>
          <circle id="楕円形_88" data-name="楕円形 88" cx="1.723" cy="1.723" r="1.723" transform="translate(1036.944 656.569)" fill="#920116"/>
          <circle id="楕円形_89" data-name="楕円形 89" cx="1.723" cy="1.723" r="1.723" transform="translate(1047.97 656.569)" fill="#920116"/>
        </g>
      </g>
    </g>
    <path id="パス_155" data-name="パス 155" d="M1016.2,606.148a23.113,23.113,0,0,1,.813-4.922c.3-1.421.243-3.14.943-4.439a2.272,2.272,0,0,1,2.98-1.14c.335.172,1.185.606,1.182,1.067,0,.439-.65.652-1,.719-2.773.533-2.224-3.142-1.846-4.811a8.317,8.317,0,0,1,1.517-3.53c.953-1.215,2.2-2.212,3.053-3.495,1.07-1.613-1.527-3.117-2.59-1.514a15.051,15.051,0,0,1-1.643,1.679,22.728,22.728,0,0,0-1.746,2.245,11.2,11.2,0,0,0-1.577,4.249c-.568,2.809-.609,6.916,2.725,7.993a5.378,5.378,0,0,0,4.431-.565,3.561,3.561,0,0,0,1.288-4.484,5.343,5.343,0,0,0-8.473-1.125c-1.476,1.521-1.636,3.484-1.968,5.462-.373,2.22-1.1,4.335-1.092,6.611a1.5,1.5,0,0,0,3,0Z" fill="#f7eddc"/>
    <path id="パス_156" data-name="パス 156" d="M1027.416,610.073a3.406,3.406,0,0,1-.028-.391c0-.1.08-.412,0-.11.034-.124.055-.25.094-.373.011-.037.144-.359.065-.186s.111-.2.134-.236c.057-.1.117-.2.179-.29.033-.049.25-.345.1-.146.087-.112.18-.22.274-.326a20.023,20.023,0,0,1,2.353-2.137c.054-.045.34-.269.088-.078.089-.068.179-.133.271-.2.213-.15.432-.291.655-.426a12.577,12.577,0,0,1,1.637-.843c-.179.075.09-.033.149-.055q.219-.084.439-.159c.265-.089.533-.17.8-.237.143-.036.286-.068.431-.1.028-.006.486-.069.162-.034a5.864,5.864,0,0,1,.8-.03,1.5,1.5,0,0,0,0-3c-2.714-.082-5.506,1.352-7.553,3.033-1.875,1.541-4.369,3.588-4.04,6.317a1.547,1.547,0,0,0,1.5,1.5,1.509,1.509,0,0,0,1.5-1.5Z" fill="#f7eddc"/>
    <path id="パス_157" data-name="パス 157" d="M1030.941,623.535a14.283,14.283,0,0,1,2.375-2.158,6.171,6.171,0,0,1,3.082-.761,11.084,11.084,0,0,1,1.6.046,5.849,5.849,0,0,1,1.337.15c.219.1.316.344.515.452.109.22.145.2.108-.049q.072-.33-.074-.123c-.062.009-.739.558-.485.466.125-.045.108.069.118.106a3.325,3.325,0,0,1-.1-.375,1.272,1.272,0,0,1,.1-.729c.373-.915,1.127-1.269,1.956-1.734a6.578,6.578,0,0,1,3.363-.621,10.782,10.782,0,0,1,1.676.08c.6.087,1.16.282,1.755.363a1.553,1.553,0,0,0,1.845-1.047,1.512,1.512,0,0,0-1.048-1.846c-.689-.093-1.356-.312-2.054-.411a15.858,15.858,0,0,0-2.336-.137,9.555,9.555,0,0,0-4.618.973c-.257.136-.461.331-.706.481-.271.166-.6.239-.879.419a4.6,4.6,0,0,0-1.463,1.817,4.552,4.552,0,0,0-.466,3.284,2.859,2.859,0,0,0,2.33,2.272,3.937,3.937,0,0,0,3.606-1.828c.887-1.375.252-2.886-.916-3.863a6.289,6.289,0,0,0-3.98-1.133,11.086,11.086,0,0,0-4.811.661,12.966,12.966,0,0,0-3.951,3.124,1.5,1.5,0,0,0,2.121,2.121Z" fill="#f7eddc"/>
    <rect id="長方形_56" data-name="長方形 56" width="2.967" height="2.967" transform="translate(1016.036 613.251) rotate(-45.575)" fill="#f7eddc"/>
    <rect id="長方形_57" data-name="長方形 57" width="2.967" height="2.967" transform="translate(1028.83 614.617) rotate(-45.575)" fill="#f7eddc"/>
    <rect id="長方形_58" data-name="長方形 58" width="2.967" height="2.967" transform="translate(1026.248 597.716) rotate(-45.575)" fill="#f7eddc"/>
    <rect id="長方形_59" data-name="長方形 59" width="2.967" height="2.967" transform="translate(1041.286 606.148) rotate(-45.575)" fill="#f7eddc"/>
    <ellipse id="楕円形_90" data-name="楕円形 90" cx="6.001" cy="3.299" rx="6.001" ry="3.299" transform="translate(412.745 734.462)" fill="#f7eddc"/>
    <ellipse id="楕円形_91" data-name="楕円形 91" cx="3.635" cy="1.998" rx="3.635" ry="1.998" transform="translate(410.852 739.855)" fill="#f7eddc"/>
    <ellipse id="楕円形_92" data-name="楕円形 92" cx="1.707" cy="0.939" rx="1.707" ry="0.939" transform="translate(409.573 744.122)" fill="#f7eddc"/>
    <text id="_" data-name="♪" transform="matrix(0.852, 0.523, -0.523, 0.852, 582.575, 747.177)" fill="#f7eddc" font-size="17.228" font-family="Helvetica"><tspan x="-4.324" y="0">♪</tspan></text>
    <text id="_2" data-name="♪" transform="matrix(0.909, -0.417, 0.417, 0.909, 604.202, 754.929)" fill="#f7eddc" font-size="10.819" font-family="Helvetica"><tspan x="-2.715" y="0">♪</tspan></text>
    <path id="パス_158" data-name="パス 158" d="M489.7,729.412a18.865,18.865,0,0,0,2.25,4.554,7.619,7.619,0,0,0,1.616,1.679,3.8,3.8,0,0,0,1.893.722,6.422,6.422,0,0,0,3.956-1.476,27.186,27.186,0,0,0,3.571-3.282l2.438-2.558.083,3.575a16.652,16.652,0,0,0,.43,3.3,9.029,9.029,0,0,0,1.126,2.9,3.3,3.3,0,0,0,1.992,1.532,5.777,5.777,0,0,0,2.917-.235l2.623-.727-1.078,2.323a14.073,14.073,0,0,0-.938,2.775,7.274,7.274,0,0,0-.208,2.816,2.868,2.868,0,0,0,1.386,2.176,6.787,6.787,0,0,0,2.959.776,6.119,6.119,0,0,1-3.315.025,3.99,3.99,0,0,1-2.516-2.584,8.935,8.935,0,0,1-.334-3.524,16.193,16.193,0,0,1,.721-3.379l1.545,1.6a7.686,7.686,0,0,1-4.292.636,5.6,5.6,0,0,1-2.245-.9,6.622,6.622,0,0,1-1.636-1.66,11.083,11.083,0,0,1-1.629-3.878,18.492,18.492,0,0,1-.427-3.995l2.521,1.017a21.991,21.991,0,0,1-4.237,3.5,10.25,10.25,0,0,1-2.653,1.2,6.5,6.5,0,0,1-3.1.162,5.355,5.355,0,0,1-2.7-1.509,7.727,7.727,0,0,1-1.586-2.362A13.635,13.635,0,0,1,489.7,729.412Z" fill="#f7eddc"/>
    <g id="グループ_35" data-name="グループ 35">
      <path id="パス_159" data-name="パス 159" d="M723.679,747.088l-1.155,5.775-1.155-5.775,1.155-5.775Z" fill="#f7eddc"/>
      <path id="パス_160" data-name="パス 160" d="M723.218,746.393,726,750.559l-4.165-2.777-2.777-4.165Z" fill="#f7eddc"/>
      <path id="パス_161" data-name="パス 161" d="M721.83,746.393,726,743.617l-2.777,4.165-4.165,2.777Z" fill="#f7eddc"/>
    </g>
    <g id="グループ_36" data-name="グループ 36">
      <path id="パス_162" data-name="パス 162" d="M714.975,736.977l-1.443,7.214-1.443-7.214,1.443-7.214Z" fill="#f7eddc"/>
      <path id="パス_163" data-name="パス 163" d="M714.4,736.109l3.469,5.2-5.2-3.469-3.469-5.2Z" fill="#f7eddc"/>
      <path id="パス_164" data-name="パス 164" d="M712.665,736.109l5.2-3.469-3.469,5.2-5.2,3.469Z" fill="#f7eddc"/>
    </g>
    <path id="パス_165" data-name="パス 165" d="M377.717,579.869l1.615,3.273,3.612.525-2.613,2.547.617,3.6-3.23-1.7-3.23,1.7.617-3.6-2.613-2.547,3.612-.525Z" fill="#f7eddc"/>
    <path id="パス_166" data-name="パス 166" d="M365.928,601.177l1.615,3.273,3.612.525-2.613,2.547.617,3.6-3.23-1.7-3.23,1.7.617-3.6-2.613-2.547,3.612-.525Z" fill="#f7eddc"/>
    <path id="パス_167" data-name="パス 167" d="M340.44,584.84l1.615,3.273,3.612.525-2.613,2.547.617,3.6-3.23-1.7-3.23,1.7.617-3.6-2.613-2.547,3.612-.525Z" fill="#f7eddc"/>
    <path id="パス_168" data-name="パス 168" d="M328.662,616.8l1.615,3.273,3.612.525-2.613,2.547.617,3.6-3.23-1.7-3.23,1.7.617-3.6-2.613-2.547,3.612-.525Z" fill="#f7eddc"/>
    <path id="パス_169" data-name="パス 169" d="M307.476,606.148l1.615,3.273,3.612.525-2.613,2.547.617,3.6-3.23-1.7-3.23,1.7.617-3.6-2.613-2.547,3.612-.525Z" fill="#f7eddc"/>
    <g id="グループ_37" data-name="グループ 37">
      <path id="パス_170" data-name="パス 170" d="M510.533,617.957a1.124,1.124,0,0,1-.287-2.21c2.957-.782,5.891-3.491,7.619-5.34h-3.631a1.123,1.123,0,0,1-.273-2.213c4.039-1.009,7.112-4.32,8.685-6.372h-4.268a1.123,1.123,0,0,1-.553-2.1A26.257,26.257,0,0,0,528.287,588a1.123,1.123,0,0,1,2.088.829,28.359,28.359,0,0,1-8.313,10.748h2.727a1.124,1.124,0,0,1,.971,1.688,23.685,23.685,0,0,1-6.456,6.9h1.016a1.123,1.123,0,0,1,.893,1.806c-.2.266-5.049,6.538-10.392,7.952A1.147,1.147,0,0,1,510.533,617.957Z" fill="#f7eddc"/>
      <path id="パス_171" data-name="パス 171" d="M548.129,617.957a1.159,1.159,0,0,1-.288-.038c-5.342-1.414-10.188-7.686-10.392-7.952a1.123,1.123,0,0,1,.893-1.806h1.016a23.7,23.7,0,0,1-6.456-6.9,1.124,1.124,0,0,1,.972-1.688H536.6a28.355,28.355,0,0,1-8.314-10.748,1.123,1.123,0,0,1,2.088-.829,26.258,26.258,0,0,0,10.462,11.723,1.122,1.122,0,0,1-.553,2.1h-4.268c1.574,2.052,4.647,5.363,8.685,6.372a1.123,1.123,0,0,1-.273,2.213H540.8c1.728,1.849,4.662,4.558,7.62,5.34a1.124,1.124,0,0,1-.288,2.21Z" fill="#f7eddc"/>
      <path id="パス_172" data-name="パス 172" d="M529.394,581.963l-1.013,2.054-2.266.329,1.64,1.6-.387,2.257,2.027-1.066,2.027,1.066-.387-2.257,1.64-1.6-2.266-.329-1.013-2.054Z" fill="#f7eddc"/>
    </g>
    <g id="グループ_38" data-name="グループ 38">
      <path id="パス_173" data-name="パス 173" d="M517.677,528.8s-4.247-2.6-13.374,4.728c0,0-4.474-.2-6.993,1.724,0,0-11.717,2.628-8.941,6.5s7.24.332,7.24.332,2.67,6.076,1.594,6.992c0,0-.851,7.108-11.421,5.939,0,0-2.037-5.095-3.484-3.046s1.17,4.745,1.17,4.745-3.554,2.48-1.549,7.973c0,0-1.74,7.2-2.876,7.868s.907,3.68.907,3.68,3.059,1.849,8.7-9.043c0,0,17.785-2.823,27.1-12.017,0,0,12.237-4.969,12.283-7.193s-.265-3.189-1.979-3.807-6.3,4.025-6.3,4.025-2.425,1.248-3.588.754-4.586-3.294-4.889-4.521C511.286,544.432,526.108,535.7,517.677,528.8Z" fill="#f7eddc"/>
      <path id="パス_174" data-name="パス 174" d="M498.2,536.205l-1.963-5.112s4.873-8.425,4.391-10.909,1.832-9.463-1.894-12.434-.573,7.706-.573,7.706-3.605-3.536-4.894-2.958.783,4.232,2.314,4.635.44,6.009.44,6.009l-.556,1.439s-3.23-5.712-5.657-3.942.907,3.681.907,3.681,1.647,2.457,1.245,3.467-.776,3.185-1.973,3.61-3.237-3.627-5.2-1.58,3.114,3.658,3.114,3.658.472,1.385-.656,1.563-5.175.655-4.2,1.976,3.025,2.768,7.419-.527a20.166,20.166,0,0,0,2.551-2.321l2,2.827Z" fill="#f7eddc"/>
      <path id="パス_175" data-name="パス 175" d="M422.395,543.5s4.394,1.441,3.911,3.58c0,0,3.717-.151,3.518,3.341a3.218,3.218,0,0,1,2.2,4.093s4.7,2.947-.3,6.3c0,0,1.334,2.85-.026,3.715l-.15,2.553a10.154,10.154,0,0,1,4.687,6.658s5.871-2.507,8.24-2.031,4.008,4.441,3.719,7.029-.684,5.819-.684,5.819l17.462-5.983s4.715-1.824,2.694-3.577l-2.115-1.6s-1.261-2.206,1.447-2.344,4.533,4.577,4.533,4.577a5.322,5.322,0,0,1-3.883,4.665s-14.835,5.9-17.332,6.513-21.436,4.369-21.436,4.369L413.136,594l-8.2,1.05s-3.39.218-.728-2.955l6.863-.632a26.257,26.257,0,0,1-5.692-13.957c-.505-7.955,6.916-7.4,6.916-7.4s-.086-2.495.383-2.743-3.891-2.352-3.92-3.007-1.4-.316-1.741-1.689.173-5.208-.791-5.9-1.954,1.276-1.954,1.276l-.553,1.448s-2.785-2.165-2.9-3.155-2.871-5.74,4.379-10.175,11.825-1.989,11.825-1.989S420.37,542.581,422.395,543.5Z" fill="#f7eddc"/>
      <circle id="楕円形_93" data-name="楕円形 93" cx="3.483" cy="3.483" r="3.483" transform="translate(397.713 556.634)" fill="#f7eddc"/>
      <circle id="楕円形_94" data-name="楕円形 94" cx="3.483" cy="3.483" r="3.483" transform="translate(515.598 523.987)" fill="#f7eddc"/>
      <rect id="長方形_60" data-name="長方形 60" width="49.243" height="3.283" transform="translate(439.463 577.402) rotate(-21.023)" fill="#f7eddc"/>
    </g>
    <g id="グループ_39" data-name="グループ 39">
      <ellipse id="楕円形_95" data-name="楕円形 95" cx="5.996" cy="7.685" rx="5.996" ry="7.685" transform="matrix(0.84, -0.542, 0.542, 0.84, 773.558, 679.227)" fill="#f7eddc"/>
      <path id="パス_176" data-name="パス 176" d="M802.193,713.567a1.044,1.044,0,0,1-.877-.476l-16.9-26.141a1.043,1.043,0,0,1,1.752-1.133l16.9,26.141a1.042,1.042,0,0,1-.875,1.609Z" fill="#f7eddc"/>
    </g>
    <g id="グループ_41" data-name="グループ 41">
      <path id="パス_177" data-name="パス 177" d="M780.35,713.267a1.169,1.169,0,0,1-.827-1.994l22.26-22.3a1.168,1.168,0,1,1,1.654,1.65l-22.26,22.3A1.168,1.168,0,0,1,780.35,713.267Z" fill="#f7eddc"/>
      <g id="グループ_40" data-name="グループ 40">
        <path id="パス_178" data-name="パス 178" d="M803.228,689.686a1.167,1.167,0,0,1-.91-.435c-2.886-3.577-1.485-6.349-.3-7.359l7.089-7.092a1.168,1.168,0,0,1,1.652,1.652l-7.214,7.207c-.254.225-1.495,1.539.592,4.125a1.168,1.168,0,0,1-.909,1.9Z" fill="#f7eddc"/>
        <path id="パス_179" data-name="パス 179" d="M807.321,691.81a6.642,6.642,0,0,1-4.145-1.7,1.168,1.168,0,1,1,1.466-1.818c2.585,2.084,3.9.844,4.138.574l7.191-7.2a1.169,1.169,0,0,1,1.653,1.652l-7.089,7.091A4.259,4.259,0,0,1,807.321,691.81Z" fill="#f7eddc"/>
        <path id="パス_180" data-name="パス 180" d="M803.549,690.006a1.168,1.168,0,0,1-.826-1.994l9.8-9.8a1.168,1.168,0,0,1,1.652,1.652l-9.8,9.8A1.164,1.164,0,0,1,803.549,690.006Z" fill="#f7eddc"/>
        <rect id="長方形_61" data-name="長方形 61" width="9.379" height="5.543" rx="2.772" transform="translate(804.29 681.741) rotate(44.989)" fill="#f7eddc"/>
      </g>
    </g>
  </g>
</svg>
