<svg xmlns="http://www.w3.org/2000/svg" xmlns:xlink="http://www.w3.org/1999/xlink" width="1280" height="240" viewBox="0 0 1280 240">
  <defs>
    <clipPath id="clip-path">
      <rect id="長方形_185" data-name="長方形 185" width="1280" height="240" transform="translate(0 574)" fill="#fff" stroke="#707070" stroke-width="1"/>
    </clipPath>
  </defs>
  <g id="マスクグループ_18" data-name="マスクグループ 18" transform="translate(0 -574)" clip-path="url(#clip-path)">
    <g id="グループ_274" data-name="グループ 274" transform="translate(44.659 -176.433)">
      <g id="グループ_273" data-name="グループ 273" transform="translate(-93.854 750.433)">
        <g id="グループ_151" data-name="グループ 151">
          <path id="パス_430" data-name="パス 430" d="M1256.608,981.3c-131.752,19.171-135.535-33.112-268.674-33.112s-133.142,33.285-266.282,33.285-133.143-33.285-266.287-33.285S322.22,981.476,189.077,981.476,56.941,967.531-74.816,948.364c-19.167-2.789-19.038-2.9-19.038-22.27s33.285-19.37,33.285-38.74-33.285-19.369-33.285-38.739,33.285-19.372,33.285-38.744-38.209-52.424-19.038-55.214C52.144,735.487,55.928,787.77,189.067,787.77s133.141-33.286,266.281-33.286S588.493,787.77,721.636,787.77s133.143-33.286,266.288-33.286,132.134,13.945,263.891,33.113c19.168,2.788,19.039,2.9,19.039,22.269s-33.286,19.37-33.286,38.74,33.286,19.37,33.286,38.739-37.3,23.723-32.839,42.576C1244.972,959.327,1275.779,978.513,1256.608,981.3Z" transform="translate(93.854 -750.433)" fill="#920116"/>
        </g>
        <g id="グループ_152" data-name="グループ 152" transform="translate(7.486 67.135)">
          <path id="パス_431" data-name="パス 431" d="M1264.94,1056.02c-131.752,19.171-135.535-33.112-268.674-33.112s-133.142,33.285-266.282,33.285S596.84,1022.908,463.7,1022.908s-133.144,33.285-266.288,33.285-132.135-13.945-263.892-33.112c-19.168-2.788-19.038-2.9-19.038-22.268s33.285-19.37,33.285-38.741S-85.522,942.7-85.522,923.333s33.285-19.373,33.285-38.745-38.209-52.424-19.039-55.213C60.476,810.205,64.26,862.488,197.4,862.488S330.54,829.2,463.68,829.2s133.144,33.285,266.288,33.285S863.112,829.2,996.256,829.2s132.134,13.945,263.891,33.112c19.168,2.788,19.039,2.9,19.039,22.269s-33.286,19.371-33.286,38.741,33.286,19.369,33.286,38.738-37.3,23.724-32.839,42.576C1253.3,1034.044,1284.111,1053.231,1264.94,1056.02Z" transform="translate(85.522 -825.151)" fill="#af0e2c"/>
        </g>
        <g id="グループ_159" data-name="グループ 159" transform="translate(167.036 84.942)">
          <g id="グループ_153" data-name="グループ 153">
            <path id="パス_432" data-name="パス 432" d="M131.855,844.969,114.86,859.687V848.463H104.406v20.278l-12.355,10.7H106.1v48.736h51.51V879.441h14.049Z" transform="translate(-92.05 -844.969)" fill="#012a22"/>
          </g>
          <g id="グループ_158" data-name="グループ 158" transform="translate(19.876 37.264)">
            <g id="グループ_154" data-name="グループ 154">
              <rect id="長方形_166" data-name="長方形 166" width="8.64" height="8.64" fill="#f4e171"/>
            </g>
            <g id="グループ_155" data-name="グループ 155" transform="translate(0 10.434)">
              <rect id="長方形_167" data-name="長方形 167" width="8.64" height="8.64" fill="#f4e171"/>
            </g>
            <g id="グループ_156" data-name="グループ 156" transform="translate(10.406 10.434)">
              <rect id="長方形_168" data-name="長方形 168" width="8.64" height="8.64" fill="#f4e171"/>
            </g>
            <g id="グループ_157" data-name="グループ 157" transform="translate(10.406)">
              <rect id="長方形_169" data-name="長方形 169" width="8.64" height="8.64" fill="#f4e171"/>
            </g>
          </g>
        </g>
        <g id="グループ_160" data-name="グループ 160" transform="translate(238.039 170.758)">
          <path id="パス_433" data-name="パス 433" d="M192.463,946.969a31.445,31.445,0,0,1,.031-3.48,1.225,1.225,0,0,1,.236-.775c.338-.364.969-.19,1.326.155s.575.818.952,1.14c1.07.915,2.707.2,3.863-.6a3.376,3.376,0,0,1-.668-1.692c0-.615.47-1.276,1.083-1.232a1.5,1.5,0,0,1,.857.459,26.252,26.252,0,0,1,2.84,3.674,5.491,5.491,0,0,0,3.789,2.44c.937.05,2.106-.2,2.63.583.513.76-.146,1.787-.915,2.288-1.44.938-3.488,1.268-4.162,2.848a4.4,4.4,0,0,0,.1,2.9,32.7,32.7,0,0,0,2.448,6.158,6.124,6.124,0,0,0,2.432,2.843,2.062,2.062,0,0,1,.753.477c.427.541-.092,1.41-.767,1.545a2.5,2.5,0,0,1-1.9-.639c-2.026-1.518-3.274-3.835-4.392-6.106a2.828,2.828,0,0,0-1.032-1.332c-.5-.273-1.282-.093-1.4.466a1.339,1.339,0,0,0,.066.619,15.53,15.53,0,0,0,5.157,7.839,1.888,1.888,0,0,1,.626.7c.318.792-.722,1.579-1.552,1.381a3.56,3.56,0,0,1-1.879-1.649l-4.508-6.47a1.568,1.568,0,0,0-.68-.645,1.527,1.527,0,0,0-.961.076,30.966,30.966,0,0,0-6.536,2.882,22.3,22.3,0,0,1,2.047,8.568c.527-.249,1.139.416,1,.981a1.4,1.4,0,0,1-1.345.919,2.248,2.248,0,0,1-2.077-1.258,9.232,9.232,0,0,1-.314-2.927,4.275,4.275,0,0,0-1.52-2.782l-.9,5.192a3.216,3.216,0,0,1,1.335.563,1.1,1.1,0,0,1,.348,1.3,1.4,1.4,0,0,1-1.432.5,3.161,3.161,0,0,1-2.333-1.316c-.772-1.221-.294-2.8-.136-4.234a8.988,8.988,0,0,0-1.051-5.276c-1.05-1.908-2.858-3.643-2.7-5.815-1.662-.514-3.435.311-5.174.248-2.3-.084-6.929-3.914-4.067-6.192a1.063,1.063,0,0,1,1.486.09,3.738,3.738,0,0,1,.3.987c.3.877,1.351,1.2,2.263,1.365a32.394,32.394,0,0,0,14.919-.867,7.708,7.708,0,0,0,3.235-1.642c-1.152-.787-1.474-2.325-1.607-3.714Q192.5,947.737,192.463,946.969Z" transform="translate(-171.073 -940.479)" fill="#2c220d"/>
        </g>
        <g id="グループ_164" data-name="グループ 164" transform="translate(147.781 36.866)">
          <g id="グループ_161" data-name="グループ 161" transform="translate(15.352 27.547)">
            <ellipse id="楕円形_440" data-name="楕円形 440" cx="9.612" cy="5.884" rx="9.612" ry="5.884" fill="#fff"/>
          </g>
          <g id="グループ_162" data-name="グループ 162" transform="translate(4.207 15.258)">
            <ellipse id="楕円形_441" data-name="楕円形 441" cx="13.99" cy="8.564" rx="13.99" ry="8.564" fill="#fff"/>
          </g>
          <g id="グループ_163" data-name="グループ 163" transform="translate(0)">
            <ellipse id="楕円形_442" data-name="楕円形 442" cx="20.496" cy="12.547" rx="20.496" ry="12.547" fill="#fff"/>
          </g>
        </g>
        <g id="グループ_188" data-name="グループ 188" transform="translate(318.023 129.746)">
          <g id="グループ_165" data-name="グループ 165" transform="translate(7.426 5.563)">
            <circle id="楕円形_443" data-name="楕円形 443" cx="6.8" cy="6.8" r="6.8" fill="#ffeab6"/>
          </g>
          <g id="グループ_166" data-name="グループ 166" transform="translate(26.484 31.657)">
            <ellipse id="楕円形_444" data-name="楕円形 444" cx="2.063" cy="2.068" rx="2.063" ry="2.068" fill="#ffeab6"/>
          </g>
          <g id="グループ_167" data-name="グループ 167" transform="translate(4.322 31.972)">
            <ellipse id="楕円形_445" data-name="楕円形 445" cx="2.063" cy="2.068" rx="2.063" ry="2.068" fill="#ffeab6"/>
          </g>
          <g id="グループ_168" data-name="グループ 168" transform="translate(5.716 46.28)">
            <rect id="長方形_170" data-name="長方形 170" width="17.533" height="4.12" transform="matrix(0.352, -0.936, 0.936, 0.352, 0, 16.409)" fill="#2c220d"/>
          </g>
          <g id="グループ_169" data-name="グループ 169" transform="translate(14.431 21.315)">
            <path id="パス_434" data-name="パス 434" d="M291.464,929.249l-2.913,2.913-12.4-12.4h0a4.119,4.119,0,0,1,5.826,0Z" transform="translate(-276.153 -918.558)" fill="#012a22"/>
          </g>
          <g id="グループ_170" data-name="グループ 170" transform="translate(4.565 19.396)">
            <path id="パス_435" data-name="パス 435" d="M268.741,932.158l-3.568-2.06,6.706-11.616a4.119,4.119,0,0,1,5.627-1.508h0Z" transform="translate(-265.173 -916.422)" fill="#012a22"/>
          </g>
          <g id="グループ_171" data-name="グループ 171" transform="translate(5.891 5.208)">
            <path id="パス_436" data-name="パス 436" d="M269.6,901.521s-2.952,1.5-2.952,3.11,1.617,3.617,2.952,3.081a25.518,25.518,0,0,1,4.684-1.474c.66,0,2.233,1.518,2.277,1.562a.764.764,0,0,0,.427.057,1.127,1.127,0,0,1,1.15.881.543.543,0,0,1,.006.2c-.03.143-.273.349-.362.46-.031.038-.087.1-.156.169a1.161,1.161,0,0,0-.206,1.329l.669,1.335a1.17,1.17,0,0,0,.208.292l.383.391a1.16,1.16,0,0,0,1.677-.018c.9-.966,2.119-2.676,1.688-4.58-.663-2.932-1.5-6.919-3.845-7.334S270.007,900.286,269.6,901.521Z" transform="translate(-266.648 -900.631)" fill="#2c220d"/>
          </g>
          <g id="グループ_172" data-name="グループ 172" transform="translate(5.89)">
            <path id="パス_437" data-name="パス 437" d="M281.938,904.025a2.22,2.22,0,0,0,.179-.4l1.065-3.268a2.223,2.223,0,0,0-1.425-2.8l-8-2.607a2.223,2.223,0,0,0-2.8,1.424l-1.065,3.269a2.165,2.165,0,0,0-.093.431c-1.737-.124-2.917.106-3.117.721-.4,1.214,3.169,3.464,7.961,5.025s9,1.842,9.394.628C284.233,905.828,283.414,904.948,281.938,904.025Z" transform="translate(-266.648 -894.835)" fill="#012a22"/>
          </g>
          <g id="グループ_173" data-name="グループ 173" transform="translate(19.439 46.269)">
            <rect id="長方形_171" data-name="長方形 171" width="4.12" height="17.533" transform="matrix(0.977, -0.211, 0.211, 0.977, 0, 0.87)" fill="#2c220d"/>
          </g>
          <g id="グループ_174" data-name="グループ 174" transform="translate(8.581 17.668)">
            <path id="パス_438" data-name="パス 438" d="M269.642,947.244l3.809-29.79-2.417-2.956,8.478.1,2.856,10.112,3.393,12.536,1.02,7.753Z" transform="translate(-269.642 -914.498)" fill="#012a22"/>
          </g>
          <g id="グループ_175" data-name="グループ 175" transform="translate(1.591 59.265)">
            <path id="パス_439" data-name="パス 439" d="M267.451,962.175s-3.171-1.962-4.227-1.208-1.661,1.66-1.208,1.962,2.642,1.963,2.642,1.963l2.794,1.962,1.584,1.058a22.131,22.131,0,0,1,1.536-2.869Z" transform="translate(-261.863 -960.795)" fill="#012a22"/>
          </g>
          <g id="グループ_176" data-name="グループ 176" transform="translate(19.197 62.081)">
            <path id="パス_440" data-name="パス 440" d="M285.166,964.407s-3.56,1.111-3.681,2.4.167,2.343.692,2.2,3.214-.711,3.214-.711l3.313-.827,1.837-.5a22.076,22.076,0,0,1-1.163-3.039Z" transform="translate(-281.457 -963.928)" fill="#012a22"/>
          </g>
          <g id="グループ_179" data-name="グループ 179" transform="translate(25.853 33.983)">
            <g id="グループ_177" data-name="グループ 177" transform="translate(0 0.739)">
              <path id="パス_441" data-name="パス 441" d="M303.12,942.12l-8.688,4.666a2,2,0,0,1-2.71-.816l-2.619-4.876a2,2,0,0,1,.817-2.71l1.038-.557,7.65-4.109a2,2,0,0,1,2.709.816l2.619,4.876A2,2,0,0,1,303.12,942.12Z" transform="translate(-288.865 -933.48)" fill="#2c220d"/>
            </g>
            <g id="グループ_178" data-name="グループ 178" transform="translate(1.619)">
              <path id="パス_442" data-name="パス 442" d="M294.748,940.9a4.266,4.266,0,0,1-1.132-.154,3.973,3.973,0,0,1-2.743-5.106,4.313,4.313,0,0,1,2.076-2.461,4.176,4.176,0,0,1,5.673,1.589,3.984,3.984,0,0,1,.266,3.148,4.385,4.385,0,0,1-4.139,2.985Zm.265-6.943a3.048,3.048,0,0,0-1.45.368,3.012,3.012,0,0,0-1.454,1.718,2.674,2.674,0,0,0,1.853,3.449,3.068,3.068,0,0,0,3.689-1.981,2.692,2.692,0,0,0-.175-2.129A2.764,2.764,0,0,0,295.013,933.955Z" transform="translate(-290.667 -932.657)" fill="#2c220d"/>
            </g>
          </g>
          <g id="グループ_187" data-name="グループ 187" transform="translate(0 35.087)">
            <g id="グループ_180" data-name="グループ 180" transform="translate(0 3.785)">
              <rect id="長方形_172" data-name="長方形 172" width="11.437" height="8.016" transform="translate(0 11.335) rotate(-82.338)" fill="#c7ad7d"/>
            </g>
            <g id="グループ_181" data-name="グループ 181" transform="translate(2.433)">
              <path id="パス_443" data-name="パス 443" d="M265.668,941.911a2.287,2.287,0,0,1-.322-.022,2.737,2.737,0,0,1-2.015-1.5,4.742,4.742,0,0,1-.483-2.9c.3-2.2,1.9-3.808,3.572-3.583s2.794,2.2,2.5,4.4h0a4.742,4.742,0,0,1-1.233,2.669A2.822,2.822,0,0,1,265.668,941.911Zm.434-7.376c-1.232,0-2.375,1.305-2.608,3.041a4.1,4.1,0,0,0,.408,2.5,1.947,1.947,0,0,0,3.317.446,4.086,4.086,0,0,0,1.054-2.3h0c.248-1.845-.622-3.491-1.94-3.668A1.669,1.669,0,0,0,266.1,934.536Z" transform="translate(-262.799 -933.885)" fill="#c7ad7d"/>
            </g>
            <g id="グループ_186" data-name="グループ 186" transform="translate(3.134 4.376)">
              <g id="グループ_182" data-name="グループ 182">
                <path id="パス_444" data-name="パス 444" d="M264.756,940.419a1.8,1.8,0,0,1-.741-.109.828.828,0,0,1-.336-1.12.827.827,0,0,1,1.12-.336,4.411,4.411,0,0,1,.957,1.361l.063.127-.14.017A8.3,8.3,0,0,1,264.756,940.419Zm-.349-1.463a.627.627,0,0,0-.3,1.179,3.8,3.8,0,0,0,1.4.042,3.8,3.8,0,0,0-.807-1.147A.618.618,0,0,0,264.408,938.956Z" transform="translate(-263.581 -938.755)" fill="#920116"/>
              </g>
              <g id="グループ_183" data-name="グループ 183" transform="translate(1.982 0.366)">
                <path id="パス_445" data-name="パス 445" d="M267.4,940.809a5.461,5.461,0,0,1-1.48-.406l-.131-.054.094-.105c.088-.1.872-.965,1.283-1.059h0a.826.826,0,1,1,.37,1.611A.619.619,0,0,1,267.4,940.809Zm-1.271-.538a3.817,3.817,0,0,0,1.363.331.629.629,0,0,0,.391-.279.62.62,0,0,0,.079-.473.63.63,0,0,0-.751-.472h0A3.833,3.833,0,0,0,266.128,940.271Z" transform="translate(-265.787 -939.163)" fill="#920116"/>
              </g>
              <g id="グループ_184" data-name="グループ 184" transform="translate(0.177 1.414)">
                <path id="パス_446" data-name="パス 446" d="M263.878,942.045a.1.1,0,0,1-.027-.2,3.55,3.55,0,0,0,1.815-1.471.1.1,0,0,1,.173.1,3.688,3.688,0,0,1-1.935,1.562A.091.091,0,0,1,263.878,942.045Z" transform="translate(-263.777 -940.329)" fill="#920116"/>
              </g>
              <g id="グループ_185" data-name="グループ 185" transform="translate(2.061 1.416)">
                <path id="パス_447" data-name="パス 447" d="M267.382,942.487a.1.1,0,0,1-.051-.013,3.69,3.69,0,0,1-1.453-2.016.1.1,0,0,1,.193-.053,3.544,3.544,0,0,0,1.361,1.9.1.1,0,0,1,.035.138A.1.1,0,0,1,267.382,942.487Z" transform="translate(-265.874 -940.331)" fill="#920116"/>
              </g>
            </g>
          </g>
        </g>
        <g id="グループ_191" data-name="グループ 191" transform="translate(376.776 46.505)">
          <g id="グループ_189" data-name="グループ 189" transform="translate(14.982 70.761)">
            <rect id="長方形_173" data-name="長方形 173" width="9.247" height="37.705" fill="#2c220d"/>
          </g>
          <g id="グループ_190" data-name="グループ 190" transform="translate(0)">
            <ellipse id="楕円形_446" data-name="楕円形 446" cx="19.605" cy="39.272" rx="19.605" ry="39.272" fill="#012a22"/>
          </g>
        </g>
        <g id="グループ_194" data-name="グループ 194" transform="translate(813.165 140.442)">
          <g id="グループ_192" data-name="グループ 192" transform="translate(11.523 54.422)">
            <rect id="長方形_174" data-name="長方形 174" width="7.112" height="28.998" fill="#2c220d"/>
          </g>
          <g id="グループ_193" data-name="グループ 193">
            <ellipse id="楕円形_447" data-name="楕円形 447" cx="15.078" cy="30.204" rx="15.078" ry="30.204" fill="#012a22"/>
          </g>
        </g>
        <g id="グループ_197" data-name="グループ 197" transform="translate(530.348 126.526)">
          <g id="グループ_195" data-name="グループ 195" transform="translate(10.657 50.335)">
            <rect id="長方形_175" data-name="長方形 175" width="6.577" height="26.821" fill="#2c220d"/>
          </g>
          <g id="グループ_196" data-name="グループ 196">
            <ellipse id="楕円形_448" data-name="楕円形 448" cx="13.946" cy="27.936" rx="13.946" ry="27.936" fill="#012a22"/>
          </g>
        </g>
        <g id="グループ_200" data-name="グループ 200" transform="translate(923.214 54.097)">
          <g id="グループ_198" data-name="グループ 198" transform="translate(11.909 56.247)">
            <rect id="長方形_176" data-name="長方形 176" width="7.35" height="29.971" fill="#2c220d"/>
          </g>
          <g id="グループ_199" data-name="グループ 199">
            <ellipse id="楕円形_449" data-name="楕円形 449" cx="15.584" cy="31.217" rx="15.584" ry="31.217" fill="#012a22"/>
          </g>
        </g>
        <g id="グループ_203" data-name="グループ 203" transform="translate(1155.696 35.749)">
          <g id="グループ_201" data-name="グループ 201" transform="translate(11.909 56.247)">
            <rect id="長方形_177" data-name="長方形 177" width="7.35" height="29.971" fill="#2c220d"/>
          </g>
          <g id="グループ_202" data-name="グループ 202">
            <ellipse id="楕円形_450" data-name="楕円形 450" cx="15.584" cy="31.217" rx="15.584" ry="31.217" fill="#012a22"/>
          </g>
        </g>
        <g id="グループ_206" data-name="グループ 206" transform="translate(1014.885 136.711)">
          <g id="グループ_204" data-name="グループ 204" transform="translate(7.597 35.882)">
            <rect id="長方形_178" data-name="長方形 178" width="4.689" height="19.119" fill="#2c220d"/>
          </g>
          <g id="グループ_205" data-name="グループ 205">
            <ellipse id="楕円形_451" data-name="楕円形 451" cx="9.941" cy="19.914" rx="9.941" ry="19.914" fill="#012a22"/>
          </g>
        </g>
        <g id="グループ_220" data-name="グループ 220" transform="translate(674.629 87.832)">
          <g id="グループ_207" data-name="グループ 207" transform="translate(0 28.653)">
            <path id="パス_448" data-name="パス 448" d="M656.99,882.5c.064.274.4.436.785.41a1.511,1.511,0,0,0,.572,1.606c.721.375,1.81-.294,2.432-1.492s.544-2.474-.176-2.848-1.81.294-2.432,1.492c-.006.013-.012.024-.017.037a1.188,1.188,0,0,0-.447.018C657.236,881.835,656.915,882.184,656.99,882.5Z" transform="translate(-656.979 -880.075)" fill="#707070"/>
          </g>
          <g id="グループ_208" data-name="グループ 208" transform="translate(24.02 28.305)">
            <path id="パス_449" data-name="パス 449" d="M687.922,882.118c-.064.273-.4.436-.784.409a1.511,1.511,0,0,1-.573,1.606c-.721.375-1.809-.294-2.432-1.492s-.544-2.474.177-2.847,1.809.294,2.431,1.492l.018.036a1.189,1.189,0,0,1,.448.019C687.675,881.449,688,881.8,687.922,882.118Z" transform="translate(-683.712 -879.688)" fill="#707070"/>
          </g>
          <g id="グループ_209" data-name="グループ 209" transform="translate(16.127 17.35)">
            <rect id="長方形_179" data-name="長方形 179" width="3.846" height="14.597" transform="translate(0 2.14) rotate(-33.803)" fill="#c7ad7d"/>
          </g>
          <g id="グループ_210" data-name="グループ 210" transform="translate(0.59 17.072)">
            <rect id="長方形_180" data-name="長方形 180" width="14.597" height="3.846" transform="translate(0 12.641) rotate(-60)" fill="#c7ad7d"/>
          </g>
          <g id="グループ_211" data-name="グループ 211" transform="translate(8.076 33.669)">
            <path id="パス_450" data-name="パス 450" d="M670.976,904.775h-3.762l-1.247-19.118h5.926Z" transform="translate(-665.967 -885.657)" fill="#2c220d"/>
          </g>
          <g id="グループ_212" data-name="グループ 212" transform="translate(13.152 32.853)">
            <path id="パス_451" data-name="パス 451" d="M680.551,903.63l-3.677.795L671.617,886l5.792-1.252Z" transform="translate(-671.617 -884.75)" fill="#2c220d"/>
          </g>
          <g id="グループ_213" data-name="グループ 213" transform="translate(6.779 18.072)">
            <path id="パス_452" data-name="パス 452" d="M679.717,887.8l-15.193-.127,1.537-19.371h10.964Z" transform="translate(-664.524 -868.299)" fill="#c7ad7d"/>
          </g>
          <g id="グループ_214" data-name="グループ 214" transform="translate(6.91 11.862)">
            <path id="パス_453" data-name="パス 453" d="M664.81,863.576c.723-2.074,4.042-2.8,7.412-1.625s5.515,3.811,4.791,5.885c-.459,1.316-1.967,2.088-3.868,2.176-.717,2.893-1.386,7.124.769,7.334h-5.132c-3.229,0-1.583-5.7-.582-8.5C665.665,867.517,664.193,865.344,664.81,863.576Z" transform="translate(-664.67 -861.388)" fill="#012a22"/>
          </g>
          <g id="グループ_215" data-name="グループ 215" transform="translate(8.076 5.063)">
            <circle id="楕円形_452" data-name="楕円形 452" cx="6.299" cy="6.299" r="6.299" fill="#ffeab6"/>
          </g>
          <g id="グループ_216" data-name="グループ 216" transform="translate(8.076 4.439)">
            <path id="パス_454" data-name="パス 454" d="M669.246,853.447s-2.868.669-3.21,2.058.628,3.466,1.894,3.287a22.623,22.623,0,0,1,4.357-.277c.571.14,1.6,1.784,1.634,1.831a.676.676,0,0,0,.356.14,1,1,0,0,1,.805,1.005.466.466,0,0,1-.038.177c-.056.116-.309.243-.41.32-.034.026-.1.066-.171.112a1.033,1.033,0,0,0-.46,1.1l.294,1.295a1,1,0,0,0,.118.3l.247.419a1.032,1.032,0,0,0,1.452.341,4.722,4.722,0,0,0,2.43-3.595c.05-2.672.172-6.292-1.761-7.148S669.858,852.468,669.246,853.447Z" transform="translate(-665.967 -853.125)" fill="#2c220d"/>
          </g>
          <g id="グループ_217" data-name="グループ 217" transform="translate(10.397)">
            <path id="パス_455" data-name="パス 455" d="M678.33,854.6a4.39,4.39,0,0,0-2.552-5.225.574.574,0,0,0,.408-.367.709.709,0,0,0-1.334-.429.578.578,0,0,0,.136.559,4.4,4.4,0,0,0-4.927,2.81,1.181,1.181,0,0,0-1.43.686l-.034.109a1.2,1.2,0,0,0,.889,1.442l8.013,2.57a1.205,1.205,0,0,0,1.563-.656l.034-.108A1.18,1.18,0,0,0,678.33,854.6Z" transform="translate(-668.55 -848.185)" fill="#707070"/>
          </g>
          <g id="グループ_218" data-name="グループ 218" transform="translate(6.327 50.471)">
            <path id="パス_456" data-name="パス 456" d="M667.692,904.358s-3.029.108-3.4,1.1-.37,1.872.072,1.872,2.672.131,2.672.131l2.775.063,1.548,0a17.861,17.861,0,0,1-.26-2.633Z" transform="translate(-664.021 -904.358)" fill="#012a22"/>
          </g>
          <g id="グループ_219" data-name="グループ 219" transform="translate(15.707 49.76)">
            <path id="パス_457" data-name="パス 457" d="M677.418,904.037s-2.871.97-2.945,2.024.181,1.9.606,1.773,2.6-.64,2.6-.64l2.676-.735,1.482-.447a17.874,17.874,0,0,1-1-2.447Z" transform="translate(-674.46 -903.566)" fill="#012a22"/>
          </g>
        </g>
        <g id="グループ_234" data-name="グループ 234" transform="translate(704.168 117.773)">
          <g id="グループ_221" data-name="グループ 221" transform="translate(0 30.572)">
            <path id="パス_458" data-name="パス 458" d="M689.873,918.121a.928.928,0,0,0,.961.5,1.8,1.8,0,0,0,.767,1.841c.881.458,2.154-.242,2.841-1.563s.529-2.766-.353-3.225-2.155.242-2.842,1.564c-.006.013-.012.026-.019.04a1.507,1.507,0,0,0-.535,0C690.134,917.379,689.767,917.756,689.873,918.121Z" transform="translate(-689.855 -915.535)" fill="#707070"/>
          </g>
          <g id="グループ_222" data-name="グループ 222" transform="translate(26.161 30.665)">
            <path id="パス_459" data-name="パス 459" d="M723.93,917.789c-.021.319-.363.563-.805.607a1.717,1.717,0,0,1-.342,1.908c-.739.555-2.085.009-3.008-1.219s-1.073-2.675-.335-3.229,2.085-.009,3.008,1.22c.01.012.018.024.027.037a1.348,1.348,0,0,1,.505-.063C723.528,917.086,723.953,917.416,723.93,917.789Z" transform="translate(-718.97 -915.639)" fill="#707070"/>
          </g>
          <g id="グループ_223" data-name="グループ 223" transform="translate(16.472 16.956)">
            <rect id="長方形_181" data-name="長方形 181" width="4.56" height="17.304" transform="translate(0 2.537) rotate(-33.803)" fill="#c7ad7d"/>
          </g>
          <g id="グループ_224" data-name="グループ 224" transform="translate(1.14 17.061)">
            <rect id="長方形_182" data-name="長方形 182" width="16.742" height="4.412" transform="translate(0 14.499) rotate(-60)" fill="#c7ad7d"/>
          </g>
          <g id="グループ_225" data-name="グループ 225" transform="translate(9.357 39.471)">
            <path id="パス_460" data-name="パス 460" d="M704,945.05l-3.729-.5,1.283-19.115,5.874.781Z" transform="translate(-700.269 -925.44)" fill="#2c220d"/>
          </g>
          <g id="グループ_226" data-name="グループ 226" transform="translate(15.742 39.44)">
            <path id="パス_461" data-name="パス 461" d="M716.31,944.284l-3.677.795-5.258-18.423,5.792-1.252Z" transform="translate(-707.375 -925.404)" fill="#2c220d"/>
          </g>
          <g id="グループ_227" data-name="グループ 227" transform="translate(7.722 16.21)">
            <path id="パス_462" data-name="パス 462" d="M715.071,926.575l-16.622-.175,1.682-26.849h11.995Z" transform="translate(-698.449 -899.551)" fill="#c7ad7d"/>
          </g>
          <g id="グループ_228" data-name="グループ 228" transform="translate(9.5 13.764)">
            <path id="パス_463" data-name="パス 463" d="M700.568,899.016c.724-2.074,4.042-2.8,7.413-1.625s5.515,3.812,4.791,5.885c-.46,1.316-1.967,2.088-3.868,2.176-.718,2.893-1.386,7.124.768,7.334h-5.131c-3.229,0-1.584-5.7-.582-8.5C701.424,902.957,699.952,900.784,700.568,899.016Z" transform="translate(-700.428 -896.828)" fill="#02004d"/>
          </g>
          <g id="グループ_229" data-name="グループ 229" transform="translate(9.5 5.798)">
            <circle id="楕円形_453" data-name="楕円形 453" cx="6.84" cy="6.84" r="6.84" fill="#ffeab6"/>
          </g>
          <g id="グループ_230" data-name="グループ 230" transform="translate(10.111 4.072)">
            <path id="パス_464" data-name="パス 464" d="M704.812,886.4s-3.24.757-3.625,2.324.709,3.916,2.14,3.714a25.589,25.589,0,0,1,4.922-.314c.643.158,1.812,2.016,1.846,2.068a.76.76,0,0,0,.4.159,1.131,1.131,0,0,1,.91,1.136.536.536,0,0,1-.043.2c-.063.132-.349.275-.463.362-.039.03-.109.074-.193.127a1.168,1.168,0,0,0-.519,1.246l.332,1.463a1.169,1.169,0,0,0,.133.334l.279.474a1.165,1.165,0,0,0,1.64.385c1.114-.724,2.708-2.1,2.745-4.06.057-3.019.2-7.108-1.989-8.075S705.5,885.3,704.812,886.4Z" transform="translate(-701.108 -886.042)" fill="#2c220d"/>
          </g>
          <g id="グループ_231" data-name="グループ 231" transform="translate(12.936)">
            <path id="パス_465" data-name="パス 465" d="M706.332,884.578a5.323,5.323,0,0,1,6.742-2.059.693.693,0,0,1-.012-.666.86.86,0,0,1,1.483.829.7.7,0,0,1-.608.342,5.329,5.329,0,0,1,1.584,6.691,1.431,1.431,0,0,1,.574,1.837l-.067.12a1.462,1.462,0,0,1-2.014.405l-8.9-4.979a1.461,1.461,0,0,1-.71-1.927l.067-.12A1.429,1.429,0,0,1,706.332,884.578Z" transform="translate(-704.252 -881.51)" fill="#707070"/>
          </g>
          <g id="グループ_232" data-name="グループ 232" transform="translate(20.663 56.47)">
            <path id="パス_466" data-name="パス 466" d="M715.935,944.719s2.918-.819,3.574.009.923,1.671.5,1.805-2.506.938-2.506.938l-2.624.9-1.475.468a17.939,17.939,0,0,0-.554-2.586Z" transform="translate(-712.852 -944.358)" fill="#012a22"/>
          </g>
          <g id="グループ_233" data-name="グループ 233" transform="translate(6.423 56.754)">
            <path id="パス_467" data-name="パス 467" d="M701.082,944.8s-2.995-.468-3.547.43-.719,1.769-.285,1.852,2.6.635,2.6.635l2.713.588,1.521.29a17.963,17.963,0,0,1,.243-2.633Z" transform="translate(-697.003 -944.674)" fill="#012a22"/>
          </g>
        </g>
        <g id="グループ_248" data-name="グループ 248" transform="translate(637.223 98.042)">
          <g id="グループ_235" data-name="グループ 235" transform="translate(29.481 30.638)">
            <path id="パス_468" data-name="パス 468" d="M654.179,897.123c-.091.391-.566.623-1.122.586a2.16,2.16,0,0,1-.819,2.3c-1.03.535-2.587-.42-3.477-2.134s-.778-3.537.252-4.073,2.587.42,3.478,2.134c.009.017.016.035.025.052a1.7,1.7,0,0,1,.639.026C653.827,896.167,654.286,896.664,654.179,897.123Z" transform="translate(-648.159 -893.648)" fill="#707070"/>
          </g>
          <g id="グループ_236" data-name="グループ 236" transform="translate(0 33.691)">
            <path id="パス_469" data-name="パス 469" d="M615.363,900.521c.092.391.567.624,1.123.586a2.161,2.161,0,0,0,.818,2.3c1.031.536,2.588-.42,3.478-2.134s.778-3.537-.252-4.073-2.587.421-3.477,2.135c-.009.017-.016.034-.025.051a1.709,1.709,0,0,0-.64.027C615.715,899.565,615.256,900.063,615.363,900.521Z" transform="translate(-615.348 -897.047)" fill="#707070"/>
          </g>
          <g id="グループ_237" data-name="グループ 237" transform="translate(19.199 16.904)">
            <rect id="長方形_183" data-name="長方形 183" width="4.938" height="18.738" transform="translate(0 2.747) rotate(-33.803)" fill="#c7ad7d"/>
          </g>
          <g id="グループ_238" data-name="グループ 238" transform="translate(1.451 18.465)">
            <rect id="長方形_184" data-name="長方形 184" width="18.738" height="4.938" transform="translate(0 17.162) rotate(-66.336)" fill="#c7ad7d"/>
          </g>
          <g id="グループ_239" data-name="グループ 239" transform="translate(10.294 44.494)">
            <path id="パス_470" data-name="パス 470" d="M631.813,927.369h-3.762l-1.247-18.3h5.926Z" transform="translate(-626.805 -909.069)" fill="#2c220d"/>
          </g>
          <g id="グループ_240" data-name="グループ 240" transform="translate(16.88 43.119)">
            <path id="パス_471" data-name="パス 471" d="M643.069,926.419l-3.677.795-5.258-18.423,5.792-1.252Z" transform="translate(-634.134 -907.539)" fill="#2c220d"/>
          </g>
          <g id="グループ_241" data-name="グループ 241" transform="translate(5.05 19.731)">
            <path id="パス_472" data-name="パス 472" d="M644.681,908.353H620.968l6.144-26.844h10.963Z" transform="translate(-620.968 -881.51)" fill="#c7ad7d"/>
          </g>
          <g id="グループ_242" data-name="グループ 242" transform="translate(11.967 14.011)">
            <path id="パス_473" data-name="パス 473" d="M641.011,877.331c-.724-2.074-4.042-2.8-7.413-1.625s-5.514,3.811-4.791,5.884c.46,1.317,1.968,2.088,3.868,2.177.718,2.893,1.386,7.124-.768,7.334h5.131c3.229,0,1.584-5.7.583-8.5C640.155,881.271,641.628,879.1,641.011,877.331Z" transform="translate(-628.667 -875.143)" fill="#920116"/>
          </g>
          <g id="グループ_243" data-name="グループ 243" transform="translate(11.1 5.333)">
            <circle id="楕円形_454" data-name="楕円形 454" cx="6.566" cy="6.566" r="6.566" fill="#ffeab6"/>
          </g>
          <g id="グループ_244" data-name="グループ 244" transform="translate(4.521 4.602)">
            <path id="パス_474" data-name="パス 474" d="M620.38,880.27a2.68,2.68,0,0,1,.213-.792,2.457,2.457,0,0,1,.407-.772,4.921,4.921,0,0,1,1.374-1.173,6.425,6.425,0,0,0,2.507-2.018,5.876,5.876,0,0,0,.479-2.583,10.871,10.871,0,0,1,.828-3.885,7.417,7.417,0,0,1,13.008-.967,1.56,1.56,0,0,1,.317.884,1.167,1.167,0,0,1-.364.742,3.524,3.524,0,0,1-2.512.707l-4.945.092v1.472c-.441-.189-1.032-.345-1.334.028a.826.826,0,0,0-.144.589,1.568,1.568,0,0,0,.918,1.283,1.5,1.5,0,0,1,.446.225,1.029,1.029,0,0,1,.167.916l-.479,3.439a3.914,3.914,0,0,1-2.647,3.935l-3.528,1.734a3.7,3.7,0,0,1-2.165.556,2.4,2.4,0,0,1-1.488-.988,5.827,5.827,0,0,1-.781-1.649" transform="translate(-620.38 -864.672)" fill="#2c220d"/>
          </g>
          <g id="グループ_245" data-name="グループ 245" transform="translate(8.804)">
            <path id="パス_475" data-name="パス 475" d="M635.751,863.487a5.33,5.33,0,0,0-6.458-2.853.7.7,0,0,0,.09-.661.86.86,0,0,0-1.571.649.7.7,0,0,0,.563.413,5.337,5.337,0,0,0-2.357,6.469,1.432,1.432,0,0,0-.785,1.758l.052.128a1.463,1.463,0,0,0,1.954.642l9.429-3.892a1.463,1.463,0,0,0,.932-1.834l-.053-.128A1.43,1.43,0,0,0,635.751,863.487Z" transform="translate(-625.146 -859.55)" fill="#707070"/>
          </g>
          <g id="グループ_246" data-name="グループ 246" transform="translate(10.984 60.431)">
            <path id="パス_476" data-name="パス 476" d="M630.832,926.908s3-.427,3.541.48.695,1.778.259,1.855-2.607.6-2.607.6l-2.721.55-1.525.27a17.964,17.964,0,0,0-.207-2.636Z" transform="translate(-627.573 -926.807)" fill="#012a22"/>
          </g>
          <g id="グループ_247" data-name="グループ 247" transform="translate(21.347 59.127)">
            <path id="パス_477" data-name="パス 477" d="M642.189,925.716s2.919-.819,3.574.009.923,1.671.5,1.805-2.505.938-2.505.938l-2.624.9-1.475.469a17.974,17.974,0,0,0-.553-2.587Z" transform="translate(-639.106 -925.355)" fill="#012a22"/>
          </g>
        </g>
        <g id="グループ_249" data-name="グループ 249" transform="translate(268.198 62.64)">
          <path id="パス_478" data-name="パス 478" d="M236.057,844.653h6.732c-5.924-2.423-11.31-9.964-11.31-9.964h5.655c-7.1-4.163-10.638-12.775-11.222-14.3v-.237l-.044.12-.044-.12v.237c-.584,1.529-4.121,10.141-11.221,14.3h5.654s-5.386,7.54-11.309,9.964h6.732s-4.308,8.348-11.04,11.041h17.816v13.865h6.825V855.694H247.1C240.365,853,236.057,844.653,236.057,844.653Z" transform="translate(-204.639 -820.148)" fill="#af0e2c"/>
        </g>
        <g id="グループ_250" data-name="グループ 250" transform="translate(696.504 40.75)">
          <path id="パス_479" data-name="パス 479" d="M718.9,825.094h8.051c-7.086-2.9-13.527-11.917-13.527-11.917h6.764c-8.493-4.978-12.724-15.278-13.422-17.108v-.283s-.017.05-.052.144c-.035-.093-.053-.144-.053-.144v.283c-.7,1.829-4.929,12.13-13.421,17.108H700s-6.441,9.018-13.526,11.917h8.052s-5.153,9.983-13.2,13.2h21.309V854.88H710.8V838.3h21.309C724.054,835.077,718.9,825.094,718.9,825.094Z" transform="translate(-681.325 -795.786)" fill="#af0e2c"/>
        </g>
        <g id="グループ_251" data-name="グループ 251" transform="translate(480.521 35.476)">
          <path id="パス_480" data-name="パス 480" d="M467.463,810.6h5.681c-5-2.046-9.546-8.41-9.546-8.41h4.773c-5.993-3.513-8.979-10.782-9.471-12.072v-.2s-.013.036-.037.1c-.025-.066-.038-.1-.038-.1v.2c-.492,1.29-3.478,8.559-9.471,12.072h4.773s-4.546,6.364-9.546,8.41h5.682s-3.636,7.045-9.318,9.318h15.037v11.7h5.76v-11.7h15.038C471.1,817.644,467.463,810.6,467.463,810.6Z" transform="translate(-440.945 -789.916)" fill="#af0e2c"/>
        </g>
        <g id="グループ_252" data-name="グループ 252" transform="translate(1081.684 16.958)">
          <path id="パス_481" data-name="パス 481" d="M1147.591,798.614h8.051c-7.085-2.9-13.526-11.916-13.526-11.916h6.763c-8.492-4.979-12.723-15.279-13.421-17.108v-.284s-.018.051-.052.145c-.035-.093-.053-.145-.053-.145v.284c-.7,1.828-4.929,12.129-13.421,17.108h6.763s-6.441,9.017-13.527,11.916h8.051s-5.153,9.984-13.2,13.2h21.309V828.4h8.162V811.818h21.309C1152.744,808.6,1147.591,798.614,1147.591,798.614Z" transform="translate(-1110.014 -769.306)" fill="#af0e2c"/>
        </g>
        <g id="グループ_253" data-name="グループ 253" transform="translate(753.629 64.351)">
          <path id="パス_482" data-name="パス 482" d="M771.421,842.736H777.1c-5-2.046-9.545-8.41-9.545-8.41h4.773c-5.993-3.513-8.979-10.782-9.472-12.072v-.2s-.013.036-.037.1c-.024-.066-.037-.1-.037-.1v.2c-.493,1.29-3.479,8.559-9.472,12.072h4.773s-4.545,6.364-9.546,8.41h5.682s-3.636,7.045-9.318,9.318h15.038v11.7H765.7v-11.7h15.038C775.057,849.781,771.421,842.736,771.421,842.736Z" transform="translate(-744.903 -822.053)" fill="#af0e2c"/>
        </g>
        <g id="グループ_254" data-name="グループ 254" transform="translate(94.02 27.419)">
          <path id="パス_483" data-name="パス 483" d="M42.2,805.454h6.732c-5.924-2.423-11.31-9.964-11.31-9.964h5.655c-7.1-4.163-10.638-12.775-11.222-14.3v-.237s-.014.042-.044.12l-.044-.12v.237c-.583,1.529-4.121,10.141-11.221,14.3H26.4s-5.386,7.54-11.31,9.964h6.733s-4.309,8.348-11.041,11.041H28.6V830.36h6.825V816.495H53.245C46.512,813.8,42.2,805.454,42.2,805.454Z" transform="translate(-10.786 -780.949)" fill="#af0e2c"/>
        </g>
        <g id="グループ_255" data-name="グループ 255" transform="translate(334.784 78.858)">
          <path id="パス_484" data-name="パス 484" d="M306.444,850.192,292.6,838.2l-13.849,11.993h4.888v16.956h17.922V850.192Z" transform="translate(-278.746 -838.198)" fill="#af0e2c"/>
        </g>
        <g id="グループ_256" data-name="グループ 256" transform="translate(583.867 36.404)">
          <path id="パス_485" data-name="パス 485" d="M593.451,807.181l-18.743-16.232-18.743,16.232h6.615v22.949h24.255V807.181Z" transform="translate(-555.966 -790.949)" fill="#af0e2c"/>
        </g>
        <g id="グループ_257" data-name="グループ 257" transform="translate(862.801 53.9)">
          <path id="パス_486" data-name="パス 486" d="M866.407,831.1h8.428v29.237h30.9V831.1h8.428l-8-6.931V810.421h-4.9v9.5l-2.459-2.13-8.513-7.372L877.726,821.3Z" transform="translate(-866.407 -810.421)" fill="#af0e2c"/>
        </g>
        <g id="グループ_272" data-name="グループ 272" transform="translate(1018.36 51.277)">
          <g id="グループ_258" data-name="グループ 258" transform="translate(15.062 8.874)">
            <circle id="楕円形_455" data-name="楕円形 455" cx="15.152" cy="15.152" r="15.152" fill="#fff"/>
          </g>
          <g id="グループ_259" data-name="グループ 259" transform="translate(8.24 37.489)">
            <circle id="楕円形_456" data-name="楕円形 456" cx="21.974" cy="21.974" r="21.974" fill="#fff"/>
          </g>
          <g id="グループ_260" data-name="グループ 260" transform="translate(31.63 20.562)">
            <circle id="楕円形_457" data-name="楕円形 457" cx="0.983" cy="0.983" r="0.983" fill="#141414"/>
          </g>
          <g id="グループ_261" data-name="グループ 261" transform="translate(20.33 20.671)">
            <circle id="楕円形_458" data-name="楕円形 458" cx="0.983" cy="0.983" r="0.983" fill="#141414"/>
          </g>
          <g id="グループ_262" data-name="グループ 262" transform="translate(31.719)">
            <path id="パス_487" data-name="パス 487" d="M1085.676,822.708l4.029-11.266-6.824-3.94-8.043,8.948Z" transform="translate(-1074.839 -807.502)" fill="#012a22"/>
          </g>
          <g id="グループ_265" data-name="グループ 265" transform="translate(41.437 33.821)">
            <g id="グループ_263" data-name="グループ 263" transform="translate(0.956 0.958)">
              <line id="線_3" data-name="線 3" x1="13.91" y2="10.377" fill="#af0e2c"/>
            </g>
            <g id="グループ_264" data-name="グループ 264">
              <path id="パス_488" data-name="パス 488" d="M1086.613,857.435a.956.956,0,0,1-.573-1.723l13.909-10.378a.957.957,0,0,1,1.145,1.535l-13.91,10.377A.948.948,0,0,1,1086.613,857.435Z" transform="translate(-1085.655 -845.144)" fill="#2c220d"/>
            </g>
          </g>
          <g id="グループ_268" data-name="グループ 268" transform="translate(0 36.784)">
            <g id="グループ_266" data-name="グループ 266" transform="translate(0.956 0.958)">
              <line id="線_4" data-name="線 4" x1="14.568" y1="9.431" fill="#af0e2c"/>
            </g>
            <g id="グループ_267" data-name="グループ 267">
              <path id="パス_489" data-name="パス 489" d="M1055.06,859.786a.943.943,0,0,1-.518-.154l-14.567-9.432a.956.956,0,0,1,1.04-1.606l14.567,9.432a.956.956,0,0,1-.521,1.759Z" transform="translate(-1039.537 -848.441)" fill="#2c220d"/>
            </g>
          </g>
          <g id="グループ_269" data-name="グループ 269" transform="translate(28.906 49.33)">
            <circle id="楕円形_459" data-name="楕円形 459" cx="1.362" cy="1.362" r="1.362" fill="#af0e2c"/>
          </g>
          <g id="グループ_270" data-name="グループ 270" transform="translate(28.906 56.03)">
            <circle id="楕円形_460" data-name="楕円形 460" cx="1.362" cy="1.362" r="1.362" fill="#af0e2c"/>
          </g>
          <g id="グループ_271" data-name="グループ 271" transform="translate(28.906 62.779)">
            <circle id="楕円形_461" data-name="楕円形 461" cx="1.362" cy="1.362" r="1.362" fill="#af0e2c"/>
          </g>
        </g>
      </g>
    </g>
  </g>
</svg>
