<svg xmlns="http://www.w3.org/2000/svg" width="239.633" height="370.191" viewBox="0 0 239.633 370.191">
  <g id="q-bg-right" transform="translate(-966.208 -4653)">
    <g id="グループ_101" data-name="グループ 101" transform="translate(833.142 4362.098)">
      <rect id="長方形_103" data-name="長方形 103" width="17.852" height="8.807" transform="translate(350.433 442.312) rotate(21.683)" fill="#a7907d"/>
      <rect id="長方形_104" data-name="長方形 104" width="55.78" height="70.035" transform="translate(297.034 523.934) rotate(21.683)" fill="#a7907d"/>
      <path id="パス_404" data-name="パス 404" d="M303.673,661.094l-53.815-21.4.395-.991,56.792-142.836c4.1-10.323,15-16.646,27.27-15.9l19.921-50.1.5.2c2.045-1.29,6.252-.568,9.828.852s7.136,3.792,7.732,6.136l.4.159-.293,1.028-19.469,48.969c8.968,7.431,12.382,18.836,8.491,28.622Zm-51.048-22.589L302.48,658.33,359.448,515.05c3.627-9.127.233-19.839-8.448-26.659l-.628-.494,19.89-50.026-.008-.122c.045-.8-2.079-3.1-6.474-4.846s-7.519-1.537-8.036-.92l-.108.128-19.921,50.105-.79-.068c-11.649-.977-22.057,4.843-25.9,14.513Z" transform="translate(0 0)" fill="#a7907d"/>
    </g>
    <g id="グループ_103" data-name="グループ 103" transform="translate(461.829 4169.129)">
      <path id="パス_405" data-name="パス 405" d="M512.531,524.883c-3.456,0-6.1-.94-7.393-3.119-4.058-6.815,8.809-19.459,22.975-27.893,7.626-4.538,15.4-7.817,21.9-9.237,7.062-1.545,11.754-.734,13.577,2.335s.3,7.58-4.42,13.048c-4.34,5.033-10.932,10.306-18.555,14.844C530.967,520.6,519.9,524.883,512.531,524.883Zm43.649-38.39a26.839,26.839,0,0,0-5.614.689c-6.23,1.361-13.727,4.535-21.116,8.935-15.9,9.463-24.391,20.409-22.07,24.315s15.993,1.653,31.9-7.814c7.389-4.4,13.752-9.477,17.914-14.3,3.745-4.344,5.3-8.082,4.152-10.006h0C560.631,487.109,558.8,486.493,556.18,486.493Z" transform="translate(0 0)" fill="#a7907d"/>
      <path id="パス_406" data-name="パス 406" d="M588.034,659.741c-2.182,0-3.8-.567-4.591-1.886-3.3-5.552,11.837-17.267,22.073-23.827l-32.135-53.979c-15.749,1.97-32.581-7.793-48.724-28.272A185.2,185.2,0,0,1,504.579,519.5l2.367-1.1c.3.647,30.423,64.508,66.916,58.939l.867-.132,34.335,57.668-1.082.679c-16.86,10.567-23.382,19.132-22.293,20.96,1.177,1.994,13.24-.15,32.038-11.339a113.659,113.659,0,0,0,19.623-14.354c5.357-5.12,6.018-7.741,5.618-8.409-1.173-1.974-11.719.056-27.722,8.879l-1.1.609-34.049-57.191.637-.717c7.159-8.012,19.56-32.605-19.825-87.747l2.127-1.514c39.378,55.131,27.9,81.092,20.274,90.27L615.1,628.4c12.283-6.634,27.131-12.335,30.117-7.323,1.469,2.471-.567,6.383-6.059,11.632a115.945,115.945,0,0,1-20.09,14.708C609.46,653.135,595.483,659.741,588.034,659.741Z" transform="translate(0.496 2.144)" fill="#a7907d"/>
      <path id="パス_407" data-name="パス 407" d="M511.291,529.217l-1.782-1.907c.658-.613,16.261-15.071,28.644-16.974,11.527-1.775,26.139-17.907,26.285-18.071l1.942,1.744c-.623.693-15.38,16.988-27.827,18.906C526.964,514.7,511.448,529.075,511.291,529.217Z" transform="translate(12.725 20.822)" fill="#a7907d"/>
      <path id="パス_408" data-name="パス 408" d="M519.575,505.677l-1.771.765-.375,1.892-1.274-1.448-1.916.229.984-1.66-.81-1.751,1.882.423,1.415-1.311.179,1.92Z" transform="translate(24.46 46.992)" fill="#a7907d"/>
      <path id="パス_409" data-name="パス 409" d="M517.482,511.5l-.195-2.232-1.948-1.1,2.062-.875.449-2.195,1.469,1.691,2.226-.252-1.154,1.92.927,2.039-2.182-.5Z" transform="translate(27.186 52.636)" fill="#a7907d"/>
      <path id="パス_410" data-name="パス 410" d="M523.868,500.573l.405,1.9,1.8.746-1.686.974-.154,1.942-1.448-1.3-1.894.454.792-1.779-1.017-1.661,1.937.2Z" transform="translate(40.4 41.43)" fill="#a7907d"/>
      <path id="パス_411" data-name="パス 411" d="M524.837,506.738l-.77-.5-.848.351.237-.887-.6-.7.917-.049.479-.783.33.857.893.215-.713.578Z" transform="translate(45.838 50.36)" fill="#a7907d"/>
      <circle id="楕円形_423" data-name="楕円形 423" cx="0.605" cy="0.605" r="0.605" transform="translate(557.406 567.553)" fill="#a7907d"/>
      <circle id="楕円形_424" data-name="楕円形 424" cx="0.547" cy="0.547" r="0.547" transform="translate(554.033 559.596)" fill="#a7907d"/>
      <circle id="楕円形_425" data-name="楕円形 425" cx="1.152" cy="1.152" r="1.152" transform="translate(543.637 543.728)" fill="#a7907d"/>
      <circle id="楕円形_426" data-name="楕円形 426" cx="0.954" cy="0.954" r="0.954" transform="translate(560.708 549.494)" fill="#a7907d"/>
      <circle id="楕円形_427" data-name="楕円形 427" cx="0.864" cy="0.864" r="0.864" transform="translate(570.057 571.578)" fill="#a7907d"/>
    </g>
    <g id="グループ_105" data-name="グループ 105" transform="translate(660.922 3894.144)">
      <path id="パス_418" data-name="パス 418" d="M506.472,835.92l-3.39,16.949-3.39-16.949,3.39-16.949Z" transform="translate(2.183 0)" fill="#a7907d"/>
      <path id="パス_419" data-name="パス 419" d="M507.3,831.712l8.149,12.224-12.224-8.15-8.15-12.224Z" transform="translate(0 2.171)" fill="#a7907d"/>
      <path id="パス_420" data-name="パス 420" d="M503.228,831.712l12.224-8.15L507.3,835.786l-12.224,8.15Z" transform="translate(0 2.171)" fill="#a7907d"/>
    </g>
    <g id="グループ_108" data-name="グループ 108" transform="translate(482.548 4111.88)">
      <path id="パス_418-2" data-name="パス 418" d="M506.472,835.92l-3.39,16.949-3.39-16.949,3.39-16.949Z" transform="translate(2.183 0)" fill="#a7907d"/>
      <path id="パス_419-2" data-name="パス 419" d="M507.3,831.712l8.149,12.224-12.224-8.15-8.15-12.224Z" transform="translate(0 2.171)" fill="#a7907d"/>
      <path id="パス_420-2" data-name="パス 420" d="M503.228,831.712l12.224-8.15L507.3,835.786l-12.224,8.15Z" transform="translate(0 2.171)" fill="#a7907d"/>
    </g>
    <g id="グループ_106" data-name="グループ 106" transform="translate(621.327 3842.873)">
      <path id="パス_418-3" data-name="パス 418" d="M508.21,840.264l-4.258,21.292-4.258-21.292,4.258-21.292Z" transform="translate(3.924 0)" fill="#a7907d"/>
      <path id="パス_419-3" data-name="パス 419" d="M510.435,833.8l10.238,15.357-15.357-10.238-10.238-15.357Z" transform="translate(0 3.904)" fill="#a7907d"/>
      <path id="パス_420-3" data-name="パス 420" d="M505.316,833.8l15.357-10.238-10.238,15.357-15.357,10.238Z" transform="translate(0 3.904)" fill="#a7907d"/>
    </g>
    <g id="グループ_107" data-name="グループ 107" transform="translate(523.922 4051.296)">
      <path id="パス_418-4" data-name="パス 418" d="M508.21,840.264l-4.258,21.292-4.258-21.292,4.258-21.292Z" transform="translate(3.924 0)" fill="#a7907d"/>
      <path id="パス_419-4" data-name="パス 419" d="M510.435,833.8l10.238,15.357-15.357-10.238-10.238-15.357Z" transform="translate(0 3.904)" fill="#a7907d"/>
      <path id="パス_420-4" data-name="パス 420" d="M505.316,833.8l15.357-10.238-10.238,15.357-15.357,10.238Z" transform="translate(0 3.904)" fill="#a7907d"/>
    </g>
  </g>
</svg>
