<svg xmlns="http://www.w3.org/2000/svg" width="227.776" height="351.792" viewBox="0 0 227.776 351.792">
  <g id="q-bg-left" transform="translate(-83.491 -4666)">
    <g id="グループ_104" data-name="グループ 104" transform="translate(-719.707 4804.701) rotate(-17)">
      <path id="パス_412" data-name="パス 412" d="M974.562,397.434s-5.484-5.542-22.109,2.177c0,0-6.729-1.979-11.281,0,0,0-18.8-.4-16.031,6.531s10.886,3.219,10.886,3.219,1.781,10.24-.2,11.229c0,0-3.958,10.49-19.594,4.75,0,0-1.187-8.51-4.156-5.937s0,7.654,0,7.654-6.334,2.44-5.344,11.544c0,0-5.344,10.292-7.323,10.886s0,5.937,0,5.937,3.958,3.958,16.626-10.49c0,0,28.1,2.375,45.719-8.115,0,0,20.471-2.968,21.376-6.333s.792-4.948-1.583-6.531-11.084,3.76-11.084,3.76-4.156.99-5.739-.2-5.74-6.729-5.74-8.708C958.984,418.809,984.8,411.09,974.562,397.434Z" transform="translate(-44.333 -13.893)" fill="#a7907d"/>
      <path id="パス_413" data-name="パス 413" d="M949.457,387.5l-1.069-8.51S958.957,368,959.156,364.045s6.333-13.7,1.781-19.618-3.76,11.5-3.76,11.5-4.157-6.729-6.333-6.333-.4,6.729,1.781,7.917-1.583,9.3-1.583,9.3l-1.385,1.979s-2.771-9.9-7.125-8.115,0,5.938,0,5.938,1.583,4.354.593,5.739-2.375,4.552-4.354,4.75-3.562-6.729-7.323-4.354,3.365,6.729,3.365,6.729.2,2.285-1.583,2.132-8.115-.944-7.125,1.431,3.562,5.344,11.479,1.979a31.515,31.515,0,0,0,4.75-2.573l1.974,5.047Z" transform="translate(-51.629 0)" fill="#a7907d"/>
      <path id="パス_414" data-name="パス 414" d="M779.823,378.534s6.142,3.839,4.607,6.91c0,0,5.708,1.164,4.1,6.4,0,0,4.431,2.618,1.812,7.049,0,0,6.042,6.242-2.819,9.465,0,0,.96,4.833-1.434,5.639l-1.185,3.826a15.9,15.9,0,0,1,4.632,11.882s9.868-1.61,13.292,0,4.43,8.257,3.021,12.084-3.222,8.592-3.222,8.592l28.8-2.551s7.854-1.007,5.437-4.43l-2.618-3.222s-1.09-3.826,3.08-3.021,5.177,8.659,5.177,8.659-1.812,5.639-7.652,5.639c0,0-24.77,3.407-28.8,3.407s-34.235-1.392-34.235-1.392l-25-1.611-12.861-1.477s-5.236-.94,0-4.766l10.674,1.611s-5.639-11.072-3.424-23.358,13.291-8.662,13.291-8.662.806-3.826,1.611-4.027-5.034-5.035-4.833-6.042-2.014-1.007-2.014-3.222,2.215-7.854,1.007-9.263-3.451,1.208-3.451,1.208l-1.383,1.994s-3.423-4.337-3.222-5.884-2.216-9.8,10.472-13.832,18.729,1.41,18.729,1.41S777.091,376.373,779.823,378.534Z" transform="translate(0 -8.353)" fill="#a7907d"/>
      <circle id="楕円形_428" data-name="楕円形 428" cx="5.455" cy="5.455" r="5.455" transform="translate(735.903 382.044)" fill="#a7907d"/>
      <circle id="楕円形_429" data-name="楕円形 429" cx="5.455" cy="5.455" r="5.455" transform="translate(927.409 376.589)" fill="#a7907d"/>
      <rect id="長方形_105" data-name="長方形 105" width="77.125" height="5.141" transform="translate(793.073 428.138) rotate(-7.188)" fill="#a7907d"/>
    </g>
    <path id="パス_415" data-name="パス 415" d="M966.745,809.708a66.137,66.137,0,0,1-56.954-99.737,66.133,66.133,0,1,0,86.1,92.983A65.877,65.877,0,0,1,966.745,809.708Z" transform="translate(-789.315 3956.029)" fill="#a7907d"/>
    <path id="パス_416" data-name="パス 416" d="M481.335,693.833l5.988,12.134,13.39,1.946-9.689,9.445,2.287,13.336-11.977-6.3-11.977,6.3,2.287-13.336-9.689-9.445,13.39-1.946Z" transform="translate(-401.826 4099.626) rotate(-11)" fill="#a7907d"/>
    <path id="パス_417" data-name="パス 417" d="M481.335,693.833l5.988,12.134,13.39,1.946-9.689,9.445,2.287,13.336-11.977-6.3-11.977,6.3,2.287-13.336-9.689-9.445,13.39-1.946Z" transform="matrix(0.891, 0.454, -0.454, 0.891, 180.121, 3883.278)" fill="#a7907d"/>
  </g>
</svg>
