<svg xmlns="http://www.w3.org/2000/svg" width="48" height="48" viewBox="0 0 48 48">
  <path id="question-circle-regular" d="M32,8A24,24,0,1,0,56,32,24,24,0,0,0,32,8Zm0,43.355A19.355,19.355,0,1,1,51.355,32,19.343,19.343,0,0,1,32,51.355Zm10.378-24.7c0,6.489-7.008,6.589-7.008,8.987v.613a1.161,1.161,0,0,1-1.161,1.161H29.791a1.161,1.161,0,0,1-1.161-1.161V35.42c0-3.459,2.623-4.842,4.6-5.953,1.7-.953,2.741-1.6,2.741-2.862,0-1.669-2.129-2.777-3.85-2.777-2.244,0-3.28,1.062-4.736,2.9a1.162,1.162,0,0,1-1.613.206l-2.693-2.042a1.164,1.164,0,0,1-.256-1.584,10.878,10.878,0,0,1,9.733-5.244C37.31,18.065,42.378,21.771,42.378,26.658ZM36.065,42.839A4.065,4.065,0,1,1,32,38.774,4.069,4.069,0,0,1,36.065,42.839Z" transform="translate(-8 -8)" fill="#3b2a1c"/>
</svg>
