<svg xmlns="http://www.w3.org/2000/svg" width="442.815" height="146.315" viewBox="0 0 442.815 146.315">
  <g id="sidedish-read" transform="translate(-280.22 -1312.137)">
    <g id="グループ_75" data-name="グループ 75">
      <path id="パス_241" data-name="パス 241" d="M430.512,1379.383a5.932,5.932,0,0,0-1,.1v-1a5.656,5.656,0,0,0,1,.1H445.4a4.412,4.412,0,0,0,1-.1v1a4.57,4.57,0,0,0-1-.1h-5.382c-.06,5.281-2.24,7.882-7.7,9.181a3.931,3.931,0,0,0-.84.3l-.34-.86a6.629,6.629,0,0,0,4.2-2.441c1.241-1.5,1.721-3.18,1.761-6.18Zm14.063-4.921a5.943,5.943,0,0,0-1-.1H432.312a5.753,5.753,0,0,0-1,.1v-1a6.068,6.068,0,0,0,1,.1h11.263a5.658,5.658,0,0,0,1-.1Z" fill="#f7eddc"/>
      <path id="パス_242" data-name="パス 242" d="M465.467,1381.063a4.725,4.725,0,0,0-.92-.1H450.6a3.279,3.279,0,0,0-.9.1v-1.48a3.5,3.5,0,0,0,.9.1h13.943a5.169,5.169,0,0,0,.92-.1Z" fill="#f7eddc"/>
      <path id="パス_243" data-name="パス 243" d="M470.6,1375.162a5.752,5.752,0,0,0-1,.1v-1l.16.019a4.755,4.755,0,0,0,.84.08h13.983c-.34,8.062-3.92,12.363-11.622,13.944a5.572,5.572,0,0,0-.76.259l-.3-.8c1.98-.08,5.061-1.981,6.621-4.081,1.74-2.221,2.6-4.841,2.8-8.522Zm13.1-3.941v2.48h-1.2v-2.48Zm2.36,0v2.48h-1.2v-2.48Z" fill="#f7eddc"/>
      <path id="パス_244" data-name="パス 244" d="M487.648,1387.7a5.668,5.668,0,0,0,2.3-2.4c.9-1.681,1.2-3.221,1.2-6.062V1375a4.526,4.526,0,0,0-.1-1h2.72a5.662,5.662,0,0,0-.1,1v4.24c0,4.241-1.42,6.8-4.821,8.643a3.42,3.42,0,0,0-.72.479Zm8.542-13.623a4.465,4.465,0,0,0-.1-1h2.76a5.752,5.752,0,0,0-.1,1v10.683c2.981-.58,6.4-4,6.782-6.762l.84.36a5.55,5.55,0,0,0-.48,1.181c-1.56,4.841-4.581,7.481-9.7,8.461Z" fill="#f7eddc"/>
      <path id="パス_245" data-name="パス 245" d="M508.418,1376.722a4.392,4.392,0,0,0,.84.08H512.4a25.243,25.243,0,0,0,1.22-4.7l2.681.68a5.146,5.146,0,0,0-.34.941c-.38,1.28-.7,2.32-.94,3.08h2.34c2.461,0,3.581,1.18,3.581,3.8a15.006,15.006,0,0,1-1.581,6.9,2.454,2.454,0,0,1-2.34,1.52c-1.18,0-2.28-.62-3.521-2a3.278,3.278,0,0,0-.56-.46l.56-.68a3.372,3.372,0,0,0,2.281,1.52c.48,0,.8-.28,1.2-1a15.173,15.173,0,0,0,1.46-6.261c0-1.88-.5-2.54-1.96-2.54h-1.721q-1.92,5.82-3.7,9.961a7.219,7.219,0,0,0-.28.781L508.3,1387.2a4.762,4.762,0,0,0,.74-1.34c1.22-2.9,2.121-5.321,3.1-8.261h-2.881a5.55,5.55,0,0,0-1,.1v-1Zm15.184,6.721a16.824,16.824,0,0,0-2.7-8,2.126,2.126,0,0,0-.48-.46l.98-.719a3.5,3.5,0,0,0,.44.519,18.442,18.442,0,0,1,4.121,6.622c.08.28.24.72.3.86Zm-.641-12.062v2.461h-1.2v-2.461Zm2.361,0v2.461h-1.2v-2.461Z" fill="#f7eddc"/>
      <path id="パス_246" data-name="パス 246" d="M542.549,1379.583h1.82a8.431,8.431,0,0,0,1.2-.08v.96a8.273,8.273,0,0,0-1.2-.08h-1.82v2.3h.8a8.587,8.587,0,0,0,1.2-.08v.959a8.441,8.441,0,0,0-1.2-.08h-5.461v1.981h6.2a8.6,8.6,0,0,0,1.2-.08v.96a8.455,8.455,0,0,0-1.2-.08h-6.2v1.921a7.919,7.919,0,0,0,.1,1.2h-2.961l.02-.2a6.273,6.273,0,0,0,.08-1v-1.921h-6a8.834,8.834,0,0,0-1.2.08v-.96a8.787,8.787,0,0,0,1.2.08h6v-1.981h-5.3a8.835,8.835,0,0,0-1.2.08v-.959a8.788,8.788,0,0,0,1.2.08h.76v-2.3h-1.76a8.684,8.684,0,0,0-1.2.08v-.96a8.658,8.658,0,0,0,1.2.08h1.76v-2.241h-.66a8.835,8.835,0,0,0-1.2.08v-.96a8.788,8.788,0,0,0,1.2.08h13.343a8.587,8.587,0,0,0,1.2-.08v.96a8.441,8.441,0,0,0-1.2-.08h-.72Zm-1.26-4.922a7.9,7.9,0,0,0,.1,1.2h-2.981l.02-.2a6.275,6.275,0,0,0,.08-1v-.5h-3.861v.561a5.12,5.12,0,0,0,.1,1.16h-2.98a6.34,6.34,0,0,0,.1-1.16v-.561h-2.921a9,9,0,0,0-1.2.08v-.96a8.635,8.635,0,0,0,1.2.08h2.921v-.759a8.747,8.747,0,0,0-.1-1.221h2.98a7.946,7.946,0,0,0-.1,1.221v.759h3.861v-.759a8.747,8.747,0,0,0-.1-1.221h2.981a7.952,7.952,0,0,0-.1,1.221v.759h2.94a8.464,8.464,0,0,0,1.2-.08v.96a8.611,8.611,0,0,0-1.2-.08h-2.94Zm-8.142,2.681v2.241h2.061v-2.241Zm0,3.041v2.3h2.061v-2.3Zm4.661-3.041v2.241h2.18v-2.241Zm0,3.041v2.3h2.18v-2.3Z" fill="#f7eddc"/>
      <path id="パス_247" data-name="パス 247" d="M547.33,1378.542a2.844,2.844,0,0,0,.62-.06l3.64-.82c-.22-1.02-.26-1.22-.64-2.74-.02-.08-.06-.181-.1-.38a3.17,3.17,0,0,0-.24-.74l2.58-.66.04.239a1.24,1.24,0,0,1,.061.261l.06.219.04.18.4,1.721.14.64.16.72,3.56-.8a16.327,16.327,0,0,1,3.041-.48c2.661,0,4.341,1.5,4.341,3.921,0,2.8-1.64,4.341-4.661,4.341a7.209,7.209,0,0,1-2.42-.34,4.282,4.282,0,0,0-.721-.16l.241-.861a3.848,3.848,0,0,0,2.16.5c1.741,0,2.761-1.24,2.761-3.32,0-1.961-1.02-2.9-3.121-2.9a15.845,15.845,0,0,0-2.8.42l-2.18.5.48,2.061c.78,3.381,1.44,6.361,1.76,7.882.08.42.16.719.2.859l-2.62.641c-.2-1.42-1.32-6.621-2.32-10.883l-3.622.82a1.5,1.5,0,0,0-.58.2Zm11.662-3.08a11.144,11.144,0,0,0-4.981-2.881l.52-1.1a3.731,3.731,0,0,0,.66.2,15.547,15.547,0,0,1,4.281,1.44c.24.12.48.24.74.36Z" fill="#f7eddc"/>
      <path id="パス_248" data-name="パス 248" d="M569.224,1379.782c2.18-.519,6.9-4.32,9.562-7.681l.16-.22,2.06,2.341a35.635,35.635,0,0,1-10.782,5.921,23.833,23.833,0,0,1,11.383,7.622l-2.681,1.88c-2.14-4.061-7.021-8.582-9.7-8.982Zm13.183-8.821v2.46h-1.2v-2.46Zm2.361,0v2.46h-1.2v-2.46Z" fill="#f7eddc"/>
      <path id="パス_249" data-name="パス 249" d="M397.537,1410.365a7.735,7.735,0,0,0-.18-1.5h4.14a8.476,8.476,0,0,0-.15,1.5v5.159h7.829v-5.159a6.059,6.059,0,0,0-.09-.99l-.06-.42v-.09h4.2l-.03.24-.029.27a5.686,5.686,0,0,0-.091.99v5.159h3.9a8.477,8.477,0,0,0,1.5-.149v1.53l-.09-.03-.39-.061a6.232,6.232,0,0,0-1.02-.089h-3.9v3.059c.06,7.38-3.51,11.43-11.369,12.9a5.416,5.416,0,0,0-1.35.419l-.45-1.32a10.375,10.375,0,0,0,6.989-3.75c1.681-2.1,2.28-4.319,2.28-8.22v-3.089h-7.829v5.61a8.211,8.211,0,0,0,.15,1.5h-4.14a7.743,7.743,0,0,0,.18-1.5v-5.61h-4.17a7.735,7.735,0,0,0-1.5.18v-1.53a8.477,8.477,0,0,0,1.5.149h4.17Z" fill="#f7eddc"/>
      <path id="パス_250" data-name="パス 250" d="M422.312,1422.005c2.729-.061,8.7-2.82,12.389-5.76,2.97-2.25,6.33-5.76,7.29-7.559l3.449,3.059a6.358,6.358,0,0,0-1.2,1.109,34.1,34.1,0,0,1-6.179,4.951v13.889a8.569,8.569,0,0,0,.149,1.5h-4.2a8.76,8.76,0,0,0,.15-1.5v-11.88a37.022,37.022,0,0,1-10.05,3.031,4.524,4.524,0,0,0-1.38.389Z" fill="#f7eddc"/>
      <path id="パス_251" data-name="パス 251" d="M456.646,1432.984a8.764,8.764,0,0,0,.15-1.5v-21.3a6.682,6.682,0,0,0-.15-1.5h4.26a8.455,8.455,0,0,0-.15,1.5v6.72a34.754,34.754,0,0,1,11.729,4.14c.51.3.84.51,1.23.75a2.377,2.377,0,0,0,.36.239l-2.61,3.811a30.378,30.378,0,0,0-10.709-7.71v13.349a8.476,8.476,0,0,0,.15,1.5Zm12.9-23.189v3.99h-1.8v-3.99Zm3.51,0v3.99h-1.8v-3.99Z" fill="#f7eddc"/>
      <path id="パス_252" data-name="パス 252" d="M481.651,1418.885a8.658,8.658,0,0,0-1.5.15v-1.5a8.479,8.479,0,0,0,1.5.15H503.97a6.749,6.749,0,0,0,1.5-.15v1.5a6.862,6.862,0,0,0-1.5-.15H495.9c-.09,7.92-3.359,11.819-11.549,13.769a5.779,5.779,0,0,0-1.26.45l-.51-1.29a9.939,9.939,0,0,0,6.3-3.66c1.861-2.25,2.58-4.769,2.641-9.269Zm21.089-7.38a9.071,9.071,0,0,0-1.5-.15H484.351a8.767,8.767,0,0,0-1.5.15v-1.5a9.071,9.071,0,0,0,1.5.15H501.24a8.478,8.478,0,0,0,1.5-.15Zm.51-5.819v3.689h-1.8v-3.689Zm3.57,0v3.689h-1.8v-3.689Z" fill="#f7eddc"/>
      <path id="パス_253" data-name="パス 253" d="M512.491,1424.164c1.02.12,3.87-.869,6.48-2.279a21.81,21.81,0,0,0,7.289-6c.27-.39.45-.6.45-.63a1.974,1.974,0,0,0,.18-.3l2.7,2.31a10.7,10.7,0,0,0-1.14,1.02,25.584,25.584,0,0,1-4.23,3.239v9.84a3.85,3.85,0,0,0,.151,1.14h-3.42a3.622,3.622,0,0,0,.179-1.14v-8.279a29.083,29.083,0,0,1-7.109,1.979,4.883,4.883,0,0,0-1.2.3Z" fill="#f7eddc"/>
      <path id="パス_254" data-name="パス 254" d="M544.039,1424.494c-.03-1.829-1.83-6.749-2.73-7.47l1.26-.869a21.626,21.626,0,0,1,4.26,7.079Zm1.05,7.021c2.67.119,7.02-2.821,8.88-6a19.091,19.091,0,0,0,2.489-8.88l3.57.57a9.813,9.813,0,0,0-.27,1.35c-1.619,8.189-5.309,12.059-13.259,13.889a3.563,3.563,0,0,0-.99.33Zm4.5-7.951c-.06-2.16-1.41-6.3-2.43-7.469l1.38-.75a3.429,3.429,0,0,0,.48.719,22.854,22.854,0,0,1,3.42,6.241Z" fill="#f7eddc"/>
      <path id="パス_255" data-name="パス 255" d="M577.123,1422.215c-2.161-2.1-6.93-4.651-9.21-4.92l.78-1.47a5.1,5.1,0,0,0,1.59.33,36.939,36.939,0,0,1,8.82,2.52Zm-6.66,6.149c6.569-.24,13.049-3.03,16.439-7.109a16.6,16.6,0,0,0,4.05-7.11l1.23.54a4.6,4.6,0,0,0-.72,1.89c-1.41,4.709-3.6,8.369-6.27,10.469a27.765,27.765,0,0,1-11.909,4.98l-.27.06a7.4,7.4,0,0,0-1.29.3Zm9.629-12.809c-1.38-1.77-6.449-4.71-9.03-5.25l.871-1.35a8.805,8.805,0,0,0,1.62.39,36.738,36.738,0,0,1,8.519,2.759Z" fill="#f7eddc"/>
      <path id="パス_256" data-name="パス 256" d="M603.13,1419.005a4.312,4.312,0,0,0-1.11.149v-1.409a3.758,3.758,0,0,0,1.11.18h11.49l-1.11,11.67h3.539a4.514,4.514,0,0,0,1.111-.151v1.38a3.548,3.548,0,0,0-1.111-.15H600.61a4.317,4.317,0,0,0-1.11.15v-1.38a4.134,4.134,0,0,0,1.11.151h9.48l.93-10.59Z" fill="#f7eddc"/>
    </g>
    <g id="グループ_76" data-name="グループ 76">
      <path id="パス_257" data-name="パス 257" d="M335.744,1447.819a1.3,1.3,0,0,1-1.173-.737l-12.89-26.922a1.3,1.3,0,0,1,.61-1.73l26.922-12.89a1.3,1.3,0,0,1,1.73.609l12.89,26.923a1.3,1.3,0,0,1-.61,1.73l-26.922,12.89A1.29,1.29,0,0,1,335.744,1447.819Zm14.028-41.927a.807.807,0,0,0-.353.08L322.5,1418.861a.821.821,0,0,0-.385,1.092L335,1446.875a.821.821,0,0,0,1.093.386l26.922-12.891a.816.816,0,0,0,.418-.466.808.808,0,0,0-.034-.625l-12.889-26.923A.821.821,0,0,0,349.772,1405.892Z" fill="#f7eddc"/>
      <rect id="長方形_90" data-name="長方形 90" width="4.944" height="31.965" transform="translate(333.408 1413.373) rotate(-25.584)" fill="#f7eddc"/>
      <rect id="長方形_91" data-name="長方形 91" width="4.944" height="31.965" transform="translate(356.105 1417.485) rotate(64.416)" fill="#f7eddc"/>
      <ellipse id="楕円形_196" data-name="楕円形 196" cx="2.036" cy="1.724" rx="2.036" ry="1.724" transform="translate(332.503 1410.644) rotate(-25.584)" fill="#f7eddc"/>
      <path id="パス_258" data-name="パス 258" d="M334.479,1410.5s-1.742-10.89,2.113-13.062a2.7,2.7,0,0,1,3.868,2.173s4.359-.891,3.022,2.9S334.479,1410.5,334.479,1410.5Z" fill="#f7eddc"/>
      <path id="パス_259" data-name="パス 259" d="M334.775,1410.362s-7.391-8.185-11.5-6.544a2.7,2.7,0,0,0-.733,4.376s-3.427,2.837.367,4.175S334.775,1410.362,334.775,1410.362Z" fill="#f7eddc"/>
      <path id="パス_260" data-name="パス 260" d="M335.54,1410.421c4.6-4.2,11.968-4.648,16.075.276,1.145,1.373,2.153,3.218,3.764,3.479l-2.213.408.658,2.588a12.368,12.368,0,0,0-8.282-5.613,14.808,14.808,0,0,0-9.642,1.913Z" fill="#f7eddc"/>
      <path id="パス_261" data-name="パス 261" d="M333.309,1411.019c-5.931,1.906-9.982,8.073-7.751,14.085.622,1.676,1.722,3.468,1.147,4.995l1.454-1.717,1.918,1.858a12.376,12.376,0,0,1-.753-9.977,14.824,14.824,0,0,1,6.453-7.416Z" fill="#f7eddc"/>
    </g>
    <path id="パス_262" data-name="パス 262" d="M403.359,1390.884a.5.5,0,0,1-.241-.063l-80.092-44.35a.5.5,0,0,1,.485-.875l80.091,44.35a.5.5,0,0,1-.243.938Z" fill="#f7eddc"/>
    <path id="パス_263" data-name="パス 263" d="M609.269,1390.884a.5.5,0,0,1-.243-.938l80.092-44.35a.5.5,0,0,1,.484.875l-80.091,44.35A.505.505,0,0,1,609.269,1390.884Z" fill="#f7eddc"/>
    <path id="パス_264" data-name="パス 264" d="M420.658,1368.708a.5.5,0,0,1-.327-.122l-37.921-32.857a.5.5,0,1,1,.655-.755l37.921,32.856a.5.5,0,0,1-.328.878Z" fill="#f7eddc"/>
    <path id="パス_265" data-name="パス 265" d="M447.343,1359.172a.5.5,0,0,1-.463-.312l-11.235-27.6a.5.5,0,1,1,.925-.377l11.236,27.6a.5.5,0,0,1-.274.652A.5.5,0,0,1,447.343,1359.172Z" fill="#f7eddc"/>
    <path id="パス_266" data-name="パス 266" d="M591.422,1368.708a.5.5,0,0,1-.327-.878l37.921-32.856a.5.5,0,0,1,.655.755l-37.921,32.857A.5.5,0,0,1,591.422,1368.708Z" fill="#f7eddc"/>
    <path id="パス_267" data-name="パス 267" d="M564.737,1359.172a.5.5,0,0,1-.188-.037.5.5,0,0,1-.275-.652l11.236-27.6a.5.5,0,1,1,.926.377l-11.236,27.6A.5.5,0,0,1,564.737,1359.172Z" fill="#f7eddc"/>
    <path id="パス_268" data-name="パス 268" d="M477.445,1352.28a.5.5,0,0,1-.485-.383l-8.715-36.065a.5.5,0,0,1,.368-.6.5.5,0,0,1,.6.369l8.716,36.065a.5.5,0,0,1-.369.6A.588.588,0,0,1,477.445,1352.28Z" fill="#f7eddc"/>
    <path id="パス_269" data-name="パス 269" d="M527.731,1352.28a.589.589,0,0,1-.118-.013.5.5,0,0,1-.368-.6l8.715-36.065a.5.5,0,0,1,.6-.369.5.5,0,0,1,.369.6l-8.716,36.065A.5.5,0,0,1,527.731,1352.28Z" fill="#f7eddc"/>
    <path id="パス_270" data-name="パス 270" d="M412.624,1372.686a.5.5,0,0,1-.267-.078l-10.926-6.9a.5.5,0,0,1,.534-.846l10.927,6.9a.5.5,0,0,1-.268.923Z" fill="#f7eddc"/>
    <path id="パス_271" data-name="パス 271" d="M437.285,1347.8a.5.5,0,0,1-.452-.284L432.9,1339.3a.5.5,0,0,1,.9-.432l3.933,8.214a.5.5,0,0,1-.451.716Z" fill="#f7eddc"/>
    <path id="パス_272" data-name="パス 272" d="M574.352,1347.8a.5.5,0,0,1-.451-.716l3.932-8.214a.5.5,0,0,1,.9.432l-3.933,8.214A.5.5,0,0,1,574.352,1347.8Z" fill="#f7eddc"/>
    <path id="パス_273" data-name="パス 273" d="M391.374,1395.956a.492.492,0,0,1-.19-.038L342,1375.647a.5.5,0,1,1,.381-.923l49.183,20.27a.5.5,0,0,1-.19.962Z" fill="#f7eddc"/>
    <path id="パス_274" data-name="パス 274" d="M622.191,1395.956a.5.5,0,0,1-.191-.962l49.184-20.27a.5.5,0,1,1,.38.923l-49.183,20.271A.492.492,0,0,1,622.191,1395.956Z" fill="#f7eddc"/>
    <path id="パス_275" data-name="パス 275" d="M598.7,1372.686a.5.5,0,0,1-.267-.923l10.926-6.9a.5.5,0,0,1,.535.846l-10.927,6.9A.5.5,0,0,1,598.7,1372.686Z" fill="#f7eddc"/>
    <circle id="楕円形_197" data-name="楕円形 197" cx="0.979" cy="0.979" r="0.979" transform="translate(370.313 1356.714)" fill="#f7eddc"/>
    <circle id="楕円形_198" data-name="楕円形 198" cx="0.841" cy="0.841" r="0.841" transform="translate(401.698 1343.189)" fill="#f7eddc"/>
    <circle id="楕円形_199" data-name="楕円形 199" cx="1.205" cy="1.205" r="1.205" transform="translate(424.755 1355.284)" fill="#f7eddc"/>
    <circle id="楕円形_200" data-name="楕円形 200" cx="1.984" cy="1.984" r="1.984" transform="translate(399.412 1380.384)" fill="#f7eddc"/>
    <circle id="楕円形_201" data-name="楕円形 201" cx="1.114" cy="1.114" r="1.114" transform="translate(435.318 1326.686)" fill="#f7eddc"/>
    <circle id="楕円形_202" data-name="楕円形 202" cx="0.841" cy="0.841" r="0.841" transform="translate(456.2 1343.189)" fill="#f7eddc"/>
    <circle id="楕円形_203" data-name="楕円形 203" cx="1.056" cy="1.056" r="1.056" transform="translate(478.259 1317.3)" fill="#f7eddc"/>
    <circle id="楕円形_204" data-name="楕円形 204" cx="0.841" cy="0.841" r="0.841" transform="translate(521.906 1343.189)" fill="#f7eddc"/>
    <circle id="楕円形_205" data-name="楕円形 205" cx="1.643" cy="1.643" r="1.643" transform="translate(542.087 1322.462)" fill="#f7eddc"/>
    <circle id="楕円形_206" data-name="楕円形 206" cx="0.795" cy="0.795" r="0.795" transform="translate(558.044 1346.033)" fill="#f7eddc"/>
    <circle id="楕円形_207" data-name="楕円形 207" cx="2.875" cy="2.875" r="2.875" transform="translate(586.673 1328.914)" fill="#f7eddc"/>
    <circle id="楕円形_208" data-name="楕円形 208" cx="0.814" cy="0.814" r="0.814" transform="translate(592.424 1358.672)" fill="#f7eddc"/>
    <circle id="楕円形_209" data-name="楕円形 209" cx="0.643" cy="0.643" r="0.643" transform="translate(620.465 1356.406)" fill="#f7eddc"/>
    <circle id="楕円形_210" data-name="楕円形 210" cx="1.989" cy="1.989" r="1.989" transform="translate(346.378 1368.208)" fill="#f7eddc"/>
    <path id="パス_276" data-name="パス 276" d="M610.383,1379.871v0Z" fill="#f7eddc"/>
    <circle id="楕円形_211" data-name="楕円形 211" cx="3.537" cy="3.537" r="3.537" transform="translate(639.708 1360.89)" fill="#f7eddc"/>
    <circle id="楕円形_212" data-name="楕円形 212" cx="1.747" cy="1.747" r="1.747" transform="translate(658.481 1370.384)" fill="#f7eddc"/>
    <circle id="楕円形_213" data-name="楕円形 213" cx="2.816" cy="2.816" r="2.816" transform="translate(493.277 1343.189)" fill="#f7eddc"/>
    <circle id="楕円形_214" data-name="楕円形 214" cx="1.173" cy="1.173" r="1.173" transform="translate(506.888 1312.137)" fill="#f7eddc"/>
    <path id="パス_277" data-name="パス 277" d="M520.029,1319.968l.733,1.485,1.639.238-1.186,1.156.28,1.633-1.466-.771-1.466.771.28-1.633-1.186-1.156,1.639-.238Z" fill="#f7eddc"/>
    <path id="パス_278" data-name="パス 278" d="M449.225,1327.123l.526,1.066,1.177.171-.852.83.2,1.172-1.053-.553-1.053.553.2-1.172-.852-.83,1.177-.171Z" fill="#f7eddc"/>
    <path id="パス_279" data-name="パス 279" d="M437.546,1354.461l.6,1.207,1.332.194-.964.94.228,1.327-1.192-.627-1.192.627.228-1.327-.964-.94,1.332-.194Z" fill="#f7eddc"/>
    <path id="パス_280" data-name="パス 280" d="M414.407,1346.127l.206.417.461.067-.333.325.079.459-.412-.217-.412.217.079-.459-.333-.325.461-.067Z" fill="#f7eddc"/>
    <path id="パス_281" data-name="パス 281" d="M388.234,1355.3l.35.709.782.114-.566.552.134.779-.7-.368-.7.368.134-.779-.566-.552.782-.114Z" fill="#f7eddc"/>
    <path id="パス_282" data-name="パス 282" d="M538.689,1347.794l.3.612.675.1-.488.476.115.672-.6-.318-.6.318.115-.672-.488-.476.675-.1Z" fill="#f7eddc"/>
    <path id="パス_283" data-name="パス 283" d="M602.033,1338.593l.225.456.5.073-.364.355.086.5-.45-.237-.45.237.086-.5-.364-.355.5-.073Z" fill="#f7eddc"/>
    <path id="パス_284" data-name="パス 284" d="M637.985,1336.737l.546,1.105,1.22.177-.883.86.208,1.215-1.091-.574-1.091.574.208-1.215-.883-.86,1.22-.177Z" fill="#f7eddc"/>
    <path id="パス_285" data-name="パス 285" d="M615.729,1372.851l.3.612.675.1-.488.476.115.672-.6-.317-.6.317.115-.672-.488-.476.675-.1Z" fill="#f7eddc"/>
    <path id="パス_286" data-name="パス 286" d="M636.22,1382.339l.592,1.2,1.323.192-.957.933.226,1.318-1.183-.622-1.183.622.226-1.318-.957-.933,1.323-.192Z" fill="#f7eddc"/>
    <path id="パス_287" data-name="パス 287" d="M373.652,1378.408l.43.871.961.14-.7.678.164.957-.86-.452-.86.452.164-.957-.7-.678.961-.14Z" fill="#f7eddc"/>
    <g id="グループ_77" data-name="グループ 77">
      <path id="パス_288" data-name="パス 288" d="M666.941,1404.961s22.131,4.118,20.073,32.426c0,0,1.643,2.434,3.2,0s2.9-30.054-22.05-35.177C668.166,1402.21,665.048,1402.367,666.941,1404.961Z" fill="#f7eddc"/>
      <path id="パス_289" data-name="パス 289" d="M659.761,1458.452a1.964,1.964,0,0,1-1.042-.324,3.121,3.121,0,0,1-1.306-3.349c.524-2.061.364-9.805.174-11.671-.042-.409-.168-.593-.37-.6a1.531,1.531,0,0,0-1.08,1.285c0,1.045.178,2.951.18,2.971a.271.271,0,0,1-.006.09,2.923,2.923,0,0,1-1.758,2.014.83.83,0,0,1-.871-.2c-.721-.718-.518-2.8-.255-3.7.344-1.185.521-4.315-.147-5.319-.483-.725-2.066-.372-3.222-.116a10.234,10.234,0,0,1-1.014.195,20.092,20.092,0,0,1-6.291-.122c-.555-.121-.867-.351-.929-.683-.1-.547.569-1.066.793-1.222l24.026-33.716a.273.273,0,1,1,.444.317l-24.054,33.756a.276.276,0,0,1-.071.069c-.307.2-.63.546-.6.695.011.055.129.167.51.251a19.585,19.585,0,0,0,6.116.112c.242-.027.572-.1.953-.185,1.311-.291,3.1-.69,3.8.347.82,1.231.553,4.614.216,5.773-.3,1.041-.308,2.739.116,3.162a.3.3,0,0,0,.331.066,2.366,2.366,0,0,0,1.371-1.581c-.029-.319-.178-1.985-.178-2.971a2.03,2.03,0,0,1,1.6-1.83c.257-.016.837.068.941,1.09.169,1.659.385,9.608-.188,11.86a2.563,2.563,0,0,0,1.067,2.751,1.168,1.168,0,0,0,1.393,0c.793-.668.4-2.273.118-3.445a5.8,5.8,0,0,1-.215-1.16c0-.234-.055-.971-.125-1.9-.255-3.394-.482-6.793-.229-7.789a9.706,9.706,0,0,0,.189-1.451c.114-1.376.244-2.936,1.431-3.372,1.477-.545,26.033-.907,27.078-.923a.281.281,0,0,1,.277.27.274.274,0,0,1-.269.277c-7.09.1-25.743.462-26.9.888-.861.317-.97,1.632-1.076,2.905a9.98,9.98,0,0,1-.2,1.541c-.252.992.059,5.138.245,7.614.073.982.126,1.691.126,1.945a5.943,5.943,0,0,0,.2,1.031c.319,1.31.755,3.1-.3,3.992A1.521,1.521,0,0,1,659.761,1458.452Z" fill="#f7eddc"/>
      <circle id="楕円形_215" data-name="楕円形 215" cx="4.093" cy="4.093" r="4.093" transform="translate(663.445 1412.154)" fill="#f7eddc"/>
      <circle id="楕円形_216" data-name="楕円形 216" cx="4.093" cy="4.093" r="4.093" transform="translate(671.63 1424.779)" fill="#f7eddc"/>
      <circle id="楕円形_217" data-name="楕円形 217" cx="4.093" cy="4.093" r="4.093" transform="translate(654.472 1425.98)" fill="#f7eddc"/>
      <path id="パス_290" data-name="パス 290" d="M680.643,1420.154l.274.556.613.089-.444.433.1.611-.549-.288-.549.288.1-.611-.444-.433.613-.089Z" fill="#f7eddc"/>
      <path id="パス_291" data-name="パス 291" d="M666.331,1422.751l.4.818.9.131-.653.636.154.9-.807-.424-.807.424.154-.9-.653-.636.9-.131Z" fill="#f7eddc"/>
      <path id="パス_292" data-name="パス 292" d="M666.913,1434.457l.184.372.411.06-.3.29.07.409-.367-.193-.367.193.07-.409-.3-.29.411-.06Z" fill="#f7eddc"/>
      <path id="パス_293" data-name="パス 293" d="M647.374,1434.249l.227.461.508.074-.368.359.087.506-.455-.239-.455.239.087-.506-.368-.359.508-.074Z" fill="#f7eddc"/>
      <path id="パス_294" data-name="パス 294" d="M655.427,1422.223l.155.314.347.05-.251.245.059.346-.31-.163-.31.163.059-.346-.251-.245.347-.05Z" fill="#f7eddc"/>
      <path id="パス_295" data-name="パス 295" d="M666.318,1407l.261.529.584.085-.422.412.1.581-.522-.275-.522.275.1-.581-.422-.412.584-.085Z" fill="#f7eddc"/>
      <path id="パス_296" data-name="パス 296" d="M683.283,1434.029l.27.547.6.088-.437.426.1.6-.54-.284-.54.284.1-.6-.437-.426.6-.088Z" fill="#f7eddc"/>
    </g>
    <g id="グループ_78" data-name="グループ 78">
      <path id="パス_297" data-name="パス 297" d="M707.348,1394.131l-2.3,11.507-2.3-11.507,2.3-11.507Z" fill="#f7eddc"/>
      <path id="パス_298" data-name="パス 298" d="M706.43,1392.748l5.533,8.3-8.3-5.533-5.533-8.3Z" fill="#f7eddc"/>
      <path id="パス_299" data-name="パス 299" d="M703.663,1392.748l8.3-5.533-5.533,8.3-8.3,5.533Z" fill="#f7eddc"/>
    </g>
    <g id="グループ_79" data-name="グループ 79">
      <path id="パス_300" data-name="パス 300" d="M719.341,1413.975l-1.842,9.211-1.842-9.211,1.842-9.211Z" fill="#f7eddc"/>
      <path id="パス_301" data-name="パス 301" d="M718.606,1412.868l4.429,6.644-6.644-4.429-4.429-6.644Z" fill="#f7eddc"/>
      <path id="パス_302" data-name="パス 302" d="M716.391,1412.868l6.644-4.429-4.429,6.644-6.644,4.429Z" fill="#f7eddc"/>
    </g>
    <text id="_" data-name="♪" transform="matrix(0.852, 0.523, -0.523, 0.852, 297.994, 1425.695)" fill="#f7eddc" font-size="20.971" font-family="Helvetica"><tspan x="-5.263" y="0">♪</tspan></text>
    <text id="_2" data-name="♪" transform="translate(296.936 1402.012) rotate(-25.584)" fill="#f7eddc" font-size="29.146" font-family="Helvetica"><tspan x="-7.315" y="0">♪</tspan></text>
    <path id="パス_303" data-name="パス 303" d="M322.049,1385.688l1.068,2.163,2.387.347-1.728,1.684.408,2.378-2.135-1.123-2.135,1.123.408-2.378-1.728-1.684,2.387-.347Z" fill="#f7eddc"/>
    <path id="パス_304" data-name="パス 304" d="M376.438,1410.1l.441.895.987.143-.714.7.169.983-.883-.464-.883.464.169-.983-.714-.7.987-.143Z" fill="#f7eddc"/>
    <path id="パス_305" data-name="パス 305" d="M636.22,1404.564l.757,1.535,1.694.246-1.226,1.195.289,1.687-1.515-.8-1.515.8.289-1.687-1.226-1.195,1.694-.246Z" fill="#f7eddc"/>
    <path id="パス_306" data-name="パス 306" d="M685.2,1389.195l.514,1.041,1.148.167-.831.81.2,1.144-1.027-.54-1.027.54.2-1.144-.831-.81,1.148-.167Z" fill="#f7eddc"/>
  </g>
</svg>
