<svg xmlns="http://www.w3.org/2000/svg" width="258.392" height="123.155" viewBox="0 0 258.392 123.155">
  <g id="sp-question-bg" transform="translate(-50.241 -5992)">
    <g id="グループ_144" data-name="グループ 144" transform="translate(-752.552 5959.984) rotate(-17)">
      <path id="パス_412" data-name="パス 412" d="M929.986,396.3s-2.269-2.293-9.147.9c0,0-2.784-.819-4.667,0,0,0-7.779-.164-6.632,2.7s4.5,1.332,4.5,1.332.737,4.237-.082,4.646c0,0-1.638,4.34-8.106,1.965,0,0-.491-3.521-1.719-2.456s0,3.167,0,3.167-2.62,1.009-2.211,4.776c0,0-2.211,4.258-3.03,4.5s0,2.456,0,2.456,1.638,1.638,6.878-4.34c0,0,11.627.983,18.915-3.357,0,0,8.469-1.228,8.843-2.62s.328-2.047-.655-2.7-4.586,1.556-4.586,1.556-1.719.41-2.374-.082-2.375-2.784-2.375-3.6C923.542,405.148,934.22,401.955,929.986,396.3Z" transform="translate(-116.196 -36.414)" fill="#a7907d"/>
      <path id="パス_413" data-name="パス 413" d="M935.7,361.529l-.442-3.521s4.372-4.545,4.454-6.182,2.62-5.67.737-8.116-1.556,4.759-1.556,4.759-1.72-2.784-2.62-2.62-.164,2.784.737,3.275-.655,3.849-.655,3.849l-.573.819s-1.146-4.094-2.948-3.357,0,2.457,0,2.457.655,1.8.245,2.374-.983,1.883-1.8,1.965-1.474-2.784-3.03-1.8,1.392,2.784,1.392,2.784.082.945-.655.882-3.357-.391-2.948.592,1.474,2.211,4.749.819a13.036,13.036,0,0,0,1.965-1.064l.817,2.088Z" transform="translate(-135.318 0)" fill="#a7907d"/>
      <path id="パス_414" data-name="パス 414" d="M751.565,376.257s2.541,1.588,1.906,2.859c0,0,2.362.482,1.7,2.648a2.085,2.085,0,0,1,.75,2.916s2.5,2.583-1.166,3.916c0,0,.4,2-.593,2.333l-.49,1.583a6.579,6.579,0,0,1,1.916,4.916s4.082-.666,5.5,0,1.833,3.416,1.25,5S761,405.98,761,405.98l11.914-1.055s3.249-.417,2.25-1.833l-1.083-1.333s-.451-1.583,1.274-1.25,2.142,3.582,2.142,3.582a3.449,3.449,0,0,1-3.166,2.333s-10.248,1.409-11.914,1.409-14.164-.576-14.164-.576l-10.342-.667-5.321-.611s-2.166-.389,0-1.972l4.416.667a17.013,17.013,0,0,1-1.417-9.664,4.119,4.119,0,0,1,5.5-3.584s.333-1.583.667-1.666-2.083-2.083-2-2.5-.833-.417-.833-1.333.916-3.249.417-3.832-1.428.5-1.428.5l-.572.825s-1.416-1.794-1.333-2.434-.917-4.056,4.332-5.723,7.748.583,7.748.583S750.435,375.363,751.565,376.257Z" transform="translate(0 -21.893)" fill="#a7907d"/>
      <circle id="楕円形_428" data-name="楕円形 428" cx="2.257" cy="2.257" r="2.257" transform="translate(733.395 359.272)" fill="#a7907d"/>
      <circle id="楕円形_429" data-name="楕円形 429" cx="2.257" cy="2.257" r="2.257" transform="translate(812.624 357.015)" fill="#a7907d"/>
      <rect id="長方形_105" data-name="長方形 105" width="31.908" height="2.127" transform="translate(757.047 378.342) rotate(-7.188)" fill="#a7907d"/>
    </g>
    <path id="パス_425" data-name="パス 425" d="M919.52,759.568a32.888,32.888,0,0,1-28.322-49.6,32.886,32.886,0,1,0,42.813,46.238A32.759,32.759,0,0,1,919.52,759.568Z" transform="translate(-677.44 5282.029)" fill="#a7907d"/>
    <path id="パス_426" data-name="パス 426" d="M9.636,0l2.978,6.034L19.273,7l-4.818,4.7,1.137,6.632L9.636,15.2,3.681,18.33,4.818,11.7,0,7l6.659-.968Z" transform="translate(245.363 6005.21) rotate(-11)" fill="#a7907d"/>
    <path id="パス_427" data-name="パス 427" d="M9.636,0l2.978,6.034L19.273,7l-4.818,4.7,1.137,6.632L9.636,15.2,3.681,18.33,4.818,11.7,0,7l6.659-.968Z" transform="matrix(0.891, 0.454, -0.454, 0.891, 291.461, 6014.482)" fill="#a7907d"/>
  </g>
</svg>
