<svg xmlns="http://www.w3.org/2000/svg" width="2119.65" height="691.592" viewBox="0 0 2119.65 691.592">
  <g id="sparkle-2" transform="translate(-344.585 -1891.032) rotate(-17)" opacity="0.4">
    <circle id="楕円形_318" data-name="楕円形 318" cx="14.76" cy="14.76" r="14.76" transform="translate(1620.714 3001.243)" fill="#fff"/>
    <g id="グループ_90" data-name="グループ 90" transform="translate(1578.566 2917.489)">
      <circle id="楕円形_319" data-name="楕円形 319" cx="12.741" cy="12.741" r="12.741" transform="translate(2.14 2.102)" fill="#f7eddc"/>
      <path id="パス_336" data-name="パス 336" d="M821.649,2670.024a10.6,10.6,0,1,1,8.731,10.445,10.7,10.7,0,0,1-8.731-10.445c-.038-2.75-4.316-2.756-4.278,0a15.1,15.1,0,0,0,9.743,13.96,14.872,14.872,0,1,0-9.743-13.96C817.335,2672.779,821.611,2672.779,821.649,2670.024Z" transform="translate(-817.371 -2655.182)" fill="#f7eddc"/>
    </g>
    <g id="グループ_91" data-name="グループ 91" transform="translate(1617.559 2990.619)">
      <circle id="楕円形_320" data-name="楕円形 320" cx="9.12" cy="9.12" r="9.12" transform="translate(1.531 1.505)" fill="#f7eddc"/>
      <path id="パス_337" data-name="パス 337" d="M844.041,2710.082a7.587,7.587,0,1,1,6.248,7.477,7.66,7.66,0,0,1-6.248-7.477c-.028-1.967-3.089-1.974-3.062,0a10.807,10.807,0,0,0,6.973,9.993,10.646,10.646,0,1,0-6.973-9.993A1.532,1.532,0,0,0,844.041,2710.082Z" transform="translate(-840.979 -2699.458)" fill="#f7eddc"/>
    </g>
    <g id="グループ_92" data-name="グループ 92" transform="translate(1411.204 2757.766)">
      <circle id="楕円形_321" data-name="楕円形 321" cx="7.38" cy="7.38" r="7.38" transform="translate(1.238 1.217)" fill="#f7eddc"/>
      <path id="パス_338" data-name="パス 338" d="M718.521,2567.077a6.139,6.139,0,1,1,5.056,6.05,6.2,6.2,0,0,1-5.056-6.05,1.24,1.24,0,0,0-2.478,0,8.744,8.744,0,0,0,5.642,8.085,8.614,8.614,0,1,0-5.642-8.085A1.24,1.24,0,0,0,718.521,2567.077Z" transform="translate(-716.043 -2558.479)" fill="#f7eddc"/>
    </g>
    <g id="グループ_93" data-name="グループ 93" transform="translate(1262.305 2694.032)">
      <circle id="楕円形_322" data-name="楕円形 322" cx="7.38" cy="7.38" r="7.38" transform="translate(1.239 1.217)" fill="#f7eddc"/>
      <path id="パス_339" data-name="パス 339" d="M628.371,2528.489a6.14,6.14,0,1,1,5.057,6.05,6.2,6.2,0,0,1-5.057-6.05,1.239,1.239,0,0,0-2.478,0,8.745,8.745,0,0,0,5.644,8.085,8.613,8.613,0,1,0-5.644-8.085A1.24,1.24,0,0,0,628.371,2528.489Z" transform="translate(-625.893 -2519.892)" fill="#f7eddc"/>
    </g>
    <g id="グループ_94" data-name="グループ 94" transform="translate(1335.957 2472.553)">
      <circle id="楕円形_323" data-name="楕円形 323" cx="7.38" cy="7.38" r="7.38" transform="translate(1.239 1.218)" fill="#f7eddc"/>
      <path id="パス_340" data-name="パス 340" d="M672.963,2394.4a6.14,6.14,0,1,1,5.056,6.051,6.2,6.2,0,0,1-5.056-6.051,1.24,1.24,0,0,0-2.478,0,8.741,8.741,0,0,0,5.644,8.085,8.613,8.613,0,1,0-5.644-8.085A1.24,1.24,0,0,0,672.963,2394.4Z" transform="translate(-670.485 -2385.799)" fill="#f7eddc"/>
    </g>
    <g id="グループ_95" data-name="グループ 95" transform="translate(1565.191 2799.891)">
      <circle id="楕円形_324" data-name="楕円形 324" cx="7.38" cy="7.38" r="7.38" transform="translate(1.238 1.218)" fill="#f7eddc"/>
      <path id="パス_341" data-name="パス 341" d="M811.751,2592.58a6.139,6.139,0,1,1,5.056,6.05,6.2,6.2,0,0,1-5.056-6.05,1.239,1.239,0,0,0-2.477,0,8.742,8.742,0,0,0,5.642,8.085,8.614,8.614,0,1,0-5.642-8.085A1.239,1.239,0,0,0,811.751,2592.58Z" transform="translate(-809.273 -2583.983)" fill="#f7eddc"/>
    </g>
    <g id="グループ_96" data-name="グループ 96" transform="translate(1502.176 2894.215)">
      <circle id="楕円形_325" data-name="楕円形 325" cx="7.38" cy="7.38" r="7.38" transform="translate(1.239 1.218)" fill="#f7eddc"/>
      <path id="パス_342" data-name="パス 342" d="M773.6,2649.688a6.14,6.14,0,1,1,5.057,6.05,6.2,6.2,0,0,1-5.057-6.05,1.239,1.239,0,0,0-2.477,0,8.744,8.744,0,0,0,5.644,8.085,8.613,8.613,0,1,0-5.644-8.085A1.239,1.239,0,0,0,773.6,2649.688Z" transform="translate(-771.121 -2641.091)" fill="#f7eddc"/>
    </g>
    <circle id="楕円形_326" data-name="楕円形 326" cx="13.679" cy="13.679" r="13.679" transform="translate(1593.447 2632.215)" fill="#fff"/>
    <circle id="楕円形_327" data-name="楕円形 327" cx="7.38" cy="7.38" r="7.38" transform="translate(1547.694 2581.653)" fill="#fff"/>
    <circle id="楕円形_328" data-name="楕円形 328" cx="7.38" cy="7.38" r="7.38" transform="translate(1532.935 2505.999)" fill="#fff"/>
    <circle id="楕円形_329" data-name="楕円形 329" cx="9.746" cy="9.746" r="9.746" transform="translate(1624.416 2547.875)" fill="#fff"/>
    <circle id="楕円形_330" data-name="楕円形 330" cx="12.598" cy="12.598" r="12.598" transform="translate(1610.368 2680.49)" fill="#fff"/>
    <circle id="楕円形_331" data-name="楕円形 331" cx="12.598" cy="12.598" r="12.598" transform="translate(1446.538 2829.472)" fill="#fff"/>
    <circle id="楕円形_332" data-name="楕円形 332" cx="14.76" cy="14.76" r="14.76" transform="translate(1488.656 2902.813)" fill="#fff"/>
    <circle id="楕円形_333" data-name="楕円形 333" cx="9.705" cy="9.705" r="9.705" transform="translate(1367.714 2787.095)" fill="#fff"/>
    <circle id="楕円形_334" data-name="楕円形 334" cx="9.247" cy="9.247" r="9.247" transform="translate(1387.664 2656.483)" fill="#fff"/>
    <circle id="楕円形_335" data-name="楕円形 335" cx="9.247" cy="9.247" r="9.247" transform="translate(1634.662 2772.791)" fill="#fff"/>
    <circle id="楕円形_336" data-name="楕円形 336" cx="10.73" cy="10.73" r="10.73" transform="translate(1452.729 2578.303)" fill="#fff"/>
    <circle id="楕円形_337" data-name="楕円形 337" cx="12.598" cy="12.598" r="12.598" transform="translate(1296.178 2646.975)" fill="#fff"/>
    <circle id="楕円形_338" data-name="楕円形 338" cx="7.38" cy="7.38" r="7.38" transform="translate(1377.635 2560.878)" fill="#fff"/>
    <circle id="楕円形_339" data-name="楕円形 339" cx="14.76" cy="14.76" r="14.76" transform="translate(1429.617 2478.989)" fill="#fff"/>
    <circle id="楕円形_340" data-name="楕円形 340" cx="12.598" cy="12.598" r="12.598" transform="translate(1331.978 2481.151)" fill="#fff"/>
    <circle id="楕円形_341" data-name="楕円形 341" cx="7.38" cy="7.38" r="7.38" transform="translate(1199.984 2632.215)" fill="#fff"/>
    <circle id="楕円形_342" data-name="楕円形 342" cx="7.38" cy="7.38" r="7.38" transform="translate(1292.14 2587.028)" fill="#fff"/>
    <circle id="楕円形_343" data-name="楕円形 343" cx="7.38" cy="7.38" r="7.38" transform="translate(1487.577 2719.563)" fill="#fff"/>
    <circle id="楕円形_344" data-name="楕円形 344" cx="14.76" cy="14.76" r="14.76" transform="translate(1149.386 2665.73)" fill="#fff"/>
    <circle id="楕円形_345" data-name="楕円形 345" cx="14.76" cy="14.76" r="14.76" transform="translate(789.668 2275.543)" fill="#fff"/>
    <circle id="楕円形_346" data-name="楕円形 346" cx="14.76" cy="14.76" r="14.76" transform="translate(1170.465 2345.68)" fill="#fff"/>
    <circle id="楕円形_347" data-name="楕円形 347" cx="11.622" cy="11.622" r="11.622" transform="translate(1247.68 2475.081)" fill="#fff"/>
    <circle id="楕円形_348" data-name="楕円形 348" cx="11.622" cy="11.622" r="11.622" transform="translate(1259.302 2408.585)" fill="#fff"/>
    <circle id="楕円形_349" data-name="楕円形 349" cx="9.055" cy="9.055" r="9.055" transform="translate(1140.725 2578.303)" fill="#fff"/>
    <circle id="楕円形_350" data-name="楕円形 350" cx="12.598" cy="12.598" r="12.598" transform="translate(1219.067 2546.118)" fill="#fff"/>
    <circle id="楕円形_351" data-name="楕円形 351" cx="6.299" cy="6.299" r="6.299" transform="translate(1237.964 2541.576)" fill="#fff"/>
    <circle id="楕円形_352" data-name="楕円形 352" cx="12.598" cy="12.598" r="12.598" transform="translate(768.229 2483.566)" fill="#fff"/>
    <circle id="楕円形_353" data-name="楕円形 353" cx="12.598" cy="12.598" r="12.598" transform="translate(-9.283 2456.208)" fill="#fff"/>
    <circle id="楕円形_354" data-name="楕円形 354" cx="12.598" cy="12.598" r="12.598" transform="translate(804.428 2406.71)" fill="#fff"/>
    <circle id="楕円形_355" data-name="楕円形 355" cx="7.38" cy="7.38" r="7.38" transform="translate(975.793 2296.13)" fill="#fff"/>
    <circle id="楕円形_356" data-name="楕円形 356" cx="14.76" cy="14.76" r="14.76" transform="translate(626.011 2296.13)" fill="#fff"/>
    <circle id="楕円形_357" data-name="楕円形 357" cx="7.38" cy="7.38" r="7.38" transform="translate(1042.71 2617.456)" fill="#f7eddc"/>
    <circle id="楕円形_358" data-name="楕円形 358" cx="7.38" cy="7.38" r="7.38" transform="translate(919.029 2489.482)" fill="#f7eddc"/>
    <circle id="楕円形_359" data-name="楕円形 359" cx="7.38" cy="7.38" r="7.38" transform="translate(926.409 2421.47)" fill="#f7eddc"/>
    <circle id="楕円形_360" data-name="楕円形 360" cx="7.38" cy="7.38" r="7.38" transform="translate(140.452 2617.456)" fill="#f7eddc"/>
    <circle id="楕円形_361" data-name="楕円形 361" cx="7.38" cy="7.38" r="7.38" transform="translate(847.908 2532.677)" fill="#f7eddc"/>
    <circle id="楕円形_362" data-name="楕円形 362" cx="12.598" cy="12.598" r="12.598" transform="translate(1038.944 2414.09)" fill="#f7eddc"/>
    <circle id="楕円形_363" data-name="楕円形 363" cx="10.753" cy="10.753" r="10.753" transform="translate(1067.83 2324.729)" fill="#f7eddc"/>
    <circle id="楕円形_364" data-name="楕円形 364" cx="10.437" cy="10.437" r="10.437" transform="translate(743.116 2342.905)" fill="#fff"/>
    <circle id="楕円形_365" data-name="楕円形 365" cx="5.218" cy="5.218" r="5.218" transform="translate(739.625 2339.542)" fill="#fff"/>
    <circle id="楕円形_366" data-name="楕円形 366" cx="7.38" cy="7.38" r="7.38" transform="translate(458.894 2546.196)" fill="#ccac7d"/>
    <circle id="楕円形_367" data-name="楕円形 367" cx="7.38" cy="7.38" r="7.38" transform="translate(110.933 2437.285)" fill="#ccac7d"/>
    <circle id="楕円形_368" data-name="楕円形 368" cx="7.38" cy="7.38" r="7.38" transform="translate(236.343 2554.019)" fill="#ccac7d"/>
    <circle id="楕円形_369" data-name="楕円形 369" cx="7.38" cy="7.38" r="7.38" transform="translate(-237.304 2566.296)" fill="#ccac7d"/>
    <circle id="楕円形_370" data-name="楕円形 370" cx="7.38" cy="7.38" r="7.38" transform="translate(507.623 2476.186)" fill="#ccac7d"/>
    <circle id="楕円形_371" data-name="楕円形 371" cx="7.38" cy="7.38" r="7.38" transform="translate(408.507 2406.71)" fill="#ccac7d"/>
    <circle id="楕円形_372" data-name="楕円形 372" cx="14.76" cy="14.76" r="14.76" transform="translate(1306.9 2744.223)" fill="#f9cf98"/>
    <circle id="楕円形_373" data-name="楕円形 373" cx="7.38" cy="7.38" r="7.38" transform="translate(1053.07 2563.543)" fill="#f9cf98"/>
    <circle id="楕円形_374" data-name="楕円形 374" cx="7.38" cy="7.38" r="7.38" transform="translate(809.646 2268.163)" fill="#f9cf98"/>
    <circle id="楕円形_375" data-name="楕円形 375" cx="14.76" cy="14.76" r="14.76" transform="translate(118.312 2610.076)" fill="#f9cf98"/>
    <circle id="楕円形_376" data-name="楕円形 376" cx="14.76" cy="14.76" r="14.76" transform="translate(636.318 2497.889)" fill="#f9cf98"/>
    <circle id="楕円形_377" data-name="楕円形 377" cx="14.76" cy="14.76" r="14.76" transform="translate(118.312 2680.49)" fill="#f9cf98"/>
    <circle id="楕円形_378" data-name="楕円形 378" cx="10.437" cy="10.437" r="10.437" transform="translate(-114.542 2393.825)" fill="#f9cf98"/>
    <circle id="楕円形_379" data-name="楕円形 379" cx="14.309" cy="14.309" r="14.309" transform="translate(-316.385 2438.71)" fill="#f9cf98"/>
    <circle id="楕円形_380" data-name="楕円形 380" cx="14.76" cy="14.76" r="14.76" transform="translate(298.627 2468.806)" fill="#f9cf98"/>
    <circle id="楕円形_381" data-name="楕円形 381" cx="7.38" cy="7.38" r="7.38" transform="translate(1406.158 2456.289)" fill="#f9cf98"/>
    <circle id="楕円形_382" data-name="楕円形 382" cx="14.76" cy="14.76" r="14.76" transform="translate(500.243 2611.172)" fill="#fff"/>
    <circle id="楕円形_383" data-name="楕円形 383" cx="14.76" cy="14.76" r="14.76" transform="translate(541.349 2379.065)" fill="#fff"/>
    <circle id="楕円形_384" data-name="楕円形 384" cx="7.38" cy="7.38" r="7.38" transform="translate(652.362 2417.147)" fill="#fff"/>
    <circle id="楕円形_385" data-name="楕円形 385" cx="14.76" cy="14.76" r="14.76" transform="translate(374.475 2646.975)" fill="#fff"/>
    <circle id="楕円形_386" data-name="楕円形 386" cx="14.76" cy="14.76" r="14.76" transform="translate(283.868 2481.404)" fill="#fff"/>
    <circle id="楕円形_387" data-name="楕円形 387" cx="7.38" cy="7.38" r="7.38" transform="translate(228.963 2691.735)" fill="#fff"/>
    <circle id="楕円形_388" data-name="楕円形 388" cx="7.38" cy="7.38" r="7.38" transform="translate(314.855 2574.022)" fill="#fff"/>
    <circle id="楕円形_389" data-name="楕円形 389" cx="7.38" cy="7.38" r="7.38" transform="translate(23.301 2544.985)" fill="#fff"/>
    <circle id="楕円形_390" data-name="楕円形 390" cx="14.76" cy="14.76" r="14.76" transform="translate(30.681 2680.49)" fill="#fff"/>
    <circle id="楕円形_391" data-name="楕円形 391" cx="10.437" cy="10.437" r="10.437" transform="translate(-78.909 2640.862)" fill="#fff"/>
    <circle id="楕円形_392" data-name="楕円形 392" cx="10.437" cy="10.437" r="10.437" transform="translate(-200.812 2614.399)" fill="#fff"/>
    <circle id="楕円形_393" data-name="楕円形 393" cx="14.76" cy="14.76" r="14.76" transform="translate(-68.472 2581.653)" fill="#fff"/>
    <circle id="楕円形_394" data-name="楕円形 394" cx="11.583" cy="11.583" r="11.583" transform="translate(-185.174 2453.02)" fill="#fff"/>
    <circle id="楕円形_395" data-name="楕円形 395" cx="12.598" cy="12.598" r="12.598" transform="translate(-242.522 2349.212)" fill="#fff"/>
    <circle id="楕円形_396" data-name="楕円形 396" cx="9.904" cy="9.904" r="9.904" transform="translate(-350.671 2325.579)" fill="#fff"/>
    <circle id="楕円形_397" data-name="楕円形 397" cx="7.38" cy="7.38" r="7.38" transform="translate(408.507 2414.09)" fill="#fff"/>
    <circle id="楕円形_398" data-name="楕円形 398" cx="12.598" cy="12.598" r="12.598" transform="translate(1002.831 2539.415)" fill="#fff"/>
    <circle id="楕円形_399" data-name="楕円形 399" cx="12.598" cy="12.598" r="12.598" transform="translate(1146.237 2458.369)" fill="#fff"/>
    <circle id="楕円形_400" data-name="楕円形 400" cx="14.76" cy="14.76" r="14.76" transform="translate(926.409 2428.85)" fill="#fff"/>
    <circle id="楕円形_401" data-name="楕円形 401" cx="8.542" cy="8.542" r="8.542" transform="translate(1161.923 2363.838)" fill="#fff"/>
    <path id="パス_343" data-name="パス 343" d="M404.715,2252.676l3.416,9.173,9.493,2.387-7.668,6.083.664,9.766-8.155-5.413-9.083,3.649,2.628-9.429-6.277-7.51,9.779-.414Z" transform="translate(482.51 0)" fill="#f9cc8a"/>
    <path id="パス_344" data-name="パス 344" d="M-329.692,2427.6l3.416,9.173,9.493,2.386-7.668,6.083.664,9.766-8.155-5.414-9.083,3.649,2.628-9.429-6.277-7.51,9.779-.414Z" transform="translate(3.908 113.997)" fill="#f9cc8a"/>
    <path id="パス_345" data-name="パス 345" d="M-40.576,2393.105l3.416,9.173,9.493,2.386-7.668,6.083.664,9.766-8.155-5.413-9.083,3.649,2.628-9.429-6.277-7.51,9.779-.414Z" transform="translate(192.32 91.516)" fill="#f9cc8a"/>
    <path id="パス_346" data-name="パス 346" d="M94.9,2482.45l3.416,9.173,9.493,2.386-7.668,6.083.664,9.766-8.155-5.413-9.083,3.649,2.628-9.429-6.277-7.51,9.779-.414Z" transform="translate(280.61 149.74)" fill="#f9cc8a"/>
    <path id="パス_347" data-name="パス 347" d="M548.422,2423.105l3.416,9.173,9.493,2.386-7.668,6.083.664,9.766-8.155-5.414-9.083,3.649,2.628-9.429-6.277-7.51,9.779-.414Z" transform="translate(576.162 111.066)" fill="#f9cc8a"/>
    <path id="パス_348" data-name="パス 348" d="M262.369,2282.367l3.416,9.173,9.493,2.386-7.668,6.083.664,9.765-8.155-5.413-9.083,3.649,2.628-9.429-6.277-7.51,9.779-.414Z" transform="translate(389.745 19.349)" fill="#f9cc8a"/>
    <path id="パス_349" data-name="パス 349" d="M456.437,2368.915l3.416,9.173,9.493,2.386-7.668,6.083.664,9.766-8.155-5.413-9.083,3.649,2.628-9.429-6.277-7.51,9.779-.414Z" transform="translate(516.216 75.75)" fill="#f9cc8a"/>
    <path id="パス_350" data-name="パス 350" d="M594.7,2345.81l3.416,9.173,9.493,2.387-7.668,6.083.664,9.765-8.155-5.413-9.082,3.649,2.628-9.429-6.277-7.51,9.78-.414Z" transform="translate(606.32 60.693)" fill="#f9cc8a"/>
    <path id="パス_351" data-name="パス 351" d="M764.846,2410.074l3.416,9.173,9.493,2.386-7.668,6.083.664,9.766-8.155-5.413-9.083,3.649,2.628-9.429-6.277-7.51,9.78-.414Z" transform="translate(717.202 102.574)" fill="#f9cc8a"/>
    <path id="パス_352" data-name="パス 352" d="M695.176,2524.433l2.236,6,6.213,1.562-5.019,3.982.435,6.392-5.338-3.543-5.945,2.388,1.72-6.171-4.108-4.916,6.4-.271Z" transform="translate(675.172 177.1)" fill="#f9cc8a"/>
    <path id="パス_353" data-name="パス 353" d="M756.379,2478.749l1.708,4.586,4.746,1.193L759,2487.57l.332,4.883-4.078-2.707-4.541,1.824,1.314-4.714-3.139-3.755,4.89-.207Z" transform="translate(716.566 147.328)" fill="#f9cc8a"/>
    <path id="パス_354" data-name="パス 354" d="M-302.423,2403l6.925,4.647,7.754-3.071-2.279,8.022,5.316,6.426-8.334.311-4.469,7.042-2.871-7.83-8.078-2.074,6.56-5.151Z" transform="translate(27.509 97.962)" fill="#f9cc8a"/>
    <path id="パス_355" data-name="パス 355" d="M-339.833,2289.224l6.925,4.646,7.754-3.07-2.28,8.022,5.316,6.426-8.334.311-4.468,7.042-2.871-7.83-8.078-2.073,6.56-5.15Z" transform="translate(3.13 23.817)" fill="#f9cc8a"/>
    <path id="パス_356" data-name="パス 356" d="M817.512,2693.292l6.925,4.647,7.754-3.071-2.28,8.022,5.316,6.425-8.334.311-4.468,7.042-2.871-7.829-8.078-2.074,6.56-5.15Z" transform="translate(757.354 287.143)" fill="#f9cc8a"/>
    <path id="パス_357" data-name="パス 357" d="M616.56,2429.96l6.925,4.647,7.754-3.071-2.28,8.023,5.316,6.426-8.334.311-4.468,7.042-2.871-7.831-8.078-2.073,6.56-5.15Z" transform="translate(626.397 115.533)" fill="#f9cc8a"/>
    <path id="パス_358" data-name="パス 358" d="M-220.968,2437.036l6.925,4.647,7.754-3.071-2.28,8.022,5.316,6.426-8.334.311-4.468,7.042-2.871-7.83L-227,2450.51l6.56-5.151Z" transform="translate(80.593 120.145)" fill="#f9cc8a"/>
    <path id="パス_359" data-name="パス 359" d="M-278.72,2304.046l6.925,4.647,7.754-3.071-2.279,8.022,5.316,6.426-8.334.311-4.468,7.042-2.871-7.83-8.078-2.073,6.56-5.15Z" transform="translate(42.956 33.477)" fill="#f9cc8a"/>
    <path id="パス_360" data-name="パス 360" d="M840.111,2479.857l6.925,4.647,7.754-3.071-2.279,8.023,5.316,6.426-8.334.311-4.468,7.042-2.871-7.83-8.078-2.074,6.56-5.15Z" transform="translate(772.082 148.05)" fill="#f9cc8a"/>
    <path id="パス_361" data-name="パス 361" d="M715.638,2575.035l6.925,4.647,7.754-3.071-2.279,8.022,5.316,6.426-8.334.311-4.468,7.042-2.871-7.83-8.078-2.074,6.56-5.15Z" transform="translate(690.964 210.076)" fill="#f9cc8a"/>
    <path id="パス_362" data-name="パス 362" d="M301.9,2253.9l6.925,4.647,7.754-3.071L314.3,2263.5l5.316,6.426-8.334.311-4.468,7.042-2.871-7.83-8.078-2.074,6.56-5.15Z" transform="translate(421.339 0.795)" fill="#f9cc8a"/>
    <path id="パス_363" data-name="パス 363" d="M822.6,2532.74l6.925,4.647,7.754-3.071L835,2542.339l5.316,6.426-8.334.311-4.469,7.042-2.871-7.83-8.078-2.074,6.56-5.15Z" transform="translate(760.671 182.514)" fill="#f9cc8a"/>
    <path id="パス_364" data-name="パス 364" d="M848.435,2628.562l7.334,4.921,8.212-3.251-2.414,8.5,5.63,6.805-8.826.33-4.732,7.457-3.041-8.292-8.555-2.2,6.947-5.454Z" transform="translate(777.274 244.959)" fill="#f9cc8a"/>
    <circle id="楕円形_402" data-name="楕円形 402" cx="13.398" cy="13.398" r="13.398" transform="translate(913.01 2545.541)" fill="#fff" opacity="0.5"/>
    <circle id="楕円形_403" data-name="楕円形 403" cx="22.75" cy="22.75" r="22.75" transform="translate(1468.916 2599.763)" fill="#fff" opacity="0.5"/>
    <circle id="楕円形_404" data-name="楕円形 404" cx="24.038" cy="24.038" r="24.038" transform="translate(978.793 2291.382)" fill="#fff" opacity="0.5"/>
    <circle id="楕円形_405" data-name="楕円形 405" cx="24.038" cy="24.038" r="24.038" transform="translate(732.751 2459.527)" fill="#fff" opacity="0.5"/>
    <circle id="楕円形_406" data-name="楕円形 406" cx="24.038" cy="24.038" r="24.038" transform="translate(442.236 2451.042)" fill="#fff" opacity="0.5"/>
    <circle id="楕円形_407" data-name="楕円形 407" cx="24.038" cy="24.038" r="24.038" transform="translate(179.413 2614.399)" fill="#fff" opacity="0.5"/>
    <circle id="楕円形_408" data-name="楕円形 408" cx="24.038" cy="24.038" r="24.038" transform="translate(-146.697 2414.672)" fill="#fff" opacity="0.5"/>
    <circle id="楕円形_409" data-name="楕円形 409" cx="12.019" cy="12.019" r="12.019" transform="translate(-217.326 2521.455)" fill="#fff" opacity="0.5"/>
    <circle id="楕円形_410" data-name="楕円形 410" cx="12.019" cy="12.019" r="12.019" transform="translate(80.5 2478.926)" fill="#fff" opacity="0.5"/>
    <circle id="楕円形_411" data-name="楕円形 411" cx="12.019" cy="12.019" r="12.019" transform="translate(454.255 2441)" fill="#fff" opacity="0.5"/>
    <circle id="楕円形_412" data-name="楕円形 412" cx="12.019" cy="12.019" r="12.019" transform="translate(835.889 2337.193)" fill="#fff" opacity="0.5"/>
    <circle id="楕円形_413" data-name="楕円形 413" cx="12.019" cy="12.019" r="12.019" transform="translate(1309.64 2432.646)" fill="#fff" opacity="0.5"/>
    <circle id="楕円形_414" data-name="楕円形 414" cx="12.019" cy="12.019" r="12.019" transform="translate(1201.911 2698.483)" fill="#fff" opacity="0.5"/>
    <circle id="楕円形_415" data-name="楕円形 415" cx="12.019" cy="12.019" r="12.019" transform="translate(529.33 2537.504)" fill="#fff" opacity="0.5"/>
    <circle id="楕円形_416" data-name="楕円形 416" cx="12.019" cy="12.019" r="12.019" transform="translate(403.868 2537.504)" fill="#fff" opacity="0.5"/>
    <circle id="楕円形_417" data-name="楕円形 417" cx="16.414" cy="16.414" r="16.414" transform="translate(1158.835 2518.306)" fill="#fff" opacity="0.5"/>
  </g>
</svg>
