<svg xmlns="http://www.w3.org/2000/svg" width="1437.763" height="609.728" viewBox="0 0 1437.763 609.728">
  <g id="sparkle-1" transform="translate(1694.944 -1929.3)" opacity="0.4">
    <circle id="楕円形_218" data-name="楕円形 218" cx="9.564" cy="9.564" r="9.564" transform="translate(-1693.05 1929.3)" fill="#fff"/>
    <g id="グループ_82" data-name="グループ 82" transform="translate(-1665.875 1983.442)">
      <circle id="楕円形_219" data-name="楕円形 219" cx="8.256" cy="8.256" r="8.256" transform="translate(1.364 1.381)" fill="#f7eddc"/>
      <path id="パス_307" data-name="パス 307" d="M-1651.293,1989.526a6.935,6.935,0,0,1-4.483,6.448,6.962,6.962,0,0,1-7.752-2.145,6.931,6.931,0,0,1-.53-7.832,6.919,6.919,0,0,1,7.108-3.239,6.952,6.952,0,0,1,5.656,6.767,1.387,1.387,0,0,0,2.772,0,9.782,9.782,0,0,0-6.313-9.044,9.678,9.678,0,0,0-10.72,2.866,9.745,9.745,0,0,0-.9,11.107,9.763,9.763,0,0,0,10.127,4.532,9.735,9.735,0,0,0,7.8-9.461A1.387,1.387,0,0,0-1651.293,1989.526Z" transform="translate(1667.782 -1979.89)" fill="#f7eddc"/>
    </g>
    <g id="グループ_83" data-name="グループ 83" transform="translate(-1685.665 1941.53)">
      <circle id="楕円形_220" data-name="楕円形 220" cx="5.909" cy="5.909" r="5.909" transform="translate(0.976 0.989)" fill="#f7eddc"/>
      <path id="パス_308" data-name="パス 308" d="M-1674.472,1947.626a4.965,4.965,0,0,1-3.21,4.615,4.983,4.983,0,0,1-5.548-1.536,4.962,4.962,0,0,1-.38-5.606,4.955,4.955,0,0,1,5.089-2.318,4.977,4.977,0,0,1,4.049,4.845.993.993,0,0,0,1.984,0,7,7,0,0,0-4.52-6.475,6.928,6.928,0,0,0-7.674,2.052,6.978,6.978,0,0,0-.641,7.95,6.991,6.991,0,0,0,7.25,3.244,6.97,6.97,0,0,0,5.584-6.771A.993.993,0,0,0-1674.472,1947.626Z" transform="translate(1686.274 -1940.728)" fill="#f7eddc"/>
    </g>
    <g id="グループ_84" data-name="グループ 84" transform="translate(-1549.327 2130.524)">
      <circle id="楕円形_221" data-name="楕円形 221" cx="4.782" cy="4.782" r="4.782" transform="translate(0.79 0.801)" fill="#f7eddc"/>
      <path id="パス_309" data-name="パス 309" d="M-1549.33,2089.745a4.017,4.017,0,0,1-2.6,3.735,4.031,4.031,0,0,1-4.49-1.242,4.016,4.016,0,0,1-.307-4.537,4.011,4.011,0,0,1,4.117-1.876,4.029,4.029,0,0,1,3.277,3.92.8.8,0,0,0,1.605,0,5.666,5.666,0,0,0-3.657-5.239,5.606,5.606,0,0,0-6.209,1.66,5.647,5.647,0,0,0-.519,6.434,5.656,5.656,0,0,0,5.867,2.624,5.639,5.639,0,0,0,4.518-5.479A.8.8,0,0,0-1549.33,2089.745Z" transform="translate(1558.88 -2084.164)" fill="#f7eddc"/>
    </g>
    <g id="グループ_85" data-name="グループ 85" transform="translate(-1452.849 2180.664)">
      <circle id="楕円形_222" data-name="楕円形 222" cx="4.782" cy="4.782" r="4.782" transform="translate(0.79 0.8)" fill="#f7eddc"/>
      <path id="パス_310" data-name="パス 310" d="M-1459.181,2128.332a4.017,4.017,0,0,1-2.6,3.735,4.03,4.03,0,0,1-4.488-1.243,4.014,4.014,0,0,1-.308-4.537,4.012,4.012,0,0,1,4.118-1.876,4.027,4.027,0,0,1,3.276,3.92.8.8,0,0,0,1.605,0,5.665,5.665,0,0,0-3.657-5.239,5.605,5.605,0,0,0-6.209,1.66,5.646,5.646,0,0,0-.519,6.434,5.657,5.657,0,0,0,5.867,2.624,5.638,5.638,0,0,0,4.519-5.479A.8.8,0,0,0-1459.181,2128.332Z" transform="translate(1468.731 -2122.751)" fill="#f7eddc"/>
    </g>
    <g id="グループ_86" data-name="グループ 86" transform="translate(-1500.571 2354.9)">
      <circle id="楕円形_223" data-name="楕円形 223" cx="4.782" cy="4.782" r="4.782" transform="translate(0.79 0.8)" fill="#f7eddc"/>
      <path id="パス_311" data-name="パス 311" d="M-1503.773,2262.426a4.016,4.016,0,0,1-2.6,3.734,4.032,4.032,0,0,1-4.49-1.243,4.012,4.012,0,0,1-.307-4.536,4.006,4.006,0,0,1,4.117-1.876,4.026,4.026,0,0,1,3.276,3.92.8.8,0,0,0,1.605,0,5.663,5.663,0,0,0-3.656-5.239,5.6,5.6,0,0,0-6.209,1.66,5.643,5.643,0,0,0-.519,6.433,5.656,5.656,0,0,0,5.866,2.625,5.639,5.639,0,0,0,4.518-5.479A.8.8,0,0,0-1503.773,2262.426Z" transform="translate(1513.323 -2256.844)" fill="#f7eddc"/>
    </g>
    <g id="グループ_87" data-name="グループ 87" transform="translate(-1649.103 2097.385)">
      <circle id="楕円形_224" data-name="楕円形 224" cx="4.782" cy="4.782" r="4.782" transform="translate(0.79 0.8)" fill="#f7eddc"/>
      <path id="パス_312" data-name="パス 312" d="M-1642.56,2064.241a4.017,4.017,0,0,1-2.6,3.734,4.032,4.032,0,0,1-4.489-1.243,4.013,4.013,0,0,1-.307-4.535,4.007,4.007,0,0,1,4.117-1.876,4.028,4.028,0,0,1,3.277,3.92.8.8,0,0,0,1.605,0,5.664,5.664,0,0,0-3.657-5.239,5.6,5.6,0,0,0-6.209,1.66,5.644,5.644,0,0,0-.519,6.433,5.657,5.657,0,0,0,5.867,2.625,5.64,5.64,0,0,0,4.518-5.48A.8.8,0,0,0-1642.56,2064.241Z" transform="translate(1652.11 -2058.659)" fill="#f7eddc"/>
    </g>
    <g id="グループ_88" data-name="グループ 88" transform="translate(-1608.273 2006.624)">
      <circle id="楕円形_225" data-name="楕円形 225" cx="4.782" cy="4.782" r="4.782" transform="translate(0.79 0.8)" fill="#f7eddc"/>
      <path id="パス_313" data-name="パス 313" d="M-1604.409,2007.133a4.015,4.015,0,0,1-2.6,3.734,4.03,4.03,0,0,1-4.488-1.242,4.01,4.01,0,0,1-.307-4.535,4.006,4.006,0,0,1,4.117-1.876,4.026,4.026,0,0,1,3.276,3.92.8.8,0,0,0,1.605,0,5.664,5.664,0,0,0-3.657-5.239,5.6,5.6,0,0,0-6.209,1.66,5.645,5.645,0,0,0-.519,6.433,5.657,5.657,0,0,0,5.867,2.625,5.639,5.639,0,0,0,4.518-5.479A.8.8,0,0,0-1604.409,2007.133Z" transform="translate(1613.959 -2001.551)" fill="#f7eddc"/>
    </g>
    <circle id="楕円形_226" data-name="楕円形 226" cx="8.863" cy="8.863" r="8.863" transform="translate(-1673.982 2222.008)" fill="#fff"/>
    <circle id="楕円形_227" data-name="楕円形 227" cx="4.782" cy="4.782" r="4.782" transform="translate(-1636.174 2270.807)" fill="#fff"/>
    <circle id="楕円形_228" data-name="楕円形 228" cx="4.782" cy="4.782" r="4.782" transform="translate(-1626.61 2330.29)" fill="#fff"/>
    <circle id="楕円形_229" data-name="楕円形 229" cx="6.315" cy="6.315" r="6.315" transform="translate(-1688.953 2294.043)" fill="#fff"/>
    <circle id="楕円形_230" data-name="楕円形 230" cx="8.163" cy="8.163" r="8.163" transform="translate(-1683.546 2185.515)" fill="#fff"/>
    <circle id="楕円形_231" data-name="楕円形 231" cx="8.163" cy="8.163" r="8.163" transform="translate(-1577.392 2068.092)" fill="#fff"/>
    <circle id="楕円形_232" data-name="楕円形 232" cx="9.564" cy="9.564" r="9.564" transform="translate(-1607.483 1993.079)" fill="#fff"/>
    <circle id="楕円形_233" data-name="楕円形 233" cx="6.288" cy="6.288" r="6.288" transform="translate(-1522.568 2105.813)" fill="#fff"/>
    <circle id="楕円形_234" data-name="楕円形 234" cx="5.992" cy="5.992" r="5.992" transform="translate(-1534.902 2209.278)" fill="#fff"/>
    <circle id="楕円形_235" data-name="楕円形 235" cx="5.992" cy="5.992" r="5.992" transform="translate(-1694.944 2117.752)" fill="#fff"/>
    <circle id="楕円形_236" data-name="楕円形 236" cx="6.953" cy="6.953" r="6.953" transform="translate(-1578.983 2268.701)" fill="#fff"/>
    <circle id="楕円形_237" data-name="楕円形 237" cx="8.163" cy="8.163" r="8.163" transform="translate(-1479.966 2211.929)" fill="#fff"/>
    <circle id="楕円形_238" data-name="楕円形 238" cx="4.782" cy="4.782" r="4.782" transform="translate(-1525.984 2287.141)" fill="#fff"/>
    <circle id="楕円形_239" data-name="楕円形 239" cx="9.564" cy="9.564" r="9.564" transform="translate(-1569.229 2341.345)" fill="#fff"/>
    <circle id="楕円形_240" data-name="楕円形 240" cx="8.163" cy="8.163" r="8.163" transform="translate(-1503.162 2342.626)" fill="#fff"/>
    <circle id="楕円形_241" data-name="楕円形 241" cx="4.782" cy="4.782" r="4.782" transform="translate(-1380.153 2231.052)" fill="#fff"/>
    <circle id="楕円形_242" data-name="楕円形 242" cx="4.782" cy="4.782" r="4.782" transform="translate(-1470.587 2266.581)" fill="#fff"/>
    <circle id="楕円形_243" data-name="楕円形 243" cx="4.782" cy="4.782" r="4.782" transform="translate(-1597.22 2162.375)" fill="#fff"/>
    <circle id="楕円形_244" data-name="楕円形 244" cx="9.564" cy="9.564" r="9.564" transform="translate(-1354.172 2194.012)" fill="#fff"/>
    <circle id="楕円形_245" data-name="楕円形 245" cx="9.564" cy="9.564" r="9.564" transform="translate(-1095.698 2505.084)" fill="#fff"/>
    <circle id="楕円形_246" data-name="楕円形 246" cx="9.564" cy="9.564" r="9.564" transform="translate(-1369.318 2459.639)" fill="#fff"/>
    <circle id="楕円形_247" data-name="楕円形 247" cx="7.531" cy="7.531" r="7.531" transform="translate(-1420.378 2348.756)" fill="#fff"/>
    <circle id="楕円形_248" data-name="楕円形 248" cx="7.531" cy="7.531" r="7.531" transform="translate(-1454.808 2401.141)" fill="#fff"/>
    <circle id="楕円形_249" data-name="楕円形 249" cx="5.867" cy="5.867" r="5.867" transform="translate(-1339.951 2271.072)" fill="#fff"/>
    <circle id="楕円形_250" data-name="楕円形 250" cx="8.163" cy="8.163" r="8.163" transform="translate(-1401.198 2291.421)" fill="#fff"/>
    <circle id="楕円形_251" data-name="楕円形 251" cx="4.081" cy="4.081" r="4.081" transform="translate(-1405.902 2303.831)" fill="#fff"/>
    <circle id="楕円形_252" data-name="楕円形 252" cx="8.163" cy="8.163" r="8.163" transform="translate(-1077.319 2340.723)" fill="#fff"/>
    <circle id="楕円形_253" data-name="楕円形 253" cx="8.163" cy="8.163" r="8.163" transform="translate(-494.709 2362.285)" fill="#fff"/>
    <circle id="楕円形_254" data-name="楕円形 254" cx="8.163" cy="8.163" r="8.163" transform="translate(-1103.324 2401.297)" fill="#fff"/>
    <circle id="楕円形_255" data-name="楕円形 255" cx="4.782" cy="4.782" r="4.782" transform="translate(-1219.179 2501.309)" fill="#fff"/>
    <circle id="楕円形_256" data-name="楕円形 256" cx="9.564" cy="9.564" r="9.564" transform="translate(-978.102 2491.745)" fill="#fff"/>
    <circle id="楕円形_257" data-name="楕円形 257" cx="4.782" cy="4.782" r="4.782" transform="translate(-1267.226 2242.657)" fill="#f7eddc"/>
    <circle id="楕円形_258" data-name="楕円形 258" cx="4.782" cy="4.782" r="4.782" transform="translate(-1178.421 2343.276)" fill="#f7eddc"/>
    <circle id="楕円形_259" data-name="楕円形 259" cx="4.782" cy="4.782" r="4.782" transform="translate(-1183.719 2396.75)" fill="#f7eddc"/>
    <circle id="楕円形_260" data-name="楕円形 260" cx="4.782" cy="4.782" r="4.782" transform="translate(-619.383 2242.657)" fill="#f7eddc"/>
    <circle id="楕円形_261" data-name="楕円形 261" cx="4.782" cy="4.782" r="4.782" transform="translate(-1127.354 2309.314)" fill="#f7eddc"/>
    <circle id="楕円形_262" data-name="楕円形 262" cx="8.163" cy="8.163" r="8.163" transform="translate(-1271.799 2395.481)" fill="#f7eddc"/>
    <circle id="楕円形_263" data-name="楕円形 263" cx="6.968" cy="6.968" r="6.968" transform="translate(-1289.973 2478.406)" fill="#f7eddc"/>
    <circle id="楕円形_264" data-name="楕円形 264" cx="6.762" cy="6.762" r="6.762" transform="translate(-1056.309 2467.039)" fill="#fff"/>
    <circle id="楕円形_265" data-name="楕円形 265" cx="3.381" cy="3.381" r="3.381" transform="translate(-1046.638 2475.981)" fill="#fff"/>
    <circle id="楕円形_266" data-name="楕円形 266" cx="4.782" cy="4.782" r="4.782" transform="translate(-848.033 2298.685)" fill="#ccac7d"/>
    <circle id="楕円形_267" data-name="楕円形 267" cx="4.782" cy="4.782" r="4.782" transform="translate(-598.188 2384.316)" fill="#ccac7d"/>
    <circle id="楕円形_268" data-name="楕円形 268" cx="4.782" cy="4.782" r="4.782" transform="translate(-688.236 2292.534)" fill="#ccac7d"/>
    <circle id="楕円形_269" data-name="楕円形 269" cx="4.782" cy="4.782" r="4.782" transform="translate(-340.201 2282.882)" fill="#ccac7d"/>
    <circle id="楕円形_270" data-name="楕円形 270" cx="4.782" cy="4.782" r="4.782" transform="translate(-883.021 2353.73)" fill="#ccac7d"/>
    <circle id="楕円形_271" data-name="楕円形 271" cx="4.782" cy="4.782" r="4.782" transform="translate(-811.854 2408.355)" fill="#ccac7d"/>
    <circle id="楕円形_272" data-name="楕円形 272" cx="9.564" cy="9.564" r="9.564" transform="translate(-1489.714 2132.083)" fill="#f9cf98"/>
    <circle id="楕円形_273" data-name="楕円形 273" cx="4.782" cy="4.782" r="4.782" transform="translate(-1274.666 2285.046)" fill="#f9cf98"/>
    <circle id="楕円形_274" data-name="楕円形 274" cx="4.782" cy="4.782" r="4.782" transform="translate(-1099.881 2519.43)" fill="#f9cf98"/>
    <circle id="楕円形_275" data-name="楕円形 275" cx="9.564" cy="9.564" r="9.564" transform="translate(-613.296 2237.921)" fill="#f9cf98"/>
    <circle id="楕円形_276" data-name="楕円形 276" cx="9.564" cy="9.564" r="9.564" transform="translate(-985.508 2326.434)" fill="#f9cf98"/>
    <circle id="楕円形_277" data-name="楕円形 277" cx="9.564" cy="9.564" r="9.564" transform="translate(-613.296 2182.367)" fill="#f9cf98"/>
    <circle id="楕円形_278" data-name="楕円形 278" cx="6.762" cy="6.762" r="6.762" transform="translate(-423.706 2414.367)" fill="#f9cf98"/>
    <circle id="楕円形_279" data-name="楕円形 279" cx="9.272" cy="9.272" r="9.272" transform="translate(-297.941 2373.74)" fill="#f9cf98"/>
    <circle id="楕円形_280" data-name="楕円形 280" cx="9.564" cy="9.564" r="9.564" transform="translate(-742.861 2349.38)" fill="#f9cf98"/>
    <circle id="楕円形_281" data-name="楕円形 281" cx="4.782" cy="4.782" r="4.782" transform="translate(-1544.465 2369.374)" fill="#f9cf98"/>
    <circle id="楕円形_282" data-name="楕円形 282" cx="9.564" cy="9.564" r="9.564" transform="translate(-887.732 2237.056)" fill="#fff"/>
    <circle id="楕円形_283" data-name="楕円形 283" cx="9.564" cy="9.564" r="9.564" transform="translate(-917.268 2420.183)" fill="#fff"/>
    <circle id="楕円形_284" data-name="楕円形 284" cx="4.782" cy="4.782" r="4.782" transform="translate(-986.947 2400.149)" fill="#fff"/>
    <circle id="楕円形_285" data-name="楕円形 285" cx="9.564" cy="9.564" r="9.564" transform="translate(-797.361 2208.809)" fill="#fff"/>
    <circle id="楕円形_286" data-name="楕円形 286" cx="9.564" cy="9.564" r="9.564" transform="translate(-732.255 2339.44)" fill="#fff"/>
    <circle id="楕円形_287" data-name="楕円形 287" cx="4.782" cy="4.782" r="4.782" transform="translate(-682.937 2184.255)" fill="#fff"/>
    <circle id="楕円形_288" data-name="楕円形 288" cx="4.782" cy="4.782" r="4.782" transform="translate(-744.609 2276.807)" fill="#fff"/>
    <circle id="楕円形_289" data-name="楕円形 289" cx="4.782" cy="4.782" r="4.782" transform="translate(-509.06 2299.637)" fill="#fff"/>
    <circle id="楕円形_290" data-name="楕円形 290" cx="9.564" cy="9.564" r="9.564" transform="translate(-550.328 2182.367)" fill="#fff"/>
    <circle id="楕円形_291" data-name="楕円形 291" cx="6.762" cy="6.762" r="6.762" transform="translate(-446.795 2219.86)" fill="#fff"/>
    <circle id="楕円形_292" data-name="楕円形 292" cx="6.762" cy="6.762" r="6.762" transform="translate(-367.807 2240.695)" fill="#fff"/>
    <circle id="楕円形_293" data-name="楕円形 293" cx="9.564" cy="9.564" r="9.564" transform="translate(-459.159 2260.346)" fill="#fff"/>
    <circle id="楕円形_294" data-name="楕円形 294" cx="7.505" cy="7.505" r="7.505" transform="translate(-379.426 2366.189)" fill="#fff"/>
    <circle id="楕円形_295" data-name="楕円形 295" cx="8.163" cy="8.163" r="8.163" transform="translate(-343.582 2460.152)" fill="#fff"/>
    <circle id="楕円形_296" data-name="楕円形 296" cx="6.417" cy="6.417" r="6.417" transform="translate(-270.016 2478.956)" fill="#fff"/>
    <circle id="楕円形_297" data-name="楕円形 297" cx="4.782" cy="4.782" r="4.782" transform="translate(-811.854 2402.553)" fill="#fff"/>
    <circle id="楕円形_298" data-name="楕円形 298" cx="8.163" cy="8.163" r="8.163" transform="translate(-1245.856 2296.704)" fill="#fff"/>
    <circle id="楕円形_299" data-name="楕円形 299" cx="8.163" cy="8.163" r="8.163" transform="translate(-1348.877 2360.582)" fill="#fff"/>
    <circle id="楕円形_300" data-name="楕円形 300" cx="9.564" cy="9.564" r="9.564" transform="translate(-1193.952 2380.904)" fill="#fff"/>
    <circle id="楕円形_301" data-name="楕円形 301" cx="5.535" cy="5.535" r="5.535" transform="translate(-1354.455 2455.93)" fill="#fff"/>
    <path id="パス_314" data-name="パス 314" d="M-1230.668,2401.552l-2.213-5.944-6.151-1.546,4.969-3.941-.43-6.328,5.284,3.507,5.885-2.364-1.7,6.109,4.067,4.866-6.337.268Z" transform="translate(85.128 137.476)" fill="#f9cc8a"/>
    <path id="パス_315" data-name="パス 315" d="M-496.261,2226.625l-2.213-5.944-6.151-1.546,4.969-3.942-.43-6.328,5.284,3.508,5.885-2.365-1.7,6.11,4.067,4.866-6.337.268Z" transform="translate(222.955 84.563)" fill="#f9cc8a"/>
    <path id="パス_316" data-name="パス 316" d="M-785.377,2261.123l-2.213-5.944-6.151-1.546,4.969-3.942-.43-6.328,5.284,3.508,5.885-2.365-1.7,6.109,4.067,4.866-6.337.268Z" transform="translate(168.272 94.998)" fill="#f9cc8a"/>
    <path id="パス_317" data-name="パス 317" d="M-920.856,2171.778l-2.213-5.944-6.151-1.546,4.969-3.941-.43-6.328,5.284,3.507,5.885-2.365-1.7,6.109,4.067,4.866-6.337.268Z" transform="translate(142.976 67.973)" fill="#f9cc8a"/>
    <path id="パス_318" data-name="パス 318" d="M-1374.376,2231.123l-2.213-5.944-6.151-1.546,4.969-3.941-.43-6.328,5.284,3.507,5.885-2.364-1.7,6.109,4.067,4.866-6.337.268Z" transform="translate(58.295 85.924)" fill="#f9cc8a"/>
    <path id="パス_319" data-name="パス 319" d="M-1088.323,2371.861l-2.213-5.944-6.151-1.546,4.969-3.942-.43-6.328,5.284,3.508,5.885-2.365-1.7,6.109,4.067,4.866-6.337.268Z" transform="translate(111.706 135.391)" fill="#f9cc8a"/>
    <path id="パス_320" data-name="パス 320" d="M-1282.39,2285.314l-2.213-5.944-6.151-1.546,4.969-3.942-.43-6.328,5.284,3.508,5.885-2.365-1.7,6.11,4.067,4.866-6.337.268Z" transform="translate(75.47 102.316)" fill="#f9cc8a"/>
    <path id="パス_321" data-name="パス 321" d="M-1420.654,2308.419l-2.213-5.944-6.151-1.546,4.969-3.942-.43-6.327,5.284,3.507,5.885-2.365-1.7,6.109,4.067,4.866-6.337.268Z" transform="translate(49.654 109.304)" fill="#f9cc8a"/>
    <path id="パス_322" data-name="パス 322" d="M-1590.8,2244.154l-2.213-5.944-6.151-1.546,4.969-3.941-.43-6.328,5.284,3.508,5.885-2.365-1.7,6.11,4.067,4.866-6.337.268Z" transform="translate(6.725 89.866)" fill="#f9cc8a"/>
    <path id="パス_323" data-name="パス 323" d="M-1523.361,2129.393l-1.449-3.89-4.026-1.012,3.252-2.58-.281-4.142,3.458,2.3,3.852-1.548-1.115,4,2.662,3.185-4.147.176Z" transform="translate(11.662 56.463)" fill="#f9cc8a"/>
    <path id="パス_324" data-name="パス 324" d="M-1585.563,2174.9l-1.107-2.972-3.075-.773,2.484-1.971-.215-3.164,2.642,1.754,2.943-1.182-.851,3.055,2.034,2.433-3.168.134Z" transform="translate(7.386 70.617)" fill="#f9cc8a"/>
    <path id="パス_325" data-name="パス 325" d="M-526.856,2251.059l-4.487-3.011-5.024,1.989,1.477-5.2-3.445-4.163,5.4-.2,2.9-4.563,1.86,5.074,5.234,1.344-4.25,3.337Z" transform="translate(220.588 92.364)" fill="#f9cc8a"/>
    <path id="パス_326" data-name="パス 326" d="M-489.446,2364.833l-4.487-3.011-5.024,1.99,1.477-5.2-3.445-4.163,5.4-.2,2.9-4.563,1.86,5.073,5.234,1.344-4.25,3.337Z" transform="translate(223.214 135.081)" fill="#f9cc8a"/>
    <path id="パス_327" data-name="パス 327" d="M-1646.791,1960.765l-4.487-3.011-5.024,1.989,1.477-5.2-3.445-4.164,5.4-.2,2.9-4.562,1.86,5.073,5.234,1.344-4.25,3.337Z" transform="translate(2.575 1.145)" fill="#f9cc8a"/>
    <path id="パス_328" data-name="パス 328" d="M-1445.839,2224.1l-4.487-3.011-5.024,1.99,1.477-5.2-3.445-4.164,5.4-.2,2.9-4.563,1.86,5.073,5.234,1.344-4.25,3.337Z" transform="translate(44.312 84.242)" fill="#f9cc8a"/>
    <path id="パス_329" data-name="パス 329" d="M-608.312,2217.021l-4.487-3.011-5.024,1.989,1.477-5.2-3.445-4.164,5.4-.2,2.9-4.563,1.86,5.074,5.234,1.344-4.25,3.337Z" transform="translate(214.869 82.11)" fill="#f9cc8a"/>
    <path id="パス_330" data-name="パス 330" d="M-550.559,2350.011l-4.487-3.011-5.024,1.99,1.477-5.2-3.445-4.164,5.4-.2,2.9-4.563,1.86,5.073,5.234,1.344-4.25,3.337Z" transform="translate(218.924 134.04)" fill="#f9cc8a"/>
    <path id="パス_331" data-name="パス 331" d="M-1669.391,2174.2l-4.487-3.011-5.024,1.99,1.477-5.2-3.445-4.163,5.4-.2,2.9-4.562,1.86,5.073,5.234,1.344-4.25,3.337Z" transform="translate(0.988 69.211)" fill="#f9cc8a"/>
    <path id="パス_332" data-name="パス 332" d="M-1544.917,2079.022l-4.487-3.011-5.024,1.99,1.477-5.2-3.445-4.164,5.4-.2,2.9-4.563,1.86,5.073,5.234,1.344-4.25,3.337Z" transform="translate(9.727 40.539)" fill="#f9cc8a"/>
    <path id="パス_333" data-name="パス 333" d="M-1131.181,2400.161l-4.487-3.011-5.024,1.99,1.477-5.2-3.445-4.164,5.4-.2,2.9-4.563,1.86,5.073,5.234,1.344-4.25,3.337Z" transform="translate(102.988 137.561)" fill="#f9cc8a"/>
    <path id="パス_334" data-name="パス 334" d="M-1651.881,2121.316l-4.487-3.011-5.024,1.99,1.477-5.2-3.445-4.164,5.4-.2,2.9-4.563,1.86,5.073,5.234,1.344-4.25,3.337Z" transform="translate(2.218 53.28)" fill="#f9cc8a"/>
    <path id="パス_335" data-name="パス 335" d="M-1677.529,2025.554l-4.752-3.189-5.321,2.107,1.564-5.5-3.648-4.409,5.719-.214,3.066-4.832,1.97,5.373,5.543,1.423-4.5,3.534Z" transform="translate(0.369 24.197)" fill="#f9cc8a"/>
    <circle id="楕円形_302" data-name="楕円形 302" cx="8.681" cy="8.681" r="8.681" transform="translate(-1182.438 2290.752)" fill="#fff" opacity="0.5"/>
    <circle id="楕円形_303" data-name="楕円形 303" cx="14.741" cy="14.741" r="14.741" transform="translate(-1605.048 2234.635)" fill="#fff" opacity="0.5"/>
    <circle id="楕円形_304" data-name="楕円形 304" cx="15.576" cy="15.576" r="15.576" transform="translate(-1244.508 2482.797)" fill="#fff" opacity="0.5"/>
    <circle id="楕円形_305" data-name="楕円形 305" cx="15.576" cy="15.576" r="15.576" transform="translate(-1067.549 2343.935)" fill="#fff" opacity="0.5"/>
    <circle id="楕円形_306" data-name="楕円形 306" cx="15.576" cy="15.576" r="15.576" transform="translate(-858.606 2350.659)" fill="#fff" opacity="0.5"/>
    <circle id="楕円形_307" data-name="楕円形 307" cx="15.576" cy="15.576" r="15.576" transform="translate(-669.578 2221.189)" fill="#fff" opacity="0.5"/>
    <circle id="楕円形_308" data-name="楕円形 308" cx="15.576" cy="15.576" r="15.576" transform="translate(-420.497 2379.486)" fill="#fff" opacity="0.5"/>
    <circle id="楕円形_309" data-name="楕円形 309" cx="7.788" cy="7.788" r="7.788" transform="translate(-359.158 2311.668)" fill="#fff" opacity="0.5"/>
    <circle id="楕円形_310" data-name="楕円形 310" cx="7.788" cy="7.788" r="7.788" transform="translate(-582.49 2345.178)" fill="#fff" opacity="0.5"/>
    <circle id="楕円形_311" data-name="楕円形 311" cx="7.788" cy="7.788" r="7.788" transform="translate(-850.978 2375.063)" fill="#fff" opacity="0.5"/>
    <circle id="楕円形_312" data-name="楕円形 312" cx="7.788" cy="7.788" r="7.788" transform="translate(-1125.126 2468.69)" fill="#fff" opacity="0.5"/>
    <circle id="楕円形_313" data-name="楕円形 313" cx="7.788" cy="7.788" r="7.788" transform="translate(-1487.939 2381.645)" fill="#fff" opacity="0.5"/>
    <circle id="楕円形_314" data-name="楕円形 314" cx="7.788" cy="7.788" r="7.788" transform="translate(-1388.059 2172.179)" fill="#fff" opacity="0.5"/>
    <circle id="楕円形_315" data-name="楕円形 315" cx="7.788" cy="7.788" r="7.788" transform="translate(-904.908 2299.022)" fill="#fff" opacity="0.5"/>
    <circle id="楕円形_316" data-name="楕円形 316" cx="7.788" cy="7.788" r="7.788" transform="translate(-814.782 2299.022)" fill="#fff" opacity="0.5"/>
    <circle id="楕円形_317" data-name="楕円形 317" cx="10.635" cy="10.635" r="10.635" transform="translate(-1363.284 2308.015)" fill="#fff" opacity="0.5"/>
  </g>
</svg>
