<svg xmlns="http://www.w3.org/2000/svg" width="30" height="30" viewBox="0 0 30 30">
  <path id="twitter" d="M15,30A15,15,0,0,1,9.161,1.179,15,15,0,0,1,20.839,28.821,14.906,14.906,0,0,1,15,30ZM5.051,21.251h0a11.553,11.553,0,0,0,6.263,1.83,11.752,11.752,0,0,0,4.977-1.055A10.978,10.978,0,0,0,19.928,19.3a11.968,11.968,0,0,0,2.231-3.736,11.8,11.8,0,0,0,.758-4.088c0-.174,0-.354-.012-.53A8.727,8.727,0,0,0,24.95,8.838a8.16,8.16,0,0,1-2.348.631,4.062,4.062,0,0,0,1.793-2.247,8.074,8.074,0,0,1-2.589.984A4.082,4.082,0,0,0,14.747,11a4.606,4.606,0,0,0,.1.935A11.622,11.622,0,0,1,6.439,7.664a4.03,4.03,0,0,0-.556,2.058,4.076,4.076,0,0,0,1.818,3.4A4.124,4.124,0,0,1,5.858,12.6v.05a4.079,4.079,0,0,0,3.271,4,4.278,4.278,0,0,1-1.074.139,5.11,5.11,0,0,1-.77-.063A4.086,4.086,0,0,0,11.1,19.558,8.127,8.127,0,0,1,6.035,21.3,8.369,8.369,0,0,1,5.051,21.251Z" fill="#f7eddc" opacity="0.996"/>
</svg>
